<?xml version="1.0" encoding="UTF-8"?>
<svg width="19px" height="20px" viewBox="0 0 19 20" version="1.1" xmlns="http://www.w3.org/2000/svg" xmlns:xlink="http://www.w3.org/1999/xlink">
    <!-- Generator: Sketch 42 (36781) - http://www.bohemiancoding.com/sketch -->
    <title>Avatar Icon</title>
    <desc>Created with Sketch.</desc>
    <defs></defs>
    <g id="Symbols" stroke="none" stroke-width="1" fill="none" fill-rule="evenodd">
        <g id="header" transform="translate(-11.000000, -10.000000)" fill="#FCAB88">
            <g id="icons/light/avatar">
                <g transform="translate(8.000000, 8.000000)">
                    <g id="Avatar" transform="translate(3.000000, 2.000000)">
                        <path d="M17.0625,16.711 C15.7495,15.923 13.8985,15.747 12.6735,15.631 C12.6095,15.624 12.5465,15.618 12.4885,15.613 C12.4135,15.123 12.3135,14.466 12.2395,13.972 C13.2905,12.869 13.9575,11.151 13.9575,9.183 L13.9575,8.269 C13.9575,7.758 13.5425,7.344 13.0325,7.344 C12.5215,7.344 12.1075,7.758 12.1075,8.269 L12.1075,9.183 C12.1075,11.473 10.8795,13.407 9.4275,13.407 C7.9755,13.407 6.7485,11.473 6.7485,9.183 L6.7485,8.023 C7.1065,8.065 7.5295,8.099 8.0085,8.099 C9.6105,8.099 11.7575,7.724 13.5715,5.985 L12.2915,4.649 C10.1645,6.689 7.3705,6.261 6.3215,6.1 C6.0835,6.063 5.9125,6.044 5.8235,6.044 C5.3125,6.044 4.8985,6.458 4.8985,6.969 L4.8985,9.183 C4.8985,11.148 5.5625,12.862 6.6105,13.966 C6.5375,14.459 6.4385,15.12 6.3655,15.613 C6.3065,15.619 6.2455,15.624 6.1815,15.631 C4.9575,15.747 3.1065,15.923 1.7925,16.711 C0.5535,17.454 0.0005,18.821 0.0005,19.848 L1.8495,19.848 C1.8495,19.456 2.0925,18.689 2.7445,18.297 C3.6985,17.725 5.3635,17.566 6.3575,17.472 C6.7105,17.439 7.0105,17.407 7.2275,17.371 C7.8495,17.424 7.9705,17.284 8.3135,15.071 C8.6695,15.189 9.0415,15.257 9.4275,15.257 C9.8125,15.257 10.1825,15.189 10.5375,15.073 C10.8845,17.278 11.0005,17.407 11.6285,17.372 C11.8445,17.407 12.1445,17.439 12.4985,17.472 C13.4925,17.566 15.1575,17.725 16.1115,18.297 C16.7625,18.689 17.0055,19.456 17.0055,19.848 L18.8555,19.848 C18.8555,18.821 18.3015,17.454 17.0625,16.711" id="Fill-3"></path>
                        <path d="M1.7393,16.1192 C2.0373,16.1192 2.3293,15.9762 2.5083,15.7112 C3.3083,14.5212 3.3353,12.8942 3.3653,11.0112 C3.3963,9.0682 3.4313,6.8682 4.4103,5.0232 C5.0383,3.8382 6.5283,1.8492 9.4493,1.8492 C10.9713,1.8492 12.2303,2.3492 13.1893,3.3362 C14.7133,4.9042 15.2023,7.3732 15.1513,9.1602 C15.0523,12.6502 15.3843,14.6032 16.2293,15.4932 C16.5843,15.8642 17.1683,15.8802 17.5373,15.5272 C17.9083,15.1752 17.9233,14.5902 17.5713,14.2202 C17.4553,14.0982 16.8843,13.2842 17.0013,9.2132 C17.0803,6.4082 16.1513,3.7292 14.5153,2.0472 C13.1953,0.6882 11.4903,0.0002 9.4493,0.0002 C5.5593,0.0002 3.5983,2.6042 2.7753,4.1562 C1.5903,6.3942 1.5503,8.8312 1.5153,10.9802 C1.4913,12.5042 1.4683,13.9422 0.9723,14.6782 C0.6873,15.1012 0.8003,15.6772 1.2233,15.9622 C1.3823,16.0682 1.5613,16.1192 1.7393,16.1192" id="Fill-1"></path>
                    </g>
                </g>
            </g>
        </g>
    </g>
</svg>