<svg width="21" height="19" viewBox="0 0 21 19" xmlns="http://www.w3.org/2000/svg">
    <title>
        icons/check
    </title>
    <g fill="#0FBFBF" fill-rule="evenodd">
        <path d="M14.65 6.552c-.065-.002-1.619-.056-4.25 0-3.492.078-4.649-.171-4.69-.18a.924.924 0 0 0-.457 1.792c.11.03 1.06.254 3.854.254.404 0 .848-.005 1.333-.015 2.573-.057 4.127-.002 4.143-.001.47.015.938-.381.958-.892a.927.927 0 0 0-.892-.958"/>
        <path d="M7.92 16.72c-1.405 0-3.116-.287-4.317-.551.408-.352.82-.765 1.092-1.21.052-.08.482-.791-.381-1.362-.255-.17-.933-.618-1.452-1.3-1.395-1.833-1.362-5.171.072-7.143C4.122 3.52 5.914 1.85 10.2 1.85c4.079 0 8.195 2.357 8.195 7.623 0 5.006-5.262 7.247-10.476 7.247M10.2 0C6.186 0 3.484 1.254 1.439 4.066c-1.9 2.61-1.92 6.893-.047 9.352.38.498.804.895 1.177 1.195-.29.266-.616.518-.87.713-.546.422-.876.676-.914 1.165a.99.99 0 0 0 .258.732c.562.595 4.748 1.347 6.878 1.347 7.372 0 12.325-3.656 12.325-9.097C20.245 2.963 15.039 0 10.2 0"/>
        <path d="M12.412 10.371c-.596.092-.793.121-2.717.07-2.246-.062-2.703-.05-3.187-.038l-.336.008a.924.924 0 0 0 .013 1.85H6.2l.358-.008c.46-.012.891-.024 3.087.037a52.12 52.12 0 0 0 1.46.025c.782 0 1.091-.039 1.59-.116a.925.925 0 1 0-.282-1.828"/>
    </g>
</svg>
