<?xml version="1.0" encoding="UTF-8"?>
<svg width="80px" height="919px" viewBox="0 0 80 919" version="1.1" xmlns="http://www.w3.org/2000/svg" xmlns:xlink="http://www.w3.org/1999/xlink">
    <!-- Generator: Sketch 56.3 (81716) - https://sketch.com -->
    <title>icons@2x</title>
    <desc>Created with Sketch.</desc>
    <g id="Page-1" stroke="none" stroke-width="1" fill="none" fill-rule="evenodd">
        <g id="icons">
            <g id="avatar" transform="translate(29.000000, 0.000000)" fill="#FCAB88" fill-rule="nonzero">
                <path d="M17.0625,16.711 C15.7495,15.923 13.8985,15.747 12.6735,15.631 C12.6095,15.624 12.5465,15.618 12.4885,15.613 C12.4135,15.123 12.3135,14.466 12.2395,13.972 C13.2905,12.869 13.9575,11.151 13.9575,9.183 L13.9575,8.269 C13.9575,7.758 13.5425,7.344 13.0325,7.344 C12.5215,7.344 12.1075,7.758 12.1075,8.269 L12.1075,9.183 C12.1075,11.473 10.8795,13.407 9.4275,13.407 C7.9755,13.407 6.7485,11.473 6.7485,9.183 L6.7485,8.023 C7.1065,8.065 7.5295,8.099 8.0085,8.099 C9.6105,8.099 11.7575,7.724 13.5715,5.985 L12.2915,4.649 C10.1645,6.689 7.3705,6.261 6.3215,6.1 C6.0835,6.063 5.9125,6.044 5.8235,6.044 C5.3125,6.044 4.8985,6.458 4.8985,6.969 L4.8985,9.183 C4.8985,11.148 5.5625,12.862 6.6105,13.966 C6.5375,14.459 6.4385,15.12 6.3655,15.613 C6.3065,15.619 6.2455,15.624 6.1815,15.631 C4.9575,15.747 3.1065,15.923 1.7925,16.711 C0.5535,17.454 0.0005,18.821 0.0005,19.848 L1.8495,19.848 C1.8495,19.456 2.0925,18.689 2.7445,18.297 C3.6985,17.725 5.3635,17.566 6.3575,17.472 C6.7105,17.439 7.0105,17.407 7.2275,17.371 C7.8495,17.424 7.9705,17.284 8.3135,15.071 C8.6695,15.189 9.0415,15.257 9.4275,15.257 C9.8125,15.257 10.1825,15.189 10.5375,15.073 C10.8845,17.278 11.0005,17.407 11.6285,17.372 C11.8445,17.407 12.1445,17.439 12.4985,17.472 C13.4925,17.566 15.1575,17.725 16.1115,18.297 C16.7625,18.689 17.0055,19.456 17.0055,19.848 L18.8555,19.848 C18.8555,18.821 18.3015,17.454 17.0625,16.711" id="Fill-3"></path>
                <path d="M1.7393,16.1192 C2.0373,16.1192 2.3293,15.9762 2.5083,15.7112 C3.3083,14.5212 3.3353,12.8942 3.3653,11.0112 C3.3963,9.0682 3.4313,6.8682 4.4103,5.0232 C5.0383,3.8382 6.5283,1.8492 9.4493,1.8492 C10.9713,1.8492 12.2303,2.3492 13.1893,3.3362 C14.7133,4.9042 15.2023,7.3732 15.1513,9.1602 C15.0523,12.6502 15.3843,14.6032 16.2293,15.4932 C16.5843,15.8642 17.1683,15.8802 17.5373,15.5272 C17.9083,15.1752 17.9233,14.5902 17.5713,14.2202 C17.4553,14.0982 16.8843,13.2842 17.0013,9.2132 C17.0803,6.4082 16.1513,3.7292 14.5153,2.0472 C13.1953,0.6882 11.4903,0.0002 9.4493,0.0002 C5.5593,0.0002 3.5983,2.6042 2.7753,4.1562 C1.5903,6.3942 1.5503,8.8312 1.5153,10.9802 C1.4913,12.5042 1.4683,13.9422 0.9723,14.6782 C0.6873,15.1012 0.8003,15.6772 1.2233,15.9622 C1.3823,16.0682 1.5613,16.1192 1.7393,16.1192" id="Fill-1"></path>
            </g>
            <g id="bbm-share" transform="translate(5.000000, 787.000000)" fill-rule="nonzero">
                <path d="M28.5958603,14.8602846 C30.5165589,14.8602846 32.0188875,13.7953428 32.0188875,11.8556274 C32.0188875,10.1821475 30.7447607,9.49754204 29.3184994,8.77490298 C28.1584735,8.18538163 27.3597671,7.86209573 27.3597671,7.21552393 C27.3597671,6.60698577 27.8351876,6.2076326 28.6338939,6.2076326 C29.3755498,6.2076326 30.2503234,6.51190168 31.0870634,7.00633894 L31.7336352,5.33285899 C30.8208279,4.76235446 29.6988357,4.43906856 28.6529107,4.43906856 C26.7702458,4.43906856 25.3439845,5.54204398 25.3439845,7.36765847 C25.3439845,9.07917206 26.6751617,9.78279431 28.0633894,10.4293661 C29.2043984,10.9808538 30.0221216,11.2851229 30.0221216,11.9887451 C30.0221216,12.6733506 29.4706339,13.0917206 28.6148771,13.0917206 C27.7210867,13.0917206 26.7131953,12.7113842 25.7433376,12.0267788 L25.0206986,13.6622251 C26.0856404,14.4419146 27.3978008,14.8602846 28.5958603,14.8602846 Z M33.9776197,14.6701164 L36.1265201,14.6701164 L36.1265201,8.5847348 C36.1265201,7.19650712 36.9252264,6.34075032 38.0662354,6.34075032 C39.2072445,6.34075032 39.8538163,7.13945666 39.8538163,8.52768435 L39.8538163,14.6701164 L42.0217335,14.6701164 L42.0217335,7.938163 C42.0217335,5.80827943 40.8807245,4.40103493 38.8839586,4.40103493 C37.5147477,4.40103493 36.7160414,5.18072445 36.1265201,6.07451488 L36.1265201,0.939974127 L33.9776197,0.939974127 L33.9776197,14.6701164 Z M46.9280724,14.8602846 C45.2545925,14.8602846 43.8093144,13.7382924 43.8093144,11.798577 L43.8093144,11.6844761 C43.8093144,9.51655886 45.2926261,8.45161708 47.4225097,8.45161708 C48.3923674,8.45161708 49.0769728,8.60375162 49.7425614,8.85097025 L49.7425614,8.45161708 C49.7425614,7.10142303 48.9818887,6.37878396 47.5366106,6.37878396 C46.5667529,6.37878396 45.825097,6.60698577 45.0073739,6.94928849 L44.5890039,5.18072445 C45.5398448,4.74333765 46.4906856,4.4771022 47.8598965,4.4771022 C50.5032342,4.4771022 51.8534282,5.8843467 51.8534282,8.41358344 L51.8534282,14.6701164 L49.7425614,14.6701164 L49.7425614,13.4340233 C49.1340233,14.2707633 48.2402329,14.8602846 46.9280724,14.8602846 Z M47.5746442,13.2438551 C48.8297542,13.2438551 49.7615783,12.4451488 49.7615783,11.3041397 L49.7615783,10.2772316 C49.2861578,10.0680466 48.6205692,9.91591203 47.8789133,9.91591203 C46.6428202,9.91591203 45.9201811,10.5244502 45.9201811,11.5703752 L45.9201811,11.6844761 C45.9201811,12.6923674 46.6238034,13.2438551 47.5746442,13.2438551 Z M59.4221216,6.77813713 L59.4221216,4.43906856 C57.8817594,4.38201811 56.9119017,5.25679172 56.360414,6.56895213 L56.360414,4.5912031 L54.2115136,4.5912031 L54.2115136,14.6701164 L56.360414,14.6701164 L56.360414,10.2391979 C56.360414,7.91914618 57.5584735,6.77813713 59.3080207,6.77813713 L59.4221216,6.77813713 Z M65.2983182,14.8793014 C62.712031,14.8793014 60.6582147,12.9015524 60.6582147,9.74476067 L60.6582147,9.59262613 C60.6582147,6.56895213 62.5028461,4.42005175 64.9940492,4.42005175 C67.7324709,4.42005175 69.1967658,6.70206986 69.1967658,9.70672704 C69.1967658,9.95394567 69.1967658,10.2201811 69.177749,10.4673997 L62.826132,10.4673997 C63.0353169,12.1979301 64.0812419,13.0536869 65.3743855,13.0536869 C66.3822768,13.0536869 67.0668823,12.7113842 67.8085382,12.007762 L68.8164295,13.357956 C67.9226391,14.3087969 66.8386805,14.8793014 65.2983182,14.8793014 Z M62.8071151,8.96507115 L67.0858991,8.96507115 C66.990815,7.34864166 66.2491591,6.2076326 64.9940492,6.2076326 C63.8150065,6.2076326 62.9592497,7.23454075 62.8071151,8.96507115 Z" id="share" fill="#008BC0"></path>
                <g id="BBM_Social-Media-Icon_Add-Us">
                    <path d="M19.7530202,3.71280724 L19.7530202,12.5902402 C19.7530202,14.3026177 18.3693186,15.6906718 16.6623105,15.6906718 L7.40205726,15.6906718 L5.88615783,17.0103813 L14.9002981,17.0103813 L18.5565207,20.1940492 L18.5596459,16.987025 C19.9408473,16.8109906 21.0090556,15.6282838 21.0090556,14.1946144 L21.0090556,6.0594103 C21.0090556,5.0793861 20.5102667,4.21708393 19.7530202,3.71280724" id="Fill-1" fill="#008BC0"></path>
                    <path d="M16.6496084,15.6960281 C18.3566395,15.6960281 19.7412678,14.3175175 19.7412678,12.6162907 L19.7412678,3.07973741 C19.7412678,1.37851058 18.3566395,0 16.6496084,0 L3.09103423,0 C1.38384692,0 0,1.37851058 0,3.07973741 L0,12.6162907 C0,14.1872168 1.18037219,15.4824407 2.70612007,15.6708086 L2.71002703,19.7412678 L7.38822663,15.6960281 L16.6496084,15.6960281" id="Fill-2" fill="#AAB0B0"></path>
                    <path d="M16.5554135,0.905562743 L3.09545391,0.905562743 C1.88641578,0.905562743 0.905562743,1.89096648 0.905562743,3.10561398 L0.905562743,12.6564983 C0.905562743,13.8716156 1.88641578,14.856393 3.09545391,14.856393 L3.63552316,14.856393 L3.6387963,17.7490298 L6.95542934,14.856393 L16.5554135,14.856393 C17.7649192,14.856393 18.7451488,13.8716156 18.7451488,12.6564983 L18.7451488,3.10561398 C18.7451488,1.89096648 17.7649192,0.905562743 16.5554135,0.905562743" id="Fill-3" fill="#000000"></path>
                    <path d="M7.87839586,4.66921236 C7.87839586,4.28673031 7.64412182,3.80336352 6.65790367,3.80336352 L5.14047542,3.80336352 L4.70892626,5.79560155 L6.29122071,5.79560155 C7.52666991,5.79560155 7.87839586,5.21182144 7.87839586,4.66921236" id="Fill-4" fill="#FFFFFE"></path>
                    <path d="M11.9534282,4.66921236 C11.9534282,4.28673031 11.7196794,3.80336352 10.7336502,3.80336352 L9.21554327,3.80336352 L8.7839586,5.79560155 L10.3660157,5.79560155 C11.602175,5.79560155 11.9534282,5.21182144 11.9534282,4.66921236" id="Fill-5" fill="#FFFFFE"></path>
                    <path d="M7.33505821,7.65827973 C7.33505821,7.27603888 7.10078417,6.79172057 6.11456602,6.79172057 L4.59698034,6.79172057 L4.16558862,8.7839586 L5.74709585,8.7839586 C6.98317482,8.7839586 7.33505821,8.19929029 7.33505821,7.65827973" id="Fill-6" fill="#FFFFFE"></path>
                    <path d="M11.4100906,7.65827973 C11.4100906,7.27603888 11.1751867,6.79172057 10.1908579,6.79172057 L8.67264245,6.79172057 L8.24062096,8.7839586 L9.82275796,8.7839586 C11.0583646,8.7839586 11.4100906,8.19929029 11.4100906,7.65827973" id="Fill-7" fill="#FFFFFE"></path>
                    <path d="M15.6662354,6.39049189 C15.6662354,6.00825104 15.4311742,5.52393273 14.446373,5.52393273 L12.9287873,5.52393273 L12.4967658,7.51617076 L14.0781156,7.51617076 C15.3143521,7.51617076 15.6662354,6.93275879 15.6662354,6.39049189" id="Fill-8" fill="#FFFFFE"></path>
                    <path d="M15.0323415,9.56022159 C15.0323415,9.17695983 14.7980209,8.69340233 13.8122367,8.69340233 L12.2943494,8.69340233 L11.8628719,10.6856404 L13.4446935,10.6856404 C14.6810181,10.6856404 15.0323415,10.1010011 15.0323415,9.56022159" id="Fill-9" fill="#FFFFFE"></path>
                    <path d="M10.8667529,10.828651 C10.8667529,10.4450329 10.6322748,9.96119017 9.64790784,9.96119017 L8.12876077,9.96119017 L7.69728331,11.9534282 L9.27910485,11.9534282 C10.5154295,11.9534282 10.8667529,11.3698322 10.8667529,10.828651" id="Fill-10" fill="#FFFFFE"></path>
                </g>
            </g>
            <g id="bbm" transform="translate(27.000000, 712.000000)" fill="#7300FF">
                <path d="M21.849,24.38 C21.7547656,24.3800002 21.6611763,24.3644583 21.572,24.334 C21.482,24.302 19.371,23.546 18.074,22.484 C17.5117966,22.0237633 17.0137096,21.4903629 16.593,20.898 C15.54,20.932 12.973,21.007 11.015,20.965 C10.7910409,20.9592463 10.5785834,20.8645816 10.4245424,20.7019097 C10.2705013,20.5392378 10.1875479,20.3219401 10.194,20.098 C10.1968971,19.8742408 10.2886425,19.6608149 10.4490199,19.5047518 C10.6093972,19.3486887 10.8252449,19.2627958 11.049,19.266 C13.463,19.313 16.969,19.183 17.005,19.182 C17.3245072,19.1711978 17.6225105,19.3424819 17.774,19.624 C17.777,19.629 18.214,20.414 19.128,21.162 C19.51,21.475 20.018,21.772 20.516,22.027 L19.936,20.113 C19.8620279,19.86687 19.9020116,19.600556 20.045,19.387 C20.1865038,19.1743603 20.4174518,19.0380753 20.672,19.017 C22.886,18.839 23.277,16.741 23.314,15.506 C23.336,14.743 23.308,13.495 23.279,12.174 C23.256,11.099 23.232,9.98 23.232,9.031 C23.232,7.323 23.199,6.981 23.197,6.968 C23.1937896,6.9334248 23.1921212,6.89872372 23.192,6.864 C23.192,6.043 23.052,5.491 22.782,5.223 C22.569,5.011 22.192,4.905 21.662,4.922 L21.644,4.922 C21.1848422,4.91988697 20.8116116,4.55109954 20.804,4.092 C20.7972706,3.86786491 20.8799051,3.65024586 21.0337056,3.48706732 C21.187506,3.32388877 21.3998591,3.22853321 21.624,3.222 C22.632,3.197 23.407,3.464 23.954,4.007 C24.573,4.617 24.863,5.513 24.869,6.822 C24.905,7.226 24.909,8.355 24.909,9.031 C24.909,9.968 24.934,11.074 24.957,12.137 C24.986,13.481 25.014,14.749 24.991,15.556 C24.93,17.606 24.048,19.846 21.817,20.524 L22.652,23.282 C22.7454469,23.5880501 22.6601714,23.9206629 22.431,24.144 C22.2755598,24.2962252 22.0665639,24.3813318 21.849,24.381001" id="Path"></path>
                <path d="M20.797,14.718 C20.773,16.03 20.394,16.622 18.211,16.668 C15.746,16.718 8.615,16.667 8.613,16.667 L8.607,16.667 C8.22946564,16.6714258 7.89482749,16.9110236 7.769,17.267 C7.766,17.276 7.449,18.137 6.609,18.826 C6.244,19.124 5.783,19.4 5.332,19.634 L5.877,17.831 C5.96026127,17.5579384 5.91025718,17.2616179 5.742,17.031 C5.57561398,16.8028077 5.31041044,16.6676059 5.028,16.667 C3.911,16.667 2.867,16.305 2.788,13.672 C2.768,12.928 2.776,11.669 2.785,10.339 C2.793,9.145 2.802,7.893 2.79,6.896 C2.749,3.356 2.934,2.845 5.82,2.806 C6.21,2.801 6.615,2.799 7.034,2.799 C8.042,2.799 9.128,2.812 10.264,2.824 C12.39,2.849 14.693,2.876 16.994,2.826 L17.21,2.824 C20.262,2.824 20.476,4.12 20.592,6.41 C20.664,7.849 20.842,12.146 20.797,14.718 M22.366,6.318 C22.26,4.21 22.098,1.026 17.21,1.026 L16.957,1.029 C14.675,1.076 12.395,1.049 10.283,1.026 C8.659,1.007 7.138,0.99 5.797,1.005 C1.274,1.069 0.972,3.28 1.013,6.918 C1.025,7.906 1.016,9.145 1.009,10.327 C0.999099762,11.684 0.991,12.967 1.014,13.726 C1.104,16.808 2.441,17.975 3.867,18.333 L3.067,20.972 C2.96946629,21.2960436 3.06001316,21.6474425 3.302,21.884 C3.54276382,22.1172648 3.89456332,22.1946684 4.211,22.084 C4.3,22.053 6.421,21.294 7.725,20.228 C8.31640281,19.7415406 8.807235,19.1443898 9.17,18.47 C10.919,18.482 16.193,18.51 18.248,18.466 C19.412,18.443 22.507,18.378 22.572,14.75 C22.62,12.126 22.441,7.774 22.366,6.318" id="Shape"></path>
                <path d="M8.193,5.657 L6.827,5.661 L6.302,7.824 L8.193,7.824 C8.784,7.824 9.263,7.34 9.263,6.741 C9.263,6.141 8.784,5.657 8.193,5.657 M7.623,8.814 L6.256,8.817 L5.731,10.98 L7.623,10.98 C8.214,10.98 8.693,10.496 8.693,9.898 C8.693,9.298 8.214,8.814 7.623,8.814 M12.527,5.61 L11.161,5.614 L10.636,7.777 L12.527,7.777 C13.118,7.777 13.597,7.293 13.597,6.694 C13.597,6.094 13.118,5.61 12.527,5.61 M11.941,8.798 L10.574,8.802 L10.049,10.965 L11.941,10.965 C12.532,10.965 13.011,10.481 13.011,9.882 C13.011,9.282 12.532,8.798 11.941,8.798 M11.263,12.142 L9.897,12.146 L9.372,14.309 L11.262,14.309 C11.854,14.309 12.332,13.825 12.332,13.226 C12.332,12.626 11.854,12.142 11.262,12.142 M16.414,7.532 L15.048,7.536 L14.523,9.699 L16.414,9.699 C17.005,9.699 17.484,9.215 17.484,8.616 C17.484,8.016 17.005,7.532 16.414,7.532 M15.798,10.83 L14.431,10.833 L13.906,12.996 L15.798,12.996 C16.388,12.996 16.867,12.512 16.867,11.913 C16.867,11.313 16.389,10.829 15.797,10.829" id="Shape"></path>
            </g>
            <g id="comment" transform="translate(28.000000, 70.000000)" fill="#0FBFBF" fill-rule="nonzero">
                <path d="M14.6494,6.5517 C14.5854,6.5497 13.0314,6.4957 10.3994,6.5527 C6.9084,6.6297 5.7514,6.3807 5.7104,6.3717 C5.2184,6.2477 4.7194,6.5447 4.5914,7.0357 C4.4614,7.5307 4.7584,8.0347 5.2534,8.1637 C5.3634,8.1937 6.3134,8.4177 9.1074,8.4177 C9.5114,8.4177 9.9554,8.4127 10.4404,8.4027 C13.0134,8.3457 14.5674,8.4007 14.5834,8.4017 C15.0524,8.4167 15.5214,8.0207 15.5414,7.5097 C15.5584,6.9997 15.1604,6.5707 14.6494,6.5517" id="Fill-4"></path>
                <path d="M7.9199,16.7197 C6.5149,16.7197 4.8039,16.4327 3.6029,16.1687 C4.0109,15.8167 4.4239,15.4037 4.6949,14.9587 C4.7469,14.8797 5.1769,14.1677 4.3139,13.5967 C4.0589,13.4267 3.3809,12.9787 2.8619,12.2967 C1.4669,10.4637 1.4999,7.1257 2.9339,5.1537 C4.1219,3.5197 5.9139,1.8497 10.2009,1.8497 C14.2799,1.8497 18.3959,4.2067 18.3959,9.4727 C18.3959,14.4787 13.1339,16.7197 7.9199,16.7197 M10.2009,-0.0003 C6.1849,-0.0003 3.4829,1.2537 1.4379,4.0657 C-0.4611,6.6767 -0.4811,10.9587 1.3909,13.4177 C1.7709,13.9157 2.1949,14.3127 2.5679,14.6127 C2.2779,14.8787 1.9519,15.1307 1.6979,15.3257 C1.1519,15.7477 0.8219,16.0017 0.7839,16.4907 C0.7639,16.7517 0.8629,17.0327 1.0419,17.2227 C1.6039,17.8177 5.7899,18.5697 7.9199,18.5697 C15.2919,18.5697 20.2449,14.9137 20.2449,9.4727 C20.2449,2.9637 15.0389,-0.0003 10.2009,-0.0003" id="Fill-1"></path>
                <path d="M12.4121,10.3711 C11.8161,10.4631 11.6191,10.4921 9.6951,10.4401 C7.4491,10.3791 6.9921,10.3911 6.5081,10.4031 L6.1721,10.4111 C5.6601,10.4191 5.2531,10.8391 5.2611,11.3501 C5.2681,11.8561 5.6811,12.2611 6.1851,12.2611 L6.1991,12.2611 L6.5571,12.2531 C7.0161,12.2411 7.4481,12.2291 9.6441,12.2901 C10.2771,12.3081 10.7411,12.3151 11.1041,12.3151 C11.8861,12.3151 12.1951,12.2761 12.6931,12.1991 C13.1981,12.1211 13.5451,11.6491 13.4671,11.1441 C13.3891,10.6401 12.9211,10.2891 12.4121,10.3711" id="Fill-6"></path>
            </g>
            <g id="facebook-mint" transform="translate(29.000000, 429.000000)" stroke="#A4EED2" stroke-width="1.8">
                <path d="M10.2171916,19.9551931 L10.2981916,13.2991931 L7.78819157,13.2991931 L7.80819157,10.2481931 L10.2971916,10.2481931 C10.2971916,10.2481931 10.2981916,8.9141931 10.2981916,7.91819308 C10.2981916,6.68919308 10.6011916,5.63719308 11.2121916,4.96519308 C11.7521916,4.35819308 12.8311916,3.75719308 14.0581916,3.75719308 C15.0391916,3.75719308 15.7931916,3.75719308 16.5271916,3.78819308 C16.5341916,4.36019308 16.5481916,5.57519308 16.5471916,6.64319308 L15.6011916,6.62419308 C14.8831916,6.62419308 14.1441916,6.64219308 13.7461916,6.98819308 C13.2371916,7.43319308 13.3281916,8.5821931 13.3281916,8.5821931 C13.3221916,9.0561931 13.3541916,10.2281931 13.3541916,10.2281931 L16.4101916,10.2681931 L15.8421916,13.3061931 L13.3731916,13.3061931 L13.5171916,19.9851931 C13.5171916,19.9851931 16.0431916,19.9641931 17.2481916,19.9981931 C18.4421916,20.0321931 19.8761916,19.4521931 19.9441916,17.3011931 C19.9971916,15.6271931 20.0201916,13.5111931 19.9781916,10.5581931 C19.9161916,6.35419308 19.9751916,3.67819308 19.9551916,3.03819308 C19.9021916,1.27219308 18.9281916,0.14719308 17.3321916,0.14719308 C15.3031916,0.14719308 5.71119157,-0.04580692 3.73319157,0.01019308 C1.75419157,0.06319308 0.26119157,1.05319308 0.28319157,2.72719308 C0.35119157,7.95019308 -0.33480843,11.8071931 0.21519157,17.5061931 C0.31519157,18.5461931 1.13719157,19.9301931 3.35519157,19.9641931 C6.84619157,20.0171931 10.2171916,19.9551931 10.2171916,19.9551931 Z" id="face"></path>
            </g>
            <g id="facebook" transform="translate(29.000000, 499.000000)" stroke="#0161F0" stroke-width="1.8">
                <path d="M10.2171916,19.9551931 L10.2981916,13.2991931 L7.78819157,13.2991931 L7.80819157,10.2481931 L10.2971916,10.2481931 C10.2971916,10.2481931 10.2981916,8.9141931 10.2981916,7.91819308 C10.2981916,6.68919308 10.6011916,5.63719308 11.2121916,4.96519308 C11.7521916,4.35819308 12.8311916,3.75719308 14.0581916,3.75719308 C15.0391916,3.75719308 15.7931916,3.75719308 16.5271916,3.78819308 C16.5341916,4.36019308 16.5481916,5.57519308 16.5471916,6.64319308 L15.6011916,6.62419308 C14.8831916,6.62419308 14.1441916,6.64219308 13.7461916,6.98819308 C13.2371916,7.43319308 13.3281916,8.5821931 13.3281916,8.5821931 C13.3221916,9.0561931 13.3541916,10.2281931 13.3541916,10.2281931 L16.4101916,10.2681931 L15.8421916,13.3061931 L13.3731916,13.3061931 L13.5171916,19.9851931 C13.5171916,19.9851931 16.0431916,19.9641931 17.2481916,19.9981931 C18.4421916,20.0321931 19.8761916,19.4521931 19.9441916,17.3011931 C19.9971916,15.6271931 20.0201916,13.5111931 19.9781916,10.5581931 C19.9161916,6.35419308 19.9751916,3.67819308 19.9551916,3.03819308 C19.9021916,1.27219308 18.9281916,0.14719308 17.3321916,0.14719308 C15.3031916,0.14719308 5.71119157,-0.04580692 3.73319157,0.01019308 C1.75419157,0.06319308 0.26119157,1.05319308 0.28319157,2.72719308 C0.35119157,7.95019308 -0.33480843,11.8071931 0.21519157,17.5061931 C0.31519157,18.5461931 1.13719157,19.9301931 3.35519157,19.9641931 C6.84619157,20.0171931 10.2171916,19.9551931 10.2171916,19.9551931 Z" id="face"></path>
            </g>
            <g id="instagram" transform="translate(29.000000, 569.000000)" fill="#E331AD" fill-rule="nonzero">
                <path d="M17.9759149,5.419 C17.9759149,6.307 17.3139149,7.026 16.4449149,7.026 C15.5759149,7.026 14.8589149,6.307 14.8589149,5.419 C14.8589149,4.537 15.5759149,3.868 16.4449149,3.868 C17.3139149,3.868 17.9759149,4.537 17.9759149,5.419 M13.9169149,11.748 C13.6699149,13.271 13.0089149,14.293 10.5869149,14.332 L10.4919149,14.332 C8.70491493,14.332 7.70191493,13.525 7.33491493,11.794 C7.03891493,10.397 8.12091493,8.829 8.96691493,8.406 C9.4599149,8.159 10.0509149,8.028 10.6749149,8.028 C11.2869149,8.028 11.8869149,8.162 12.2819149,8.385 C13.5519149,9.104 14.1479149,10.329 13.9169149,11.748 M13.1679149,6.818 C11.8449149,6.069 9.6709149,6.039 8.16191493,6.797 C6.53491493,7.61 5.10691493,9.962 5.57391493,12.167 C6.11591493,14.724 7.86191493,16.132 10.4919149,16.132 L10.6159149,16.131 C13.5929149,16.083 15.2539149,14.744 15.6929149,12.037 C16.0419149,9.897 15.0749149,7.897 13.1679149,6.818 M19.2879149,19.06 C18.6599149,19.729 17.5519149,20.083 15.9949149,20.113 C15.1959149,20.129 12.6699149,20.155 10.4199149,20.18 C8.69091493,20.198 7.12291493,20.215 6.62191493,20.224 L6.46391493,20.225 C4.38191493,20.225 1.89291493,19.62 1.85791493,16.738 C1.83291493,14.695 1.86691493,12.655 1.94991493,11.14 C2.07191493,8.836 2.05491493,7.552 2.03991493,6.418 C2.03491493,6.07 2.03091493,5.737 2.03091493,5.391 C2.03091493,2.462 3.46991493,2.067 4.87791493,2.067 C5.60791493,2.067 7.67091493,2.021 9.8779149,1.97 C12.3309149,1.913 15.1109149,1.85 16.2039149,1.85 L16.4799149,1.852 C18.0259149,1.879 19.7139149,2.853 19.8139149,5.501 C19.8639149,6.814 19.8689149,8.293 19.8739149,9.859 C19.8809149,11.874 19.8889149,14.158 19.9939149,16.58 C20.0429149,17.69 19.8109149,18.501 19.2879149,19.06 M21.7249149,9.854 C21.7189149,8.271 21.7139149,6.775 21.6629149,5.431 C21.5239149,1.742 18.9759149,0.046 16.5139149,0.002 L16.2039149,0 C15.0899149,0 12.4189149,0.061 9.8359149,0.12 C7.64791493,0.171 5.60091493,0.218 4.87791493,0.218 C1.84891493,0.218 0.18091493,2.055 0.18091493,5.391 C0.18091493,5.745 0.18491493,6.087 0.18991493,6.442 C0.20491493,7.547 0.22091493,8.799 0.10191493,11.041 C0.01791493,12.594 -0.017085072,14.679 0.00791493,16.761 C0.04891493,20.088 2.46191493,22.075 6.46391493,22.075 L6.65291493,22.073 C7.15291493,22.065 8.71591493,22.048 10.4399149,22.029 C12.6959149,22.006 15.2289149,21.979 16.0309149,21.963 C18.1059149,21.922 19.6549149,21.371 20.6369149,20.325 C21.5069149,19.398 21.9129149,18.11 21.8429149,16.5 C21.7389149,14.114 21.7309149,11.851 21.7249149,9.854"></path>
            </g>
            <g id="open" transform="translate(28.000000, 355.000000)">
                <g id="select">
                    <g id="path-1-link" fill="#7300FF">
                        <path d="M12,24 C18.627417,24 24,18.627417 24,12 C24,5.372583 18.627417,0 12,0 C5.372583,0 0,6.872583 0,13.5 C0,20.127417 5.372583,24 12,24 Z" id="path-1"></path>
                    </g>
                    <path d="M12,23 C5.54158342,23 1,19.242684 1,13.5 C1,7.10655525 6.20732388,1 12,1 C18.0751322,1 23,5.92486775 23,12 C23,18.0751322 18.0751322,23 12,23 Z" id="Path" stroke="#7300FF" stroke-width="2"></path>
                </g>
                <path d="M12,18 C16,18 18,15 18,12 C18,9 15.3137085,6 12,6 C8.6862915,6 6,8.6862915 6,12 C6,15.3137085 8,18 12,18 Z" id="selected" fill="#FFFC80" fill-rule="nonzero"></path>
            </g>
            <g id="play-button" transform="translate(0.000000, 858.000000)" fill-rule="nonzero">
                <path d="M79.8488987,30.1385447 L79.8488987,41.3389354 C79.8488987,54.1680074 77.2790955,57.6294132 68.583033,59.6661811 C65.4202894,60.2770893 49.8069854,60.2770893 39.9238564,60.2770893 C30.0419133,60.2770893 14.4274234,60.2770893 11.2658657,59.6661811 C2.56861739,57.6294132 0,54.1680074 0,41.3389354 L0,30.1385447 L0,18.9381539 C0,6.1090819 2.56861739,2.6476761 11.2658657,0.61090819 C14.4274234,0 30.0419133,0 39.9238564,0 C49.8069854,0 65.4202894,0 68.583033,0.61090819 C77.2790955,2.6476761 79.8488987,6.1090819 79.8488987,18.9381539 L79.8488987,30.1385447 Z" id="Fill-1" fill-opacity="0.469999999" fill="#FFFFFF"></path>
                <g id="Play-icon" transform="translate(32.018776, 18.327246)">
                    <polygon id="Fill-1" fill="#FFFFFF" points="0 0.000366544914 0 23.4176993 21.9387912 11.8104437"></polygon>
                    <polygon id="Fill-2" fill="#CCCCCC" points="19.5666742 13.2366699 21.9396213 11.8108102 -0.000355764181 0.000733089828"></polygon>
                </g>
            </g>
            <g id="radio-open" transform="translate(27.000000, 281.000000)">
                <g id="path-1-link" fill="#FFFFFF">
                    <path d="M12,24 C18.627417,24 24,18.627417 24,12 C24,5.372583 18.627417,0 12,0 C5.372583,0 0,6.872583 0,13.5 C0,20.127417 5.372583,24 12,24 Z" id="path-1"></path>
                </g>
                <path d="M12,23 C5.54158342,23 1,19.242684 1,13.5 C1,7.10655525 6.20732388,1 12,1 C18.0751322,1 23,5.92486775 23,12 C23,18.0751322 18.0751322,23 12,23 Z" id="Path" stroke="#7300FF" stroke-width="2"></path>
            </g>
            <g id="search-mint" transform="translate(28.000000, 139.000000)" fill="#A4EED2" fill-rule="nonzero">
                <path d="M18.4863,18.3594 C18.1263,18.7294 17.8053,18.9334 17.5873,18.9334 C17.5863,18.9334 17.5853,18.9334 17.5853,18.9324 C17.3633,18.9314 17.0983,18.7034 16.9163,18.5114 C16.2803,17.8464 15.6663,17.2124 15.0853,16.6124 C14.0443,15.5384 13.1183,14.5814 12.3813,13.7664 C12.8823,13.3984 13.3393,12.9754 13.7393,12.5024 C14.2803,13.0114 15.1113,13.7144 16.0773,14.5304 C17.0103,15.3184 18.0253,16.1744 18.8683,16.9364 C19.0363,17.0894 19.1243,17.2234 19.1273,17.3354 C19.1303,17.4194 19.0913,17.7404 18.4863,18.3594 M3.9843,12.1864 C2.6023,10.8814 1.8243,9.1024 1.8503,7.3044 C1.8733,5.7954 2.4823,4.4314 3.5663,3.4674 C4.6703,2.4854 6.5113,1.8504 8.2583,1.8504 C9.2023,1.8504 10.0273,2.0404 10.5823,2.3834 C12.1933,3.3834 13.2663,4.8364 13.6013,6.4724 C13.9163,8.0064 13.5753,9.5864 12.6413,10.9184 C11.5143,12.5274 9.5583,13.5264 7.5373,13.5264 C6.1623,13.5264 4.9003,13.0504 3.9843,12.1864 M20.1093,15.5654 C19.2523,14.7904 18.2203,13.9194 17.2703,13.1174 C16.2873,12.2874 15.3593,11.5034 14.8763,11.0344 C14.8403,11.0004 14.7953,10.9844 14.7563,10.9574 C15.5123,9.4414 15.7533,7.7564 15.4143,6.1014 C14.9753,3.9614 13.6053,2.0834 11.5563,0.8114 C10.7023,0.2814 9.5613,0.0004 8.2583,0.0004 C6.0503,0.0004 3.7813,0.7984 2.3363,2.0854 C0.8603,3.3994 0.0313,5.2434 0.0013,7.2774 C-0.0337,9.5914 0.9563,11.8724 2.7153,13.5324 C3.9743,14.7214 5.6873,15.3774 7.5373,15.3774 C8.6453,15.3774 9.7343,15.1304 10.7393,14.7024 C11.5403,15.6084 12.5703,16.6754 13.7563,17.9004 C14.3343,18.4974 14.9463,19.1284 15.5783,19.7894 C16.2043,20.4454 16.8763,20.7794 17.5743,20.7834 L17.5873,20.7834 C18.3403,20.7834 19.0673,20.4134 19.8103,19.6524 C20.6193,18.8234 21.0003,18.0474 20.9763,17.2774 C20.9573,16.6444 20.6653,16.0684 20.1093,15.5654" id="Fill-1"></path>
                <path d="M12.4141,9.0107 L10.5821,8.7507 C10.7471,7.5937 10.6891,6.6487 9.8771,5.7997 C9.1401,5.0317 8.2941,4.7637 7.0621,4.8997 L6.8571,3.0617 C8.6531,2.8567 10.0801,3.3367 11.2131,4.5207 C12.6331,6.0027 12.6011,7.6987 12.4141,9.0107" id="Fill-4"></path>
            </g>
            <g id="search" transform="translate(28.000000, 210.000000)" fill="#7300FF" fill-rule="nonzero">
                <path d="M18.4863,18.3594 C18.1263,18.7294 17.8053,18.9334 17.5873,18.9334 C17.5863,18.9334 17.5853,18.9334 17.5853,18.9324 C17.3633,18.9314 17.0983,18.7034 16.9163,18.5114 C16.2803,17.8464 15.6663,17.2124 15.0853,16.6124 C14.0443,15.5384 13.1183,14.5814 12.3813,13.7664 C12.8823,13.3984 13.3393,12.9754 13.7393,12.5024 C14.2803,13.0114 15.1113,13.7144 16.0773,14.5304 C17.0103,15.3184 18.0253,16.1744 18.8683,16.9364 C19.0363,17.0894 19.1243,17.2234 19.1273,17.3354 C19.1303,17.4194 19.0913,17.7404 18.4863,18.3594 M3.9843,12.1864 C2.6023,10.8814 1.8243,9.1024 1.8503,7.3044 C1.8733,5.7954 2.4823,4.4314 3.5663,3.4674 C4.6703,2.4854 6.5113,1.8504 8.2583,1.8504 C9.2023,1.8504 10.0273,2.0404 10.5823,2.3834 C12.1933,3.3834 13.2663,4.8364 13.6013,6.4724 C13.9163,8.0064 13.5753,9.5864 12.6413,10.9184 C11.5143,12.5274 9.5583,13.5264 7.5373,13.5264 C6.1623,13.5264 4.9003,13.0504 3.9843,12.1864 M20.1093,15.5654 C19.2523,14.7904 18.2203,13.9194 17.2703,13.1174 C16.2873,12.2874 15.3593,11.5034 14.8763,11.0344 C14.8403,11.0004 14.7953,10.9844 14.7563,10.9574 C15.5123,9.4414 15.7533,7.7564 15.4143,6.1014 C14.9753,3.9614 13.6053,2.0834 11.5563,0.8114 C10.7023,0.2814 9.5613,0.0004 8.2583,0.0004 C6.0503,0.0004 3.7813,0.7984 2.3363,2.0854 C0.8603,3.3994 0.0313,5.2434 0.0013,7.2774 C-0.0337,9.5914 0.9563,11.8724 2.7153,13.5324 C3.9743,14.7214 5.6873,15.3774 7.5373,15.3774 C8.6453,15.3774 9.7343,15.1304 10.7393,14.7024 C11.5403,15.6084 12.5703,16.6754 13.7563,17.9004 C14.3343,18.4974 14.9463,19.1284 15.5783,19.7894 C16.2043,20.4454 16.8763,20.7794 17.5743,20.7834 L17.5873,20.7834 C18.3403,20.7834 19.0673,20.4134 19.8103,19.6524 C20.6193,18.8234 21.0003,18.0474 20.9763,17.2774 C20.9573,16.6444 20.6653,16.0684 20.1093,15.5654" id="Fill-1"></path>
                <path d="M12.4141,9.0107 L10.5821,8.7507 C10.7471,7.5937 10.6891,6.6487 9.8771,5.7997 C9.1401,5.0317 8.2941,4.7637 7.0621,4.8997 L6.8571,3.0617 C8.6531,2.8567 10.0801,3.3367 11.2131,4.5207 C12.6331,6.0027 12.6011,7.6987 12.4141,9.0107" id="Fill-4"></path>
            </g>
            <g id="twitter" transform="translate(27.000000, 642.000000)" fill="#1DA1F3">
                <path d="M19.991,4.815 C19.8301764,4.987874 19.7477015,5.21938252 19.763,5.455 C19.768,5.517 19.857,6.996 19.379,8.881 C18.9680756,10.5015381 18.2314417,12.0214198 17.214,13.348 C14.895,16.392 11.962,17.815 7.706,17.959 C6.376,18.009 5.091,17.714 4.033,17.349 C4.303,17.291 4.574,17.22 4.843,17.136 C7.143,16.411 7.718,15.143 7.776,15 C7.87084145,14.7695586 7.85913115,14.5090045 7.744,14.288 C7.62855339,14.0667861 7.42213176,13.907129 7.179,13.851 C7.169,13.848 6.115,13.602 5.205,13.095 C5.01383815,12.9902016 4.82794687,12.8760637 4.648,12.753 C5.294,12.607 5.961,12.363 6.388,11.953 C6.55033304,11.7965337 6.64385151,11.5819826 6.64797744,11.356557 C6.65210336,11.1311314 6.56649868,10.9133019 6.41,10.751 C6.27886402,10.6205476 6.1084201,10.536907 5.925,10.513 C5.902,10.506 4.605,10.216 3.503,9.229 C3.29633077,9.0450156 3.11024107,8.8391434 2.948,8.615 C3.878,8.738 4.503,8.752 4.53,8.752 C5.027,8.739 5.387,8.392 5.397,7.92 C5.39929297,7.63133873 5.25214985,7.36201765 5.008,7.208 C4.989,7.192 4.979,7.17 4.958,7.158 C4.256,6.689 3.145,5.539 2.872,4.448 C2.79198581,4.11256442 2.76066473,3.76735899 2.779,3.423 C3.68714993,4.2691805 4.69093781,5.00649978 5.77,5.62 C8.432,7.112 11.57,7.173 11.702,7.175 C11.928,7.163 12.205,7.063 12.369,6.865 C12.5336822,6.66521693 12.5984579,6.40132932 12.545,6.148 C12.521,6.03 11.976,3.241 14.739,1.972 C16.743,1.055 18.852,2.808 18.871,2.824 C19.033,2.964 19.248,3.034 19.457,3.029 C19.9770517,3.00197936 20.4920234,2.9130175 20.991,2.764 C20.924,3.164 21.156,3.556 21.544,3.697 C21.521,3.721 21.504,3.747 21.48,3.772 C21.152,4.108 20.453,4.517 20.212,4.646 C20.1299895,4.6904482 20.055699,4.74785452 19.992,4.816 L19.991,4.815 Z M22.957,2.125 L23.173,1.42 C23.2780241,1.07967945 23.1589318,0.710013671 22.875,0.495 C22.5922589,0.276910414 22.2027044,0.260879364 21.903,0.455 C21.897,0.459 21.248,0.871 20.633,1.091 C20.293,1.213 19.926,1.275 19.68,1.304 C18.864,0.714 16.505,-0.709 14.03,0.427 C11.485,1.595 10.798,3.804 10.78,5.399 C9.752,5.276 8.064,4.957 6.6,4.137 C4.397,2.903 2.946,1.16 2.931,1.142 C2.74123874,0.909976475 2.44308557,0.795367082 2.14676928,0.840543509 C1.85045299,0.885719936 1.59999845,1.08397014 1.488,1.362 C1.459,1.432 0.788,3.115 1.223,4.859 C1.39,5.529 1.743,6.169 2.159,6.739 C2.02800122,6.7090682 1.89732705,6.67773306 1.767,6.645 C1.49860045,6.57628455 1.21355826,6.64301636 1.00355354,6.823732 C0.793548807,7.00444765 0.685067048,7.27635552 0.713,7.552 C0.729,7.716 0.913,9.19 2.368,10.495 C2.696,10.79 3.035,11.03 3.365,11.235 C3.175,11.253 2.986,11.268 2.809,11.272 C2.52511498,11.2787396 2.26334589,11.4267967 2.11129515,11.6666231 C1.95924441,11.9064495 1.9369977,12.2063645 2.052,12.466 C2.132,12.648 2.624,13.606 4.378,14.581 C4.718,14.771 5.068,14.928 5.391,15.057 C5.0557507,15.2485159 4.70022934,15.4021279 4.331,15.515 C2.761,16.007 0.917,15.909 0.899,15.909 C0.518310376,15.8884596 0.170412295,16.1236135 0.0475513635,16.4845175 C-0.0753095681,16.8454215 0.0568500891,17.2439992 0.371,17.46 C0.507,17.552 3.654,19.665 7.426,19.665 C7.538,19.665 7.651,19.663 7.764,19.659 C12.578,19.495 15.909,17.867 18.566,14.377 C19.7223511,12.8688282 20.5596759,11.1411016 21.027,9.299 C21.401,7.824 21.469,6.566 21.473,5.88 C21.841,5.656 22.348,5.316 22.695,4.961 C23.1680564,4.47277564 23.5536709,3.90686943 23.835,3.288 C23.9232433,3.08047426 23.9254039,2.84638803 23.841006,2.63726888 C23.7566081,2.42814974 23.59257,2.2611392 23.385,2.173 C23.2490766,2.11948001 23.1014021,2.10291838 22.957,2.125 L22.957,2.125 Z" id="Shape"></path>
            </g>
        </g>
    </g>
</svg>