<?xml version="1.0" encoding="UTF-8"?>
<svg width="95px" height="119px" viewBox="0 0 95 119" version="1.1" xmlns="http://www.w3.org/2000/svg" xmlns:xlink="http://www.w3.org/1999/xlink">
    <!-- Generator: Sketch 43.2 (39069) - http://www.bohemiancoding.com/sketch -->
    <title>mint-hand@3x</title>
    <desc>Created with Sketch.</desc>
    <defs></defs>
    <g id="Templates" stroke="none" stroke-width="1" fill="none" fill-rule="evenodd">
        <g id="templates/home" transform="translate(-248.000000, -2224.000000)" fill-rule="nonzero">
            <g id="components/join-cta" transform="translate(0.000000, 2197.000000)">
                <g id="background">
                    <g id="mint-hand" transform="translate(248.000000, 27.000000)">
                        <g id="Wave">
                            <g id="Sticker">
                                <path d="M49.221875,110.435158 C37.9208333,110.435158 30.4989583,104.376617 29.0739583,103.113599 C18.7229167,94.0553897 13.2604167,80.9713101 10.9447917,75.3864013 L10.6677083,74.6956882 C8.92604167,70.5514096 1.74166667,51.6258706 1.365625,50.5799337 L1.34583333,50.5404643 C1.32604167,50.500995 1.30625,50.4615257 1.28645833,50.4023217 L1.26666667,50.3431177 C0.969791667,49.6129353 0.475,48.4091211 0.2375,46.9290216 C-0.415625,42.8439469 1.38541667,38.9167496 4.809375,36.9038143 C6.31354167,36.0354892 7.99583333,35.5618574 9.71770833,35.5618574 C11.0635417,35.5618574 12.3697917,35.8381426 13.596875,36.3709784 L11.6770833,29.779602 C11.6572917,29.7006633 11.6177083,29.60199 11.5979167,29.5033167 C11.3010417,28.5560531 10.865625,27.1548922 10.746875,25.5366501 C10.4104167,20.839801 13.1020833,16.774461 17.4166667,15.3930348 C18.3864583,15.0772803 19.3958333,14.919403 20.4052083,14.919403 C22.4833333,14.919403 24.4625,15.5903814 26.1447917,16.7941957 C26.065625,16.1824212 26.0260417,15.6101161 26.0458333,15.0378109 C26.065625,10.4988391 28.8166667,6.76898839 33.0322917,5.54543947 C33.9427083,5.26915423 34.8927083,5.13101161 35.8229167,5.13101161 C39.5041667,5.13101161 42.7302083,7.12421227 44.6302083,10.6172471 C44.8083333,10.9527363 44.9864583,11.3079602 45.1447917,11.6631841 C46.55,9.76865672 48.628125,8.42669983 51.121875,7.95306799 C51.7354167,7.83466003 52.36875,7.77545605 52.9822917,7.77545605 C56.6041667,7.77545605 59.8697917,9.78839138 61.7302083,13.1432836 C62.4229167,14.3865672 62.81875,15.6298507 63.1354167,16.6165837 L63.1354167,16.6363184 C63.1947917,16.833665 63.2541667,17.0310116 63.3333333,17.2283582 C63.9270833,18.9452736 69.4885417,36.568325 73.8625,50.441791 L75.9208333,48.4288557 C75.9604167,48.3893864 76,48.3499171 76.0197917,48.3301824 L76.059375,48.2907131 C77.5041667,46.8303483 80.5322917,43.7912106 85.1239583,43.7912106 C86.33125,43.7912106 87.4989583,44.0082919 88.6072917,44.4424544 C92.209375,45.8238806 94.64375,49.1787728 94.940625,53.1651741 C95.059375,54.8228856 94.8020833,56.2635158 94.6635417,57.0331675 L94.64375,57.1910448 L94.6041667,57.4278607 C94.3864583,58.6908789 93.871875,61.6708126 92.5854167,65.9334992 C91.021875,71.0645108 88.825,76.4323383 86.0541667,81.8396352 C82.234375,89.279602 78.3947917,94.9631841 74.2979167,99.2258706 C69.765625,103.92272 64.7583333,107.1 58.9791667,108.915589 C55.753125,109.922056 52.4677083,110.435158 49.221875,110.435158 Z M68.7364583,15.1364842 C69.884375,14.741791 70.4979167,13.5182421 70.1020833,12.3736318 C70.0427083,12.2157546 69.9833333,12.0381426 69.94375,11.8605307 L69.9239583,11.8210614 C69.5875,10.7751244 69.0729167,9.19635158 68.1822917,7.57810945 C65.9260417,3.49303483 62.1260417,0.769651741 57.7125,0.0986733002 C56.525,-0.0789386401 55.396875,0.730182421 55.21875,1.93399668 C55.040625,3.11807629 55.8520833,4.24295191 57.059375,4.42056385 C60.1072917,4.87446103 62.759375,6.80845771 64.3427083,9.68971808 C65.0354167,10.9330017 65.43125,12.1762852 65.7479167,13.1827529 L65.7677083,13.2222222 C65.8270833,13.4195688 65.8864583,13.5971808 65.9458333,13.7747927 C66.2625,14.6825871 67.1135417,15.2548922 68.0239583,15.2548922 C68.2614583,15.2548922 68.4989583,15.2154229 68.7364583,15.1364842 Z M59.1375,117.283085 C59.9489583,117.026534 60.740625,116.750249 61.5322917,116.454229 C62.6604167,116.020066 63.2145833,114.757048 62.7791667,113.632172 C62.34375,112.507297 61.0770833,111.954726 59.9489583,112.388889 C59.25625,112.665174 58.54375,112.90199 57.8114583,113.138806 C54.6052083,114.145274 51.3197917,114.658375 48.0739583,114.658375 C36.753125,114.658375 29.2916667,108.560365 27.90625,107.317081 C27.2927083,106.784245 26.6791667,106.21194 26.065625,105.6199 C25.1947917,104.77131 23.809375,104.791045 22.978125,105.65937 C22.1270833,106.527695 22.146875,107.909121 23.0177083,108.737977 C23.6708333,109.369486 24.34375,110.000995 25.0166667,110.5733 C26.6,111.974461 35.1697917,119 48.0739583,119 C51.775,119 55.4958333,118.427695 59.1375,117.283085 Z" id="Shape" fill="#A4EED2"></path>
                                <path d="M90.3885417,56.2437811 C90.36875,56.3029851 90.36875,56.3819237 90.3489583,56.4411277 C90.3291667,56.5200663 90.3291667,56.599005 90.309375,56.6976783 C90.1114583,57.8817579 89.6364583,60.6643449 88.409375,64.6704809 C86.925,69.5646766 84.8270833,74.6759536 82.1552083,79.8661692 C78.5333333,86.9311774 74.93125,92.2792703 71.13125,96.2064677 C67.1135417,100.370481 62.7,103.172803 57.6333333,104.77131 C54.8427083,105.639635 52.0125,106.093532 49.221875,106.093532 C39.30625,106.093532 32.8145833,100.607297 31.9635417,99.8573798 C22.3447917,91.4701493 17.1791667,79.0373134 14.9625,73.7089552 L14.665625,73.0182421 C12.94375,68.9134328 5.71979167,49.8300166 5.403125,49.0208955 L5.403125,49.0208955 L5.403125,49.0208955 C5.36354167,48.9222222 5.32395833,48.8235489 5.284375,48.7248756 C5.02708333,48.0933665 4.690625,47.2447761 4.53229167,46.2580431 C4.15625,43.9096186 5.10625,41.7585406 7.02604167,40.6533997 C7.85729167,40.1600332 8.7875,39.9034826 9.71770833,39.9034826 C10.7864583,39.9034826 12.35,40.2192371 13.834375,41.7782753 C14.3885417,42.3505804 14.8041667,42.9623549 15.140625,43.4557214 C15.2395833,43.593864 15.31875,43.712272 15.378125,43.8109453 C16.0114583,44.699005 20.6625,51.546932 23.9677083,56.4016584 L15.853125,28.5560531 C15.8135417,28.4573798 15.79375,28.3389718 15.7541667,28.2402985 C15.496875,27.4114428 15.1604167,26.3655058 15.08125,25.2603648 C14.8833333,22.5567164 16.328125,20.3266998 18.7427083,19.5570481 C19.2770833,19.3794362 19.8510417,19.3004975 20.4052083,19.3004975 C21.4739583,19.3004975 23.5125,19.6359867 25.1552083,21.944942 C25.7291667,22.7343284 26.1447917,23.6223881 26.5208333,24.3920398 C26.5604167,24.4907131 26.6197917,24.5893864 26.659375,24.6880597 L26.6791667,24.7472637 L26.6989583,24.8064677 L37.346875,48.5472637 L31.0333333,19.2807629 C30.5979167,17.4257048 30.3604167,16.1824212 30.3802083,15.0772803 C30.4,11.959204 32.3791667,10.2620232 34.2395833,9.7291874 C34.7541667,9.57131012 35.2885417,9.49237148 35.803125,9.49237148 L35.803125,9.49237148 C37.0104167,9.49237148 39.246875,9.90679934 40.790625,12.7288557 C41.3052083,13.6563847 41.7010417,14.7615257 42.275,16.3205638 C42.928125,18.1361526 47.5989583,31.5557214 51.121875,41.7190713 C49.6770833,32.739801 47.9552083,22.0633499 47.8364583,21.2542289 C47.8166667,21.0371476 47.7770833,20.8200663 47.7572917,20.6029851 C47.5989583,19.4189055 47.440625,18.2940299 47.559375,17.1691542 C47.8166667,14.6036484 49.4989583,12.7091211 51.9333333,12.2354892 C52.2697917,12.1762852 52.6260417,12.1368159 52.9625,12.1368159 C53.9322917,12.1368159 56.346875,12.4328358 57.890625,15.2548922 C58.3854167,16.1429519 58.6822917,17.0704809 58.9791667,17.9782753 C59.0583333,18.1953566 59.1177083,18.4124378 59.196875,18.6295191 C59.8895833,20.6621891 68.103125,46.731675 71.8239583,58.513267 L78.8895833,51.606136 L78.909375,51.5864013 L78.9291667,51.5666667 C78.9885417,51.5074627 79.0677083,51.428524 79.146875,51.3495854 C80.3541667,50.1457711 82.353125,48.1328358 85.1239583,48.1328358 C85.7770833,48.1328358 86.4302083,48.2512438 87.04375,48.4880597 C89.1020833,49.2774461 90.428125,51.1522388 90.60625,53.4809287 C90.6854167,54.5860697 90.5072917,55.5728027 90.3885417,56.2437811 Z M62.8385417,73.43267 C62.3833333,73.8076285 61.86875,74.0641791 61.3145833,74.0641791 C60.740625,74.0641791 60.1864583,73.8470978 59.7510417,73.4129353 C58.9,72.5446103 58.9197917,71.1829187 59.7708333,70.3343284 L68.3208333,61.9668325 C66.2625,55.4543947 55.8125,22.2804312 55.0604167,20.0504146 C54.4666667,18.2940299 54.0510417,16.5179104 52.9625,16.5179104 C52.903125,16.5179104 52.8239583,16.5179104 52.7447917,16.5376451 C51.4979167,16.774461 51.8541667,18.4124378 52.1510417,20.721393 C52.309375,22.0041459 57.296875,52.6915423 57.296875,52.6915423 L50.9635417,54.7439469 C50.9635417,54.7439469 39.1677083,20.721393 38.1385417,17.820398 C37.16875,15.1562189 36.6739583,13.873466 35.7833333,13.873466 C35.684375,13.873466 35.565625,13.8932007 35.446875,13.93267 C34.4572917,14.2286899 34.5760417,15.3535655 35.2885417,18.3729685 L43.6604167,57.1318408 L37.3072917,59.1842454 L22.68125,26.5825871 C21.9885417,25.1419569 21.3552083,23.681592 20.3854167,23.681592 C20.2864583,23.681592 20.1677083,23.7013267 20.0489583,23.740796 C18.88125,24.1157546 19.59375,25.9708126 20.009375,27.3522388 L29.984375,61.5721393 L23.5520833,63.6048093 C23.5520833,63.6048093 12.7458333,47.659204 11.815625,46.3369818 C11.1822917,45.4686567 10.5291667,44.2648425 9.71770833,44.2648425 C9.559375,44.2648425 9.40104167,44.3043118 9.24270833,44.4029851 C8.33229167,44.9358209 9.16354167,46.5737977 9.5,47.481592 C9.5,47.481592 17.0010417,67.2557214 18.703125,71.3210614 L19,72.0117745 C21.0979167,77.0441128 26.00625,88.8454395 34.8729167,96.5616915 C35.1697917,96.8182421 40.7114583,101.712438 49.2416667,101.712438 C51.41875,101.712438 53.8135417,101.396683 56.346875,100.587562 C64.95625,97.8839138 71.5072917,91.0754561 78.2760417,77.8532338 C84.5302083,65.6177446 85.7375,57.46733 86.0541667,55.6517413 C86.2125,54.7044776 86.6479167,52.9678275 85.4802083,52.5139303 C85.38125,52.474461 85.2625,52.4547264 85.14375,52.4547264 C84.0354167,52.4547264 82.5708333,54.1124378 81.9770833,54.684743 L62.8385417,73.43267 Z" id="Hand" fill="#7300FF"></path>
                            </g>
                        </g>
                    </g>
                </g>
            </g>
        </g>
    </g>
</svg>