<?xml version="1.0" encoding="UTF-8" standalone="no"?>
<svg width="82px" height="79px" viewBox="0 0 82 79" version="1.1" xmlns="http://www.w3.org/2000/svg" xmlns:xlink="http://www.w3.org/1999/xlink">
    <!-- Generator: Sketch 43.2 (39069) - http://www.bohemiancoding.com/sketch -->
    <title>images/poll</title>
    <desc>Created with Sketch.</desc>
    <defs></defs>
    <g id="Basics" stroke="none" stroke-width="1" fill="none" fill-rule="evenodd">
        <g id="basics/images/polls" transform="translate(-139.000000, -17.000000)">
            <g id="images/poll" transform="translate(132.000000, 8.000000)">
                <g>
                    <rect id="images/article-thumbnail" x="0" y="0" width="96" height="96"></rect>
                    <g id="Springster_Stickers_Icon_Think_Sunny_Yellow_RGB" transform="translate(7.000000, 9.000000)" fill-rule="nonzero">
                        <path d="M11.3223008,78.9841444 C5.08637437,78.9841444 0,73.8786318 0,67.583947 C0,65.2056026 0.755869875,62.8748252 2.11013673,60.956294 C2.06289487,60.5440477 2.03140029,60.147657 2.03140029,59.7354106 C2.03140029,54.0115285 6.66110327,49.3499735 12.3458746,49.3499735 C14.4875059,49.3499735 16.5346535,50.0000543 18.251108,51.2209377 C18.5345592,51.1892265 18.8180104,51.1892265 19.1014616,51.1733709 C18.8809996,51.0306702 18.6605375,50.8721139 18.4558228,50.7135576 C15.4323433,48.3986358 13.6843942,44.926253 13.400943,40.6610887 C13.1332391,36.6813258 14.4717586,32.9711086 17.1645451,30.2439404 C18.0148987,29.3877364 18.9754833,28.6266662 20.0620463,27.9765854 C19.4951439,24.2505126 19.8573315,20.4927285 21.1486092,17.1471907 C23.0225366,12.2953682 26.7703914,8.68028477 31.6992929,6.93616557 C33.5417257,6.28608477 35.4314004,5.96897219 37.3210751,5.96897219 C40.8327205,5.96897219 44.2498823,7.0630106 47.4780765,9.21937616 C47.9504952,9.53648875 48.4071666,9.85360133 48.8480907,10.2024252 C49.3834985,9.74261192 49.9346536,9.31450994 50.501556,8.91811921 C53.5565301,6.74589802 56.7532298,5.65185961 59.9971713,5.65185961 C62.2962755,5.65185961 64.5638851,6.20680663 66.7212637,7.31670067 C71.1305047,9.5682 74.201226,13.7540861 75.1303161,18.8120318 C75.6657239,21.6501894 75.4610092,24.5042027 74.5949083,27.0728146 C76.6892977,28.9437788 78.4214995,31.1001444 79.6655353,33.3992106 C82.0748706,37.8229311 82.6260257,42.5637642 81.2875061,47.1143298 C79.0828856,54.5823311 73.8547857,59.545143 66.5637908,61.0672834 C64.9890619,61.4002517 63.3355966,61.5588079 61.6506367,61.5588079 L61.067987,61.5588079 C59.6034891,64.3811099 57.0839228,67.9010596 53.0211223,70.0574252 C50.6747762,71.2941642 48.1237154,71.9283894 45.4151816,71.9283894 C43.1790666,71.9283894 40.8327205,71.5002874 38.4391326,70.6599391 C35.1164546,69.4866225 32.3764263,67.3936795 30.3765206,64.5238106 C29.5419143,69.4073444 25.6208393,73.228551 20.7234324,73.8944874 C18.6920321,77.0021907 15.1331448,78.9841444 11.3223008,78.9841444 Z M62.107308,3.62233908 C66.9102312,2.89298014 71.6344179,5.00177881 73.6028291,8.75956292 C73.9177748,9.3462212 74.5161718,9.69504504 75.1303161,9.69504504 C75.39802,9.69504504 75.6814712,9.63162252 75.9334278,9.48892186 C76.7837814,9.04496424 77.0987272,7.98263709 76.6578031,7.12643312 C74.0122586,2.08434305 67.8078267,-0.769670195 61.5876475,0.181667553 C60.6428102,0.324368216 59.9971713,1.21228345 60.1388969,2.1636212 C60.2806225,3.09910331 61.1467234,3.76503974 62.107308,3.62233908 Z M59.0365867,70.5013828 C58.2964641,69.8988689 57.1941539,70.0098583 56.5957569,70.7709285 C54.4068837,73.4980967 51.1471949,75.1629377 47.3835928,75.4641947 C43.4467705,75.7813073 39.5099482,74.5287126 36.8644037,72.118657 C36.1557757,71.4685762 35.0534654,71.5319987 34.4235739,72.245502 C33.777935,72.9590053 33.8409242,74.0688993 34.5495522,74.7031245 C37.5572844,77.4461483 41.840547,79 46.2182934,79 C46.7064593,79 47.1946253,78.9841444 47.667044,78.9365775 C52.3912307,78.5560424 56.5170204,76.4313881 59.3042906,72.9590053 C59.9026876,72.1979351 59.7767093,71.1038967 59.0365867,70.5013828 Z" id="Shape" fill="#FFFC78"></path>
                        <path d="M76.0949551,35.1757053 C74.6793007,32.5341333 72.4771717,30.0846756 69.8188873,28.1315133 C71.2660007,25.6660461 71.785074,22.5281787 71.2030827,19.4063209 C70.4637965,15.3879296 68.0729136,12.0579479 64.643884,10.2968999 C60.5384863,8.18364226 56.1656872,8.66392808 51.9973715,11.6577097 C50.5187991,12.730348 49.3076281,13.9310626 48.473965,14.8916342 C47.6560313,14.0431293 46.5077783,12.9865005 45.0763944,12.0259288 C40.9867262,9.27229012 36.5824681,8.6158995 32.3512344,10.1207951 C23.6842836,13.1946243 21.4035071,22.4481311 23.5427182,29.9565994 C21.9225804,30.61299 20.38109,31.5415426 19.1541896,32.8062953 C17.1408144,34.8715243 16.1813153,37.5611249 16.3857988,40.6029351 C16.6060117,43.9169072 17.8486416,46.4624221 20.0822297,48.1754415 C23.0551039,50.4648039 27.0503952,50.6409087 29.5041961,50.4648039 C29.4884666,51.95369 29.5671141,54.050938 30.0389989,56.2922719 C31.2501699,62.1037303 34.380339,66.0740931 39.1149165,67.7550934 C41.1597506,68.4755222 43.0944783,68.8437413 44.934829,68.8437413 C47.0740401,68.8437413 49.0874152,68.3474459 50.9277659,67.3708648 C55.2848355,65.0334738 57.5184236,60.5668157 58.4307342,58.2294247 C59.987954,58.421539 62.5675909,58.5656247 65.3674407,57.9732722 C69.5986744,57.0767387 75.1197265,54.3391095 77.4476915,46.3343459 C78.5015676,42.6681641 78.0454123,38.809868 76.0949551,35.1757053 Z M74.1287685,45.3257457 C72.6501961,50.3687468 69.5042974,53.4585855 64.76972,54.4992048 C61.0575596,55.3156907 57.7071775,54.5472334 57.6757185,54.5312239 C56.7634079,54.3070905 55.8510973,54.8674239 55.6151549,55.779967 C55.5994254,55.8440051 53.9635581,61.7675302 49.3233576,64.2490069 C46.7751797,65.6098168 43.7393875,65.6738549 40.2631695,64.4251117 C36.708304,63.1603591 34.411798,60.1985965 33.4365694,55.6358812 C32.6658243,52.0017185 33.0590616,48.7037559 33.0590616,48.6717369 C33.1377091,48.1114034 32.9332256,47.5350604 32.5242588,47.1508318 C32.1939395,46.8466507 31.7849726,46.6865555 31.3445468,46.6865555 C31.2344404,46.6865555 31.1086044,46.702565 30.998498,46.7185745 C30.93558,46.7345841 25.3830689,47.8232319 22.1742523,45.3417552 C20.7585979,44.2531073 19.9878527,42.604126 19.8462873,40.3307731 C19.7047218,38.2815536 20.2867131,36.6165628 21.62372,35.255753 C23.7472016,33.0784572 27.490821,32.1018761 30.1019169,32.2779809 L30.3221298,28.7558849 C29.2997127,28.6918468 28.1357302,28.7558849 26.9088297,28.9800183 C26.0594371,26.0022462 26.0751666,22.8003407 26.9717477,20.0947306 C27.7267634,17.8373872 29.4727371,14.8436056 33.5152169,13.4027482 C36.708304,12.2660717 39.9328501,12.7623671 43.1102078,14.8756247 C45.6111972,16.5406155 47.136958,18.6218541 47.1526875,18.6378636 C47.4830069,19.0861304 48.0020802,19.3582923 48.5526124,19.3582923 L48.5840714,19.3582923 C49.1503332,19.3422828 49.6694065,19.0701208 49.9839963,18.589835 C49.9997258,18.5738255 51.5884046,16.2364345 54.0893941,14.459377 C57.1723747,12.2820813 60.2081669,11.9298717 63.1023937,13.4187577 C65.5719241,14.6835104 67.2864389,17.100949 67.8212417,20.0306925 C68.3403149,22.8323598 67.6796762,25.5859985 66.0909974,27.395075 C65.7449486,27.7793037 65.5876536,28.3076181 65.6663011,28.8359325 C65.7449486,29.3482374 66.0438089,29.8125137 66.4842347,30.0846756 C69.3470025,31.8457236 71.690697,34.2471527 73.0906219,36.8567057 C74.5534648,39.658373 74.9309726,42.5881165 74.1287685,45.3257457 Z M18.7609522,54.9634811 C18.084584,54.9634811 17.4239453,55.0435287 16.7790361,55.2196335 C15.5049471,53.8908428 13.7589734,53.1223855 11.8871637,53.1223855 C8.1120853,53.1223855 5.04483412,56.2442433 5.04483412,60.0865298 C5.04483412,60.8389776 5.17067007,61.5754159 5.39088297,62.2798351 C3.86512213,63.7687211 3,65.8179406 3,68.0112459 C3,72.4138659 6.52340649,76 10.8490171,76 C14.1207517,76 16.999249,73.9027519 18.147502,70.9089703 C18.3519854,70.9249798 18.5564688,70.9409894 18.7609522,70.9409894 C23.0865629,70.9409894 26.6099694,67.3548552 26.6099694,62.9522352 C26.5942399,58.5496152 23.0865629,54.9634811 18.7609522,54.9634811 Z M18.7609522,67.4188934 C18.3047969,67.4188934 17.8486416,67.3388457 17.4239453,67.2107695 C16.936331,67.0506742 16.4015282,67.1147123 15.9768319,67.4028838 C15.5364061,67.6750458 15.2532752,68.1393221 15.1903573,68.651627 C14.8914969,70.8449322 13.0354167,72.4939135 10.8490171,72.4939135 C8.42667517,72.4939135 6.46048851,70.4927226 6.46048851,68.0272554 C6.46048851,66.5063503 7.21550419,65.1135214 8.47386365,64.281026 C9.26033831,63.7687211 9.49628071,62.6960828 9.00866642,61.8795969 C8.67834706,61.335273 8.50532264,60.7109014 8.50532264,60.0865298 C8.50532264,58.1974056 10.015354,56.6444815 11.8871637,56.6444815 C13.0511462,56.6444815 14.1050222,57.236834 14.734202,58.2454342 C15.2060868,58.997882 16.1341269,59.2700439 16.9206015,58.9018248 C17.5025928,58.6296629 18.1317725,58.4855771 18.7609522,58.4855771 C21.1832942,58.4855771 23.1494808,60.486768 23.1494808,62.9522352 C23.1337514,65.4177024 21.1675647,67.4188934 18.7609522,67.4188934 Z" id="Shape" fill="#7300FF"></path>
                    </g>
                </g>
            </g>
        </g>
    </g>
</svg>