<?xml version="1.0" encoding="UTF-8" standalone="no"?>
<svg width="77px" height="81px" viewBox="0 0 77 81" version="1.1" xmlns="http://www.w3.org/2000/svg" xmlns:xlink="http://www.w3.org/1999/xlink">
    <!-- Generator: Sketch 43.2 (39069) - http://www.bohemiancoding.com/sketch -->
    <title>images/survey</title>
    <desc>Created with Sketch.</desc>
    <defs></defs>
    <g id="Basics" stroke="none" stroke-width="1" fill="none" fill-rule="evenodd">
        <g id="basics/images/survey" transform="translate(-142.000000, -16.000000)">
            <g id="images/survey" transform="translate(132.000000, 8.000000)">
                <g>
                    <rect id="images/article-thumbnail" x="0" y="0" width="96" height="96"></rect>
                    <g id="Springster_Stickers_Icon_Speech_Sunny_Yellow_RGB" transform="translate(10.000000, 8.000000)" fill-rule="nonzero">
                        <path d="M31.8864564,74.3080933 L30.9276,74.3080933 C22.7773201,74.1809312 14.0517265,72.432452 5.69369443,69.2375036 C3.8399053,68.538112 2.56143003,66.8691091 2.33769686,64.9139915 C2.12994463,62.9429786 3.02487732,61.051442 4.67091422,59.9705639 L8.42643531,57.5067978 C7.27580757,56.3305482 6.07723701,54.9476601 4.95857115,53.3740288 C2.54544909,49.9406515 0.979316895,46.2052641 0.340079263,42.2950289 C-0.506910599,37.1608581 0.228212677,31.8359443 2.54544909,26.4792398 C6.2690083,17.8322155 12.6294227,11.2992614 20.9554929,7.57976931 C25.8936036,5.37032743 31.4869329,4.19407779 37.1441859,4.19407779 C39.5892699,4.19407779 42.0503348,4.41661151 44.4474759,4.84578367 C54.6113542,6.67373919 63.4488145,12.6344637 68.6745821,21.2020117 C73.7245594,29.483445 74.8911681,39.2590332 71.950675,48.7167161 C69.0421438,58.0949226 62.6977103,65.3590589 53.6365168,69.7461521 C47.4039499,72.734462 39.8929077,74.3080933 31.8864564,74.3080933 L31.8864564,74.3080933 Z M76.9527095,25.414257 C76.8728048,25.0804565 74.9710728,17.1487191 68.2271158,9.77331593 C61.3872731,2.30254122 50.2805193,0.108994597 49.801091,0.0295182702 C48.8422346,-0.145329649 47.931321,0.4745857 47.7395497,1.41240636 C47.5477784,2.35022701 48.187016,3.2721524 49.1298915,3.46289559 C49.2257772,3.47879085 59.5654459,5.51338482 65.6062415,12.1258152 C71.7109609,18.8018267 73.5008262,26.129544 73.5168072,26.193125 C73.7085785,27.0037836 74.4277208,27.5442226 75.2267679,27.5442226 C75.3546154,27.5442226 75.4984438,27.5283273 75.6262914,27.4965368 C76.5851478,27.2898984 77.1764426,26.3520777 76.9527095,25.414257 Z M31.8225326,77.5030416 L31.8065517,77.5030416 C21.6586543,77.5984132 14.978621,75.7227719 12.8691369,74.7054749 C11.9901851,74.2763028 10.951424,74.6418939 10.5199386,75.5161335 C10.0884532,76.390373 10.4560148,77.4235653 11.3189856,77.8527375 C11.5906616,77.9798996 17.9350951,81 31.0075047,81 L31.8385136,81 C32.813351,80.9841047 33.5964171,80.2052367 33.5804361,79.2356255 C33.5644552,78.2819096 32.7813891,77.5030416 31.8225326,77.5030416 Z" id="Shape" fill="#FFFC78"></path>
                        <path d="M43.9995438,8.59450998 C36.751373,7.27854055 29.1859955,8.16642354 22.7308412,11.0678983 C15.2923463,14.4291696 9.58262751,20.3113944 6.23609786,28.1279357 C1.73176411,38.6398361 4.87210947,46.6942032 8.29794077,51.5934147 C10.4073647,54.6058748 12.8498555,56.7938722 14.5786315,58.1415517 L7.07669536,63.0883284 C6.53744413,63.4529946 6.23609786,64.0871967 6.29953918,64.7372539 C6.3629805,65.3873111 6.79120941,65.942238 7.40976229,66.1800638 C15.324067,69.224234 23.587299,70.8890146 31.2636988,71 L32.1677376,71 C39.5903721,71 46.505476,69.5413351 52.2151948,66.7667008 C60.3198235,62.8187925 65.9819614,56.3023655 68.5830555,47.8991873 C71.20001,39.4167337 70.1690885,30.6805993 65.6806151,23.2921444 C61.017678,15.5865885 53.1192336,10.2275805 43.9995438,8.59450998 Z M65.2682465,46.8686088 C62.9684986,54.3204839 57.9249137,60.1234334 50.7084635,63.6274002 C45.2683702,66.2751941 38.5594506,67.6070186 31.3430004,67.4960332 C25.1098907,67.4009029 18.448552,66.2117739 11.9299564,64.0554866 L18.6705967,59.6002166 C19.1781272,59.2672605 19.4636132,58.6964786 19.4477528,58.0939866 C19.4318925,57.4914945 19.0988256,56.9365677 18.591295,56.6353217 C18.543714,56.6036116 14.3090059,54.0985131 11.1052192,49.4688375 C6.91809206,43.4280622 6.3629805,36.6896645 9.45574487,29.4756153 C12.4533473,22.4835367 17.5445132,17.219659 24.1741312,14.2230539 C29.9948724,11.6069701 36.8148143,10.8142175 43.380991,12.0033465 C51.50148,13.4778664 58.5593269,18.2343824 62.7147333,25.0837655 C66.6798159,31.6160475 67.5838547,39.3533135 65.2682465,46.8686088 Z" id="Shape" fill="#7300FF"></path>
                    </g>
                </g>
            </g>
        </g>
    </g>
</svg>