<svg xmlns="http://www.w3.org/2000/svg" width="101" height="88" viewBox="0 0 101 88">
    <g fill="none" fill-rule="nonzero">
        <path fill="#A4EED2" d="M43.679 73.542h-.459c-2.626-.07-5.682-.695-8.905-1.349-2.542-.514-5.182-1.042-7.405-1.25-.597-.056-1.195-.112-1.792-.154-3.626-.306-7.724-.653-11.573-2.113-4.654-1.765-8.071-4.81-10.433-9.314a23.008 23.008 0 0 1-2.265-6.548 4.33 4.33 0 0 1-.222-.932C-.11 46.363.195 37.55.208 37.174v-.042l.014-.166v-.042c.014-.153 1.431-15.612 1.695-18.059.028-.25.056-.528.07-.82.125-1.474.305-3.503 1.042-5.325C4.25 9.704 6.82 7.91 9.906 7.91c.138 0 .277 0 .416.014 1.126.056 2.154.334 3.043.82.667-1.376 1.195-2.405 1.584-3.086.5-.876 1.305-2.169 2.528-3.295 1.556-1.445 3.376-2.21 5.28-2.21.791 0 1.57.139 2.333.403 1.709.598 3.07 1.821 3.876 3.448 1.459-1.14 3.362-2.169 5.516-2.169 1.556 0 3.056.542 4.334 1.557 1.667 1.32 2.57 3.198 2.612 5.45.042 1.82-.472 3.85-1.57 6.186-.583 1.224-2.153 4.115-3.931 7.327h.375c.972 0 1.93.069 2.89.208 3.653.528 6.696 2.058 9.057 4.504a15.014 15.014 0 0 1 2.293 3.114 14.808 14.808 0 0 1 2.306-3.155c2.362-2.461 5.404-3.976 9.058-4.505a19.917 19.917 0 0 1 2.89-.208h.375c-1.779-3.198-3.362-6.09-3.932-7.327-1.097-2.335-1.611-4.365-1.57-6.186.056-2.238.959-4.129 2.612-5.45 1.292-1.014 2.792-1.557 4.335-1.557 2.167 0 4.056 1.03 5.515 2.17A6.853 6.853 0 0 1 76.007.513a7.106 7.106 0 0 1 2.334-.403c1.903 0 3.723.765 5.28 2.21 1.222 1.127 2.028 2.434 2.528 3.295.389.682.917 1.71 1.583 3.087a7.212 7.212 0 0 1 3.043-.82c.139-.014.278-.014.417-.014 3.084 0 5.654 1.793 6.877 4.81.736 1.82.917 3.85 1.042 5.324.027.292.041.57.07.82.263 2.447 1.68 17.892 1.694 18.06v.04l.014.168v.041c.014.376.32 9.19-.417 14.709-.042.32-.111.625-.222.931a23.309 23.309 0 0 1-2.265 6.548c-2.375 4.504-5.78 7.549-10.433 9.314-3.848 1.46-7.947 1.808-11.573 2.114-.597.055-1.208.097-1.792.152-2.223.209-4.862.737-7.405 1.252-3.237.653-6.28 1.279-8.919 1.348h-.458c-3.557 0-5.627-1.168-6.822-2.544-1.236 1.39-3.306 2.586-6.904 2.586zm-8.155-33.073c-.737 0-1.473.208-2.14.612-.861.514-1.486 1.306-1.667 2.113-1.07 4.67 1.362 8.118 7.224 10.273 2.584.946 6.224 2.53 8.92 4.713 1.139.932 2 1.863 2.639 2.78.64-.93 1.514-1.876 2.667-2.808 2.71-2.196 6.35-3.767 8.92-4.713 5.862-2.14 8.293-5.602 7.224-10.273-.18-.806-.806-1.599-1.667-2.113a4.133 4.133 0 0 0-2.14-.612c-.306 0-.597.042-.875.111-.57.153-1.348.751-2.112 1.335-1.417 1.098-3.57 2.752-6.474 2.752-1.597 0-3.153-.5-4.654-1.5a5.503 5.503 0 0 1-.875-.724c-.278.278-.57.542-.903.765-1.5 1-3.057 1.501-4.654 1.501-2.904 0-5.057-1.654-6.474-2.752-.75-.584-1.542-1.182-2.112-1.335a2.712 2.712 0 0 0-.847-.125zm16.365 41.859v4.129c0 .848-.68 1.53-1.528 1.53a1.524 1.524 0 0 1-1.528-1.53v-4.129c0-.848.68-1.53 1.528-1.53s1.528.682 1.528 1.53zm8.905 2.1a1.534 1.534 0 0 1-1.32 2.293 1.522 1.522 0 0 1-1.32-.765L56.1 82.384a1.534 1.534 0 0 1 .555-2.086 1.532 1.532 0 0 1 2.084.556l2.056 3.573zm7.864-2.114a1.522 1.522 0 0 1-2.084.556l-3.57-2.057a1.513 1.513 0 0 1-.556-2.086 1.51 1.51 0 0 1 2.084-.556l3.57 2.058c.722.417.973 1.348.556 2.085zm-24.02-.056l-2.057 3.573a1.522 1.522 0 0 1-2.084.556 1.513 1.513 0 0 1-.555-2.085l2.056-3.573a1.51 1.51 0 0 1 2.084-.556c.722.417.972 1.349.555 2.085zm-6.364-3.74a1.534 1.534 0 0 1-.555 2.086l-3.57 2.058a1.522 1.522 0 0 1-2.084-.556 1.534 1.534 0 0 1 .555-2.086l3.57-2.057a1.532 1.532 0 0 1 2.084.556z"/>
        <path fill="#7300FF" d="M45.943 60.557c-2.375-1.932-5.682-3.364-8.044-4.226-9.891-3.614-9.989-10.218-9.155-13.819.375-1.626 1.487-3.1 3.07-4.045 1.654-1.001 3.626-1.307 5.39-.848 1.168.306 2.196 1.098 3.196 1.877 1.223.945 2.737 2.113 4.612 2.113.903 0 1.89-.278 2.96-.987 1.542-1.029 1.57-3.768 1.11-5.783a11.992 11.992 0 0 0-3.028-5.672c-1.875-1.96-4.334-3.17-7.307-3.601-3.07-.445-5.988 0-8.6.862.209-.376.43-.779.667-1.196 2.445-4.393 5.502-9.856 6.293-11.538 1.779-3.768 1.71-6.437-.18-7.939-3.432-2.724-7.155 1.474-8.364 2.864-.57.64-1.292 1.46-2.14 2.42.515-2.434.473-4.255-.124-5.562a3.793 3.793 0 0 0-2.223-2.071c-1.528-.542-3.14-.125-4.529 1.168-.917.848-1.542 1.877-1.945 2.572-.764 1.334-2.098 4.156-3.654 7.562-.32-2.266-1.695-3.642-3.779-3.753-1.972-.097-3.5.931-4.306 2.905-.57 1.39-.709 3.087-.82 4.435-.028.32-.056.612-.083.876-.25 2.391-1.626 17.377-1.695 18.003v.084c-.014.361-.306 8.925.389 14.194a1.7 1.7 0 0 0 .139.472c.375 2.113 1.042 4.115 2.028 5.978 4.501 8.536 12.503 9.203 19.561 9.801.611.056 1.223.097 1.82.153 2.39.222 5.112.765 7.738 1.307 3.098.625 6.03 1.223 8.391 1.279h.375c3.03 0 4.807-1.029 5.321-3.059.39-1.612.209-4.156-3.084-6.826zM20.228 8.69c.597-1.043 1.75-2.739 2.806-2.364.18.056.32.153.445.431.917 2.044-1.237 7.772-2.237 10.19-3.612 4.171-7.627 8.898-10.447 12.499 3.584-8.37 7.89-18.06 9.433-20.756zM7.974 19.519c.028-.292.056-.612.084-.946.097-1.21.222-2.586.611-3.545.347-.876.736-1.029 1.32-.987.347.014.917.042.958 1.654.014.39.028.876.056 1.446.042 1.154.097 2.572.097 3.976A816.563 816.563 0 0 0 6.92 30.78c.416-4.56.916-9.94 1.055-11.26zM46.04 66.673c-.166.668-1.542.765-2.653.737-2.098-.056-4.904-.626-7.863-1.223-2.71-.543-5.502-1.112-8.058-1.349l-1.848-.167c-6.89-.584-13.392-1.126-17.116-8.174-1.861-3.531-2.43-7.563-1.695-11.97.584-3.475 2.029-7.104 3.96-9.926 3.737-5.477 16.018-19.365 20.06-23.94 1.64-1.862 2.668-2.474 3.238-2.654a1.35 1.35 0 0 1 .375-.07c.195 0 .361.07.57.236.458.362.514 1.669-.695 4.24-.75 1.585-3.89 7.23-6.196 11.345-.931 1.668-1.737 3.114-2.306 4.142l-.348.64c-3.75 2.127-6.196 4.601-6.39 4.796l-1.07 1.098 2.181 2.141 1.07-1.098c.083-.083 8.1-8.174 17.018-6.868 4.238.626 6.224 3.087 7.141 5.047 1 2.14.917 4.004.695 4.518-1.223.765-1.903.431-3.876-1.084-1.181-.918-2.515-1.947-4.28-2.405-2.555-.682-5.39-.25-7.751 1.181-2.279 1.377-3.904 3.56-4.46 5.992-.528 2.294-.778 5.77.959 9.287 1.778 3.559 5.182 6.283 10.128 8.09 3.07 1.127 5.543 2.406 7.168 3.726 1.653 1.293 2.334 2.558 2.042 3.712zM97.82 37.258v-.084c-.056-.64-1.431-15.626-1.695-18.003-.028-.264-.056-.57-.084-.876-.11-1.362-.264-3.044-.82-4.435-.791-1.974-2.32-3.002-4.306-2.905-2.098.111-3.46 1.487-3.779 3.753-1.542-3.406-2.89-6.242-3.654-7.562-.403-.695-1.042-1.724-1.945-2.572-1.389-1.28-2.987-1.696-4.529-1.168-1 .348-1.778 1.07-2.223 2.071-.583 1.321-.639 3.142-.125 5.561-.847-.959-1.57-1.78-2.14-2.419-1.222-1.376-4.931-5.574-8.362-2.864-1.89 1.502-1.945 4.171-.181 7.939.792 1.682 3.848 7.145 6.293 11.538.237.417.459.807.667 1.196-2.612-.862-5.543-1.32-8.6-.862-2.959.43-5.418 1.64-7.307 3.6A11.992 11.992 0 0 0 52 34.84c-.458 2.03-.444 4.754 1.112 5.783 1.07.709 2.056.987 2.959.987 1.862 0 3.39-1.182 4.612-2.113 1-.765 2.029-1.571 3.196-1.877 1.764-.473 3.723-.153 5.39.848 1.57.96 2.695 2.433 3.07 4.045.82 3.615.737 10.205-9.155 13.82-2.362.861-5.668 2.293-8.044 4.225-3.279 2.656-3.473 5.2-3.056 6.868.514 2.03 2.306 3.058 5.32 3.058h.376c2.362-.07 5.293-.653 8.391-1.279 2.626-.528 5.349-1.084 7.738-1.306a74.044 74.044 0 0 1 1.82-.153c7.058-.598 15.06-1.265 19.561-9.801a20.679 20.679 0 0 0 2.028-5.978c.07-.14.125-.306.14-.473.666-5.31.374-13.874.36-14.235zm-7.753-20.172c.028-.57.042-1.057.056-1.446.028-1.599.611-1.627.959-1.655.583-.027.958.126 1.32.988.388.973.513 2.335.61 3.545.028.333.056.639.084.945.139 1.32.64 6.7 1.07 11.233a816.564 816.564 0 0 0-4.182-9.662c-.028-1.363.028-2.795.083-3.948zM77.576 6.715c.126-.278.265-.376.445-.431 1.056-.376 2.21 1.32 2.807 2.363 1.542 2.697 5.835 12.387 9.433 20.756-2.834-3.6-6.835-8.327-10.447-12.498-1-2.42-3.154-8.147-2.237-10.19zM92.554 56.47c-3.723 7.062-10.225 7.605-17.116 8.175-.625.055-1.236.097-1.847.166-2.557.237-5.349.807-8.058 1.349-2.96.598-5.766 1.168-7.863 1.223-1.126.028-2.487-.07-2.654-.737-.292-1.167.39-2.419 2.015-3.74 1.625-1.32 4.098-2.599 7.168-3.725 4.946-1.807 8.35-4.532 10.128-8.091 1.75-3.517 1.487-6.979.959-9.287-.556-2.418-2.182-4.601-4.46-5.991-2.362-1.432-5.182-1.863-7.752-1.182-1.764.473-3.098 1.501-4.28 2.405-1.972 1.515-2.653 1.849-3.875 1.084-.222-.514-.306-2.377.695-4.518.916-1.96 2.917-4.42 7.14-5.046 8.92-1.307 16.95 6.784 17.019 6.867l1.07 1.099 2.18-2.141-1.069-1.098c-.194-.195-2.64-2.656-6.39-4.797l-.348-.64c-.57-1.028-1.375-2.474-2.306-4.142-2.306-4.115-5.446-9.76-6.196-11.344-1.209-2.572-1.153-3.879-.695-4.24.209-.167.375-.237.57-.237.11 0 .236.028.375.07.57.18 1.584.792 3.237 2.655 4.029 4.56 16.31 18.448 20.06 23.94 1.932 2.836 3.377 6.45 3.96 9.926.764 4.434.195 8.452-1.667 11.997z"/>
    </g>
</svg>
