<?xml version="1.0" encoding="UTF-8" standalone="no"?>
<svg width="63px" height="87px" viewBox="0 0 63 87" version="1.1" xmlns="http://www.w3.org/2000/svg" xmlns:xlink="http://www.w3.org/1999/xlink">
    <!-- Generator: Sketch 43.2 (39069) - http://www.bohemiancoding.com/sketch -->
    <title>images/words</title>
    <desc>Created with Sketch.</desc>
    <defs></defs>
    <g id="Basics" stroke="none" stroke-width="1" fill="none" fill-rule="evenodd">
        <g id="basics/images/words" transform="translate(-148.000000, -12.000000)">
            <g id="images/words" transform="translate(132.000000, 8.000000)">
                <g>
                    <rect id="images/article-thumbnail" x="0" y="0" width="96" height="96"></rect>
                    <g id="Springster_Stickers_Icon_Pen_Sunny_Yellow_RGB" transform="translate(16.000000, 4.000000)" fill-rule="nonzero">
                        <g id="Pen">
                            <g id="Sticker">
                                <path d="M5.64304813,74.3439306 C4.44705882,74.3439306 3.26791444,73.9583815 2.30775401,73.2375723 C0.75802139,72.0809249 -0.0842245989,70.1699422 0.117914439,68.2421965 L2.29090909,47.1543353 C2.29090909,47.0872832 2.30775401,47.0202312 2.32459893,46.9364162 C2.45935829,45.9976879 2.82994652,45.1260116 3.4026738,44.3716763 L35.5764706,2.19595376 C36.6208556,0.821387283 38.2716578,0.0167630058 40.0066845,0.0167630058 C40.1751337,0.0167630058 40.3435829,0.0167630058 40.4951872,0.0335260116 C41.2868984,0.100578035 48.4965241,0.871676301 54.5438503,5.96763006 C59.209893,9.90693642 62.1072193,15.6398844 62.4272727,16.2768786 C63.3537433,18.1710983 63.1347594,20.383815 61.8545455,22.0601156 L29.6807487,64.2358382 C29.1248663,64.9566474 28.4005348,65.5433526 27.5751337,65.9121387 C27.507754,65.9456647 27.4235294,65.9791908 27.3561497,66.0127168 L7.7486631,73.9248555 C7.05802139,74.2098266 6.35053476,74.3439306 5.64304813,74.3439306 Z M25.5032086,81.9543353 C21.2919786,79.7416185 17.0807487,80.9988439 13.3580214,82.1052023 C9.75320856,83.1780347 7.44545455,83.7479769 5.57566845,82.4739884 C4.41336898,81.6861272 3.84064171,80.6803468 3.79010695,79.3225434 C3.75641711,78.3 2.8973262,77.5121387 1.8697861,77.5456647 C0.842245989,77.5791908 0.0505347594,78.434104 0.0842245989,79.4566474 C0.185294118,81.9710983 1.34759358,84.066474 3.47005348,85.5080925 C4.96925134,86.5306358 6.51898396,86.899422 8.10240642,86.899422 C10.1911765,86.899422 12.3136364,86.2624277 14.4024064,85.6421965 C17.7377005,84.6531792 20.8877005,83.7144509 23.7513369,85.2231214 C24.6609626,85.6924855 25.7727273,85.3572254 26.2612299,84.4520231 C26.7665775,83.5468208 26.4128342,82.4236994 25.5032086,81.9543353 Z" id="Shape" fill="#FFFC80"></path>
                                <path d="M59.0751337,17.9028902 C58.9572193,17.6682081 56.278877,12.2872832 52.1181818,8.78381503 C46.8625668,4.3583815 40.4109626,3.73815029 40.1414439,3.70462428 C39.5013369,3.65433526 38.8949198,3.92254335 38.5074866,4.42543353 L6.33368984,46.6011561 C6.1315508,46.8693642 5.99679144,47.1878613 5.9631016,47.5231214 L5.9631016,47.5231214 L3.79010695,68.6109827 C3.72272727,69.2479769 4.00909091,69.8849711 4.5144385,70.2705202 C4.83449198,70.5219653 5.23877005,70.6393064 5.62620321,70.6393064 C5.86203209,70.6393064 6.09786096,70.5890173 6.31684492,70.5052023 L25.9411765,62.6098266 L25.9411765,62.6098266 C26.244385,62.4924855 26.5139037,62.2913295 26.7160428,62.0231214 L58.8898396,19.8473988 C59.3109626,19.2774566 59.3783422,18.5231214 59.0751337,17.9028902 Z M22.2858289,60.0953757 L15.8005348,62.7104046 C15.1435829,61.3861272 13.1558824,58.3017341 8.67513369,57.3462428 L9.38262032,50.4398844 C11.3871658,51.3786127 14.3350267,52.8705202 16.6090909,54.4965318 C18.8326203,56.0890173 20.9550802,58.4526012 22.2858289,60.0953757 Z M8.30454545,61.0508671 C10.7470588,61.7046243 11.9262032,63.2971098 12.381016,64.1017341 L7.79919786,65.9456647 L8.30454545,61.0508671 Z M25.2336898,57.8491329 C24.3409091,56.7595376 23.1280749,55.3514451 21.7299465,54.0104046 L46.3909091,21.6745665 C47.0141711,20.8699422 46.8457219,19.7132948 46.0371658,19.0930636 C45.2286096,18.4728324 44.0663102,18.6404624 43.4430481,19.4450867 L18.9168449,51.6132948 C18.8663102,51.5797688 18.8157754,51.5462428 18.7820856,51.5127168 C16.171123,49.6352601 12.8526738,47.9757225 10.713369,46.9867052 L40.7983957,7.5433526 C42.5839572,7.87861272 46.4919786,8.86763006 49.7430481,11.6 C52.3371658,13.7791908 54.3248663,16.9641618 55.234492,18.5566474 L25.2336898,57.8491329 Z" id="Shape" fill="#7300FF"></path>
                            </g>
                        </g>
                    </g>
                </g>
            </g>
        </g>
    </g>
</svg>