<?xml version="1.0" encoding="UTF-8" standalone="no"?>
<svg width="22px" height="23px" viewBox="0 0 22 23" version="1.1" xmlns="http://www.w3.org/2000/svg" xmlns:xlink="http://www.w3.org/1999/xlink">
    <!-- Generator: Sketch 43.1 (39012) - http://www.bohemiancoding.com/sketch -->
    <title>icons/instagram</title>
    <desc>Created with Sketch.</desc>
    <defs></defs>
    <g id="Basics" stroke="none" stroke-width="1" fill="none" fill-rule="evenodd">
        <g id="basics/icons" transform="translate(-235.000000, -520.000000)" fill="#E331AD">
            <g id="icon" transform="translate(179.000000, 487.000000)">
                <g id="icons/instagram" transform="translate(55.000000, 32.000000)">
                    <path d="M18.9759149,6.419 C18.9759149,7.307 18.3139149,8.026 17.4449149,8.026 C16.5759149,8.026 15.8589149,7.307 15.8589149,6.419 C15.8589149,5.537 16.5759149,4.868 17.4449149,4.868 C18.3139149,4.868 18.9759149,5.537 18.9759149,6.419 M14.9169149,12.748 C14.6699149,14.271 14.0089149,15.293 11.5869149,15.332 L11.4919149,15.332 C9.70491493,15.332 8.70191493,14.525 8.33491493,12.794 C8.03891493,11.397 9.12091493,9.829 9.96691493,9.406 C10.4599149,9.159 11.0509149,9.028 11.6749149,9.028 C12.2869149,9.028 12.8869149,9.162 13.2819149,9.385 C14.5519149,10.104 15.1479149,11.329 14.9169149,12.748 M14.1679149,7.818 C12.8449149,7.069 10.6709149,7.039 9.16191493,7.797 C7.53491493,8.61 6.10691493,10.962 6.57391493,13.167 C7.11591493,15.724 8.86191493,17.132 11.4919149,17.132 L11.6159149,17.131 C14.5929149,17.083 16.2539149,15.744 16.6929149,13.037 C17.0419149,10.897 16.0749149,8.897 14.1679149,7.818 M20.2879149,20.06 C19.6599149,20.729 18.5519149,21.083 16.9949149,21.113 C16.1959149,21.129 13.6699149,21.155 11.4199149,21.18 C9.69091493,21.198 8.12291493,21.215 7.62191493,21.224 L7.46391493,21.225 C5.38191493,21.225 2.89291493,20.62 2.85791493,17.738 C2.83291493,15.695 2.86691493,13.655 2.94991493,12.14 C3.07191493,9.836 3.05491493,8.552 3.03991493,7.418 C3.03491493,7.07 3.03091493,6.737 3.03091493,6.391 C3.03091493,3.462 4.46991493,3.067 5.87791493,3.067 C6.60791493,3.067 8.67091493,3.021 10.8779149,2.97 C13.3309149,2.913 16.1109149,2.85 17.2039149,2.85 L17.4799149,2.852 C19.0259149,2.879 20.7139149,3.853 20.8139149,6.501 C20.8639149,7.814 20.8689149,9.293 20.8739149,10.859 C20.8809149,12.874 20.8889149,15.158 20.9939149,17.58 C21.0429149,18.69 20.8109149,19.501 20.2879149,20.06 M22.7249149,10.854 C22.7189149,9.271 22.7139149,7.775 22.6629149,6.431 C22.5239149,2.742 19.9759149,1.046 17.5139149,1.002 L17.2039149,1 C16.0899149,1 13.4189149,1.061 10.8359149,1.12 C8.64791493,1.171 6.60091493,1.218 5.87791493,1.218 C2.84891493,1.218 1.18091493,3.055 1.18091493,6.391 C1.18091493,6.745 1.18491493,7.087 1.18991493,7.442 C1.20491493,8.547 1.22091493,9.799 1.10191493,12.041 C1.01791493,13.594 0.982914928,15.679 1.00791493,17.761 C1.04891493,21.088 3.46191493,23.075 7.46391493,23.075 L7.65291493,23.073 C8.15291493,23.065 9.71591493,23.048 11.4399149,23.029 C13.6959149,23.006 16.2289149,22.979 17.0309149,22.963 C19.1059149,22.922 20.6549149,22.371 21.6369149,21.325 C22.5069149,20.398 22.9129149,19.11 22.8429149,17.5 C22.7389149,15.114 22.7309149,12.851 22.7249149,10.854" id="instagram"></path>
                </g>
            </g>
        </g>
    </g>
</svg>