<?xml version="1.0" encoding="UTF-8"?>
<svg width="97px" height="24px" viewBox="0 0 97 24" version="1.1" xmlns="http://www.w3.org/2000/svg" xmlns:xlink="http://www.w3.org/1999/xlink">
    <!-- Generator: Sketch 42 (36781) - http://www.bohemiancoding.com/sketch -->
    <title>images/project-logo-white</title>
    <desc>Created with Sketch.</desc>
    <defs></defs>
    <g id="Prototype" stroke="none" stroke-width="1" fill="none" fill-rule="evenodd">
        <g id="open-tags" transform="translate(-131.000000, -32.000000)" fill-rule="nonzero" fill="#FFFFFF">
            <g id="Group">
                <g id="header/default" transform="translate(0.000000, 24.000000)">
                    <g id="images/project-logo-white" transform="translate(131.000000, 8.000000)">
                        <path d="M50.1199576,23.9932146 C52.8498866,23.9932146 55.4904074,22.0105987 56.4262128,19.0426107 L59.0667337,10.7500524 C59.323037,9.98431147 58.8700357,9.13546692 58.1011256,8.88021996 C57.4454658,8.68433275 56.7361611,8.96332362 56.3666074,9.53317731 C53.8929817,13.6111928 51.7352649,15.6769124 50.3703004,16.1814703 C50.3404977,16.0983667 50.3404977,15.9855831 50.3404977,15.8965435 C50.3404977,12.1331348 53.2671247,8.00169552 57.0461093,8.00169552 C57.5885188,8.00169552 58.1547705,8.06105528 58.7806276,8.28662237 C59.5495377,8.51218945 60.4018954,8.09073516 60.6581988,7.32499427 C60.8846995,6.55925338 60.4615009,5.71040882 59.6925907,5.45516186 C58.7269827,5.17023501 57.8746249,5.05745147 57.0520699,5.05745147 C51.9081207,5.05745147 47.3363837,10.5779091 47.3363837,15.9796471 C47.3363837,18.722068 48.7847958,19.3453455 49.8636542,19.3453455 C51.0557629,19.3453455 52.4207275,18.5796046 54.2982987,16.3714215 L53.7558892,18.1284704 C53.2134798,19.7964796 51.7948704,21.0430346 50.1199576,21.0430346 C49.4404556,21.0430346 48.7013482,20.8471474 48.1052938,20.4197571 C47.4794367,19.9389431 46.5138287,20.1110864 46.0608273,20.7581077 C45.5780233,21.3813852 45.7508791,22.3430133 46.4005783,22.7941475 C47.449634,23.5717603 48.8682434,23.9932146 50.1199576,23.9932146 L50.1199576,23.9932146 Z M8.40807288,14.8814916 C8.40807288,13.3796897 7.66896546,11.9669274 6.81660772,10.9221957 C6.33380368,10.3285981 5.82119692,9.64596085 5.82119692,8.88615593 C5.82119692,8.29255834 6.33380368,7.81174429 7.04310838,7.81174429 C7.4424648,7.81174429 7.86566341,7.98388759 8.26501983,8.32223822 C8.8610742,8.77337239 9.74323467,8.66058885 10.2260387,8.06699126 C10.67904,7.47339367 10.5657897,6.59486923 9.96973533,6.11405518 C9.00412725,5.37799417 7.89546612,5.03964354 6.95966077,5.03964354 C4.68869362,5.03964354 2.86476725,6.68390887 2.86476725,8.88615593 C2.86476725,10.3285981 3.57407195,11.6285768 4.45623242,12.7326683 C4.90923374,13.3262659 5.42184049,14.0920068 5.42184049,14.9408514 C5.42184049,15.8490557 4.76618069,16.5851167 3.91382294,16.5851167 C3.34757129,16.5851167 2.86476725,16.2764459 2.51905572,15.7956319 C2.0660544,15.2020343 1.15409122,15.0595709 0.558036848,15.4869611 C-0.0380175208,15.9380953 -0.181070569,16.8462996 0.248088576,17.4398972 C1.16005176,18.6567723 2.49521355,19.3631534 3.91382294,19.3631534 C6.30400096,19.3572174 8.40807288,17.5408088 8.40807288,14.8814916 L8.40807288,14.8814916 Z M66.7737166,14.8814916 C66.7737166,13.3796897 66.0346092,11.9669274 65.1822515,10.9221957 C64.6994474,10.3285981 64.1868407,9.64596085 64.1868407,8.88615593 C64.1868407,8.29255834 64.6159998,7.81174429 65.2120542,7.81174429 C65.5518052,7.81174429 65.9511616,7.92452783 66.3207153,8.23913456 C66.9167697,8.69026873 67.7989302,8.57748518 68.2817342,7.98388759 C68.7347355,7.39029 68.6214852,6.51176557 68.0254308,6.03095152 C67.0896255,5.32457039 66.0644119,5.03964354 65.2120542,5.03964354 C62.9947319,5.03964354 61.2363716,6.68390887 61.2363716,8.88615593 C61.2363716,10.3285981 61.975479,11.6285768 62.8576394,12.7326683 C63.3106408,13.3262659 63.7934448,14.0920068 63.7934448,14.9408514 C63.7934448,15.8490557 63.137785,16.5851167 62.2615851,16.5851167 C61.6953334,16.5851167 61.1231212,16.2467661 60.7833702,15.765952 C60.3303689,15.1723544 59.4184057,15.029891 58.8223514,15.4572813 C58.226297,15.9084154 58.083244,16.8166197 58.5124031,17.4102173 C59.4243663,18.6270924 60.8429757,19.3631534 62.2615851,19.3631534 C64.6696447,19.3572174 66.7737166,17.5408088 66.7737166,14.8814916 L66.7737166,14.8814916 Z M44.8925608,18.0513027 L47.2529361,10.6906926 C47.7953456,9.02268338 47.9324381,8.31630224 47.9324381,7.6633449 C47.9324381,6.07843933 46.7939742,5.19991489 45.4886151,5.19991489 C43.6408466,5.19991489 41.6798277,6.92728388 39.2062021,10.8034761 L40.3148632,7.32499427 C40.5413639,6.61861314 40.1181653,5.79944846 39.4029,5.5442015 C38.6935953,5.31863441 37.8412376,5.7400887 37.6147369,6.47614971 L35.0576637,14.4006775 L34.1755032,17.1430984 C33.8357522,18.1878302 34.6583073,19.0663546 35.5941126,19.0663546 C36.0471139,19.0663546 36.4464704,18.8407875 36.7564186,18.4133973 C40.2492972,13.2609702 42.8957786,9.92495172 44.6839417,8.73775653 C44.6243363,9.02268338 44.5408887,9.361034 44.3978357,9.78248829 L42.0374604,17.1430984 C41.781157,17.9088393 42.2341583,18.7576839 43.0030684,19.0129308 C43.7838997,19.2384979 44.6362574,18.8170436 44.8925608,18.0513027 L44.8925608,18.0513027 Z M23.8339599,18.0513027 L24.5730674,15.8134398 C25.8784264,12.0203512 28.1255514,9.33135412 30.9687307,8.14415894 C31.7376409,7.80580832 32.1071946,6.897604 31.7912858,6.13779909 C31.4515348,5.3720582 30.5395716,5.00402769 29.776622,5.31863441 C28.614316,5.76976858 27.6725501,6.76107656 26.7367447,8.57154921 L27.1361011,7.32499427 C27.3626018,6.61861314 26.9394032,5.79944846 26.224138,5.5442015 C25.5148333,5.31863441 24.6624755,5.7400887 24.4359748,6.47614971 L22.474956,12.5308451 L20.9967411,17.1430984 C20.7404378,17.9088393 21.1934391,18.7576839 21.9623492,19.0129308 C22.7252988,19.2384979 23.5776566,18.8170436 23.8339599,18.0513027 L23.8339599,18.0513027 Z M88.7085174,18.0513027 L89.4476248,15.7896959 C90.7529839,12.0559671 93.0299116,9.36696998 95.9565385,8.15009492 C96.8088963,7.78206441 97.2082527,6.93321986 96.8923439,6.14373506 C96.5525929,5.37799417 95.5571821,5.00996366 94.7584692,5.32457039 C93.5067551,5.80538444 92.5113443,6.87979608 91.5457362,8.77930837 L91.9987375,7.33686622 C92.2252382,6.63048509 91.8020396,5.81132041 91.0867743,5.55607345 C90.3774696,5.33050636 89.5251119,5.75196065 89.2986112,6.48802167 L87.3375924,12.5427171 L85.8593775,17.1549704 C85.6030741,17.9207113 86.0560755,18.7695558 86.8249856,19.0248028 C87.5998563,19.2384979 88.452214,18.8170436 88.7085174,18.0513027 L88.7085174,18.0513027 Z M10.2260387,22.9781627 L11.5313978,18.9001473 C13.4626139,13.5221531 16.7051497,8.74369251 19.1191699,8.28662237 C19.1787753,8.48250957 19.2026175,8.65465287 19.2026175,8.85054008 C19.2026175,11.824464 16.5620966,15.8431197 13.9156152,16.4367173 C13.1228629,16.6088606 12.6102562,17.4280253 12.7771514,18.1937662 C12.9500072,18.9832509 13.7725622,19.4937449 14.5414723,19.3275376 C18.3502597,18.478693 22.1590472,13.1600586 22.1590472,8.71401263 C22.1590472,6.0843753 20.8775303,5.20585087 19.4887236,5.20585087 C17.9568639,5.20585087 16.3653987,6.30994239 14.8275784,8.26287846 L15.1136845,7.33093024 C15.3401852,6.62454911 14.9169866,5.80538444 14.1778792,5.55013747 C13.4685745,5.32457039 12.6162167,5.74602468 12.3897161,6.48208569 L9.54653672,15.3088819 L7.38285937,22.0699584 C7.15635871,22.8356993 7.57955731,23.6845439 8.34846744,23.9397908 C9.11737758,24.1653579 9.96973533,23.7379676 10.2260387,22.9781627 L10.2260387,22.9781627 Z M84.1069777,7.66928087 C84.1665831,7.66928087 84.2500307,7.66928087 84.3036756,7.69896075 C84.3334783,7.81174429 84.3632811,7.95420771 84.3632811,8.09667114 C84.3632811,9.87746391 82.3188146,11.2368024 80.0716896,12.0025433 C80.810797,9.64596085 82.3426567,7.66928087 84.1069777,7.66928087 L84.1069777,7.66928087 Z M70.8924523,19.3572174 C72.0011135,19.3572174 73.6462235,18.8764034 75.5237948,16.1874063 C75.9767961,15.510705 75.8099009,14.5728208 75.1542411,14.1216867 C74.4747391,13.6705525 73.5329732,13.8367598 73.0799719,14.4897172 C72.4839175,15.3682416 71.941508,15.9321593 71.458704,16.2467661 C71.458704,15.9618392 71.5183094,15.6531685 71.601757,15.3682416 L73.8727242,8.26287846 L76.8589566,8.26287846 C77.6278667,8.26287846 78.277566,7.60992111 78.277566,6.8738601 C78.277566,6.13779909 77.6219062,5.48484174 76.8589566,5.48484174 L74.7548846,5.48484174 L75.8635458,2.03010376 C76.1198491,1.26436287 75.6668478,0.415518313 74.8979377,0.160271349 C74.1290276,-0.065295735 73.2766698,0.356158554 73.0203664,1.12189945 L71.6255992,5.47890576 L70.6003857,5.47890576 C69.8314756,5.47890576 69.1817763,6.13186311 69.1817763,6.86792412 C69.1817763,7.60398514 69.8374361,8.25694249 70.6003857,8.25694249 L70.7434387,8.25694249 L68.6691695,14.7093483 C68.3830634,15.5581929 68.2698131,16.3536136 68.2698131,16.8344277 C68.2757737,18.3659095 69.2711844,19.3572174 70.8924523,19.3572174 L70.8924523,19.3572174 Z M34.7775181,5.5442015 C34.008608,5.31863441 33.1562503,5.7400887 32.8999469,6.50582959 L29.4905159,17.1490344 C29.2342125,17.9147753 29.6872138,18.7636198 30.456124,19.0188668 C31.2250341,19.2444339 32.0773919,18.8229796 32.3336952,18.0572387 L35.7431262,7.41403391 C35.9994296,6.64829302 35.5404677,5.79944846 34.7775181,5.5442015 L34.7775181,5.5442015 Z M80.1253345,19.3572174 C81.3174432,19.3572174 82.6287628,18.8170436 84.5301763,17.1490344 C85.1262306,16.6088606 85.1858361,15.6472325 84.6434266,15.0536349 C84.1010171,14.4600373 83.1354091,14.4006775 82.5393547,14.9408514 C81.5737466,15.8193758 80.7750338,16.3832935 80.0359263,16.6385405 C79.6365699,16.1280465 79.5531223,15.3919855 79.5531223,14.7983879 C84.1010171,13.8367598 87.1706971,11.1180829 87.1706971,8.31630224 C87.1706971,6.53550947 85.9487857,5.20585087 83.9579641,5.20585087 C80.119374,5.20585087 76.5966926,9.87746391 76.5966926,15.1664184 C76.6026532,18.0809826 78.1941183,19.3572174 80.1253345,19.3572174 L80.1253345,19.3572174 Z M35.8563765,4.04239959 C36.9650377,4.04239959 37.8710403,3.13419528 37.8710403,2.00635986 C37.8710403,0.902268338 36.9590771,-3.55271368e-15 35.8563765,-3.55271368e-15 C34.7179127,-3.55271368e-15 33.8119101,0.908204314 33.8119101,2.00635986 C33.8119101,3.14013125 34.7179127,4.04239959 35.8563765,4.04239959 L35.8563765,4.04239959 Z" id="Logo"></path>
                    </g>
                </g>
            </g>
        </g>
    </g>
</svg>