<?xml version="1.0" encoding="UTF-8"?>
<svg width="200px" height="59px" viewBox="0 0 200 59" version="1.1" xmlns="http://www.w3.org/2000/svg" xmlns:xlink="http://www.w3.org/1999/xlink">
    <!-- Generator: Sketch 43.1 (39012) - http://www.bohemiancoding.com/sketch -->
    <title>images/project-logo-icon-purple</title>
    <desc>Created with Sketch.</desc>
    <defs></defs>
    <g id="Symbols" stroke="none" stroke-width="1" fill="none" fill-rule="evenodd">
        <g id="template/footer" transform="translate(-80.000000, -799.000000)" fill="#7300FF">
            <g id="component/footer-logo" transform="translate(0.000000, 780.000000)">
                <g id="images/project-logo-purple" transform="translate(80.000000, 19.000000)">
                    <g id="Springster_Logo_Horizontal_White_RGB">
                        <path d="M127.431996,48.1233177 C131.655141,48.1233177 135.739972,45.0394366 137.187644,40.4228482 L141.272476,27.5241002 C141.668972,26.3330203 140.968188,25.0126761 139.7787,24.6156495 C138.764408,24.3109546 137.667128,24.7449139 137.095436,25.6312989 C133.268787,31.9744914 129.930844,35.1876369 127.819272,35.972457 C127.773167,35.8431925 127.773167,35.6677621 127.773167,35.5292645 C127.773167,29.6754304 132.300599,23.2491393 138.146611,23.2491393 C138.985708,23.2491393 139.861687,23.341471 140.829876,23.6923318 C142.019364,24.0431925 143.337944,23.3876369 143.73444,22.1965571 C144.084832,21.0054773 143.430152,19.685133 142.240664,19.2881064 C140.746888,18.8449139 139.428308,18.6694836 138.155832,18.6694836 C130.198248,18.6694836 123.125864,27.256338 123.125864,35.658529 C123.125864,39.9242567 125.366528,40.8937402 127.0355,40.8937402 C128.879668,40.8937402 130.99124,39.7026604 133.895805,36.2679186 L133.056708,39.000939 C132.217612,41.5954617 130.023052,43.5344288 127.431996,43.5344288 C126.380821,43.5344288 125.237437,43.229734 124.315353,42.5649452 C123.347165,41.8170579 121.853389,42.08482 121.152605,43.0912363 C120.405717,44.0607199 120.673121,45.5564945 121.678193,46.258216 C123.30106,47.4677621 125.49562,48.1233177 127.431996,48.1233177 L127.431996,48.1233177 Z M62.9045643,33.9503912 C62.9045643,31.6143975 61.7611803,29.4169014 60.4426003,27.7918623 C59.6957123,26.8685446 58.9027201,25.8067293 58.9027201,24.6248826 C58.9027201,23.7015649 59.6957123,22.9536776 60.7929922,22.9536776 C61.4107884,22.9536776 62.065468,23.2214397 62.6832642,23.7477308 C63.6053481,24.4494523 64.9700323,24.2740219 65.7169202,23.3507042 C66.417704,22.4273865 66.2425081,21.0608764 65.3204242,20.312989 C63.8266482,19.1680751 62.1115722,18.641784 60.6639004,18.641784 C57.1507607,18.641784 54.329184,21.199374 54.329184,24.6248826 C54.329184,26.8685446 55.4264638,28.8906103 56.791148,30.6079812 C57.4919318,31.5312989 58.2849239,32.7223787 58.2849239,34.042723 C58.2849239,35.4553991 57.2706316,36.600313 55.9520516,36.600313 C55.0760719,36.600313 54.329184,36.1201878 53.7943753,35.3723005 C53.0935915,34.4489828 51.6828031,34.2273865 50.7607192,34.8921753 C49.8386353,35.5938967 49.6173352,37.0065728 50.2812356,37.9298905 C51.692024,39.8226917 53.7574919,40.9214397 55.9520516,40.9214397 C59.6496081,40.9122066 62.9045643,38.0868545 62.9045643,33.9503912 L62.9045643,33.9503912 Z M153.195021,33.9503912 C153.195021,31.6143975 152.051637,29.4169014 150.733057,27.7918623 C149.986169,26.8685446 149.193177,25.8067293 149.193177,24.6248826 C149.193177,23.7015649 149.857077,22.9536776 150.779161,22.9536776 C151.304749,22.9536776 151.922545,23.129108 152.494237,23.6184664 C153.416321,24.3201878 154.781005,24.1447574 155.527893,23.2214397 C156.228677,22.2981221 156.053481,20.9316119 155.131397,20.1837246 C153.683725,19.0849765 152.097741,18.641784 150.779161,18.641784 C147.349009,18.641784 144.628861,21.199374 144.628861,24.6248826 C144.628861,26.8685446 145.772245,28.8906103 147.136929,30.6079812 C147.837713,31.5312989 148.584601,32.7223787 148.584601,34.042723 C148.584601,35.4553991 147.570309,36.600313 146.214846,36.600313 C145.338866,36.600313 144.453665,36.0740219 143.928077,35.3261346 C143.227294,34.4028169 141.816505,34.1812207 140.894421,34.8460094 C139.972337,35.5477308 139.751037,36.9604069 140.414938,37.8837246 C141.825726,39.7765258 144.020286,40.9214397 146.214846,40.9214397 C149.940065,40.9122066 153.195021,38.0868545 153.195021,33.9503912 L153.195021,33.9503912 Z M119.34532,38.8809077 L122.996773,27.4317684 C123.835869,24.8372457 124.047948,23.7384977 124.047948,22.7228482 C124.047948,20.25759 122.286768,18.8910798 120.267404,18.8910798 C117.408944,18.8910798 114.375288,21.5779343 110.54864,27.6071987 L112.263716,22.1965571 C112.614108,21.0978091 111.959428,19.8236307 110.852928,19.4266041 C109.755648,19.0757433 108.437068,19.7312989 108.086676,20.8762128 L104.130936,33.2025039 L102.766252,37.4682316 C102.240664,39.0932707 103.51314,40.4597809 104.960811,40.4597809 C105.661595,40.4597809 106.279391,40.1089202 106.758875,39.4441315 C112.162287,31.429734 116.256339,26.2406886 119.022591,24.3940532 C118.930383,24.8372457 118.801291,25.3635368 118.579991,26.0190923 L114.928538,37.4682316 C114.532042,38.6593114 115.232826,39.9796557 116.422314,40.3766823 C117.630244,40.727543 118.948824,40.0719875 119.34532,38.8809077 L119.34532,38.8809077 Z M86.7680959,38.8809077 L87.9114799,35.4 C89.9308437,29.5 93.4071,25.3173709 97.8054403,23.4707355 C98.9949285,22.9444444 99.5666206,21.5317684 99.0779161,20.3499218 C98.5523283,19.1588419 97.1415399,18.586385 95.9612725,19.0757433 C94.1632089,19.7774648 92.7063163,21.3194053 91.2586445,24.1355243 L91.8764408,22.1965571 C92.2268326,21.0978091 91.5721531,19.8236307 90.4656524,19.4266041 C89.3683725,19.0757433 88.0497925,19.7312989 87.6994006,20.8762128 L84.6657446,30.2940532 L82.3789765,37.4682316 C81.9824804,38.6593114 82.6832642,39.9796557 83.8727524,40.3766823 C85.0530198,40.727543 86.3715998,40.0719875 86.7680959,38.8809077 L86.7680959,38.8809077 Z M187.127709,38.8809077 L188.271093,35.3630673 C190.290456,29.5553991 193.812817,25.37277 198.340249,23.4799687 C199.658829,22.9075117 200.276625,21.5871674 199.787921,20.3591549 C199.262333,19.1680751 197.722453,18.5956182 196.48686,19.0849765 C194.550484,19.8328638 193.010604,21.5040689 191.516828,24.4586854 L192.217612,22.2150235 C192.568004,21.1162754 191.913324,19.842097 190.806823,19.4450704 C189.709544,19.0942097 188.390964,19.7497653 188.040572,20.8946792 L185.006916,30.3125196 L182.720148,37.486698 C182.323651,38.6777778 183.024435,39.9981221 184.213923,40.3951487 C185.412633,40.727543 186.731213,40.0719875 187.127709,38.8809077 L187.127709,38.8809077 Z M65.7169202,46.5444444 L67.736284,40.201252 C70.7238359,31.8359937 75.7399723,24.4032864 79.4744122,23.6923318 C79.5666206,23.9970266 79.6035039,24.2647887 79.6035039,24.5694836 C79.6035039,29.1953052 75.5186722,35.4461659 71.4246196,36.3694836 C70.198248,36.6372457 69.4052559,37.9114241 69.6634394,39.1025039 C69.9308437,40.3305164 71.2033195,41.1245696 72.3928077,40.8660407 C78.2849239,39.5456964 84.1770401,31.27277 84.1770401,24.3571205 C84.1770401,20.2668232 82.1945597,18.900313 80.0461042,18.900313 C77.6763485,18.900313 75.2143845,20.6176839 72.835408,23.6553991 L73.2780083,22.2057903 C73.6284002,21.1070423 72.9737206,19.8328638 71.8303366,19.4358372 C70.7330567,19.0849765 69.4144767,19.7405321 69.0640848,20.885446 L64.6657446,34.61518 L61.31858,45.1317684 C60.9681881,46.3228482 61.6228677,47.6431925 62.8123559,48.0402191 C64.0018442,48.3910798 65.3204242,47.7262911 65.7169202,46.5444444 L65.7169202,46.5444444 Z M180.009221,22.7320814 C180.101429,22.7320814 180.230521,22.7320814 180.313509,22.7782473 C180.359613,22.9536776 180.405717,23.1752739 180.405717,23.3968701 C180.405717,26.1668232 177.242969,28.2812207 173.766713,29.4723005 C174.910097,25.8067293 177.279852,22.7320814 180.009221,22.7320814 L180.009221,22.7320814 Z M159.566621,40.9122066 C161.281697,40.9122066 163.826648,40.1643192 166.731213,35.9816901 C167.431996,34.929108 167.173813,33.470266 166.159521,32.7685446 C165.108345,32.0668232 163.651452,32.3253521 162.950669,33.3410016 C162.028585,34.7075117 161.189488,35.5846635 160.4426,36.0740219 C160.4426,35.6308294 160.534809,35.1507042 160.6639,34.7075117 L164.17704,23.6553991 L168.79668,23.6553991 C169.986169,23.6553991 170.99124,22.6397496 170.99124,21.4948357 C170.99124,20.3499218 169.976948,19.3342723 168.79668,19.3342723 L165.541724,19.3342723 L167.2568,13.9605634 C167.653296,12.7694836 166.952513,11.4491393 165.763024,11.0521127 C164.573536,10.701252 163.254956,11.3568075 162.85846,12.5478873 L160.700784,19.3250391 L159.114799,19.3250391 C157.925311,19.3250391 156.92024,20.3406886 156.92024,21.4856025 C156.92024,22.6305164 157.934532,23.6461659 159.114799,23.6461659 L159.3361,23.6461659 L156.127248,33.6826291 C155.684647,35.0029734 155.509451,36.2402191 155.509451,36.9881064 C155.518672,39.370266 157.058552,40.9122066 159.566621,40.9122066 L159.566621,40.9122066 Z M103.697556,19.4266041 C102.508068,19.0757433 101.189488,19.7312989 100.792992,20.9223787 L95.5186722,37.4774648 C95.1221761,38.6685446 95.8229599,39.9888889 97.0124481,40.3859155 C98.2019364,40.7367762 99.5205164,40.0812207 99.9170124,38.8901408 L105.191332,22.3350548 C105.587828,21.143975 104.877824,19.8236307 103.697556,19.4266041 L103.697556,19.4266041 Z M173.8497,40.9122066 C175.693868,40.9122066 177.722453,40.0719875 180.6639,37.4774648 C181.585984,36.6372457 181.678193,35.141471 180.839096,34.2181534 C180,33.2948357 178.506224,33.2025039 177.58414,34.042723 C176.090364,35.4092332 174.854772,36.286385 173.711388,36.6834116 C173.093592,35.8893584 172.9645,34.7444444 172.9645,33.8211268 C180,32.3253521 184.748732,28.0965571 184.748732,23.7384977 C184.748732,20.9685446 182.85846,18.900313 179.7787,18.900313 C173.840479,18.900313 168.390964,26.1668232 168.390964,34.3935837 C168.400184,38.9270736 170.862148,40.9122066 173.8497,40.9122066 L173.8497,40.9122066 Z M105.366528,17.0906103 C107.081604,17.0906103 108.483172,15.6779343 108.483172,13.9236307 C108.483172,12.2062598 107.072384,10.8028169 105.366528,10.8028169 C103.605348,10.8028169 102.203781,12.215493 102.203781,13.9236307 C102.203781,15.6871674 103.605348,17.0906103 105.366528,17.0906103 L105.366528,17.0906103 Z M32.208391,8.04209703 C31.7289073,8.04209703 31.2770862,7.73740219 31.120332,7.257277 C31.0834486,7.15571205 31.0557861,7.06338028 31.0189027,6.96181534 L31.0096819,6.94334898 C30.8344859,6.4170579 30.6224066,5.75226917 30.2627939,5.09671362 C29.4236976,3.57323944 28.02213,2.55758998 26.417704,2.30829421 C25.790687,2.21596244 25.3573075,1.62503912 25.4495159,0.997183099 C25.5417243,0.369327074 26.131858,-0.0646322379 26.7588751,0.0276995305 C29.0825265,0.37856025 31.0926694,1.81893584 32.2729368,3.97949922 C32.7431996,4.82895149 33.010604,5.66917058 33.1857999,6.22316119 L33.1950207,6.25086072 C33.2226833,6.34319249 33.2503458,6.42629108 33.2872291,6.51862285 C33.4900876,7.11877934 33.1673582,7.7743349 32.5680037,7.97746479 C32.4573536,8.02363067 32.3282619,8.04209703 32.208391,8.04209703 Z M29.4974643,58.0028169 C29.9216229,57.8643192 30.3457815,57.7165884 30.7607192,57.5596244 C31.3508529,57.328795 31.6459198,56.6640063 31.4153988,56.0638498 C31.1848778,55.4729264 30.5209774,55.1774648 29.9216229,55.4082942 C29.5527893,55.5467919 29.1747349,55.6852895 28.7966805,55.8053208 C27.1000461,56.3408451 25.3757492,56.6086072 23.6606731,56.6086072 C17.6855694,56.6086072 13.7574919,53.3769953 13.0290456,52.7214397 C12.7063163,52.4352113 12.3743661,52.1305164 12.0608575,51.8258216 C11.6090364,51.3826291 10.8713693,51.3918623 10.428769,51.8442879 C9.98616874,52.2967136 9.99538958,53.0353678 10.4472107,53.4785603 C10.7976026,53.8201878 11.1479945,54.143349 11.4983864,54.457277 C12.3374827,55.2051643 16.8556939,58.9261346 23.6606731,58.9261346 C25.615491,58.9169014 27.5795297,58.6122066 29.4974643,58.0028169 Z M45.3665284,27.9118936 C45.3573075,27.9488263 45.3573075,27.9765258 45.3480867,28.0134585 C45.3388658,28.0503912 45.329645,28.0965571 45.3204242,28.1519562 C45.2097741,28.7798122 44.9608114,30.2571205 44.3245735,32.371518 C43.5408022,34.9660407 42.4343015,37.6713615 41.032734,40.4228482 C39.1240203,44.1622848 37.2245274,46.9968701 35.2236053,49.0835681 C33.1028124,51.2902973 30.7791609,52.7676056 28.1143384,53.6170579 C26.648225,54.0787167 25.1544491,54.3187793 23.6791148,54.3187793 C18.450899,54.3187793 15.0299677,51.4195618 14.5781466,51.013302 C9.50668511,46.572144 6.77731674,39.9888889 5.61549101,37.17277 L5.45873675,36.8034429 C4.55509451,34.6336463 0.737667128,24.5325509 0.580912863,24.0985915 L0.580912863,24.0985915 L0.580912863,24.0985915 C0.562471185,24.0524257 0.544029507,23.9970266 0.516366989,23.9416275 C0.387275242,23.6092332 0.20285846,23.1568075 0.119870908,22.6305164 C-0.0737667128,21.3932707 0.424158598,20.2483568 1.42923006,19.6574335 C1.8626095,19.3989045 2.36053481,19.2604069 2.84923928,19.2604069 C3.41171047,19.2604069 4.24158598,19.4358372 5.01613647,20.2483568 C5.30198248,20.5530516 5.52328262,20.8762128 5.69847856,21.1347418 C5.74458276,21.2086072 5.79068695,21.2732394 5.82757031,21.3286385 C6.15952052,21.7995305 8.61226372,25.4189358 10.3550023,27.9949922 L6.07653296,13.2496088 C6.05809129,13.1942097 6.03964961,13.1388106 6.02120793,13.0741784 C5.88289534,12.6309859 5.71692024,12.0862285 5.67081604,11.4953052 C5.56938681,10.0641628 6.32549562,8.88231612 7.59797142,8.47605634 C7.88381743,8.38372457 8.17888428,8.33755869 8.47395113,8.33755869 C9.03642231,8.33755869 10.1152605,8.52222222 10.9727985,9.73176839 C11.2678654,10.1472613 11.4891655,10.6181534 11.692024,11.0244131 C11.7196865,11.0798122 11.7381282,11.1259781 11.7657907,11.1813772 L11.7842324,11.2090767 L11.7934532,11.2367762 L17.4181651,23.8215962 L14.0894421,8.32832551 C13.8589212,7.34037559 13.7390503,6.69405321 13.7390503,6.10312989 C13.7482711,4.45039124 14.7994467,3.55477308 15.7768557,3.2685446 C16.0534809,3.18544601 16.330106,3.1485133 16.6067312,3.1485133 L16.6067312,3.1485133 C17.2429691,3.1485133 18.4232365,3.37010955 19.2438912,4.86588419 C19.5112955,5.35524257 19.7233748,5.93693271 20.0276625,6.76791862 C20.3688336,7.72816901 22.8307976,14.8377152 24.6934071,20.2206573 C23.9280775,15.4655712 23.0152144,9.81486698 22.9598893,9.38090767 C22.9414477,9.26087637 22.9322268,9.15007825 22.9137852,9.03928013 C22.8307976,8.4114241 22.7478101,7.82050078 22.8123559,7.22034429 C22.9506685,5.85383412 23.8358691,4.85665102 25.1175657,4.60735524 C25.3019825,4.57042254 25.4863993,4.55195618 25.6615952,4.55195618 C26.1687414,4.55195618 27.4412172,4.70892019 28.2618718,6.19546166 C28.5200553,6.6571205 28.6768096,7.15571205 28.8335639,7.63583725 C28.8704472,7.74663537 28.9073306,7.86666667 28.9442139,7.98669797 C29.3130475,9.06697966 33.6468419,22.8613459 35.6016598,29.1029734 L39.3268787,25.4374022 L39.3360996,25.428169 L39.3453204,25.4189358 C39.3822038,25.3912363 39.4190871,25.3450704 39.4651913,25.2989045 C40.1014292,24.6618153 41.1526049,23.5907668 42.6094975,23.5907668 C42.9598893,23.5907668 43.3010604,23.6553991 43.6145689,23.7754304 C44.6934071,24.1909233 45.3941909,25.1788732 45.4863993,26.4161189 C45.5325035,27.0255086 45.4310742,27.5610329 45.3665284,27.9118936 Z M30.8529276,37.0158059 C30.6131858,37.2189358 30.3365606,37.3482003 30.0414938,37.3482003 C29.7464269,37.3482003 29.4421392,37.2374022 29.2208391,37.0065728 C28.7782388,36.5541471 28.7782388,35.8247261 29.2392808,35.3723005 L33.7482711,30.9403756 C32.6694329,27.4964006 27.1553711,9.9256651 26.7496542,8.74381847 C26.4361457,7.81126761 26.2240664,6.86948357 25.6431535,6.86948357 C25.6062702,6.86948357 25.5693868,6.86948357 25.5325035,6.87871674 C24.8778239,7.00798122 25.0622407,7.86666667 25.2189949,9.09467919 C25.3019825,9.77793427 27.9299216,26.0190923 27.9299216,26.0190923 L24.5919779,27.099374 C24.5919779,27.099374 18.3771323,9.08544601 17.823882,7.55273865 C17.3167358,6.1400626 17.0585523,5.46604069 16.5790687,5.46604069 C16.5237437,5.46604069 16.4591978,5.47527387 16.4038728,5.49374022 C15.8782849,5.65070423 15.9520516,6.25086072 16.3116644,7.83896714 L20.7192254,28.3550861 L17.3720609,29.4446009 L9.68188105,12.1877934 C9.31304749,11.4306729 8.98109728,10.6458529 8.46473029,10.6458529 C8.40940526,10.6458529 8.35408022,10.6550861 8.28953435,10.6735524 C7.68095897,10.8674491 8.04979253,11.8553991 8.27109267,12.58482 L13.526971,30.700313 L10.1337022,31.8082942 C10.1337022,31.8082942 4.43522361,23.3599374 3.93729829,22.6674491 C3.60534809,22.2057903 3.2549562,21.5687011 2.8307976,21.5687011 C2.74781005,21.5687011 2.6648225,21.5871674 2.57261411,21.6425665 C2.09313047,21.928795 2.52650991,22.7874804 2.71092669,23.2768388 C2.71092669,23.2768388 6.65744583,33.7472613 7.56108806,35.9078247 L7.71784232,36.2771518 C8.82434302,38.9455399 11.4153988,45.1871674 16.0811434,49.2774648 C16.2286768,49.4159624 19.1609036,52.001252 23.6514523,52.001252 C24.8040572,52.001252 26.0580913,51.8350548 27.395113,51.4103286 C31.9317658,49.9699531 35.3895805,46.3782473 38.9580452,39.370266 C42.2591056,32.8978091 42.8861226,28.5766823 43.0613186,27.6164319 C43.153527,27.1178404 43.3748271,26.1945227 42.7662517,25.9636933 C42.7109267,25.9452269 42.6463808,25.9359937 42.5910558,25.9359937 C42.0101429,25.9359937 41.2355924,26.8131455 40.9220839,27.1178404 L30.8529276,37.0158059 Z" id="Logo" fill-rule="nonzero"></path>
                    </g>
                </g>
            </g>
        </g>
    </g>
</svg>