<svg width="19" height="20" viewBox="0 0 19 20" xmlns="http://www.w3.org/2000/svg">
    <title>
        icons/avatar
    </title>
    <g fill="#FCAB88" fill-rule="evenodd">
        <path d="M17.063 16.711c-1.313-.788-3.164-.964-4.39-1.08a8.165 8.165 0 0 0-.184-.018c-.075-.49-.176-1.147-.25-1.641 1.051-1.103 1.718-2.821 1.718-4.789v-.914a.925.925 0 0 0-1.85 0v.914c0 2.29-1.227 4.224-2.68 4.224-1.451 0-2.678-1.934-2.678-4.224v-1.16c.357.042.78.076 1.26.076 1.601 0 3.748-.375 5.563-2.114l-1.28-1.336C10.165 6.689 7.37 6.261 6.321 6.1a3.95 3.95 0 0 0-.498-.056.925.925 0 0 0-.925.925v2.214c0 1.965.663 3.679 1.712 4.783l-.245 1.647-.184.018c-1.225.116-3.076.292-4.39 1.08C.555 17.454 0 18.821 0 19.848h1.85c0-.392.242-1.159.894-1.551.954-.572 2.62-.731 3.613-.825.353-.033.654-.065.87-.101.622.053.744-.087 1.086-2.3.356.118.728.186 1.114.186.386 0 .755-.068 1.11-.184.347 2.205.463 2.334 1.091 2.299.216.035.517.067.87.1.995.094 2.66.253 3.614.825.65.392.894 1.159.894 1.551h1.85c0-1.027-.555-2.394-1.794-3.137"/>
        <path d="M1.74 16.12c.297 0 .59-.144.768-.409.8-1.19.827-2.817.857-4.7.031-1.943.066-4.143 1.045-5.988.628-1.185 2.118-3.174 5.04-3.174 1.521 0 2.78.5 3.74 1.487 1.523 1.568 2.012 4.037 1.961 5.824-.099 3.49.233 5.443 1.078 6.333a.924.924 0 1 0 1.342-1.273c-.116-.122-.687-.936-.57-5.007.08-2.805-.85-5.484-2.486-7.166C13.195.688 11.49 0 9.45 0 5.56 0 3.6 2.604 2.775 4.156 1.59 6.394 1.55 8.831 1.515 10.98c-.024 1.524-.047 2.962-.543 3.698a.926.926 0 0 0 .767 1.441"/>
    </g>
</svg>
