<svg width="22" height="22" viewBox="0 0 22 22" xmlns="http://www.w3.org/2000/svg">
    <title>
        icons/facebook
    </title>
    <path d="M11.217 20.955l.081-6.656h-2.51l.02-3.05h2.49v-2.33c0-1.23.303-2.282.914-2.954.54-.607 1.62-1.208 2.846-1.208.981 0 1.735 0 2.47.031.006.572.02 1.787.02 2.855l-.947-.019c-.718 0-1.457.018-1.855.364-.509.445-.418 1.594-.418 1.594-.006.474.026 1.646.026 1.646l3.056.04-.568 3.038h-2.469l.144 6.68s2.526-.022 3.731.012c1.194.034 2.628-.546 2.696-2.697.053-1.674.076-3.79.034-6.743-.062-4.204-.003-6.88-.023-7.52-.053-1.766-1.027-2.89-2.623-2.89-2.029 0-11.62-.194-13.599-.138-1.979.053-3.472 1.043-3.45 2.717.068 5.223-.618 9.08-.068 14.78.1 1.04.922 2.423 3.14 2.457 3.491.053 6.862-.009 6.862-.009z" stroke="#0161F0" stroke-width="1.8" fill="none" fill-rule="evenodd" stroke-linecap="round" stroke-linejoin="round"/>
</svg>
