<svg width="22" height="23" viewBox="0 0 22 23" xmlns="http://www.w3.org/2000/svg">
    <title>
        icons/instagram
    </title>
    <path d="M17.976 5.419c0 .888-.662 1.607-1.531 1.607a1.6 1.6 0 0 1-1.586-1.607c0-.882.717-1.551 1.586-1.551.869 0 1.53.669 1.53 1.551m-4.058 6.329c-.247 1.523-.908 2.545-3.33 2.584h-.095c-1.787 0-2.79-.807-3.157-2.538-.296-1.397.786-2.965 1.632-3.388a3.832 3.832 0 0 1 1.708-.378c.612 0 1.212.134 1.607.357 1.27.719 1.866 1.944 1.635 3.363m-.75-4.93c-1.322-.749-3.496-.779-5.005-.021-1.627.813-3.055 3.165-2.588 5.37.542 2.557 2.288 3.965 4.918 3.965l.124-.001c2.977-.048 4.638-1.387 5.077-4.094.349-2.14-.618-4.14-2.525-5.219m6.12 12.242c-.628.669-1.736 1.023-3.293 1.053-.8.016-3.325.042-5.575.067-1.73.018-3.297.035-3.798.044l-.158.001c-2.082 0-4.571-.605-4.606-3.487-.025-2.043.009-4.083.092-5.598.122-2.304.105-3.588.09-4.722a70.572 70.572 0 0 1-.01-1.027c0-2.929 1.44-3.324 2.848-3.324.73 0 2.793-.046 5-.097 2.453-.057 5.233-.12 6.326-.12l.276.002c1.546.027 3.234 1.001 3.334 3.649.05 1.313.055 2.792.06 4.358.007 2.015.015 4.299.12 6.721.049 1.11-.183 1.921-.706 2.48m2.437-9.206c-.006-1.583-.011-3.079-.062-4.423-.14-3.689-2.687-5.385-5.15-5.429L16.204 0C15.09 0 12.42.061 9.837.12 7.648.171 5.6.218 4.878.218 1.848.218.18 2.055.18 5.391c0 .354.004.696.009 1.051a60.7 60.7 0 0 1-.088 4.599c-.084 1.553-.12 3.638-.094 5.72.04 3.327 2.454 5.314 6.456 5.314l.189-.002c.5-.008 2.063-.025 3.787-.044 2.256-.023 4.789-.05 5.59-.066 2.076-.041 3.625-.592 4.607-1.638.87-.927 1.276-2.215 1.206-3.825-.104-2.386-.112-4.649-.118-6.646" fill="#E331AD" fill-rule="evenodd"/>
</svg>
