<svg width="24" height="24" viewBox="0 0 24 24" xmlns="http://www.w3.org/2000/svg" xmlns:xlink="http://www.w3.org/1999/xlink">
    <title>
        icons/open
    </title>
    <defs>
        <path d="M12 24c6.627 0 12-5.373 12-12S18.627 0 12 0 0 6.873 0 13.5 5.373 24 12 24z" id="a"/>
    </defs>
    <g fill="none" fill-rule="evenodd">
        <g>
            <use fill="#7300FF" xlink:href="#a"/>
            <path stroke="#7300FF" stroke-width="2" d="M12 23c-6.458 0-11-3.757-11-9.5C1 7.107 6.207 1 12 1c6.075 0 11 4.925 11 11s-4.925 11-11 11z"/>
        </g>
        <path d="M12 18c4 0 6-3 6-6s-2.686-6-6-6a6 6 0 0 0-6 6c0 3.314 2 6 6 6z" fill="#FFFC80"/>
    </g>
</svg>
