<svg width="21" height="21" viewBox="0 0 21 21" xmlns="http://www.w3.org/2000/svg">
    <title>
        icons/search
    </title>
    <g fill="#7300FF" fill-rule="evenodd">
        <path d="M18.486 18.36c-.36.37-.68.573-.899.573h-.002c-.222-.002-.487-.23-.669-.422-.636-.665-1.25-1.299-1.83-1.899-1.042-1.074-1.968-2.03-2.705-2.846a7.903 7.903 0 0 0 1.358-1.264c.541.51 1.372 1.212 2.338 2.028.933.788 1.948 1.644 2.791 2.406.168.153.256.287.26.4.002.083-.037.404-.642 1.023M3.984 12.186c-1.382-1.305-2.16-3.084-2.134-4.882.023-1.509.632-2.873 1.716-3.837C4.67 2.485 6.511 1.85 8.258 1.85c.944 0 1.77.19 2.324.533 1.611 1 2.684 2.453 3.02 4.09.314 1.533-.027 3.113-.96 4.445-1.128 1.61-3.084 2.608-5.105 2.608-1.375 0-2.637-.476-3.553-1.34m16.125 3.38c-.857-.776-1.889-1.647-2.839-2.449-.983-.83-1.91-1.614-2.394-2.083-.036-.034-.08-.05-.12-.077.756-1.516.997-3.2.658-4.856-.439-2.14-1.809-4.018-3.858-5.29-.854-.53-1.995-.81-3.298-.81C6.05 0 3.781.797 2.336 2.084.86 3.4.031 5.243.001 7.277c-.035 2.314.955 4.595 2.714 6.255 1.26 1.19 2.972 1.845 4.822 1.845a8.194 8.194 0 0 0 3.202-.675c.801.906 1.831 1.973 3.017 3.198.578.597 1.19 1.228 1.822 1.89.626.655 1.298.99 1.996.993h.013c.753 0 1.48-.37 2.223-1.13.81-.83 1.19-1.606 1.166-2.376-.019-.633-.31-1.209-.867-1.712"/>
        <path d="M12.414 9.01l-1.832-.26c.165-1.156.107-2.101-.705-2.95-.737-.768-1.583-1.036-2.815-.9l-.205-1.838c1.796-.205 3.223.275 4.356 1.459 1.42 1.482 1.388 3.178 1.201 4.49"/>
    </g>
</svg>
