<?xml version="1.0" standalone="no"?>
<!DOCTYPE svg PUBLIC "-//W3C//DTD SVG 1.1//EN" "http://www.w3.org/Graphics/SVG/1.1/DTD/svg11.dtd" >
<svg xmlns="http://www.w3.org/2000/svg">
<metadata>
This is a custom SVG webfont generated by Font Squirrel.
Copyright   : Copyright c 2011 by Travis Kochel All rights reserved
Designer    : Travis Kochel
Foundry     : Travis Kochel
Foundry URL : httpwwwtktypecom
</metadata>
<defs>
<font id="ChartwellPies-Web" horiz-adv-x="2000" >
<font-face units-per-em="2000" ascent="1500" descent="-500" />
<missing-glyph horiz-adv-x="300" />
<glyph unicode="&#x31;&#x30;" d="M999 688v714q230 0 419 -136z" />
<glyph unicode="&#x31;&#x31;" d="M999 688v714q256 0 455 -164z" />
<glyph unicode="&#x31;&#x32;" d="M999 688v714q139 0 264.5 -51t223.5 -143z" />
<glyph unicode="&#x31;&#x33;" d="M999 688v714q151 0 285.5 -59.5t234.5 -165.5z" />
<glyph unicode="&#x31;&#x34;" d="M999 688v714q163 0 306.5 -69t243.5 -190z" />
<glyph unicode="&#x31;&#x35;" d="M999 688v714q175 0 326.5 -79t250.5 -215z" />
<glyph unicode="&#x31;&#x36;" d="M999 688v714q186 0 346 -90t257 -242z" />
<glyph unicode="&#x31;&#x37;" d="M999 688v714q198 0 365.5 -101t259.5 -269z" />
<glyph unicode="&#x31;&#x38;" d="M999 688v714q210 0 384 -112.5t262 -297.5z" />
<glyph unicode="&#x31;&#x39;" d="M999 688v714q223 0 403.5 -125t260.5 -326z" />
<glyph unicode="&#x32;&#x30;" d="M999 688v714q234 0 421 -138t258 -355z" />
<glyph unicode="&#x32;&#x31;" d="M999 688v714q247 0 439.5 -151.5t252.5 -385.5z" />
<glyph unicode="&#x32;&#x32;" d="M999 688v714q171 0 321 -76t249.5 -208t130.5 -296z" />
<glyph unicode="&#x32;&#x33;" d="M999 688v714q179 0 334 -82.5t253.5 -225.5t120.5 -317z" />
<glyph unicode="&#x32;&#x34;" d="M999 688v714q186 0 346 -89t257.5 -243t108.5 -338z" />
<glyph unicode="&#x32;&#x35;" d="M999 688v714q145 0 277.5 -56.5t228 -152t152 -228t56.5 -277.5h-714z" />
<glyph unicode="&#x32;&#x36;" d="M999 688v714q145 0 277.5 -56.5t228 -152t152 -228t56.5 -277.5q0 -16 -2 -46z" />
<glyph unicode="&#x32;&#x37;" d="M999 688v714q145 0 277.5 -56.5t228 -152t152 -228t56.5 -277.5q0 -45 -6 -90z" />
<glyph unicode="&#x32;&#x38;" d="M999 688v714q145 0 277.5 -56.5t228 -152t152 -228t56.5 -277.5q0 -72 -13 -134z" />
<glyph unicode="&#x32;&#x39;" d="M999 688v714q145 0 277.5 -56.5t228 -152t152 -228t56.5 -277.5q0 -91 -23 -178z" />
<glyph unicode="&#x33;&#x30;" d="M1678 467l-679 221v714q145 0 277.5 -56.5t228 -152t152 -228t56.5 -277.5q0 -114 -35 -221z" />
<glyph unicode="&#x33;&#x31;" d="M999 688v714q145 0 277.5 -56.5t228 -152t152 -228t56.5 -277.5q0 -136 -50 -263z" />
<glyph unicode="&#x33;&#x32;" d="M999 688v714q145 0 277.5 -56.5t228 -152t152 -228t56.5 -277.5q0 -159 -68 -304z" />
<glyph unicode="&#x33;&#x33;" d="M999 688v714q145 0 277.5 -56.5t228 -152t152 -228t56.5 -277.5q0 -185 -89 -344z" />
<glyph unicode="&#x33;&#x34;" d="M999 688v714q145 0 277.5 -56.5t228 -152t152 -228t56.5 -277.5q0 -208 -112 -383z" />
<glyph unicode="&#x33;&#x35;" d="M999 688v714q145 0 277.5 -56.5t228 -152t152 -228t56.5 -277.5q0 -233 -137 -419z" />
<glyph unicode="&#x33;&#x36;" d="M999 688v714q145 0 277.5 -56.5t228 -152t152 -228t56.5 -277.5q0 -256 -164 -455z" />
<glyph unicode="&#x33;&#x37;" d="M1519 200l-520 488v714q145 0 277.5 -56.5t228 -152t152 -228t56.5 -277.5q0 -139 -51 -265t-143 -223z" />
<glyph unicode="&#x33;&#x38;" d="M999 688v714q145 0 277.5 -56.5t228 -152t152 -228t56.5 -277.5q0 -151 -60 -286t-166 -234z" />
<glyph unicode="&#x33;&#x39;" d="M999 688v714q145 0 277.5 -56.5t228 -152t152 -228t56.5 -277.5q0 -164 -69 -307t-191 -242z" />
<glyph unicode="&#x34;&#x30;" d="M1418 111l-419 577v714q145 0 277.5 -56.5t228 -152t152 -228t56.5 -277.5q0 -175 -79.5 -326.5t-215.5 -250.5z" />
<glyph unicode="&#x34;&#x31;" d="M1381 86l-382 602v714q145 0 277.5 -56.5t228 -152t152 -228t56.5 -277.5q0 -187 -90 -346.5t-242 -255.5z" />
<glyph unicode="&#x34;&#x32;" d="M1342 63l-343 625v714q145 0 277.5 -56.5t228 -152t152 -228t56.5 -277.5q0 -199 -101 -366t-270 -259z" />
<glyph unicode="&#x34;&#x33;" d="M1302 43l-303 645v714q145 0 277.5 -56.5t228 -152t152 -228t56.5 -277.5q0 -211 -113 -384.5t-298 -260.5z" />
<glyph unicode="&#x34;&#x34;" d="M1261 25l-262 663v714q145 0 277.5 -56.5t228 -152t152 -228t56.5 -277.5q0 -223 -125 -403t-327 -260z" />
<glyph unicode="&#x34;&#x35;" d="M1219 10l-220 678v714q145 0 277.5 -56.5t228 -152t152 -228t56.5 -277.5q0 -235 -138 -421t-356 -257z" />
<glyph unicode="&#x34;&#x36;" d="M1176 -2l-177 690v714q145 0 277.5 -56.5t228 -152t152 -228t56.5 -277.5q0 -247 -151.5 -439t-385.5 -251z" />
<glyph unicode="&#x34;&#x37;" d="M1132 -12l-133 700v714q145 0 277.5 -56.5t228 -152t152 -228t56.5 -277.5q0 -260 -165.5 -456.5t-415.5 -243.5z" />
<glyph unicode="&#x34;&#x38;" d="M1088 -19l-89 707v714q145 0 277.5 -56.5t228 -152t152 -228t56.5 -277.5q0 -179 -82.5 -333.5t-225.5 -253t-317 -120.5z" />
<glyph unicode="&#x34;&#x39;" d="M1043 -23l-44 711v714q145 0 277.5 -56.5t228 -152t152 -228t56.5 -277.5q0 -186 -89 -345.5t-242.5 -257t-338.5 -108.5z" />
<glyph unicode="&#x35;&#x30;" d="M999 -24v1426q145 0 277.5 -56.5t228 -152t152 -228t56.5 -277.5t-56.5 -277t-152 -227t-228 -151.5t-277.5 -56.5z" />
<glyph unicode="&#x35;&#x31;" d="M999 -24q-30 0 -45 1l45 711v714q145 0 277.5 -56.5t228 -152t152 -228t56.5 -277.5t-56.5 -277t-152 -227t-228 -151.5t-277.5 -56.5z" />
<glyph unicode="&#x35;&#x32;" d="M999 -24q-41 0 -89 5l89 707v714q145 0 277.5 -56.5t228 -152t152 -228t56.5 -277.5t-56.5 -277t-152 -227t-228 -151.5t-277.5 -56.5z" />
<glyph unicode="&#x35;&#x33;" d="M999 -24q-69 0 -134 12l134 700v714q145 0 277.5 -56.5t228 -152t152 -228t56.5 -277.5t-56.5 -277t-152 -227t-228 -151.5t-277.5 -56.5z" />
<glyph unicode="&#x35;&#x34;" d="M999 -24q-89 0 -177 22l177 690v714q145 0 277.5 -56.5t228 -152t152 -228t56.5 -277.5t-56.5 -277t-152 -227t-228 -151.5t-277.5 -56.5z" />
<glyph unicode="&#x35;&#x35;" d="M999 -24q-113 0 -221 34l221 678v714q145 0 277.5 -56.5t228 -152t152 -228t56.5 -277.5t-56.5 -277t-152 -227t-228 -151.5t-277.5 -56.5z" />
<glyph unicode="&#x35;&#x36;" d="M999 -24q-135 0 -263 50l263 662v714q145 0 277.5 -56.5t228 -152t152 -228t56.5 -277.5t-56.5 -277t-152 -227t-228 -151.5t-277.5 -56.5z" />
<glyph unicode="&#x35;&#x37;" d="M999 -24q-161 0 -303 67l303 645v714q145 0 277.5 -56.5t228 -152t152 -228t56.5 -277.5t-56.5 -277t-152 -227t-228 -151.5t-277.5 -56.5z" />
<glyph unicode="&#x35;&#x38;" d="M999 -24q-184 0 -343 88l343 624v714q145 0 277.5 -56.5t228 -152t152 -228t56.5 -277.5t-56.5 -277t-152 -227t-228 -151.5t-277.5 -56.5z" />
<glyph unicode="&#x35;&#x39;" d="M999 -24q-209 0 -382 110l382 602v714q145 0 277.5 -56.5t228 -152t152 -228t56.5 -277.5t-56.5 -277t-152 -227t-228 -151.5t-277.5 -56.5z" />
<glyph unicode="&#x36;&#x30;" d="M999 -24q-234 0 -419 136l419 576v714q145 0 277.5 -56.5t228 -152t152 -228t56.5 -277.5t-56.5 -277t-152 -227t-228 -151.5t-277.5 -56.5z" />
<glyph unicode="&#x36;&#x31;" d="M999 -24q-257 0 -454 163l454 549v714q145 0 277.5 -56.5t228 -152t152 -228t56.5 -277.5t-56.5 -277t-152 -227t-228 -151.5t-277.5 -56.5z" />
<glyph unicode="&#x36;&#x32;" d="M999 -24q-139 0 -265 50.5t-223 142.5l488 519v714q145 0 277.5 -56.5t228 -152t152 -228t56.5 -277.5t-56.5 -277t-152 -227t-228 -151.5t-277.5 -56.5z" />
<glyph unicode="&#x36;&#x33;" d="M999 -24q-151 0 -286 59.5t-234 164.5l520 488v714q145 0 277.5 -56.5t228 -152t152 -228t56.5 -277.5t-56.5 -277t-152 -227t-228 -151.5t-277.5 -56.5z" />
<glyph unicode="&#x36;&#x34;" d="M999 -24q-164 0 -307 68.5t-242 189.5l549 454v714q145 0 277.5 -56.5t228 -152t152 -228t56.5 -277.5t-56.5 -277t-152 -227t-228 -151.5t-277.5 -56.5z" />
<glyph unicode="&#x36;&#x35;" d="M999 -24q-175 0 -326.5 78.5t-250.5 214.5l577 419v714q145 0 277.5 -56.5t228 -152t152 -228t56.5 -277.5t-56.5 -277t-152 -227t-228 -151.5t-277.5 -56.5z" />
<glyph unicode="&#x36;&#x36;" d="M999 -24q-187 0 -346 89t-256 241l602 382v714q145 0 277.5 -56.5t228 -152t152 -228t56.5 -277.5t-56.5 -277t-152 -227t-228 -151.5t-277.5 -56.5z" />
<glyph unicode="&#x36;&#x37;" d="M999 -24q-199 0 -366 100.5t-259 268.5l625 343v714q145 0 277.5 -56.5t228 -152t152 -228t56.5 -277.5t-56.5 -277t-152 -227t-228 -151.5t-277.5 -56.5z" />
<glyph unicode="&#x36;&#x38;" d="M999 -24q-211 0 -384.5 112t-260.5 296l645 304v714q145 0 277.5 -56.5t228 -152t152 -228t56.5 -277.5t-56.5 -277t-152 -227t-228 -151.5t-277.5 -56.5z" />
<glyph unicode="&#x36;&#x39;" d="M999 -24q-223 0 -403 124.5t-259 324.5l662 263v714q145 0 277.5 -56.5t228 -152t152 -228t56.5 -277.5t-56.5 -277t-152 -227t-228 -151.5t-277.5 -56.5z" />
<glyph unicode="&#x37;&#x30;" d="M999 -24q-235 0 -421 137.5t-257 354.5l678 220v714q145 0 277.5 -56.5t228 -152t152 -228t56.5 -277.5t-56.5 -277t-152 -227t-228 -151.5t-277.5 -56.5z" />
<glyph unicode="&#x37;&#x31;" d="M999 -24q-247 0 -439 150.5t-251 383.5l690 178v714q145 0 277.5 -56.5t228 -152t152 -228t56.5 -277.5t-56.5 -277t-152 -227t-228 -151.5t-277.5 -56.5z" />
<glyph unicode="&#x37;&#x32;" d="M999 -24q-259 0 -455.5 164.5t-244.5 413.5l700 134v714q145 0 277.5 -56.5t228 -152t152 -228t56.5 -277.5t-56.5 -277t-152 -227t-228 -151.5t-277.5 -56.5z" />
<glyph unicode="&#x37;&#x33;" d="M999 -24q-179 0 -333.5 82t-253 224.5t-120.5 316.5l707 89v714q145 0 277.5 -56.5t228 -152t152 -228t56.5 -277.5t-56.5 -277t-152 -227t-228 -151.5t-277.5 -56.5z" />
<glyph unicode="&#x37;&#x34;" d="M999 -24q-186 0 -345.5 88.5t-256.5 241t-109 336.5l711 46v714q145 0 277.5 -56.5t228 -152t152 -228t56.5 -277.5t-56.5 -277t-152 -227t-228 -151.5t-277.5 -56.5z" />
<glyph unicode="&#x37;&#x35;" d="M287 688h712v714q145 0 277.5 -56.5t228 -152t152 -228t56.5 -277.5t-56.5 -277t-152 -227t-228 -151.5t-277.5 -56.5t-277 56.5t-227 151.5t-151.5 227t-56.5 277z" />
<glyph unicode="&#x37;&#x36;" d="M288 732l711 -44v714q145 0 277.5 -56.5t228 -152t152 -228t56.5 -277.5t-56.5 -277t-152 -227t-228 -151.5t-277.5 -56.5t-277 56.5t-227 151.5t-151.5 227t-56.5 277q0 30 1 44z" />
<glyph unicode="&#x37;&#x37;" d="M292 777l707 -89v714q145 0 277.5 -56.5t228 -152t152 -228t56.5 -277.5t-56.5 -277t-152 -227t-228 -151.5t-277.5 -56.5t-277 56.5t-227 151.5t-151.5 227t-56.5 277q0 41 5 89z" />
<glyph unicode="&#x37;&#x38;" d="M999 688v714q145 0 277.5 -56.5t228 -152t152 -228t56.5 -277.5t-56.5 -277t-152 -227t-228 -151.5t-277.5 -56.5t-277 56.5t-227 151.5t-151.5 227t-56.5 277q0 68 12 133z" />
<glyph unicode="&#x37;&#x39;" d="M999 688v714q145 0 277.5 -56.5t228 -152t152 -228t56.5 -277.5t-56.5 -277t-152 -227t-228 -151.5t-277.5 -56.5t-277 56.5t-227 151.5t-151.5 227t-56.5 277q0 93 22 177z" />
<glyph unicode="&#x38;&#x30;" d="M999 688v714q145 0 277.5 -56.5t228 -152t152 -228t56.5 -277.5t-56.5 -277t-152 -227t-228 -151.5t-277.5 -56.5t-277 56.5t-227 151.5t-151.5 227t-56.5 277q0 114 35 221z" />
<glyph unicode="&#x38;&#x31;" d="M999 688v714q145 0 277.5 -56.5t228 -152t152 -228t56.5 -277.5t-56.5 -277t-152 -227t-228 -151.5t-277.5 -56.5t-277 56.5t-227 151.5t-151.5 227t-56.5 277q0 138 49 262z" />
<glyph unicode="&#x38;&#x32;" d="M354 991l645 -303v714q145 0 277.5 -56.5t228 -152t152 -228t56.5 -277.5t-56.5 -277t-152 -227t-228 -151.5t-277.5 -56.5t-277 56.5t-227 151.5t-151.5 227t-56.5 277q0 160 67 303z" />
<glyph unicode="&#x38;&#x33;" d="M374 1031l625 -343v714q145 0 277.5 -56.5t228 -152t152 -228t56.5 -277.5t-56.5 -277t-152 -227t-228 -151.5t-277.5 -56.5t-277 56.5t-227 151.5t-151.5 227t-56.5 277q0 182 87 343z" />
<glyph unicode="&#x38;&#x34;" d="M999 688v714q145 0 277.5 -56.5t228 -152t152 -228t56.5 -277.5t-56.5 -277t-152 -227t-228 -151.5t-277.5 -56.5t-277 56.5t-227 151.5t-151.5 227t-56.5 277q0 208 110 381z" />
<glyph unicode="&#x38;&#x35;" d="M422 1107l577 -419v714q145 0 277.5 -56.5t228 -152t152 -228t56.5 -277.5t-56.5 -277t-152 -227t-228 -151.5t-277.5 -56.5t-277 56.5t-227 151.5t-151.5 227t-56.5 277q0 232 135 419z" />
<glyph unicode="&#x38;&#x36;" d="M999 688v714q145 0 277.5 -56.5t228 -152t152 -228t56.5 -277.5t-56.5 -277t-152 -227t-228 -151.5t-277.5 -56.5t-277 56.5t-227 151.5t-151.5 227t-56.5 277q0 257 163 454z" />
<glyph unicode="&#x38;&#x37;" d="M999 688v714q145 0 277.5 -56.5t228 -152t152 -228t56.5 -277.5t-56.5 -277t-152 -227t-228 -151.5t-277.5 -56.5t-277 56.5t-227 151.5t-151.5 227t-56.5 277q0 139 50.5 264.5t141.5 223.5z" />
<glyph unicode="&#x38;&#x38;" d="M511 1208l488 -520v714q145 0 277.5 -56.5t228 -152t152 -228t56.5 -277.5t-56.5 -277t-152 -227t-228 -151.5t-277.5 -56.5t-277 56.5t-227 151.5t-151.5 227t-56.5 277q0 151 59.5 286t164.5 234z" />
<glyph unicode="&#x38;&#x39;" d="M544 1237l455 -549v714q145 0 277.5 -56.5t228 -152t152 -228t56.5 -277.5t-56.5 -277t-152 -227t-228 -151.5t-277.5 -56.5t-277 56.5t-227 151.5t-151.5 227t-56.5 277q0 163 68.5 306t188.5 243z" />
<glyph unicode="&#x39;&#x30;" d="M999 688v714q145 0 277.5 -56.5t228 -152t152 -228t56.5 -277.5t-56.5 -277t-152 -227t-228 -151.5t-277.5 -56.5t-277 56.5t-227 151.5t-151.5 227t-56.5 277q0 175 78.5 326.5t214.5 250.5z" />
<glyph unicode="&#x39;&#x31;" d="M999 688v714q145 0 277.5 -56.5t228 -152t152 -228t56.5 -277.5t-56.5 -277t-152 -227t-228 -151.5t-277.5 -56.5t-277 56.5t-227 151.5t-151.5 227t-56.5 277q0 187 89 346.5t241 255.5z" />
<glyph unicode="&#x39;&#x32;" d="M655 1313l344 -625v714q145 0 277.5 -56.5t228 -152t152 -228t56.5 -277.5t-56.5 -277t-152 -227t-228 -151.5t-277.5 -56.5t-277 56.5t-227 151.5t-151.5 227t-56.5 277q0 199 100 366t268 259z" />
<glyph unicode="&#x39;&#x33;" d="M287 688q0 211 112 384.5t296 261.5l304 -646v714q145 0 277.5 -56.5t228 -152t152 -228t56.5 -277.5t-56.5 -277t-152 -227t-228 -151.5t-277.5 -56.5t-277 56.5t-227 151.5t-151.5 227t-56.5 277z" />
<glyph unicode="&#x39;&#x34;" d="M999 688v714q145 0 277.5 -56.5t228 -152t152 -228t56.5 -277.5t-56.5 -277t-152 -227t-228 -151.5t-277.5 -56.5t-277 56.5t-227 151.5t-151.5 227t-56.5 277q0 223 124.5 403.5t324.5 259.5z" />
<glyph unicode="&#x39;&#x35;" d="M778 1367l221 -679v714q145 0 277.5 -56.5t228 -152t152 -228t56.5 -277.5t-56.5 -277t-152 -227t-228 -151.5t-277.5 -56.5t-277 56.5t-227 151.5t-151.5 227t-56.5 277q0 235 137 421.5t354 257.5z" />
<glyph unicode="&#x39;&#x36;" d="M999 688v714q145 0 277.5 -56.5t228 -152t152 -228t56.5 -277.5t-56.5 -277t-152 -227t-228 -151.5t-277.5 -56.5t-277 56.5t-227 151.5t-151.5 227t-56.5 277q0 247 150.5 439t383.5 252z" />
<glyph unicode="&#x39;&#x37;" d="M865 1389l134 -701v714q145 0 277.5 -56.5t228 -152t152 -228t56.5 -277.5t-56.5 -277t-152 -227t-228 -151.5t-277.5 -56.5t-277 56.5t-227 151.5t-151.5 227t-56.5 277q0 259 164.5 456t413.5 245z" />
<glyph unicode="&#x39;&#x38;" d="M908 1396l91 -708v714q145 0 277.5 -56.5t228 -152t152 -228t56.5 -277.5t-56.5 -277t-152 -227t-228 -151.5t-277.5 -56.5t-277 56.5t-227 151.5t-151.5 227t-56.5 277q0 179 81.5 333.5t224 253.5t315.5 121z" />
<glyph unicode="&#x39;&#x39;" d="M954 1400l45 -712v714q145 0 277.5 -56.5t228 -152t152 -228t56.5 -277.5t-56.5 -277t-152 -227t-228 -151.5t-277.5 -56.5t-277 56.5t-227 151.5t-151.5 227t-56.5 277q0 140 52 267.5t141 222t212.5 154.5t261.5 68z" />
<glyph unicode="&#x31;&#x30;&#x30;" d="M287 688q0 145 56.5 277.5t151.5 228t227 152t277 56.5t277.5 -56.5t228 -152t152 -228t56.5 -277.5t-56.5 -277t-152 -227t-228 -151.5t-277.5 -56.5t-277 56.5t-227 151.5t-151.5 227t-56.5 277z" />
<glyph unicode=" "  horiz-adv-x="300" />
<glyph unicode="&#x09;" horiz-adv-x="300" />
<glyph unicode="&#xa0;" horiz-adv-x="300" />
<glyph unicode="!" horiz-adv-x="402" d="M145 362l-30 1038h172l-30 -1038h-112zM125 0v196h152v-196h-152z" />
<glyph unicode="&#x22;" horiz-adv-x="535" d="M110 982l-30 419h162l-30 -419h-102zM323 982l-30 419h162l-30 -419h-102z" />
<glyph unicode="#" horiz-adv-x="1208" d="M611 0l65 392h-237l-65 -392h-120l65 392h-279v113h298l73 431h-288v113h307l59 352h120l-59 -352h237l59 352h120l-59 -352h261v-113h-280l-73 -431h270v-113h-289l-65 -392h-120zM531 936l-73 -431h237l73 431h-237z" />
<glyph unicode="$" horiz-adv-x="664" d="M282 -150v195q-100 19 -152.5 111.5t-52.5 280.5h137q0 -145 34 -203.5t96 -58.5q116 0 116 171q0 60 -26.5 124t-65.5 117l-86 116l-85 118q-39 56 -65.5 125t-26.5 135q0 129 51 193t126 80v197h114v-196q43 -8 76 -30t61.5 -65t44 -117t15.5 -176h-133 q0 135 -29.5 195t-91.5 60q-94 0 -94 -143q0 -56 35.5 -124t86.5 -136l103 -139q51 -71 86.5 -155.5t35.5 -163.5q0 -282 -196 -317v-194h-114z" />
<glyph unicode="%" horiz-adv-x="1095" d="M133 0l700 1401h126l-700 -1401h-126zM285 1420q36 0 63.5 -7.5t54 -29.5t44 -59.5t28 -100.5t10.5 -148q0 -106 -15 -177t-44.5 -106.5t-62 -48.5t-78.5 -13t-78.5 13t-62 48.5t-44.5 106.5t-15 177q0 85 10.5 148t28 100.5t44 59.5t54 29.5t63.5 7.5zM285 1319 q-85 0 -85 -244t85 -244q24 0 41.5 17t30.5 73.5t13 153.5t-13 153.5t-30.5 73.5t-41.5 17zM810 670q36 0 63.5 -7.5t54 -29.5t44 -59.5t28 -100.5t10.5 -148q0 -106 -15 -177t-44.5 -106.5t-62 -48.5t-78.5 -13t-78.5 13t-62 48.5t-44.5 106.5t-15 177q0 85 10.5 148 t28 100.5t44 59.5t54 29.5t63.5 7.5zM810 569q-85 0 -85 -244t85 -244q24 0 41.5 17t30.5 73.5t13 153.5t-13 153.5t-30.5 73.5t-41.5 17z" />
<glyph unicode="&#x26;" horiz-adv-x="875" d="M841 85l-89 -85l-119 140q-84 -160 -256 -160q-55 0 -101.5 16.5t-87.5 53t-64.5 104t-23.5 160.5q0 126 43 213.5t117 164.5q-107 226 -107 417q0 311 236 311q100 0 157 -68.5t57 -204.5q0 -80 -15 -155t-36 -126t-48.5 -97t-46 -68.5t-35.5 -39.5q68 -123 165 -256 q15 131 15 335h124q0 -291 -43 -463q65 -83 158 -192zM233 336q0 -120 47.5 -174t106.5 -54t99 30t66 103q-139 178 -235 343q-84 -113 -84 -248zM482 1136q0 71 -23.5 114.5t-69.5 43.5q-41 0 -70.5 -37.5t-29.5 -134.5q0 -175 77 -349q18 19 35 45t37 69.5t32 108 t12 140.5z" />
<glyph unicode="'" horiz-adv-x="322" d="M110 982l-30 419h162l-30 -419h-102z" />
<glyph unicode="(" horiz-adv-x="463" d="M426 -158h-114q-8 15 -20.5 42t-45.5 115t-58 180t-45.5 229t-20.5 269q0 139 19.5 276t47.5 232t56 170.5t47 112.5l20 37h114q-7 -15 -18 -42.5t-39.5 -116t-50 -180t-39.5 -226t-18 -263.5q0 -120 17 -250t41.5 -230t48.5 -183t41 -128z" />
<glyph unicode=")" horiz-adv-x="463" d="M151 -158h-114q7 17 18 47t39.5 123.5t50 187t39.5 225.5t18 252q0 129 -17 261.5t-41.5 230t-48.5 176.5t-41 119l-17 41h114q8 -13 20.5 -38.5t45.5 -109t58 -174t45.5 -229t20.5 -277.5q0 -367 -140 -722q-29 -72 -50 -113z" />
<glyph unicode="*" horiz-adv-x="464" d="M428 981l-157 98l7 -185h-92l7 185l-157 -98l-46 80l164 87l-164 86l46 80l157 -100l-7 187h92l-8 -187l158 100l46 -80l-164 -86l164 -87z" />
<glyph unicode="+" horiz-adv-x="740" d="M303 386v229h-218v119h218v229h132v-229h220v-119h-220v-229h-132z" />
<glyph unicode="," horiz-adv-x="311" d="M40 -223l61 419h160l-121 -419h-100z" />
<glyph unicode="-" horiz-adv-x="578" d="M468 733v-142h-358v142h358z" />
<glyph unicode="." horiz-adv-x="262" d="M55 0v196h152v-196h-152z" />
<glyph unicode="/" horiz-adv-x="532" d="M25 -159l354 1684h128l-354 -1684h-128z" />
<glyph unicode="0" horiz-adv-x="750" d="M375 1420q38 0 68 -7t61 -26.5t54 -52.5t44 -88t34.5 -129.5t21 -179.5t7.5 -237t-7.5 -237t-21 -179.5t-34.5 -129.5t-44 -88t-54 -52.5t-61 -26.5t-68 -7t-68 7t-61 26.5t-54 52.5t-44 88t-34.5 129.5t-21 179.5t-7.5 237t7.5 237t21 179.5t34.5 129.5t44 88t54 52.5 t61 26.5t68 7zM375 1274q-36 0 -58.5 -20t-41 -79t-26.5 -175t-8 -300t8 -300t26.5 -175t41 -79t58.5 -20q37 0 58.5 17t40.5 74t27 174.5t8 308.5t-8 308.5t-27 174.5t-40.5 74t-58.5 17z" />
<glyph unicode="1" horiz-adv-x="469" d="M344 0h-146v1234h-148v96l206 71h88v-1401z" />
<glyph unicode="2" horiz-adv-x="676" d="M88 0v142q30 114 71.5 215t79.5 166l75 132q38 68 65.5 122t45 125t17.5 151q0 122 -22.5 176t-69.5 54q-31 0 -53 -20.5t-34 -51t-19 -78t-9 -89.5t-2 -98h-136q0 246 59.5 360t196.5 114q229 0 229 -364q0 -110 -27 -208t-70 -178.5t-89 -155.5t-92 -173t-70 -199h373 v-142h-519z" />
<glyph unicode="3" horiz-adv-x="703" d="M445 1075q0 211 -99 211q-61 0 -90 -78.5t-29 -261.5h-137q0 244 60.5 359t198.5 115q69 0 118 -29t74.5 -79.5t36 -106t10.5 -121.5q0 -157 -34 -234t-119 -112q39 -11 69 -30.5t49.5 -47.5t32.5 -58t19.5 -68.5t9 -73t2.5 -76.5q0 -111 -22 -192.5t-60.5 -126t-84 -65 t-100.5 -20.5q-131 0 -198 117.5t-67 348.5h139q0 -170 35.5 -250.5t96.5 -80.5q119 0 119 267q0 138 -41 199t-160 75v129q43 12 71 28t52.5 47t36 84t11.5 131z" />
<glyph unicode="4" horiz-adv-x="733" d="M37 426l329 975h218v-975h105v-130h-105v-296h-137v296h-410v130zM165 426h282v615l4 237h-10q-29 -103 -69 -229z" />
<glyph unicode="5" horiz-adv-x="747" d="M290 1259l-20 -424q7 6 19 15.5t49.5 25t76.5 15.5q234 0 234 -453q0 -239 -69 -348.5t-202 -109.5q-130 0 -202 116t-72 348h142q0 -328 139 -328q66 0 93.5 77.5t27.5 227.5q0 110 -9.5 181.5t-27.5 104t-36.5 43.5t-45.5 11q-32 0 -62.5 -16.5t-44.5 -32.5l-15 -17 l-133 18l33 688h412v-142h-287z" />
<glyph unicode="6" horiz-adv-x="739" d="M378 1282q-29 0 -48.5 -10.5t-39.5 -44.5t-31.5 -94.5t-19 -164t-7.5 -249.5q68 83 169 83q34 0 66.5 -10t67.5 -37.5t60.5 -71t42 -117.5t16.5 -169q0 -417 -275 -417q-59 0 -101.5 16.5t-80.5 61t-61.5 121t-37 199.5t-13.5 293q0 230 16.5 377.5t54.5 229t89.5 112 t131.5 30.5q126 0 185.5 -113.5t59.5 -360.5h-137q0 336 -107 336zM379 671q-46 0 -86 -28.5t-61 -71.5q0 -135 12 -228t33.5 -140.5t45.5 -66.5t55 -19q43 0 70 20t44.5 84t17.5 176q0 84 -12.5 142t-34 84.5t-41.5 37t-43 10.5z" />
<glyph unicode="7" horiz-adv-x="616" d="M544 1259l-232 -1259h-140l232 1259h-366v142h506v-142z" />
<glyph unicode="8" horiz-adv-x="734" d="M367 1420q38 0 71 -9t68 -34t59.5 -64.5t40.5 -106.5t16 -155q0 -249 -139 -322q163 -78 163 -368q0 -92 -18 -162t-46 -110.5t-66.5 -66t-74 -34t-74.5 -8.5q-280 0 -280 381q0 141 38.5 221t118.5 127q-58 35 -99 118.5t-41 223.5q0 86 16.5 153t42.5 106.5t62 65 t70.5 35t71.5 9.5zM367 644q-69 0 -102.5 -66.5t-33.5 -216.5q0 -250 136 -250q30 0 52.5 10t42.5 36t30.5 77t10.5 127q0 153 -38 218t-98 65zM367 1289q-117 0 -117 -238q0 -133 36 -198t81 -65q53 0 82.5 57.5t29.5 205.5q0 133 -29.5 185.5t-82.5 52.5z" />
<glyph unicode="9" horiz-adv-x="736" d="M369 117q25 0 40 5t32.5 22.5t27 53.5t18 96.5t12 154t3.5 222.5q-68 -73 -165 -73q-34 0 -65 8t-66.5 34.5t-60.5 69t-42 118.5t-17 177q0 99 18 175t45.5 120.5t66 72.5t73.5 37.5t74 9.5q53 0 91 -13t76.5 -55t63 -116t40 -201.5t17.5 -305.5q2 -188 -9.5 -322.5 t-33.5 -217t-59.5 -129.5t-79.5 -63.5t-101 -16.5q-262 0 -262 465h138q0 -93 10.5 -159.5t29.5 -102t39.5 -51t45.5 -15.5zM358 726q46 0 83.5 26.5t60.5 66.5q2 135 -8 229t-29.5 144t-44 71.5t-56.5 21.5q-22 0 -39 -5t-35.5 -22.5t-30 -47t-19.5 -81t-8 -122.5 q0 -70 7 -121.5t18.5 -81.5t28.5 -48t34 -24t38 -6z" />
<glyph unicode=":" horiz-adv-x="362" d="M55 0v196h152v-196h-152zM55 931v196h152v-196h-152z" />
<glyph unicode=";" horiz-adv-x="362" d="M55 931v196h152v-196h-152zM-10 -223l61 419h160l-121 -419h-100z" />
<glyph unicode="&#x3c;" horiz-adv-x="692" d="M592 880l-362 -247l362 -249v-162l-482 325v155l482 343v-165z" />
<glyph unicode="=" horiz-adv-x="673" d="M588 871v-137h-503v137h503zM588 591v-137h-503v137h503z" />
<glyph unicode="&#x3e;" horiz-adv-x="692" d="M100 386l362 247l-362 249v162l482 -325v-155l-482 -343v165z" />
<glyph unicode="?" horiz-adv-x="593" d="M336 362h-117q-7 127 7.5 225t40 159.5t52 113.5t46 115.5t19.5 137.5q0 81 -24.5 127.5t-60.5 46.5q-44 0 -70 -76t-26 -234h-133q0 237 54 340t175 103q220 0 220 -304q0 -83 -19.5 -153.5t-46.5 -126.5l-55 -117q-27 -61 -45 -152.5t-17 -204.5zM207 0v196h152v-196 h-152z" />
<glyph unicode="@" horiz-adv-x="1351" d="M782 704v82q0 120 -18.5 162.5t-61.5 42.5q-42 0 -65 -43t-23 -162h-136q0 50 3.5 89t17 88t37.5 81.5t69 55t106 22.5q206 0 206 -296v-482q0 -83 66 -83q40 0 68 28t44 83t23 127.5t7 171.5q0 154 -19.5 269.5t-54 190t-88 120.5t-115.5 64.5t-143 18.5 q-58 0 -105.5 -7.5t-96.5 -28.5t-87 -55t-72.5 -89t-57.5 -128.5t-37.5 -176t-16.5 -229.5q-4 -246 49 -394.5t166 -214t299 -65.5q76 0 163 12t136 24l49 12v-117q-18 -5 -50.5 -13t-130 -21t-191.5 -13q-58 0 -107.5 5t-117 23.5t-121 50.5t-109 91.5t-92.5 140.5t-61 203 t-24 274q0 841 614 841q273 0 415 -190.5t142 -577.5q0 -157 -20.5 -265.5t-61.5 -168.5t-92.5 -85t-122.5 -25q-133 0 -176 109q-67 -109 -164 -109q-23 0 -45 4.5t-49 20t-47 40t-33.5 69t-13.5 103.5q0 308 346 320zM580 393q0 -69 22 -93.5t64 -24.5q29 0 61.5 31 t54.5 76v218q-116 -6 -159 -58t-43 -149z" />
<glyph unicode="A" horiz-adv-x="767" d="M486 1401l224 -1401h-149l-52 358h-257l-51 -358h-144l223 1401h206zM349 1049l-78 -549h219l-78 549l-27 222h-10q-8 -101 -26 -222z" />
<glyph unicode="B" horiz-adv-x="766" d="M643 1018q0 -113 -18.5 -181t-63.5 -107q60 -39 90 -119t30 -223q0 -218 -63 -303t-207 -85h-286v1401h246q65 0 112.5 -18t84.5 -60t56 -118t19 -187zM389 648h-112v-526h142q69 0 91.5 57.5t22.5 208.5q0 157 -28 208.5t-116 51.5zM277 1279v-509h112q25 0 43 7.5 t29 24.5t18 36t10.5 50.5t4.5 59t1 70.5q0 156 -30 208.5t-118 52.5h-70z" />
<glyph unicode="C" horiz-adv-x="710" d="M493 466h152q0 -486 -260 -486q-57 0 -100.5 18.5t-82.5 66.5t-63.5 128t-39 207.5t-14.5 299.5t14.5 299.5t39 207.5t63.5 128t82.5 66.5t100.5 18.5q58 0 102 -25.5t79 -83t53 -159t18 -244.5h-148q0 366 -104 366q-36 0 -61 -25.5t-44.5 -88.5t-29 -177t-9.5 -283 t9.5 -283t29 -177t44.5 -88.5t61 -25.5q108 0 108 340z" />
<glyph unicode="D" horiz-adv-x="772" d="M687 701q0 -253 -32 -406.5t-97.5 -224t-172.5 -70.5h-260v1401h262q48 0 86 -13t72.5 -43t60 -82.5t44 -129t28 -185t9.5 -247.5zM277 1279v-1157h116q81 0 109.5 133t28.5 446q0 138 -5 232t-15.5 163.5t-30.5 108t-48 56.5t-69 18h-86z" />
<glyph unicode="E" horiz-adv-x="666" d="M125 0v1401h456v-142h-304v-490h274v-142h-274v-485h304v-142h-456z" />
<glyph unicode="F" horiz-adv-x="651" d="M125 0v1401h456v-142h-304v-495h274v-142h-274v-622h-152z" />
<glyph unicode="G" horiz-adv-x="767" d="M414 645h259v-645h-94l-30 133q-47 -153 -183 -153q-281 0 -281 720q0 172 15 299.5t40.5 207.5t66 128t85 66.5t102.5 18.5q62 0 108.5 -25.5t83.5 -83t56 -159t19 -244.5h-148q0 366 -119 366q-38 0 -64.5 -25.5t-47.5 -88.5t-31 -177t-10 -283q0 -168 11.5 -283 t33.5 -177t49.5 -88t64.5 -26q42 0 69.5 31t44.5 116.5t17 229.5h-117v142z" />
<glyph unicode="H" horiz-adv-x="857" d="M580 0v631h-303v-631h-152v1401h152v-628h303v628h152v-1401h-152z" />
<glyph unicode="I" horiz-adv-x="402" d="M125 0v1401h152v-1401h-152z" />
<glyph unicode="J" horiz-adv-x="452" d="M175 116v1285h152v-1281q0 -145 -56.5 -226.5t-201.5 -137.5l-52 127q39 21 58.5 33t42.5 32t33 41t17 52.5t7 74.5z" />
<glyph unicode="K" horiz-adv-x="713" d="M125 0v1401h152v-623h72l187 623h147l-216 -689l247 -712h-151l-221 636h-65v-636h-152z" />
<glyph unicode="L" horiz-adv-x="606" d="M125 0v1401h152v-1259h304v-142h-456z" />
<glyph unicode="M" horiz-adv-x="1210" d="M125 1401h242l195 -999l46 -261h10q15 110 42 260l190 1000h235v-1401h-134v1053l5 218h-10q-14 -94 -37 -224l-200 -1047h-197l-207 1048l-42 223h-10q6 -82 6 -224v-1047h-134v1401z" />
<glyph unicode="N" horiz-adv-x="901" d="M125 1401h219l239 -995l58 -265h10q-4 140 -4 268v992h129v-1401h-215l-257 1049l-46 222h-10q6 -109 6 -221v-1050h-129v1401z" />
<glyph unicode="O" horiz-adv-x="770" d="M385 1420q56 0 97 -14.5t81.5 -59t65.5 -122t40.5 -209.5t15.5 -315t-15.5 -315t-40.5 -209.5t-65.5 -122t-81.5 -59t-97 -14.5t-97 14.5t-81.5 59t-65.5 122t-40.5 209.5t-15.5 315t15.5 315t40.5 209.5t65.5 122t81.5 59t97 14.5zM385 1274q-30 0 -51 -11.5t-40 -46.5 t-29.5 -98t-17 -166.5t-6.5 -251.5t6.5 -251.5t17 -166.5t29.5 -98t40 -46.5t51 -11.5q39 0 62.5 17t44 74t29 174.5t8.5 308.5t-8.5 308.5t-29 174.5t-44 74t-62.5 17z" />
<glyph unicode="P" horiz-adv-x="712" d="M647 981q0 -220 -62.5 -320.5t-199.5 -100.5h-108v-560h-152v1401h262q49 0 88 -12.5t72 -42t54.5 -77t33.5 -120t12 -168.5zM277 1279v-597h116q64 0 86 66t22 233q0 122 -12 184t-41 88t-85 26h-86z" />
<glyph unicode="Q" horiz-adv-x="770" d="M385 1420q56 0 97 -14.5t81.5 -59t65.5 -122t40.5 -209.5t15.5 -315q0 -176 -13.5 -304.5t-39.5 -208t-59 -123.5t-78 -64q14 -39 46 -62.5t98 -54.5l-60 -117q-106 40 -162 90.5t-75 125.5q-48 6 -84.5 26.5t-70 69.5t-55 127t-34.5 202.5t-13 292.5q0 183 15.5 315 t40.5 209.5t65.5 122t81.5 59t97 14.5zM385 1274q-30 0 -51 -11.5t-40 -46.5t-29.5 -98t-17 -166.5t-6.5 -251.5t6.5 -251.5t17 -166.5t29.5 -98t40 -46.5t51 -11.5q39 0 62.5 17t44 74t29 174.5t8.5 308.5t-8.5 308.5t-29 174.5t-44 74t-62.5 17z" />
<glyph unicode="R" horiz-adv-x="746" d="M523 0l-106 632q-12 -2 -32 -2h-108v-630h-152v1401h262q66 0 113 -17t84 -59t55 -118.5t18 -188.5q0 -152 -25 -231t-83 -117l122 -670h-148zM277 1279v-527h116q70 0 94 59t24 207q0 154 -30 207.5t-118 53.5h-86z" />
<glyph unicode="S" horiz-adv-x="664" d="M584 1002h-143q0 146 -27 211.5t-83 65.5q-88 0 -88 -140q0 -56 25.5 -122.5t62.5 -127.5l82 -134q45 -73 82.5 -141.5t63 -151.5t25.5 -161q0 -164 -66 -242.5t-184 -78.5q-129 0 -197.5 97.5t-68.5 324.5h147q0 -156 32 -220t89 -64q47 0 78 38.5t31 129.5 q0 75 -36 162.5t-88 169.5l-102 166q-51 84 -87 178.5t-36 178.5q0 82 23 141t60.5 87t74 39.5t75.5 11.5q54 0 95.5 -16.5t80 -59.5t59 -129.5t20.5 -212.5z" />
<glyph unicode="T" horiz-adv-x="674" d="M5 1401h664v-142h-256v-1259h-152v1259h-256v142z" />
<glyph unicode="U" horiz-adv-x="804" d="M402 -20q-58 0 -106 18t-89 57t-64 110.5t-23 169.5v1066h152v-1045q0 -71 10 -119t29.5 -71.5t40.5 -32.5t50 -9t50 9t40.5 32.5t29.5 71.5t10 119v1045h152v-1066q0 -98 -23 -169.5t-64 -110.5t-89 -57t-106 -18z" />
<glyph unicode="V" horiz-adv-x="743" d="M412 406l134 995h137l-205 -1401h-214l-204 1401h146l136 -991q9 -66 16 -137t10 -109l2 -38h10q16 161 32 280z" />
<glyph unicode="W" horiz-adv-x="1237" d="M938 427l90 974h120l-130 -1401h-211l-154 1064q-18 116 -28 207h-10q-8 -93 -25 -206l-146 -1065h-217l-167 1401h136l114 -972l32 -288h10q12 148 33 288l132 972h204l146 -972q20 -120 41 -288h10q10 158 20 286z" />
<glyph unicode="X" horiz-adv-x="713" d="M526 0l-114 384q-28 93 -43 157h-8q-20 -83 -40 -154l-109 -387h-152l226 702l-218 699h149l111 -383l40 -152h8q21 88 39 152l108 383h145l-216 -687l231 -714h-157z" />
<glyph unicode="Y" horiz-adv-x="706" d="M281 0v524l-234 877h152l130 -544l28 -130h7q11 68 26 133l120 541h143l-220 -880v-521h-152z" />
<glyph unicode="Z" horiz-adv-x="652" d="M65 122l363 1137h-333v142h485v-122l-357 -1137h364v-142h-522v122z" />
<glyph unicode="[" horiz-adv-x="498" d="M125 -159v1684h313v-132h-171v-1419h171v-132z" />
<glyph unicode="\" horiz-adv-x="523" d="M144 1525l354 -1684h-119l-354 1684h119z" />
<glyph unicode="]" horiz-adv-x="498" d="M373 1525v-1684l-314 1v132h172v1419h-172v132h314z" />
<glyph unicode="^" horiz-adv-x="704" d="M351 1366l-162 -561h-134l204 656h188l202 -656h-136z" />
<glyph unicode="_" horiz-adv-x="481" d="M481 -116v-142h-481v142h481z" />
<glyph unicode="`" horiz-adv-x="366" d="M227 1045l-173 419h160l113 -419h-100z" />
<glyph unicode="a" horiz-adv-x="718" d="M463 662v82q0 151 -22.5 205.5t-74.5 54.5q-23 0 -40.5 -10t-33.5 -34.5t-24 -74t-8 -121.5h-151q0 39 2 71t8 73t17 72.5t31.5 63.5t47.5 53t68 34.5t92 13.5q114 0 176 -83t62 -278v-784h-110l-30 106q-36 -56 -80.5 -91t-112.5 -35q-26 0 -51 6t-55.5 26t-53 52.5 t-38 91t-15.5 136.5q0 358 396 370zM226 301q0 -90 27 -131.5t69 -41.5q37 0 76 30.5t65 75.5v306q-70 -3 -118 -21t-73.5 -51.5t-35.5 -73t-10 -93.5z" />
<glyph unicode="b" horiz-adv-x="731" d="M257 1464v-421q69 102 168 102q29 0 54 -8.5t52.5 -30.5t48.5 -64.5t39 -105t27.5 -158.5t9.5 -218t-9.5 -218t-27.5 -157.5t-39 -103.5t-48.5 -63t-52.5 -29.5t-54 -8.5q-100 0 -179 92l-29 -72h-112v1464h152zM501 560q0 146 -8.5 239t-25.5 136t-35 57t-46 14 q-31 0 -66.5 -31.5t-62.5 -71.5v-706q71 -78 129 -78q22 0 37 7t31 32.5t25.5 72t15.5 129.5t6 200z" />
<glyph unicode="c" horiz-adv-x="680" d="M463 366h152q0 -386 -250 -386q-55 0 -97 14.5t-79.5 53.5t-61.5 103t-38 167t-14 242t14 242.5t38 168.5t61.5 104.5t79.5 54.5t97 15q115 0 178.5 -95t63.5 -317h-148q0 266 -94 266q-46 0 -74.5 -36t-44.5 -134.5t-16 -268.5t16.5 -267t44.5 -132t74 -35q98 0 98 240z " />
<glyph unicode="d" horiz-adv-x="731" d="M474 1096v368h152v-1464h-112l-30 108q-79 -128 -178 -128q-29 0 -54 8.5t-52.5 29.5t-48.5 63t-39 103.5t-27.5 157.5t-9.5 218q0 146 14.5 254t37.5 170.5t58 99.5t69 49t77 12q72 0 143 -49zM230 560q0 -115 6 -196t15.5 -126t25.5 -70.5t31 -32t37 -6.5q30 0 67 30.5 t62 74.5v736q-67 47 -129 47q-28 0 -46 -14.5t-35 -58.5t-25.5 -139.5t-8.5 -244.5z" />
<glyph unicode="e" horiz-adv-x="698" d="M623 499h-395q2 -153 18.5 -236.5t43.5 -111t73 -27.5q27 0 47 9t38.5 31.5t28 68.5t9.5 113h137q0 -87 -14 -152.5t-37.5 -105.5t-58 -65t-70.5 -34t-80 -9q-70 0 -120 26t-89.5 90t-59 182t-19.5 292q0 144 14 248t37.5 166.5t61.5 99t78.5 49t96.5 12.5 q96 0 151.5 -58t82 -198.5t26.5 -389.5zM363 1000q-46 0 -72 -24t-43 -104.5t-20 -233.5h250q0 195 -27 278.5t-88 83.5z" />
<glyph unicode="f" horiz-adv-x="568" d="M421 1337q-45 0 -70.5 -39t-25.5 -138v-33h194v-139h-194v-1008h-152v1008h-128v139h128v57q0 153 52.5 225t179.5 72q84 0 142 -25l-27 -133q-68 14 -99 14z" />
<glyph unicode="g" horiz-adv-x="725" d="M361 1145q61 0 112 -24l104 152l110 -106l-136 -107q78 -95 78 -290q0 -90 -17.5 -158.5t-44.5 -107.5t-64.5 -63.5t-71 -32.5t-70.5 -8q-56 0 -100 17q-37 -31 -37 -66q0 -34 34.5 -55.5t85.5 -31t111.5 -28t111.5 -44.5t85.5 -83.5t34.5 -140.5q0 -146 -89.5 -229 t-258.5 -83q-58 0 -106.5 13t-89.5 41t-64 78.5t-23 119.5q0 153 143 253q-99 43 -99 153q0 42 24 82t64 69q-95 92 -95 305q0 92 18 161.5t44.5 109t64.5 64t71 32.5t70 8zM361 1016q-117 0 -117 -246q0 -240 117 -240q25 0 43 8t37 31t29 73.5t10 127.5q0 80 -10 132.5 t-29 75.5t-37 30.5t-43 7.5zM542 -53q0 40 -13.5 70.5t-31.5 47.5t-52 30.5t-58.5 19.5t-66.5 14q-7 1 -11 2q-108 -85 -108 -196q0 -80 41 -116.5t109 -36.5q87 0 139 39.5t52 125.5z" />
<glyph unicode="h" horiz-adv-x="760" d="M503 0v855q0 152 -86 152q-44 0 -81 -25.5t-79 -76.5v-905h-152v1464h152v-423q93 104 208 104q89 0 139.5 -66t50.5 -188v-891h-152z" />
<glyph unicode="i" horiz-adv-x="362" d="M105 0v1127h152v-1127h-152zM105 1267v196h152v-196h-152z" />
<glyph unicode="j" horiz-adv-x="385" d="M128 23v1104h152v-1100q0 -145 -54.5 -226.5t-193.5 -137.5l-52 127q36 21 54.5 33t40 32t31 41t16 52.5t6.5 74.5zM128 1267v196h152v-196h-152z" />
<glyph unicode="k" horiz-adv-x="698" d="M105 0v1464h152v-796h80l161 459h145l-198 -545l226 -582h-148l-199 526h-67v-526h-152z" />
<glyph unicode="l" horiz-adv-x="382" d="M105 0v1464h152v-1464h-152z" />
<glyph unicode="m" horiz-adv-x="1131" d="M874 0v855q0 152 -83 152q-76 0 -151 -77q2 -26 2 -39v-891h-152v855q0 152 -83 152q-41 0 -76 -25.5t-74 -76.5v-905h-152v1127h122l20 -96q93 114 208 114t161 -107q98 107 223 107q89 0 138 -66t49 -188v-891h-152z" />
<glyph unicode="n" horiz-adv-x="760" d="M503 0v855q0 152 -86 152q-44 0 -81 -25.5t-79 -76.5v-905h-152v1127h122l20 -96q97 114 218 114q89 0 139.5 -66t50.5 -188v-891h-152z" />
<glyph unicode="o" horiz-adv-x="730" d="M365 1145q54 0 93.5 -11.5t78.5 -48t63.5 -99.5t39.5 -170t15 -256q0 -146 -15 -252t-39.5 -168.5t-63.5 -99t-78.5 -48.5t-93.5 -12t-93.5 12t-78.5 48.5t-63.5 99t-39.5 168.5t-15 252q0 149 15 256t39.5 170t63.5 99.5t78.5 48t93.5 11.5zM365 999q-36 0 -58.5 -15 t-41 -60t-27 -134t-8.5 -230q0 -138 8.5 -225.5t27 -132.5t41 -60.5t58.5 -15.5q29 0 47.5 7t37 32t28.5 72t16 127t6 196q0 119 -6 200.5t-16 128.5t-28.5 71.5t-36.5 31.5t-48 7z" />
<glyph unicode="p" horiz-adv-x="731" d="M425 -20q-94 0 -168 80v-397h-152v1464h112l27 -103q73 121 181 121q29 0 54 -8.5t52.5 -30.5t48.5 -64.5t39 -105t27.5 -158.5t9.5 -218t-9.5 -218t-27.5 -157.5t-39 -103.5t-48.5 -63t-52.5 -29.5t-54 -8.5zM501 560q0 146 -8.5 239t-25.5 136t-35 57t-46 14 q-31 0 -66.5 -31.5t-62.5 -71.5v-706q71 -78 129 -78q22 0 37 7t31 32.5t25.5 72t15.5 129.5t6 200z" />
<glyph unicode="q" horiz-adv-x="731" d="M306 -20q-29 0 -54 8.5t-52.5 29.5t-48.5 63t-39 103.5t-27.5 157.5t-9.5 218q0 146 14.5 254t37.5 170.5t58 99.5t69 49t77 12q84 0 166 -58l17 40h112v-1464h-152v429q-77 -112 -168 -112zM230 560q0 -115 6 -196t15.5 -126t25.5 -70.5t31 -32t37 -6.5q30 0 67 30.5 t62 74.5v736q-67 47 -129 47q-28 0 -46 -14.5t-35 -58.5t-25.5 -139.5t-8.5 -244.5z" />
<glyph unicode="r" horiz-adv-x="519" d="M494 1137v-178q-42 8 -66 8q-39 0 -71.5 -29.5t-52 -75.5t-31.5 -92t-16 -90v-680h-152v1127h122l20 -205q10 47 22.5 83t33.5 70t53 52t74 18q30 0 64 -8z" />
<glyph unicode="s" horiz-adv-x="647" d="M563 777h-147q0 230 -93 230q-33 0 -55.5 -25t-22.5 -75q0 -56 32.5 -122t79.5 -129l93 -130q46 -66 78.5 -146t32.5 -157q0 -115 -67.5 -179t-178.5 -64q-123 0 -186.5 90t-63.5 287h147q0 -73 9 -123t25.5 -74.5t34.5 -34t42 -9.5q40 0 66 25.5t26 82.5 q0 61 -32.5 127.5t-78.5 128.5l-92 126q-47 65 -79.5 142.5t-32.5 153.5q0 123 64 183t161 60q56 0 98 -21.5t67.5 -55.5t41.5 -84t22.5 -98.5t8.5 -108.5z" />
<glyph unicode="t" horiz-adv-x="565" d="M398 124q56 0 95 18l32 -129q-62 -33 -153 -33q-112 0 -158 73t-46 215v720h-123v139h123v254h150v-254h181v-139h-181v-699q0 -95 20.5 -130t59.5 -35z" />
<glyph unicode="u" horiz-adv-x="745" d="M257 1125v-855q0 -152 85 -152q38 0 77.5 33.5t68.5 88.5v885h152v-1125h-112l-27 114q-42 -64 -91.5 -99t-116.5 -35q-89 0 -138.5 66t-49.5 188v891h152z" />
<glyph unicode="v" horiz-adv-x="704" d="M381 321l124 806h144l-195 -1127h-217l-182 1127h146l123 -803l25 -201h8q9 106 24 198z" />
<glyph unicode="w" horiz-adv-x="1145" d="M870 304l85 823h135l-134 -1127h-210l-140 851q-15 87 -21 155h-8q-6 -69 -19 -155l-121 -851h-229l-153 1127h150l100 -838l16 -171h7q12 98 23 169l127 840h201l140 -825l27 -184h7q7 93 17 186z" />
<glyph unicode="x" horiz-adv-x="704" d="M479 0l-94 313l-38 141h-7q-12 -52 -34 -132l-91 -322h-147l188 564l-191 563h153l84 -274l43 -151h7q19 81 38 148l78 277h138l-171 -537l204 -590h-160z" />
<glyph unicode="y" horiz-adv-x="698" d="M388 401l116 726h139l-271 -1464h-148l47 296l-216 1168h149l111 -719l36 -285h8q9 162 29 278z" />
<glyph unicode="z" horiz-adv-x="612" d="M55 122l345 863h-315v142h467v-122l-339 -863h349v-142h-507v122z" />
<glyph unicode="{" horiz-adv-x="498" d="M125 48v470q0 75 -78 96l-27 4v115q4 1 11 3t25.5 10t32 19t25 31t11.5 45v502q0 182 206 182h107v-132h-107q-31 0 -50 -22.5t-19 -70.5v-500q0 -22 -10.5 -41.5t-24.5 -31t-31 -20t-26 -11.5t-13 -4q6 -1 13.5 -3t25.5 -11.5t31 -23t24 -38.5t11 -57v-476 q0 -57 17.5 -83t44.5 -26h114v-132h-103q-99 0 -154.5 44.5t-55.5 161.5z" />
<glyph unicode="|" horiz-adv-x="373" d="M125 -445v2025h123v-2025h-123z" />
<glyph unicode="}" horiz-adv-x="498" d="M373 518v-470q0 -117 -56 -161.5t-155 -44.5h-103v132h115q27 0 44.5 26t17.5 83v476q0 32 11 57t24 38.5t31 23t25.5 11.5t13.5 3q-4 1 -13 4t-26 11.5t-31 20t-24.5 31t-10.5 41.5v500q0 47 -19.5 70t-49.5 23h-108v132h107q207 0 207 -182v-502q0 -70 82 -101l23 -7 v-115q-4 0 -11 -1t-25.5 -6.5t-32 -15t-25 -30t-11.5 -47.5z" />
<glyph unicode="~" horiz-adv-x="824" d="M250 668q-17 0 -42 -10.5t-42 -21t-17 -13.5q-45 48 -52 65q36 44 87.5 74.5t107.5 30.5q47 0 122 -43q52 -33 79 -39q13 -2 26 -2q59 0 108 51l60 -52q-26 -45 -79 -83.5t-113 -38.5q-51 0 -130 46q-65 36 -115 36z" />
<glyph unicode="&#x2013;" horiz-adv-x="778" d="M668 698v-127h-558v127h558z" />
<glyph unicode="&#x2014;" horiz-adv-x="1011" d="M896 698v-112h-791v112h791z" />
<glyph unicode="&#x2018;" horiz-adv-x="224" d="M214 1420l-61 -419h-160l121 419h100z" />
<glyph unicode="&#x2019;" horiz-adv-x="218" d="M-10 1001l61 419h160l-121 -419h-100z" />
<glyph unicode="&#x201a;" horiz-adv-x="311" d="M-10 -223l61 419h160l-121 -419h-100z" />
<glyph unicode="&#x201c;" horiz-adv-x="492" d="M214 1420l-61 -419h-160l121 419h100zM482 1420l-61 -419h-160l121 419h100z" />
<glyph unicode="&#x201d;" horiz-adv-x="486" d="M-10 1001l61 419h160l-121 -419h-100zM258 1001l61 419h160l-121 -419h-100z" />
<glyph unicode="&#x201e;" horiz-adv-x="486" d="M-10 -223l61 419h160l-121 -419h-100zM258 -223l61 419h160l-121 -419h-100z" />
<glyph unicode="&#x2022;" horiz-adv-x="327" d="M55 529v251h217v-251h-217z" />
<glyph unicode="&#x2026;" horiz-adv-x="766" d="M55 0v196h152v-196h-152zM307 0v196h152v-196h-152zM559 0v196h152v-196h-152z" />
<glyph unicode="&#xe000;" horiz-adv-x="1125" d="M0 1125h1125v-1125h-1125v1125z" />
<glyph unicode="&#xe001;" d="M999 688v714q47 0 90 -6z" />
<glyph unicode="&#xe002;" d="M999 688v714q63 0 133 -13z" />
<glyph unicode="&#xe003;" d="M999 688v714q91 0 178 -23z" />
<glyph unicode="&#xe004;" d="M999 688v714q114 0 221 -35z" />
<glyph unicode="&#xe005;" d="M999 688v714q135 0 263 -50z" />
<glyph unicode="&#xe006;" d="M1303 1334l-304 -646v714q162 0 304 -68z" />
<glyph unicode="&#xe007;" d="M999 688v714q184 0 344 -88z" />
<glyph unicode="&#xe008;" d="M999 688v714q208 0 382 -111z" />
<glyph unicode="&#xe064;" d="M999 688l45 712q30 -2 44 -4z" />
<glyph unicode="&#xe065;" d="M999 688l45 712q52 -4 90 -11z" />
<glyph unicode="&#xe066;" d="M999 688l45 712q62 -3 132 -21z" />
<glyph unicode="&#xe067;" d="M999 688l45 712q87 -4 176 -33z" />
<glyph unicode="&#xe068;" d="M999 688l45 712q112 -6 218 -48z" />
<glyph unicode="&#xe069;" d="M999 688l45 712q134 -7 259 -66z" />
<glyph unicode="&#xe06a;" d="M1343 1314l-344 -626l45 712q157 -9 299 -86z" />
<glyph unicode="&#xe06b;" d="M999 688l45 712q181 -10 337 -109z" />
<glyph unicode="&#xe06c;" d="M999 688l45 712q207 -12 374 -135z" />
<glyph unicode="&#xe06d;" d="M999 688l45 712q229 -13 410 -162z" />
<glyph unicode="&#xe06e;" d="M999 688l45 712q255 -15 443 -192z" />
<glyph unicode="&#xe06f;" d="M999 688l45 712q138 -8 260.5 -67t214.5 -156z" />
<glyph unicode="&#xe070;" d="M999 688l45 712q150 -9 280.5 -77t224.5 -180z" />
<glyph unicode="&#xe071;" d="M999 688l45 712q162 -10 300.5 -88t231.5 -205z" />
<glyph unicode="&#xe072;" d="M999 688l45 712q174 -11 320.5 -99t236.5 -230z" />
<glyph unicode="&#xe073;" d="M999 688l45 712q187 -12 340.5 -111.5t240.5 -257.5z" />
<glyph unicode="&#xe074;" d="M999 688l45 712q198 -13 358 -124t243 -284z" />
<glyph unicode="&#xe075;" d="M999 688l45 712q210 -13 377 -136t242 -313z" />
<glyph unicode="&#xe076;" d="M999 688l45 712q222 -14 394.5 -150t239.5 -341z" />
<glyph unicode="&#xe077;" d="M999 688l45 712q234 -14 411.5 -163.5t234.5 -370.5z" />
<glyph unicode="&#xe078;" d="M999 688l45 712q247 -16 429 -179t227 -400z" />
<glyph unicode="&#xe079;" d="M999 688l45 712q258 -16 444.5 -193t218.5 -430z" />
<glyph unicode="&#xe07a;" d="M999 688l45 712q178 -11 328 -103t239.5 -240.5t99.5 -323.5z" />
<glyph unicode="&#xe07b;" d="M999 688l45 712q186 -11 340 -110t241.5 -258t87.5 -344h-714z" />
<glyph unicode="&#xe07c;" d="M999 688l45 712q193 -12 351 -117.5t243 -276t73 -363.5z" />
<glyph unicode="&#xe07d;" d="M999 688l45 712q193 -12 351 -117.5t243 -276t73 -363.5q-2 -32 -4 -45z" />
<glyph unicode="&#xe07e;" d="M999 688l45 712q193 -12 351 -117.5t243 -276t73 -363.5q-4 -53 -11 -89z" />
<glyph unicode="&#xe07f;" d="M999 688l45 712q193 -12 351 -117.5t243 -276t73 -363.5q-3 -61 -21 -133z" />
<glyph unicode="&#xe080;" d="M999 688l45 712q193 -12 351 -117.5t243 -276t73 -363.5q-4 -87 -33 -176z" />
<glyph unicode="&#xe081;" d="M1663 425l-664 263l45 712q193 -12 351 -117.5t243 -276t73 -363.5q-6 -112 -48 -218z" />
<glyph unicode="&#xe082;" d="M999 688l45 712q193 -12 351 -117.5t243 -276t73 -363.5q-7 -133 -66 -260z" />
<glyph unicode="&#xe083;" d="M999 688l45 712q193 -12 351 -117.5t243 -276t73 -363.5q-9 -160 -87 -299z" />
<glyph unicode="&#xe084;" d="M999 688l45 712q193 -12 351 -117.5t243 -276t73 -363.5q-10 -181 -109 -337z" />
<glyph unicode="&#xe085;" d="M999 688l45 712q193 -12 351 -117.5t243 -276t73 -363.5q-12 -205 -135 -375z" />
<glyph unicode="&#xe086;" d="M999 688l45 712q193 -12 351 -117.5t243 -276t73 -363.5q-13 -231 -162 -410z" />
<glyph unicode="&#xe087;" d="M999 688l45 712q193 -12 351 -117.5t243 -276t73 -363.5q-15 -256 -192 -443z" />
<glyph unicode="&#xe088;" d="M1487 168l-488 520l45 712q193 -12 351 -117.5t243 -276t73 -363.5q-8 -139 -67 -261t-157 -214z" />
<glyph unicode="&#xe089;" d="M999 688l45 712q193 -12 351 -117.5t243 -276t73 -363.5q-9 -151 -77 -281.5t-180 -222.5z" />
<glyph unicode="&#xe08a;" d="M999 688l45 712q193 -12 351 -117.5t243 -276t73 -363.5q-10 -163 -88 -301.5t-205 -230.5z" />
<glyph unicode="&#xe08b;" d="M1381 86l-382 602l45 712q193 -12 351 -117.5t243 -276t73 -363.5q-11 -175 -99.5 -321t-230.5 -236z" />
<glyph unicode="&#xe08c;" d="M1342 63l-343 625l45 712q193 -12 351 -117.5t243 -276t73 -363.5q-12 -186 -111.5 -339.5t-257.5 -240.5z" />
<glyph unicode="&#xe08d;" d="M1302 43l-303 645l45 712q193 -12 351 -117.5t243 -276t73 -363.5q-13 -198 -124 -358t-285 -242z" />
<glyph unicode="&#xe08e;" d="M1261 25l-262 663l45 712q193 -12 351 -117.5t243 -276t73 -363.5q-13 -211 -136.5 -377t-313.5 -241z" />
<glyph unicode="&#xe08f;" d="M1219 10l-220 678l45 712q193 -12 351 -117.5t243 -276t73 -363.5q-14 -223 -150 -394.5t-342 -238.5z" />
<glyph unicode="&#xe090;" d="M1176 -2l-177 690l45 712q193 -12 351 -117.5t243 -276t73 -363.5q-15 -234 -164 -411.5t-371 -233.5z" />
<glyph unicode="&#xe091;" d="M1132 -12l-133 700l45 712q193 -12 351 -117.5t243 -276t73 -363.5q-16 -247 -179 -428.5t-400 -226.5z" />
<glyph unicode="&#xe092;" d="M1088 -19l-89 707l45 712q193 -12 351 -117.5t243 -276t73 -363.5q-16 -259 -193 -444.5t-430 -217.5z" />
<glyph unicode="&#xe093;" d="M1043 -23l-44 711l45 712q193 -12 351 -117.5t243 -276t73 -363.5q-8 -134 -64 -254t-145 -207.5t-208.5 -142t-250.5 -62.5z" />
<glyph unicode="&#xe094;" d="M999 -24v712l45 712q193 -12 351 -117.5t243 -276t73 -363.5q-11 -186 -110 -339.5t-258 -240.5t-344 -87z" />
<glyph unicode="&#xe095;" d="M954 -23l90 1423q193 -12 351 -117.5t243 -276t73 -363.5q-9 -145 -73.5 -273t-166 -217t-237 -137t-280.5 -39z" />
<glyph unicode="&#xe096;" d="M954 -23q-15 1 -45 5l90 706l45 712q193 -12 351 -117.5t243 -276t73 -363.5q-9 -145 -73.5 -273t-166 -217t-237 -137t-280.5 -39z" />
<glyph unicode="&#xe097;" d="M954 -23q-41 3 -89 11l134 700l45 712q193 -12 351 -117.5t243 -276t73 -363.5q-9 -145 -73.5 -273t-166 -217t-237 -137t-280.5 -39z" />
<glyph unicode="&#xe098;" d="M954 -23q-69 5 -132 21l177 690l45 712q193 -12 351 -117.5t243 -276t73 -363.5q-9 -145 -73.5 -273t-166 -217t-237 -137t-280.5 -39z" />
<glyph unicode="&#xe099;" d="M954 -23q-87 6 -175 33l220 678l45 712q193 -12 351 -117.5t243 -276t73 -363.5q-9 -145 -73.5 -273t-166 -217t-237 -137t-280.5 -39z" />
<glyph unicode="&#xe09a;" d="M954 -23q-113 7 -218 49l263 662l45 712q193 -12 351 -117.5t243 -276t73 -363.5q-9 -145 -73.5 -273t-166 -217t-237 -137t-280.5 -39z" />
<glyph unicode="&#xe09b;" d="M954 -23q-137 9 -259 66l304 645l45 712q193 -12 351 -117.5t243 -276t73 -363.5q-9 -145 -73.5 -273t-166 -217t-237 -137t-280.5 -39z" />
<glyph unicode="&#xe09c;" d="M954 -23q-161 10 -298 86l343 625l45 712q193 -12 351 -117.5t243 -276t73 -363.5q-9 -145 -73.5 -273t-166 -217t-237 -137t-280.5 -39z" />
<glyph unicode="&#xe09d;" d="M954 -23q-183 12 -337 109l382 602l45 712q193 -12 351 -117.5t243 -276t73 -363.5q-9 -145 -73.5 -273t-166 -217t-237 -137t-280.5 -39z" />
<glyph unicode="&#xe09e;" d="M954 -23q-206 13 -374 135l419 576l45 712q193 -12 351 -117.5t243 -276t73 -363.5q-9 -145 -73.5 -273t-166 -217t-237 -137t-280.5 -39z" />
<glyph unicode="&#xe09f;" d="M954 -23q-233 15 -410 162l455 549l45 712q193 -12 351 -117.5t243 -276t73 -363.5q-9 -145 -73.5 -273t-166 -217t-237 -137t-280.5 -39z" />
<glyph unicode="&#xe0a0;" d="M954 -23q-256 16 -443 192l488 519l45 712q193 -12 351 -117.5t243 -276t73 -363.5q-9 -145 -73.5 -273t-166 -217t-237 -137t-280.5 -39z" />
<glyph unicode="&#xe0a1;" d="M954 -23q-139 9 -261 67.5t-214 155.5l520 488l45 712q193 -12 351 -117.5t243 -276t73 -363.5q-9 -145 -73.5 -273t-166 -217t-237 -137t-280.5 -39z" />
<glyph unicode="&#xe0a2;" d="M954 -23q-151 10 -281 77.5t-223 179.5l549 454l45 712q193 -12 351 -117.5t243 -276t73 -363.5q-9 -145 -73.5 -273t-166 -217t-237 -137t-280.5 -39z" />
<glyph unicode="&#xe0a3;" d="M954 -23q-163 10 -301 88t-231 204l577 419l45 712q193 -12 351 -117.5t243 -276t73 -363.5q-9 -145 -73.5 -273t-166 -217t-237 -137t-280.5 -39z" />
<glyph unicode="&#xe0a4;" d="M954 -23q-175 11 -321 99t-236 230l602 382l45 712q193 -12 351 -117.5t243 -276t73 -363.5q-9 -145 -73.5 -273t-166 -217t-237 -137t-280.5 -39z" />
<glyph unicode="&#xe0a5;" d="M954 -23q-187 12 -340 111t-239 257l624 343l45 712q193 -12 351 -117.5t243 -276t73 -363.5q-9 -145 -73.5 -273t-166 -217t-237 -137t-280.5 -39z" />
<glyph unicode="&#xe0a6;" d="M954 -23q-199 13 -358.5 123.5t-241.5 284.5l645 303l45 712q193 -12 351 -117.5t243 -276t73 -363.5q-9 -145 -73.5 -273t-166 -217t-237 -137t-280.5 -39z" />
<glyph unicode="&#xe0a7;" d="M954 -23q-210 13 -376 136t-242 312l663 263l45 712q193 -12 351 -117.5t243 -276t73 -363.5q-9 -145 -73.5 -273t-166 -217t-237 -137t-280.5 -39z" />
<glyph unicode="&#xe0a8;" d="M954 -23q-222 14 -394 149.5t-239 340.5l678 221l45 712q193 -12 351 -117.5t243 -276t73 -363.5q-9 -145 -73.5 -273t-166 -217t-237 -137t-280.5 -39z" />
<glyph unicode="&#xe0a9;" d="M954 -23q-234 15 -411.5 164t-233.5 370l690 177l45 712q193 -12 351 -117.5t243 -276t73 -363.5q-9 -145 -73.5 -273t-166 -217t-237 -137t-280.5 -39z" />
<glyph unicode="&#xe0aa;" d="M954 -23q-247 16 -428.5 178.5t-226.5 398.5l700 134l45 712q193 -12 351 -117.5t243 -276t73 -363.5q-9 -145 -73.5 -273t-166 -217t-237 -137t-280.5 -39z" />
<glyph unicode="&#xe0ab;" d="M954 -23q-171 11 -315 95.5t-235 222.5t-112 303l707 90l45 712q193 -12 351 -117.5t243 -276t73 -363.5q-9 -145 -73.5 -273t-166 -217t-237 -137t-280.5 -39z" />
<glyph unicode="&#xe0ac;" d="M954 -23q-134 8 -254 64t-207.5 144.5t-142 207.5t-62.5 250l711 45l45 712q193 -12 351 -117.5t243 -276t73 -363.5q-9 -145 -73.5 -273t-166 -217t-237 -137t-280.5 -39z" />
<glyph unicode="&#xe0ad;" d="M954 -23q-139 9 -263 69t-212.5 155t-140 221.5t-51.5 264.5l712 1l45 712q193 -12 351 -117.5t243 -276t73 -363.5q-9 -145 -73.5 -273t-166 -217t-237 -137t-280.5 -39z" />
<glyph unicode="&#xe0ae;" d="M288 733l711 -45l45 712q193 -12 351 -117.5t243 -276t73 -363.5q-9 -145 -73.5 -273t-166 -217t-237 -137t-280.5 -39q-193 12 -351 117.5t-242.5 275t-72.5 363.5z" />
<glyph unicode="&#xe0af;" d="M292 777l707 -89l45 712q193 -12 351 -117.5t243 -276t73 -363.5q-9 -145 -73.5 -273t-166 -217t-237 -137t-280.5 -39q-193 12 -351 117.5t-242.5 275t-72.5 363.5q0 7 1.5 21.5t2.5 22.5z" />
<glyph unicode="&#xe0b0;" d="M299 821l700 -133l45 712q193 -12 351 -117.5t243 -276t73 -363.5q-9 -145 -73.5 -273t-166 -217t-237 -137t-280.5 -39q-193 12 -351 117.5t-242.5 275t-72.5 363.5q3 39 11 88z" />
<glyph unicode="&#xe0b1;" d="M999 688l45 712q193 -12 351 -117.5t243 -276t73 -363.5q-9 -145 -73.5 -273t-166 -217t-237 -137t-280.5 -39q-193 12 -351 117.5t-242.5 275t-72.5 363.5q4 67 21 132z" />
<glyph unicode="&#xe0b2;" d="M999 688l45 712q193 -12 351 -117.5t243 -276t73 -363.5q-9 -145 -73.5 -273t-166 -217t-237 -137t-280.5 -39q-193 12 -351 117.5t-242.5 275t-72.5 363.5q6 91 33 175z" />
<glyph unicode="&#xe0b3;" d="M999 688l45 712q193 -12 351 -117.5t243 -276t73 -363.5q-9 -145 -73.5 -273t-166 -217t-237 -137t-280.5 -39q-193 12 -351 117.5t-242.5 275t-72.5 363.5q7 113 49 218z" />
<glyph unicode="&#xe0b4;" d="M999 688l45 712q193 -12 351 -117.5t243 -276t73 -363.5q-9 -145 -73.5 -273t-166 -217t-237 -137t-280.5 -39q-193 12 -351 117.5t-242.5 275t-72.5 363.5q9 136 66 258z" />
<glyph unicode="&#xe0b5;" d="M374 1031l625 -343l45 712q193 -12 351 -117.5t243 -276t73 -363.5q-9 -145 -73.5 -273t-166 -217t-237 -137t-280.5 -39q-193 12 -351 117.5t-242.5 275t-72.5 363.5q10 161 86 298z" />
<glyph unicode="&#xe0b6;" d="M397 1070l602 -382l45 712q193 -12 351 -117.5t243 -276t73 -363.5q-9 -145 -73.5 -273t-166 -217t-237 -137t-280.5 -39q-193 12 -351 117.5t-242.5 275t-72.5 363.5q12 182 109 337z" />
<glyph unicode="&#xe0b7;" d="M999 688l45 712q193 -12 351 -117.5t243 -276t73 -363.5q-9 -145 -73.5 -273t-166 -217t-237 -137t-280.5 -39q-193 12 -351 117.5t-242.5 275t-72.5 363.5q13 206 134 373z" />
<glyph unicode="&#xe0b8;" d="M450 1142l549 -454l45 712q193 -12 351 -117.5t243 -276t73 -363.5q-9 -145 -73.5 -273t-166 -217t-237 -137t-280.5 -39q-193 12 -351 117.5t-242.5 275t-72.5 363.5q15 232 162 409z" />
<glyph unicode="&#xe0b9;" d="M999 688l45 712q193 -12 351 -117.5t243 -276t73 -363.5q-9 -145 -73.5 -273t-166 -217t-237 -137t-280.5 -39q-193 12 -351 117.5t-242.5 275t-72.5 363.5q8 127 58 240.5t133 202.5z" />
<glyph unicode="&#xe0ba;" d="M999 688l45 712q193 -12 351 -117.5t243 -276t73 -363.5q-9 -145 -73.5 -273t-166 -217t-237 -137t-280.5 -39q-193 12 -351 117.5t-242.5 275t-72.5 363.5q9 139 67.5 261t155.5 214z" />
<glyph unicode="&#xe0bb;" d="M545 1238l454 -550l45 712q193 -12 351 -117.5t243 -276t73 -363.5q-9 -145 -73.5 -273t-166 -217t-237 -137t-280.5 -39q-193 12 -351 117.5t-242.5 275t-72.5 363.5q10 150 77.5 281t179.5 224z" />
<glyph unicode="&#xe0bc;" d="M580 1265l419 -577l45 712q193 -12 351 -117.5t243 -276t73 -363.5q-9 -145 -73.5 -273t-166 -217t-237 -137t-280.5 -39q-193 12 -351 117.5t-242.5 275t-72.5 363.5q10 162 87.5 301t204.5 231z" />
<glyph unicode="&#xe0bd;" d="M999 688l45 712q193 -12 351 -117.5t243 -276t73 -363.5q-9 -145 -73.5 -273t-166 -217t-237 -137t-280.5 -39q-193 12 -351 117.5t-242.5 275t-72.5 363.5q11 174 99 320.5t230 236.5z" />
<glyph unicode="&#xe0be;" d="M999 688l45 712q193 -12 351 -117.5t243 -276t73 -363.5q-9 -145 -73.5 -273t-166 -217t-237 -137t-280.5 -39q-193 12 -351 117.5t-242.5 275t-72.5 363.5q12 186 111 339.5t256 240.5z" />
<glyph unicode="&#xe0bf;" d="M695 1334l304 -646l45 712q193 -12 351 -117.5t243 -276t73 -363.5q-9 -145 -73.5 -273t-166 -217t-237 -137t-280.5 -39q-193 12 -351 117.5t-242.5 275t-72.5 363.5q13 198 123.5 358.5t283.5 242.5z" />
<glyph unicode="&#xe0c0;" d="M288 733q13 210 136 377t312 242l263 -664l45 712q193 -12 351 -117.5t243 -276t73 -363.5q-9 -145 -73.5 -273t-166 -217t-237 -137t-280.5 -39q-193 12 -351 117.5t-242.5 275t-72.5 363.5z" />
<glyph unicode="&#xe0c1;" d="M999 688l45 712q193 -12 351 -117.5t243 -276t73 -363.5q-9 -145 -73.5 -273t-166 -217t-237 -137t-280.5 -39q-193 12 -351 117.5t-242.5 275t-72.5 363.5q14 222 149.5 394.5t340.5 239.5z" />
<glyph unicode="&#xe0c2;" d="M821 1379l178 -691l45 712q193 -12 351 -117.5t243 -276t73 -363.5q-9 -145 -73.5 -273t-166 -217t-237 -137t-280.5 -39q-193 12 -351 117.5t-242.5 275t-72.5 363.5q15 234 163.5 411.5t369.5 234.5z" />
<glyph unicode="&#xe0c3;" d="M999 688l45 712q193 -12 351 -117.5t243 -276t73 -363.5q-9 -145 -73.5 -273t-166 -217t-237 -137t-280.5 -39q-193 12 -351 117.5t-242.5 275t-72.5 363.5q16 246 178.5 428.5t398.5 227.5z" />
<glyph unicode="&#xe0c4;" d="M909 1396l90 -708l45 712q193 -12 351 -117.5t243 -276t73 -363.5q-9 -145 -73.5 -273t-166 -217t-237 -137t-280.5 -39q-193 12 -351 117.5t-242.5 275t-72.5 363.5q11 171 95.5 315.5t222.5 235.5t303 112z" />
<glyph unicode="&#xe0c5;" d="M953 1400l46 -712l45 712q193 -12 351 -117.5t243 -276t73 -363.5q-9 -145 -73.5 -273t-166 -217t-237 -137t-280.5 -39q-193 12 -351 117.5t-242.5 275t-72.5 363.5q8 133 64 253.5t144.5 208t207 142.5t249.5 63z" />
<glyph unicode="&#xe0c6;" d="M999 1402v-714l45 712q193 -12 351 -117.5t243 -276t73 -363.5q-9 -145 -73.5 -273t-166 -217t-237 -137t-280.5 -39q-193 12 -351 117.5t-242.5 275t-72.5 363.5q9 139 69 263.5t155 213t222 140.5t265 52z" />
<glyph unicode="&#xe0c7;" d="M999 688l89 708q30 -4 45 -7z" />
<glyph unicode="&#xe0c8;" d="M999 688l89 708q51 -7 89 -17z" />
<glyph unicode="&#xe0c9;" d="M999 688l89 708q64 -8 131 -29z" />
<glyph unicode="&#xe0ca;" d="M999 688l89 708q90 -12 174 -44z" />
<glyph unicode="&#xe0cb;" d="M999 688l89 708q110 -13 215 -62z" />
<glyph unicode="&#xe0cc;" d="M999 688l89 708q134 -16 255 -82z" />
<glyph unicode="&#xe0cd;" d="M1381 1291l-382 -603l89 708q159 -19 293 -105z" />
<glyph unicode="&#xe0ce;" d="M999 688l89 708q180 -22 330 -130z" />
<glyph unicode="&#xe0cf;" d="M999 688l89 708q206 -25 366 -158z" />
<glyph unicode="&#xe0d0;" d="M999 688l89 708q229 -28 399 -188z" />
<glyph unicode="&#xe0d1;" d="M999 688l89 708q254 -31 431 -219z" />
<glyph unicode="&#xe0d2;" d="M999 688l89 708q138 -17 256.5 -83t204.5 -170z" />
<glyph unicode="&#xe0d3;" d="M999 688l89 708q150 -19 276 -95t212 -193z" />
<glyph unicode="&#xe0d4;" d="M999 688l89 708q162 -21 295.5 -107t217.5 -219z" />
<glyph unicode="&#xe0d5;" d="M999 688l89 708q174 -22 314.5 -119.5t221.5 -244.5z" />
<glyph unicode="&#xe0d6;" d="M999 688l89 708q186 -24 333 -132.5t224 -272.5z" />
<glyph unicode="&#xe0d7;" d="M999 688l89 708q198 -25 351 -145.5t224 -299.5z" />
<glyph unicode="&#xe0d8;" d="M999 688l89 708q209 -27 368 -160t222 -327z" />
<glyph unicode="&#xe0d9;" d="M999 688l89 708q221 -28 385 -174.5t218 -355.5z" />
<glyph unicode="&#xe0da;" d="M999 688l89 708q233 -30 401 -189.5t211 -383.5z" />
<glyph unicode="&#xe0db;" d="M999 688l89 708q245 -31 417 -205.5t202 -413.5z" />
<glyph unicode="&#xe0dc;" d="M999 688l89 708q257 -32 432.5 -221t190.5 -442z" />
<glyph unicode="&#xe0dd;" d="M999 688l89 708q269 -34 447 -237.5t178 -470.5h-714z" />
<glyph unicode="&#xe0de;" d="M999 688l89 708q185 -23 332.5 -131.5t225 -273t65.5 -348.5z" />
<glyph unicode="&#xe0df;" d="M999 688l89 708q192 -24 343.5 -139.5t226 -291t49.5 -367.5z" />
<glyph unicode="&#xe0e0;" d="M999 688l89 708q192 -24 343.5 -139.5t226 -291t49.5 -367.5q-4 -30 -7 -45z" />
<glyph unicode="&#xe0e1;" d="M999 688l89 708q192 -24 343.5 -139.5t226 -291t49.5 -367.5q-7 -51 -17 -88z" />
<glyph unicode="&#xe0e2;" d="M999 688l89 708q192 -24 343.5 -139.5t226 -291t49.5 -367.5q-10 -73 -29 -131z" />
<glyph unicode="&#xe0e3;" d="M999 688l89 708q192 -24 343.5 -139.5t226 -291t49.5 -367.5q-12 -90 -44 -173z" />
<glyph unicode="&#xe0e4;" d="M1645 384l-646 304l89 708q192 -24 343.5 -139.5t226 -291t49.5 -367.5q-13 -110 -62 -214z" />
<glyph unicode="&#xe0e5;" d="M999 688l89 708q192 -24 343.5 -139.5t226 -291t49.5 -367.5q-16 -135 -83 -255z" />
<glyph unicode="&#xe0e6;" d="M999 688l89 708q192 -24 343.5 -139.5t226 -291t49.5 -367.5q-19 -156 -105 -293z" />
<glyph unicode="&#xe0e7;" d="M999 688l89 708q192 -24 343.5 -139.5t226 -291t49.5 -367.5q-22 -182 -131 -329z" />
<glyph unicode="&#xe0e8;" d="M999 688l89 708q192 -24 343.5 -139.5t226 -291t49.5 -367.5q-25 -203 -158 -365z" />
<glyph unicode="&#xe0e9;" d="M999 688l89 708q192 -24 343.5 -139.5t226 -291t49.5 -367.5q-28 -230 -188 -398z" />
<glyph unicode="&#xe0ea;" d="M999 688l89 708q192 -24 343.5 -139.5t226 -291t49.5 -367.5q-33 -257 -220 -430z" />
<glyph unicode="&#xe0eb;" d="M1454 138l-455 550l89 708q192 -24 343.5 -139.5t226 -291t49.5 -367.5q-18 -138 -84 -256t-169 -204z" />
<glyph unicode="&#xe0ec;" d="M999 688l89 708q192 -24 343.5 -139.5t226 -291t49.5 -367.5q-19 -150 -95 -276t-194 -211z" />
<glyph unicode="&#xe0ed;" d="M999 688l89 708q192 -24 343.5 -139.5t226 -291t49.5 -367.5q-21 -161 -107.5 -295t-218.5 -217z" />
<glyph unicode="&#xe0ee;" d="M1342 63l-343 625l89 708q192 -24 343.5 -139.5t226 -291t49.5 -367.5q-22 -173 -119.5 -313.5t-245.5 -221.5z" />
<glyph unicode="&#xe0ef;" d="M1302 43l-303 645l89 708q192 -24 343.5 -139.5t226 -291t49.5 -367.5q-24 -185 -133 -332t-272 -223z" />
<glyph unicode="&#xe0f0;" d="M1261 25l-262 663l89 708q192 -24 343.5 -139.5t226 -291t49.5 -367.5q-25 -197 -146 -350t-300 -223z" />
<glyph unicode="&#xe0f1;" d="M1219 10l-220 678l89 708q192 -24 343.5 -139.5t226 -291t49.5 -367.5q-27 -209 -160.5 -367.5t-327.5 -220.5z" />
<glyph unicode="&#xe0f2;" d="M1176 -2l-177 690l89 708q192 -24 343.5 -139.5t226 -291t49.5 -367.5q-28 -221 -175 -384t-356 -216z" />
<glyph unicode="&#xe0f3;" d="M1133 -12l-134 700l89 708q192 -24 343.5 -139.5t226 -291t49.5 -367.5q-30 -233 -190 -400t-384 -210z" />
<glyph unicode="&#xe0f4;" d="M1088 -19l-89 707l89 708q192 -24 343.5 -139.5t226 -291t49.5 -367.5q-31 -245 -205.5 -416t-413.5 -201z" />
<glyph unicode="&#xe0f5;" d="M1044 -23l-45 711l89 708q192 -24 343.5 -139.5t226 -291t49.5 -367.5q-21 -169 -115 -308t-238 -221t-310 -92z" />
<glyph unicode="&#xe0f6;" d="M999 -24v712l89 708q192 -24 343.5 -139.5t226 -291t49.5 -367.5q-22 -177 -123.5 -320t-255.5 -222.5t-329 -79.5z" />
<glyph unicode="&#xe0f7;" d="M954 -23l45 711l89 708q192 -24 343.5 -139.5t226 -291t49.5 -367.5q-23 -185 -131.5 -332t-273 -224t-348.5 -65z" />
<glyph unicode="&#xe0f8;" d="M910 -19l178 1415q192 -24 343.5 -139.5t226 -291t49.5 -367.5q-18 -144 -90.5 -268t-179.5 -206t-245 -121.5t-282 -21.5z" />
<glyph unicode="&#xe0f9;" d="M910 -19q-15 2 -45 8l134 699l89 708q192 -24 343.5 -139.5t226 -291t49.5 -367.5q-18 -144 -90.5 -268t-179.5 -206t-245 -121.5t-282 -21.5z" />
<glyph unicode="&#xe0fa;" d="M910 -19q-43 6 -88 17l177 690l89 708q192 -24 343.5 -139.5t226 -291t49.5 -367.5q-18 -144 -90.5 -268t-179.5 -206t-245 -121.5t-282 -21.5z" />
<glyph unicode="&#xe0fb;" d="M910 -19q-70 9 -131 30l220 677l89 708q192 -24 343.5 -139.5t226 -291t49.5 -367.5q-18 -144 -90.5 -268t-179.5 -206t-245 -121.5t-282 -21.5z" />
<glyph unicode="&#xe0fc;" d="M910 -19q-92 12 -173 45l262 662l89 708q192 -24 343.5 -139.5t226 -291t49.5 -367.5q-18 -144 -90.5 -268t-179.5 -206t-245 -121.5t-282 -21.5z" />
<glyph unicode="&#xe0fd;" d="M910 -19q-115 15 -215 62l304 645l89 708q192 -24 343.5 -139.5t226 -291t49.5 -367.5q-18 -144 -90.5 -268t-179.5 -206t-245 -121.5t-282 -21.5z" />
<glyph unicode="&#xe0fe;" d="M910 -19q-135 17 -255 83l344 624l89 708q192 -24 343.5 -139.5t226 -291t49.5 -367.5q-18 -144 -90.5 -268t-179.5 -206t-245 -121.5t-282 -21.5z" />
<glyph unicode="&#xe0ff;" d="M910 -19q-158 21 -293 105l382 602l89 708q192 -24 343.5 -139.5t226 -291t49.5 -367.5q-18 -144 -90.5 -268t-179.5 -206t-245 -121.5t-282 -21.5z" />
<glyph unicode="&#xe100;" d="M910 -19q-184 24 -330 131l419 576l89 708q192 -24 343.5 -139.5t226 -291t49.5 -367.5q-18 -144 -90.5 -268t-179.5 -206t-245 -121.5t-282 -21.5z" />
<glyph unicode="&#xe101;" d="M910 -19q-206 26 -366 158l455 549l89 708q192 -24 343.5 -139.5t226 -291t49.5 -367.5q-18 -144 -90.5 -268t-179.5 -206t-245 -121.5t-282 -21.5z" />
<glyph unicode="&#xe102;" d="M910 -19q-231 30 -399 188l488 519l89 708q192 -24 343.5 -139.5t226 -291t49.5 -367.5q-18 -144 -90.5 -268t-179.5 -206t-245 -121.5t-282 -21.5z" />
<glyph unicode="&#xe103;" d="M910 -19q-254 33 -431 219l520 488l89 708q192 -24 343.5 -139.5t226 -291t49.5 -367.5q-18 -144 -90.5 -268t-179.5 -206t-245 -121.5t-282 -21.5z" />
<glyph unicode="&#xe104;" d="M910 -19q-139 18 -257 84t-203 169l549 454l89 708q192 -24 343.5 -139.5t226 -291t49.5 -367.5q-18 -144 -90.5 -268t-179.5 -206t-245 -121.5t-282 -21.5z" />
<glyph unicode="&#xe105;" d="M910 -19q-150 19 -276 95t-212 193l577 419l89 708q192 -24 343.5 -139.5t226 -291t49.5 -367.5q-18 -144 -90.5 -268t-179.5 -206t-245 -121.5t-282 -21.5z" />
<glyph unicode="&#xe106;" d="M910 -19q-162 21 -295.5 107t-217.5 218l602 382l89 708q192 -24 343.5 -139.5t226 -291t49.5 -367.5q-18 -144 -90.5 -268t-179.5 -206t-245 -121.5t-282 -21.5z" />
<glyph unicode="&#xe107;" d="M910 -19q-174 22 -314.5 119.5t-221.5 244.5l625 343l89 708q192 -24 343.5 -139.5t226 -291t49.5 -367.5q-18 -144 -90.5 -268t-179.5 -206t-245 -121.5t-282 -21.5z" />
<glyph unicode="&#xe108;" d="M910 -19q-186 24 -332.5 132t-223.5 271l645 304l89 708q192 -24 343.5 -139.5t226 -291t49.5 -367.5q-18 -144 -90.5 -268t-179.5 -206t-245 -121.5t-282 -21.5z" />
<glyph unicode="&#xe109;" d="M910 -19q-198 25 -350.5 145.5t-223.5 299.5l663 262l89 708q192 -24 343.5 -139.5t226 -291t49.5 -367.5q-18 -144 -90.5 -268t-179.5 -206t-245 -121.5t-282 -21.5z" />
<glyph unicode="&#xe10a;" d="M910 -19q-210 27 -368 160t-221 327l678 220l89 708q192 -24 343.5 -139.5t226 -291t49.5 -367.5q-18 -144 -90.5 -268t-179.5 -206t-245 -121.5t-282 -21.5z" />
<glyph unicode="&#xe10b;" d="M910 -19q-221 28 -384.5 174.5t-216.5 354.5l690 178l89 708q192 -24 343.5 -139.5t226 -291t49.5 -367.5q-18 -144 -90.5 -268t-179.5 -206t-245 -121.5t-282 -21.5z" />
<glyph unicode="&#xe10c;" d="M910 -19q-233 30 -400.5 189.5t-210.5 383.5l700 134l89 708q192 -24 343.5 -139.5t226 -291t49.5 -367.5q-18 -144 -90.5 -268t-179.5 -206t-245 -121.5t-282 -21.5z" />
<glyph unicode="&#xe10d;" d="M910 -19q-163 21 -297.5 108t-218 219.5t-102.5 289.5l707 90l89 708q192 -24 343.5 -139.5t226 -291t49.5 -367.5q-18 -144 -90.5 -268t-179.5 -206t-245 -121.5t-282 -21.5z" />
<glyph unicode="&#xe10e;" d="M910 -19q-257 33 -431.5 221t-190.5 441l711 45l89 708q192 -24 343.5 -139.5t226 -291t49.5 -367.5q-18 -144 -90.5 -268t-179.5 -206t-245 -121.5t-282 -21.5z" />
<glyph unicode="&#xe10f;" d="M910 -19q-178 23 -321 123.5t-222.5 254t-79.5 329.5h712l89 708q192 -24 343.5 -139.5t226 -291t49.5 -367.5q-18 -144 -90.5 -268t-179.5 -206t-245 -121.5t-282 -21.5z" />
<glyph unicode="&#xe110;" d="M910 -19q-185 24 -332 131.5t-224 271.5t-66 348l711 -44l89 708q192 -24 343.5 -139.5t226 -291t49.5 -367.5q-18 -144 -90.5 -268t-179.5 -206t-245 -121.5t-282 -21.5z" />
<glyph unicode="&#xe111;" d="M292 777l707 -89l89 708q192 -24 343.5 -139.5t226 -291t49.5 -367.5q-18 -144 -90.5 -268t-179.5 -206t-245 -121.5t-282 -21.5q-192 25 -343 140t-225 289.5t-50 366.5z" />
<glyph unicode="&#xe112;" d="M299 821l700 -133l89 708q192 -24 343.5 -139.5t226 -291t49.5 -367.5q-18 -144 -90.5 -268t-179.5 -206t-245 -121.5t-282 -21.5q-192 25 -343 140t-225 289.5t-50 366.5q1 8 4 23z" />
<glyph unicode="&#xe113;" d="M309 865l690 -177l89 708q192 -24 343.5 -139.5t226 -291t49.5 -367.5q-18 -144 -90.5 -268t-179.5 -206t-245 -121.5t-282 -21.5q-192 25 -343 140t-225 289.5t-50 366.5q5 39 17 88z" />
<glyph unicode="&#xe114;" d="M999 688l89 708q192 -24 343.5 -139.5t226 -291t49.5 -367.5q-18 -144 -90.5 -268t-179.5 -206t-245 -121.5t-282 -21.5q-192 25 -343 140t-225 289.5t-50 366.5q9 68 30 131z" />
<glyph unicode="&#xe115;" d="M999 688l89 708q192 -24 343.5 -139.5t226 -291t49.5 -367.5q-18 -144 -90.5 -268t-179.5 -206t-245 -121.5t-282 -21.5q-192 25 -343 140t-225 289.5t-50 366.5q12 90 44 173z" />
<glyph unicode="&#xe116;" d="M999 688l89 708q192 -24 343.5 -139.5t226 -291t49.5 -367.5q-18 -144 -90.5 -268t-179.5 -206t-245 -121.5t-282 -21.5q-192 25 -343 140t-225 289.5t-50 366.5q15 117 63 215z" />
<glyph unicode="&#xe117;" d="M999 688l89 708q192 -24 343.5 -139.5t226 -291t49.5 -367.5q-18 -144 -90.5 -268t-179.5 -206t-245 -121.5t-282 -21.5q-192 25 -343 140t-225 289.5t-50 366.5q17 132 82 254z" />
<glyph unicode="&#xe118;" d="M397 1070l602 -382l89 708q192 -24 343.5 -139.5t226 -291t49.5 -367.5q-18 -144 -90.5 -268t-179.5 -206t-245 -121.5t-282 -21.5q-192 25 -343 140t-225 289.5t-50 366.5q21 158 105 293z" />
<glyph unicode="&#xe119;" d="M422 1107l577 -419l89 708q192 -24 343.5 -139.5t226 -291t49.5 -367.5q-18 -144 -90.5 -268t-179.5 -206t-245 -121.5t-282 -21.5q-192 25 -343 140t-225 289.5t-50 366.5q24 183 130 330z" />
<glyph unicode="&#xe11a;" d="M999 688l89 708q192 -24 343.5 -139.5t226 -291t49.5 -367.5q-18 -144 -90.5 -268t-179.5 -206t-245 -121.5t-282 -21.5q-192 25 -343 140t-225 289.5t-50 366.5q27 206 157 365z" />
<glyph unicode="&#xe11b;" d="M479 1176l520 -488l89 708q192 -24 343.5 -139.5t226 -291t49.5 -367.5q-18 -144 -90.5 -268t-179.5 -206t-245 -121.5t-282 -21.5q-192 25 -343 140t-225 289.5t-50 366.5q30 231 187 399z" />
<glyph unicode="&#xe11c;" d="M999 688l89 708q192 -24 343.5 -139.5t226 -291t49.5 -367.5q-18 -144 -90.5 -268t-179.5 -206t-245 -121.5t-282 -21.5q-192 25 -343 140t-225 289.5t-50 366.5q33 257 219 430z" />
<glyph unicode="&#xe11d;" d="M999 688l89 708q192 -24 343.5 -139.5t226 -291t49.5 -367.5q-18 -144 -90.5 -268t-179.5 -206t-245 -121.5t-282 -21.5q-192 25 -343 140t-225 289.5t-50 366.5q18 138 84 256.5t168 203.5z" />
<glyph unicode="&#xe11e;" d="M580 1265l419 -577l89 708q192 -24 343.5 -139.5t226 -291t49.5 -367.5q-18 -144 -90.5 -268t-179.5 -206t-245 -121.5t-282 -21.5q-192 25 -343 140t-225 289.5t-50 366.5q19 150 95 276t193 212z" />
<glyph unicode="&#xe11f;" d="M617 1290l382 -602l89 708q192 -24 343.5 -139.5t226 -291t49.5 -367.5q-18 -144 -90.5 -268t-179.5 -206t-245 -121.5t-282 -21.5q-192 25 -343 140t-225 289.5t-50 366.5q21 162 107 295.5t218 217.5z" />
<glyph unicode="&#xe120;" d="M999 688l89 708q192 -24 343.5 -139.5t226 -291t49.5 -367.5q-18 -144 -90.5 -268t-179.5 -206t-245 -121.5t-282 -21.5q-192 25 -343 140t-225 289.5t-50 366.5q22 173 119 313.5t244 222.5z" />
<glyph unicode="&#xe121;" d="M999 688l89 708q192 -24 343.5 -139.5t226 -291t49.5 -367.5q-18 -144 -90.5 -268t-179.5 -206t-245 -121.5t-282 -21.5q-192 25 -343 140t-225 289.5t-50 366.5q24 185 132.5 332.5t270.5 224.5z" />
<glyph unicode="&#xe122;" d="M736 1351l263 -663l89 708q192 -24 343.5 -139.5t226 -291t49.5 -367.5q-18 -144 -90.5 -268t-179.5 -206t-245 -121.5t-282 -21.5q-192 25 -343 140t-225 289.5t-50 366.5q25 197 145.5 350t298.5 224z" />
<glyph unicode="&#xe123;" d="M292 777q27 209 160 368t326 222l221 -679l89 708q192 -24 343.5 -139.5t226 -291t49.5 -367.5q-18 -144 -90.5 -268t-179.5 -206t-245 -121.5t-282 -21.5q-192 25 -343 140t-225 289.5t-50 366.5z" />
<glyph unicode="&#xe124;" d="M999 688l89 708q192 -24 343.5 -139.5t226 -291t49.5 -367.5q-18 -144 -90.5 -268t-179.5 -206t-245 -121.5t-282 -21.5q-192 25 -343 140t-225 289.5t-50 366.5q28 221 174 384.5t355 217.5z" />
<glyph unicode="&#xe125;" d="M865 1389l134 -701l89 708q192 -24 343.5 -139.5t226 -291t49.5 -367.5q-18 -144 -90.5 -268t-179.5 -206t-245 -121.5t-282 -21.5q-192 25 -343 140t-225 289.5t-50 366.5q30 233 189.5 401t383.5 211z" />
<glyph unicode="&#xe126;" d="M999 688l89 708q192 -24 343.5 -139.5t226 -291t49.5 -367.5q-18 -144 -90.5 -268t-179.5 -206t-245 -121.5t-282 -21.5q-192 25 -343 140t-225 289.5t-50 366.5q31 245 204.5 417t412.5 202z" />
<glyph unicode="&#xe127;" d="M954 1400l45 -712l89 708q192 -24 343.5 -139.5t226 -291t49.5 -367.5q-18 -144 -90.5 -268t-179.5 -206t-245 -121.5t-282 -21.5q-192 25 -343 140t-225 289.5t-50 366.5q33 257 221 432t441 191z" />
<glyph unicode="&#xe128;" d="M998 1402l1 -714l89 708q192 -24 343.5 -139.5t226 -291t49.5 -367.5q-18 -144 -90.5 -268t-179.5 -206t-245 -121.5t-282 -21.5q-192 25 -343 140t-225 289.5t-50 366.5q23 177 123.5 320.5t254 224t328.5 80.5z" />
<glyph unicode="&#xe129;" d="M999 688l134 701q32 -7 43 -10z" />
<glyph unicode="&#xe12a;" d="M999 688l134 701q49 -10 87 -22z" />
<glyph unicode="&#xe12b;" d="M999 688l134 701q65 -12 128 -37z" />
<glyph unicode="&#xe12c;" d="M999 688l134 701q87 -16 170 -55z" />
<glyph unicode="&#xe12d;" d="M999 688l134 701q111 -21 210 -75z" />
<glyph unicode="&#xe12e;" d="M999 688l134 701q133 -25 248 -98z" />
<glyph unicode="&#xe12f;" d="M1419 1266l-420 -578l134 701q157 -30 286 -123z" />
<glyph unicode="&#xe130;" d="M999 688l134 701q178 -34 321 -151z" />
<glyph unicode="&#xe131;" d="M999 688l134 701q203 -38 354 -181z" />
<glyph unicode="&#xe132;" d="M999 688l134 701q227 -43 386 -212z" />
<glyph unicode="&#xe133;" d="M999 688l134 701q251 -48 416 -246z" />
<glyph unicode="&#xe134;" d="M999 688l134 701q136 -26 250 -99.5t193 -181.5z" />
<glyph unicode="&#xe135;" d="M999 688l134 701q148 -28 269 -112t199 -207z" />
<glyph unicode="&#xe136;" d="M999 688l134 701q160 -30 287.5 -124.5t203.5 -232.5z" />
<glyph unicode="&#xe137;" d="M999 688l134 701q172 -32 306 -138.5t206 -258.5z" />
<glyph unicode="&#xe138;" d="M999 688l134 701q184 -35 324 -153t206 -286z" />
<glyph unicode="&#xe139;" d="M999 688l134 701q195 -37 340.5 -167.5t204.5 -313.5z" />
<glyph unicode="&#xe13a;" d="M999 688l134 701q207 -39 356.5 -182t200.5 -341z" />
<glyph unicode="&#xe13b;" d="M999 688l134 701q218 -41 372.5 -198t194.5 -369z" />
<glyph unicode="&#xe13c;" d="M999 688l134 701q230 -44 387.5 -214t186.5 -397z" />
<glyph unicode="&#xe13d;" d="M999 688l134 701q242 -46 403 -231t176 -426z" />
<glyph unicode="&#xe13e;" d="M999 688l134 701q168 -32 301 -134.5t206 -251t73 -315.5h-714z" />
<glyph unicode="&#xe13f;" d="M999 688l134 701q175 -33 312 -143t207 -269t59 -334z" />
<glyph unicode="&#xe140;" d="M999 688l134 701q183 -35 323.5 -152.5t207.5 -286.5t43 -352z" />
<glyph unicode="&#xe141;" d="M999 688l134 701q190 -36 333.5 -161t206.5 -304.5t27 -369.5z" />
<glyph unicode="&#xe142;" d="M999 688l134 701q190 -36 333.5 -161t206.5 -304.5t27 -369.5q-6 -30 -10 -45z" />
<glyph unicode="&#xe143;" d="M999 688l134 701q190 -36 333.5 -161t206.5 -304.5t27 -369.5q-10 -49 -22 -87z" />
<glyph unicode="&#xe144;" d="M999 688l134 701q190 -36 333.5 -161t206.5 -304.5t27 -369.5q-11 -63 -37 -129z" />
<glyph unicode="&#xe145;" d="M999 688l134 701q190 -36 333.5 -161t206.5 -304.5t27 -369.5q-16 -87 -55 -170z" />
<glyph unicode="&#xe146;" d="M1625 344l-626 344l134 701q190 -36 333.5 -161t206.5 -304.5t27 -369.5q-20 -110 -75 -210z" />
<glyph unicode="&#xe147;" d="M999 688l134 701q190 -36 333.5 -161t206.5 -304.5t27 -369.5q-25 -134 -98 -249z" />
<glyph unicode="&#xe148;" d="M999 688l134 701q190 -36 333.5 -161t206.5 -304.5t27 -369.5q-29 -154 -124 -286z" />
<glyph unicode="&#xe149;" d="M999 688l134 701q190 -36 333.5 -161t206.5 -304.5t27 -369.5q-34 -178 -151 -321z" />
<glyph unicode="&#xe14a;" d="M999 688l134 701q190 -36 333.5 -161t206.5 -304.5t27 -369.5q-38 -203 -181 -355z" />
<glyph unicode="&#xe14b;" d="M999 688l134 701q190 -36 333.5 -161t206.5 -304.5t27 -369.5q-43 -229 -213 -386z" />
<glyph unicode="&#xe14c;" d="M999 688l134 701q190 -36 333.5 -161t206.5 -304.5t27 -369.5q-48 -253 -246 -416z" />
<glyph unicode="&#xe14d;" d="M1418 111l-419 577l134 701q190 -36 333.5 -161t206.5 -304.5t27 -369.5q-26 -137 -99.5 -250.5t-182.5 -192.5z" />
<glyph unicode="&#xe14e;" d="M999 688l134 701q190 -36 333.5 -161t206.5 -304.5t27 -369.5q-28 -149 -112 -270t-207 -198z" />
<glyph unicode="&#xe14f;" d="M999 688l134 701q190 -36 333.5 -161t206.5 -304.5t27 -369.5q-30 -160 -125 -287.5t-233 -203.5z" />
<glyph unicode="&#xe150;" d="M1302 43l-303 645l134 701q190 -36 333.5 -161t206.5 -304.5t27 -369.5q-32 -172 -138.5 -306t-259.5 -205z" />
<glyph unicode="&#xe151;" d="M1261 25l-262 663l134 701q190 -36 333.5 -161t206.5 -304.5t27 -369.5q-35 -183 -153 -322.5t-286 -206.5z" />
<glyph unicode="&#xe152;" d="M1219 10l-220 678l134 701q190 -36 333.5 -161t206.5 -304.5t27 -369.5q-37 -196 -167.5 -340.5t-313.5 -203.5z" />
<glyph unicode="&#xe153;" d="M1176 -2l-177 690l134 701q190 -36 333.5 -161t206.5 -304.5t27 -369.5q-39 -207 -182.5 -356.5t-341.5 -199.5z" />
<glyph unicode="&#xe154;" d="M1132 -12l-133 700l134 701q190 -36 333.5 -161t206.5 -304.5t27 -369.5q-41 -219 -198 -372.5t-370 -193.5z" />
<glyph unicode="&#xe155;" d="M1088 -19l-89 707l134 701q190 -36 333.5 -161t206.5 -304.5t27 -369.5q-44 -231 -214.5 -388t-397.5 -185z" />
<glyph unicode="&#xe156;" d="M1043 -23l-44 711l134 701q190 -36 333.5 -161t206.5 -304.5t27 -369.5q-30 -161 -126 -289.5t-234.5 -203.5t-296.5 -84z" />
<glyph unicode="&#xe157;" d="M999 -24v712l134 701q190 -36 333.5 -161t206.5 -304.5t27 -369.5q-32 -168 -134.5 -300.5t-251 -205t-315.5 -72.5z" />
<glyph unicode="&#xe158;" d="M954 -23l45 711l134 701q190 -36 333.5 -161t206.5 -304.5t27 -369.5q-33 -175 -143 -311.5t-269 -206.5t-334 -59z" />
<glyph unicode="&#xe159;" d="M909 -19l90 707l134 701q190 -36 333.5 -161t206.5 -304.5t27 -369.5q-35 -183 -152.5 -323t-286.5 -206.5t-352 -43.5z" />
<glyph unicode="&#xe15a;" d="M865 -12l268 1401q190 -36 333.5 -161t206.5 -304.5t27 -369.5q-27 -143 -107.5 -261.5t-192.5 -194.5t-252 -106.5t-283 -3.5z" />
<glyph unicode="&#xe15b;" d="M865 -12q-7 2 -21.5 5t-21.5 5l177 690l134 701q190 -36 333.5 -161t206.5 -304.5t27 -369.5q-27 -143 -107.5 -261.5t-192.5 -194.5t-252 -106.5t-283 -3.5z" />
<glyph unicode="&#xe15c;" d="M865 -12q-41 8 -86 23l220 677l134 701q190 -36 333.5 -161t206.5 -304.5t27 -369.5q-27 -143 -107.5 -261.5t-192.5 -194.5t-252 -106.5t-283 -3.5z" />
<glyph unicode="&#xe15d;" d="M865 -12q-66 13 -128 38l262 662l134 701q190 -36 333.5 -161t206.5 -304.5t27 -369.5q-27 -143 -107.5 -261.5t-192.5 -194.5t-252 -106.5t-283 -3.5z" />
<glyph unicode="&#xe15e;" d="M865 -12q-85 17 -169 55l303 645l134 701q190 -36 333.5 -161t206.5 -304.5t27 -369.5q-27 -143 -107.5 -261.5t-192.5 -194.5t-252 -106.5t-283 -3.5z" />
<glyph unicode="&#xe15f;" d="M865 -12q-112 22 -210 76l344 624l134 701q190 -36 333.5 -161t206.5 -304.5t27 -369.5q-27 -143 -107.5 -261.5t-192.5 -194.5t-252 -106.5t-283 -3.5z" />
<glyph unicode="&#xe160;" d="M865 -12q-133 26 -248 98l382 602l134 701q190 -36 333.5 -161t206.5 -304.5t27 -369.5q-27 -143 -107.5 -261.5t-192.5 -194.5t-252 -106.5t-283 -3.5z" />
<glyph unicode="&#xe161;" d="M865 -12q-157 31 -285 123l419 577l134 701q190 -36 333.5 -161t206.5 -304.5t27 -369.5q-27 -143 -107.5 -261.5t-192.5 -194.5t-252 -106.5t-283 -3.5z" />
<glyph unicode="&#xe162;" d="M865 -12q-181 36 -320 151l454 549l134 701q190 -36 333.5 -161t206.5 -304.5t27 -369.5q-27 -143 -107.5 -261.5t-192.5 -194.5t-252 -106.5t-283 -3.5z" />
<glyph unicode="&#xe163;" d="M865 -12q-205 40 -354 181l488 519l134 701q190 -36 333.5 -161t206.5 -304.5t27 -369.5q-27 -143 -107.5 -261.5t-192.5 -194.5t-252 -106.5t-283 -3.5z" />
<glyph unicode="&#xe164;" d="M865 -12q-228 44 -386 212l520 488l134 701q190 -36 333.5 -161t206.5 -304.5t27 -369.5q-27 -143 -107.5 -261.5t-192.5 -194.5t-252 -106.5t-283 -3.5z" />
<glyph unicode="&#xe165;" d="M865 -12q-125 24 -231 88t-184 158l549 454l134 701q190 -36 333.5 -161t206.5 -304.5t27 -369.5q-27 -143 -107.5 -261.5t-192.5 -194.5t-252 -106.5t-283 -3.5z" />
<glyph unicode="&#xe166;" d="M865 -12q-136 27 -250 100t-193 181l577 419l134 701q190 -36 333.5 -161t206.5 -304.5t27 -369.5q-27 -143 -107.5 -261.5t-192.5 -194.5t-252 -106.5t-283 -3.5z" />
<glyph unicode="&#xe167;" d="M865 -12q-148 29 -269 112.5t-199 205.5l602 382l134 701q190 -36 333.5 -161t206.5 -304.5t27 -369.5q-27 -143 -107.5 -261.5t-192.5 -194.5t-252 -106.5t-283 -3.5z" />
<glyph unicode="&#xe168;" d="M865 -12q-160 31 -287.5 125.5t-203.5 231.5l625 343l134 701q190 -36 333.5 -161t206.5 -304.5t27 -369.5q-27 -143 -107.5 -261.5t-192.5 -194.5t-252 -106.5t-283 -3.5z" />
<glyph unicode="&#xe169;" d="M865 -12q-172 33 -305.5 139t-205.5 258l645 303l134 701q190 -36 333.5 -161t206.5 -304.5t27 -369.5q-27 -143 -107.5 -261.5t-192.5 -194.5t-252 -106.5t-283 -3.5z" />
<glyph unicode="&#xe16a;" d="M865 -12q-184 35 -323 152.5t-205 284.5l662 263l134 701q190 -36 333.5 -161t206.5 -304.5t27 -369.5q-27 -143 -107.5 -261.5t-192.5 -194.5t-252 -106.5t-283 -3.5z" />
<glyph unicode="&#xe16b;" d="M865 -12q-195 38 -340 168t-204 312l678 220l134 701q190 -36 333.5 -161t206.5 -304.5t27 -369.5q-27 -143 -107.5 -261.5t-192.5 -194.5t-252 -106.5t-283 -3.5z" />
<glyph unicode="&#xe16c;" d="M865 -12q-207 40 -356.5 183t-199.5 340l690 177l134 701q190 -36 333.5 -161t206.5 -304.5t27 -369.5q-27 -143 -107.5 -261.5t-192.5 -194.5t-252 -106.5t-283 -3.5z" />
<glyph unicode="&#xe16d;" d="M865 -12q-219 42 -372.5 198t-193.5 368l700 134l134 701q190 -36 333.5 -161t206.5 -304.5t27 -369.5q-27 -143 -107.5 -261.5t-192.5 -194.5t-252 -106.5t-283 -3.5z" />
<glyph unicode="&#xe16e;" d="M865 -12q-153 29 -277.5 117.5t-201 217t-94.5 276.5l707 89l134 701q190 -36 333.5 -161t206.5 -304.5t27 -369.5q-27 -143 -107.5 -261.5t-192.5 -194.5t-252 -106.5t-283 -3.5z" />
<glyph unicode="&#xe16f;" d="M865 -12q-243 47 -403 231t-174 424l711 45l134 701q190 -36 333.5 -161t206.5 -304.5t27 -369.5q-27 -143 -107.5 -261.5t-192.5 -194.5t-252 -106.5t-283 -3.5z" />
<glyph unicode="&#xe170;" d="M865 -12q-168 32 -300.5 134.5t-205 250.5t-72.5 314l712 1l134 701q190 -36 333.5 -161t206.5 -304.5t27 -369.5q-27 -143 -107.5 -261.5t-192.5 -194.5t-252 -106.5t-283 -3.5z" />
<glyph unicode="&#xe171;" d="M865 -12q-176 34 -312 143.5t-206 268t-59 333.5l711 -45l134 701q190 -36 333.5 -161t206.5 -304.5t27 -369.5q-27 -143 -107.5 -261.5t-192.5 -194.5t-252 -106.5t-283 -3.5z" />
<glyph unicode="&#xe172;" d="M865 -12q-137 26 -252.5 101t-191.5 180.5t-111 237.5t-18 269l707 -88l134 701q190 -36 333.5 -161t206.5 -304.5t27 -369.5q-27 -143 -107.5 -261.5t-192.5 -194.5t-252 -106.5t-283 -3.5z" />
<glyph unicode="&#xe173;" d="M299 821l700 -133l134 701q190 -36 333.5 -161t206.5 -304.5t27 -369.5q-27 -143 -107.5 -261.5t-192.5 -194.5t-252 -106.5t-283 -3.5t-261.5 107t-194.5 191.5t-106.5 251.5t-3.5 283z" />
<glyph unicode="&#xe174;" d="M309 865l690 -177l134 701q190 -36 333.5 -161t206.5 -304.5t27 -369.5q-27 -143 -107.5 -261.5t-192.5 -194.5t-252 -106.5t-283 -3.5t-261.5 107t-194.5 191.5t-106.5 251.5t-3.5 283q1 7 5 22t5 22z" />
<glyph unicode="&#xe175;" d="M322 908l677 -220l134 701q190 -36 333.5 -161t206.5 -304.5t27 -369.5q-27 -143 -107.5 -261.5t-192.5 -194.5t-252 -106.5t-283 -3.5t-261.5 107t-194.5 191.5t-106.5 251.5t-3.5 283q8 41 23 87z" />
<glyph unicode="&#xe176;" d="M999 688l134 701q190 -36 333.5 -161t206.5 -304.5t27 -369.5q-27 -143 -107.5 -261.5t-192.5 -194.5t-252 -106.5t-283 -3.5t-261.5 107t-194.5 191.5t-106.5 251.5t-3.5 283q13 65 38 129z" />
<glyph unicode="&#xe177;" d="M999 688l134 701q190 -36 333.5 -161t206.5 -304.5t27 -369.5q-27 -143 -107.5 -261.5t-192.5 -194.5t-252 -106.5t-283 -3.5t-261.5 107t-194.5 191.5t-106.5 251.5t-3.5 283q19 93 55 170z" />
<glyph unicode="&#xe178;" d="M999 688l134 701q190 -36 333.5 -161t206.5 -304.5t27 -369.5q-27 -143 -107.5 -261.5t-192.5 -194.5t-252 -106.5t-283 -3.5t-261.5 107t-194.5 191.5t-106.5 251.5t-3.5 283q22 110 76 211z" />
<glyph unicode="&#xe179;" d="M999 688l134 701q190 -36 333.5 -161t206.5 -304.5t27 -369.5q-27 -143 -107.5 -261.5t-192.5 -194.5t-252 -106.5t-283 -3.5t-261.5 107t-194.5 191.5t-106.5 251.5t-3.5 283q27 135 98 248z" />
<glyph unicode="&#xe17a;" d="M422 1107l577 -419l134 701q190 -36 333.5 -161t206.5 -304.5t27 -369.5q-27 -143 -107.5 -261.5t-192.5 -194.5t-252 -106.5t-283 -3.5t-261.5 107t-194.5 191.5t-106.5 251.5t-3.5 283q31 156 123 286z" />
<glyph unicode="&#xe17b;" d="M450 1142l549 -454l134 701q190 -36 333.5 -161t206.5 -304.5t27 -369.5q-27 -143 -107.5 -261.5t-192.5 -194.5t-252 -106.5t-283 -3.5t-261.5 107t-194.5 191.5t-106.5 251.5t-3.5 283q36 181 151 321z" />
<glyph unicode="&#xe17c;" d="M999 688l134 701q190 -36 333.5 -161t206.5 -304.5t27 -369.5q-27 -143 -107.5 -261.5t-192.5 -194.5t-252 -106.5t-283 -3.5t-261.5 107t-194.5 191.5t-106.5 251.5t-3.5 283q40 205 180 354z" />
<glyph unicode="&#xe17d;" d="M511 1207l488 -519l134 701q190 -36 333.5 -161t206.5 -304.5t27 -369.5q-27 -143 -107.5 -261.5t-192.5 -194.5t-252 -106.5t-283 -3.5t-261.5 107t-194.5 191.5t-106.5 251.5t-3.5 283q45 230 212 386z" />
<glyph unicode="&#xe17e;" d="M999 688l134 701q190 -36 333.5 -161t206.5 -304.5t27 -369.5q-27 -143 -107.5 -261.5t-192.5 -194.5t-252 -106.5t-283 -3.5t-261.5 107t-194.5 191.5t-106.5 251.5t-3.5 283q24 126 87.5 232t157.5 184z" />
<glyph unicode="&#xe17f;" d="M999 688l134 701q190 -36 333.5 -161t206.5 -304.5t27 -369.5q-27 -143 -107.5 -261.5t-192.5 -194.5t-252 -106.5t-283 -3.5t-261.5 107t-194.5 191.5t-106.5 251.5t-3.5 283q27 137 100 251t181 193z" />
<glyph unicode="&#xe180;" d="M617 1290l382 -602l134 701q190 -36 333.5 -161t206.5 -304.5t27 -369.5q-27 -143 -107.5 -261.5t-192.5 -194.5t-252 -106.5t-283 -3.5t-261.5 107t-194.5 191.5t-106.5 251.5t-3.5 283q29 149 112.5 270t205.5 199z" />
<glyph unicode="&#xe181;" d="M655 1313l344 -625l134 701q190 -36 333.5 -161t206.5 -304.5t27 -369.5q-27 -143 -107.5 -261.5t-192.5 -194.5t-252 -106.5t-283 -3.5t-261.5 107t-194.5 191.5t-106.5 251.5t-3.5 283q31 160 125 288t231 204z" />
<glyph unicode="&#xe182;" d="M999 688l134 701q190 -36 333.5 -161t206.5 -304.5t27 -369.5q-27 -143 -107.5 -261.5t-192.5 -194.5t-252 -106.5t-283 -3.5t-261.5 107t-194.5 191.5t-106.5 251.5t-3.5 283q33 172 139 306t257 206z" />
<glyph unicode="&#xe183;" d="M999 688l134 701q190 -36 333.5 -161t206.5 -304.5t27 -369.5q-27 -143 -107.5 -261.5t-192.5 -194.5t-252 -106.5t-283 -3.5t-261.5 107t-194.5 191.5t-106.5 251.5t-3.5 283q35 184 152.5 324t284.5 206z" />
<glyph unicode="&#xe184;" d="M778 1367l221 -679l134 701q190 -36 333.5 -161t206.5 -304.5t27 -369.5q-27 -143 -107.5 -261.5t-192.5 -194.5t-252 -106.5t-283 -3.5t-261.5 107t-194.5 191.5t-106.5 251.5t-3.5 283q38 195 167.5 340.5t311.5 205.5z" />
<glyph unicode="&#xe185;" d="M299 821q40 207 182.5 357t339.5 201l178 -691l134 701q190 -36 333.5 -161t206.5 -304.5t27 -369.5q-27 -143 -107.5 -261.5t-192.5 -194.5t-252 -106.5t-283 -3.5t-261.5 107t-194.5 191.5t-106.5 251.5t-3.5 283z" />
<glyph unicode="&#xe186;" d="M999 688l134 701q190 -36 333.5 -161t206.5 -304.5t27 -369.5q-27 -143 -107.5 -261.5t-192.5 -194.5t-252 -106.5t-283 -3.5t-261.5 107t-194.5 191.5t-106.5 251.5t-3.5 283q42 219 198 373t368 195z" />
<glyph unicode="&#xe187;" d="M909 1396l90 -708l134 701q190 -36 333.5 -161t206.5 -304.5t27 -369.5q-27 -143 -107.5 -261.5t-192.5 -194.5t-252 -106.5t-283 -3.5t-261.5 107t-194.5 191.5t-106.5 251.5t-3.5 283q45 231 214.5 388.5t395.5 186.5z" />
<glyph unicode="&#xe188;" d="M999 688l134 701q190 -36 333.5 -161t206.5 -304.5t27 -369.5q-27 -143 -107.5 -261.5t-192.5 -194.5t-252 -106.5t-283 -3.5t-261.5 107t-194.5 191.5t-106.5 251.5t-3.5 283q47 243 231 403.5t424 175.5z" />
<glyph unicode="&#xe189;" d="M999 1402v-714l134 701q190 -36 333.5 -161t206.5 -304.5t27 -369.5q-27 -143 -107.5 -261.5t-192.5 -194.5t-252 -106.5t-283 -3.5t-261.5 107t-194.5 191.5t-106.5 251.5t-3.5 283q32 168 134.5 301t250.5 206.5t315 73.5z" />
<glyph unicode="&#xe18a;" d="M999 688l177 691q21 -4 43 -12z" />
<glyph unicode="&#xe18b;" d="M999 688l177 691q48 -11 87 -28z" />
<glyph unicode="&#xe18c;" d="M999 688l177 691q66 -16 127 -45z" />
<glyph unicode="&#xe18d;" d="M999 688l177 691q91 -23 167 -66z" />
<glyph unicode="&#xe18e;" d="M999 688l177 691q111 -28 206 -88z" />
<glyph unicode="&#xe18f;" d="M999 688l177 691q134 -34 242 -113z" />
<glyph unicode="&#xe190;" d="M1454 1238l-455 -550l177 691q154 -39 278 -141z" />
<glyph unicode="&#xe191;" d="M999 688l177 691q180 -46 311 -171z" />
<glyph unicode="&#xe192;" d="M999 688l177 691q200 -51 343 -202z" />
<glyph unicode="&#xe193;" d="M999 688l177 691q225 -58 373 -236z" />
<glyph unicode="&#xe194;" d="M999 688l177 691q249 -64 400 -271z" />
<glyph unicode="&#xe195;" d="M999 688l177 691q135 -35 244 -115t181 -193z" />
<glyph unicode="&#xe196;" d="M999 688l177 691q147 -38 263 -129t185 -218z" />
<glyph unicode="&#xe197;" d="M999 688l177 691q158 -41 280 -143t189 -244z" />
<glyph unicode="&#xe198;" d="M999 688l177 691q170 -44 297 -157.5t189 -270.5z" />
<glyph unicode="&#xe199;" d="M999 688l177 691q182 -46 314 -172.5t188 -298.5z" />
<glyph unicode="&#xe19a;" d="M999 688l177 691q193 -49 329.5 -188.5t184.5 -325.5z" />
<glyph unicode="&#xe19b;" d="M999 688l177 691q205 -52 345.5 -204.5t178.5 -352.5z" />
<glyph unicode="&#xe19c;" d="M999 688l177 691q216 -55 360 -221t171 -381z" />
<glyph unicode="&#xe19d;" d="M999 688l177 691q227 -58 374 -237.5t162 -407.5z" />
<glyph unicode="&#xe19e;" d="M999 688l177 691q240 -61 388.5 -255.5t148.5 -435.5h-714z" />
<glyph unicode="&#xe19f;" d="M999 688l177 691q251 -64 401.5 -273.5t133.5 -462.5z" />
<glyph unicode="&#xe1a0;" d="M999 688l177 691q173 -44 303 -162.5t190 -281.5t38 -337z" />
<glyph unicode="&#xe1a1;" d="M999 688l177 691q180 -46 313 -172t189.5 -299t21.5 -354z" />
<glyph unicode="&#xe1a2;" d="M999 688l177 691q188 -48 323.5 -181.5t187 -316.5t3.5 -371z" />
<glyph unicode="&#xe1a3;" d="M999 688l177 691q188 -48 323.5 -181.5t187 -316.5t3.5 -371q-2 -9 -6.5 -25t-5.5 -19z" />
<glyph unicode="&#xe1a4;" d="M999 688l177 691q188 -48 323.5 -181.5t187 -316.5t3.5 -371q-8 -35 -27 -85z" />
<glyph unicode="&#xe1a5;" d="M999 688l177 691q188 -48 323.5 -181.5t187 -316.5t3.5 -371q-17 -68 -45 -127z" />
<glyph unicode="&#xe1a6;" d="M999 688l177 691q188 -48 323.5 -181.5t187 -316.5t3.5 -371q-23 -90 -66 -166z" />
<glyph unicode="&#xe1a7;" d="M1602 305l-603 383l177 691q188 -48 323.5 -181.5t187 -316.5t3.5 -371q-28 -110 -88 -205z" />
<glyph unicode="&#xe1a8;" d="M999 688l177 691q188 -48 323.5 -181.5t187 -316.5t3.5 -371q-34 -133 -114 -242z" />
<glyph unicode="&#xe1a9;" d="M999 688l177 691q188 -48 323.5 -181.5t187 -316.5t3.5 -371q-40 -156 -141 -277z" />
<glyph unicode="&#xe1aa;" d="M999 688l177 691q188 -48 323.5 -181.5t187 -316.5t3.5 -371q-46 -178 -171 -311z" />
<glyph unicode="&#xe1ab;" d="M999 688l177 691q188 -48 323.5 -181.5t187 -316.5t3.5 -371q-52 -202 -203 -342z" />
<glyph unicode="&#xe1ac;" d="M999 688l177 691q188 -48 323.5 -181.5t187 -316.5t3.5 -371q-57 -224 -236 -372z" />
<glyph unicode="&#xe1ad;" d="M999 688l177 691q188 -48 323.5 -181.5t187 -316.5t3.5 -371q-32 -123 -102.5 -225t-169.5 -174z" />
<glyph unicode="&#xe1ae;" d="M1381 86l-382 602l177 691q188 -48 323.5 -181.5t187 -316.5t3.5 -371q-35 -135 -115.5 -244t-193.5 -180z" />
<glyph unicode="&#xe1af;" d="M999 688l177 691q188 -48 323.5 -181.5t187 -316.5t3.5 -371q-38 -146 -129 -261.5t-218 -185.5z" />
<glyph unicode="&#xe1b0;" d="M999 688l177 691q188 -48 323.5 -181.5t187 -316.5t3.5 -371q-41 -158 -143.5 -279t-244.5 -188z" />
<glyph unicode="&#xe1b1;" d="M1261 25l-262 663l177 691q188 -48 323.5 -181.5t187 -316.5t3.5 -371q-43 -169 -157.5 -296t-271.5 -189z" />
<glyph unicode="&#xe1b2;" d="M1219 10l-220 678l177 691q188 -48 323.5 -181.5t187 -316.5t3.5 -371q-46 -181 -172.5 -312.5t-298.5 -187.5z" />
<glyph unicode="&#xe1b3;" d="M1176 -3l-177 691l177 691q188 -48 323.5 -181.5t187 -316.5t3.5 -371q-49 -192 -188.5 -328.5t-325.5 -184.5z" />
<glyph unicode="&#xe1b4;" d="M1132 -12l-133 700l177 691q188 -48 323.5 -181.5t187 -316.5t3.5 -371q-52 -204 -204.5 -344t-353.5 -178z" />
<glyph unicode="&#xe1b5;" d="M1088 -19l-89 707l177 691q188 -48 323.5 -181.5t187 -316.5t3.5 -371q-55 -216 -221 -359t-381 -170z" />
<glyph unicode="&#xe1b6;" d="M1044 -23l-45 711l177 691q188 -48 323.5 -181.5t187 -316.5t3.5 -371q-58 -227 -238 -373t-408 -160z" />
<glyph unicode="&#xe1b7;" d="M999 -25v713l177 691q188 -48 323.5 -181.5t187 -316.5t3.5 -371q-61 -239 -255.5 -387t-435.5 -148z" />
<glyph unicode="&#xe1b8;" d="M954 -23l45 711l177 691q188 -48 323.5 -181.5t187 -316.5t3.5 -371q-42 -166 -153 -292t-263.5 -189t-319.5 -52z" />
<glyph unicode="&#xe1b9;" d="M910 -19l89 707l177 691q188 -48 323.5 -181.5t187 -316.5t3.5 -371q-44 -173 -162.5 -302.5t-281 -189t-336.5 -37.5z" />
<glyph unicode="&#xe1ba;" d="M865 -12l134 700l177 691q188 -48 323.5 -181.5t187 -316.5t3.5 -371q-46 -180 -172 -312.5t-299 -188.5t-354 -21z" />
<glyph unicode="&#xe1bb;" d="M822 -2l354 1381q188 -48 323.5 -181.5t187 -316.5t3.5 -371q-29 -112 -91.5 -209t-147 -164.5t-188 -110.5t-214.5 -49t-227 21z" />
<glyph unicode="&#xe1bc;" d="M822 -2q-26 7 -43 13l220 677l177 691q188 -48 323.5 -181.5t187 -316.5t3.5 -371q-29 -112 -91.5 -209t-147 -164.5t-188 -110.5t-214.5 -49t-227 21z" />
<glyph unicode="&#xe1bd;" d="M822 -2q-47 13 -85 28l262 662l177 691q188 -48 323.5 -181.5t187 -316.5t3.5 -371q-29 -112 -91.5 -209t-147 -164.5t-188 -110.5t-214.5 -49t-227 21z" />
<glyph unicode="&#xe1be;" d="M822 -2q-69 18 -127 46l304 644l177 691q188 -48 323.5 -181.5t187 -316.5t3.5 -371q-29 -112 -91.5 -209t-147 -164.5t-188 -110.5t-214.5 -49t-227 21z" />
<glyph unicode="&#xe1bf;" d="M822 -2q-84 21 -166 66l343 624l177 691q188 -48 323.5 -181.5t187 -316.5t3.5 -371q-29 -112 -91.5 -209t-147 -164.5t-188 -110.5t-214.5 -49t-227 21z" />
<glyph unicode="&#xe1c0;" d="M822 -2q-109 28 -205 89l382 601l177 691q188 -48 323.5 -181.5t187 -316.5t3.5 -371q-29 -112 -91.5 -209t-147 -164.5t-188 -110.5t-214.5 -49t-227 21z" />
<glyph unicode="&#xe1c1;" d="M822 -2q-133 34 -242 114l419 576l177 691q188 -48 323.5 -181.5t187 -316.5t3.5 -371q-29 -112 -91.5 -209t-147 -164.5t-188 -110.5t-214.5 -49t-227 21z" />
<glyph unicode="&#xe1c2;" d="M822 -2q-156 40 -277 141l454 549l177 691q188 -48 323.5 -181.5t187 -316.5t3.5 -371q-29 -112 -91.5 -209t-147 -164.5t-188 -110.5t-214.5 -49t-227 21z" />
<glyph unicode="&#xe1c3;" d="M822 -2q-178 46 -311 171l488 519l177 691q188 -48 323.5 -181.5t187 -316.5t3.5 -371q-29 -112 -91.5 -209t-147 -164.5t-188 -110.5t-214.5 -49t-227 21z" />
<glyph unicode="&#xe1c4;" d="M822 -2q-200 51 -343 202l520 488l177 691q188 -48 323.5 -181.5t187 -316.5t3.5 -371q-29 -112 -91.5 -209t-147 -164.5t-188 -110.5t-214.5 -49t-227 21z" />
<glyph unicode="&#xe1c5;" d="M822 -2q-226 58 -372 236l549 454l177 691q188 -48 323.5 -181.5t187 -316.5t3.5 -371q-29 -112 -91.5 -209t-147 -164.5t-188 -110.5t-214.5 -49t-227 21z" />
<glyph unicode="&#xe1c6;" d="M822 -2q-249 64 -400 271l577 419l177 691q188 -48 323.5 -181.5t187 -316.5t3.5 -371q-29 -112 -91.5 -209t-147 -164.5t-188 -110.5t-214.5 -49t-227 21z" />
<glyph unicode="&#xe1c7;" d="M822 -2q-135 35 -244 115t-181 193l602 382l177 691q188 -48 323.5 -181.5t187 -316.5t3.5 -371q-29 -112 -91.5 -209t-147 -164.5t-188 -110.5t-214.5 -49t-227 21z" />
<glyph unicode="&#xe1c8;" d="M822 -2q-146 38 -261.5 129t-186.5 218l625 343l177 691q188 -48 323.5 -181.5t187 -316.5t3.5 -371q-29 -112 -91.5 -209t-147 -164.5t-188 -110.5t-214.5 -49t-227 21z" />
<glyph unicode="&#xe1c9;" d="M822 -2q-158 40 -279.5 142.5t-188.5 244.5l645 303l177 691q188 -48 323.5 -181.5t187 -316.5t3.5 -371q-29 -112 -91.5 -209t-147 -164.5t-188 -110.5t-214.5 -49t-227 21z" />
<glyph unicode="&#xe1ca;" d="M822 -2q-170 44 -297 157.5t-189 270.5l663 262l177 691q188 -48 323.5 -181.5t187 -316.5t3.5 -371q-29 -112 -91.5 -209t-147 -164.5t-188 -110.5t-214.5 -49t-227 21z" />
<glyph unicode="&#xe1cb;" d="M822 -2q-181 46 -313 172.5t-188 297.5l678 220l177 691q188 -48 323.5 -181.5t187 -316.5t3.5 -371q-29 -112 -91.5 -209t-147 -164.5t-188 -110.5t-214.5 -49t-227 21z" />
<glyph unicode="&#xe1cc;" d="M822 -2q-193 50 -329.5 188.5t-183.5 324.5l690 177l177 691q188 -48 323.5 -181.5t187 -316.5t3.5 -371q-29 -112 -91.5 -209t-147 -164.5t-188 -110.5t-214.5 -49t-227 21z" />
<glyph unicode="&#xe1cd;" d="M822 -2q-205 52 -345 204t-178 352l700 134l177 691q188 -48 323.5 -181.5t187 -316.5t3.5 -371q-29 -112 -91.5 -209t-147 -164.5t-188 -110.5t-214.5 -49t-227 21z" />
<glyph unicode="&#xe1ce;" d="M822 -2q-216 56 -359.5 221t-170.5 379l707 90l177 691q188 -48 323.5 -181.5t187 -316.5t3.5 -371q-29 -112 -91.5 -209t-147 -164.5t-188 -110.5t-214.5 -49t-227 21z" />
<glyph unicode="&#xe1cf;" d="M822 -2q-228 59 -374 238t-160 407l711 45l177 691q188 -48 323.5 -181.5t187 -316.5t3.5 -371q-29 -112 -91.5 -209t-147 -164.5t-188 -110.5t-214.5 -49t-227 21z" />
<glyph unicode="&#xe1d0;" d="M822 -2q-240 62 -388 255.5t-147 434.5h712l177 691q188 -48 323.5 -181.5t187 -316.5t3.5 -371q-29 -112 -91.5 -209t-147 -164.5t-188 -110.5t-214.5 -49t-227 21z" />
<glyph unicode="&#xe1d1;" d="M822 -2q-251 65 -400.5 273t-133.5 461l711 -44l177 691q188 -48 323.5 -181.5t187 -316.5t3.5 -371q-29 -112 -91.5 -209t-147 -164.5t-188 -110.5t-214.5 -49t-227 21z" />
<glyph unicode="&#xe1d2;" d="M822 -2q-174 45 -303 162.5t-189 280t-38 336.5l707 -89l177 691q188 -48 323.5 -181.5t187 -316.5t3.5 -371q-29 -112 -91.5 -209t-147 -164.5t-188 -110.5t-214.5 -49t-227 21z" />
<glyph unicode="&#xe1d3;" d="M822 -2q-180 46 -312.5 171.5t-189 297.5t-21.5 353l700 -132l177 691q188 -48 323.5 -181.5t187 -316.5t3.5 -371q-29 -112 -91.5 -209t-147 -164.5t-188 -110.5t-214.5 -49t-227 21z" />
<glyph unicode="&#xe1d4;" d="M309 865l690 -177l177 691q188 -48 323.5 -181.5t187 -316.5t3.5 -371q-29 -112 -91.5 -209t-147 -164.5t-188 -110.5t-214.5 -49t-227 21q-188 48 -323 181t-186.5 315.5t-3.5 370.5z" />
<glyph unicode="&#xe1d5;" d="M322 908l677 -220l177 691q188 -48 323.5 -181.5t187 -316.5t3.5 -371q-29 -112 -91.5 -209t-147 -164.5t-188 -110.5t-214.5 -49t-227 21q-188 48 -323 181t-186.5 315.5t-3.5 370.5q9 33 13 43z" />
<glyph unicode="&#xe1d6;" d="M337 950l662 -262l177 691q188 -48 323.5 -181.5t187 -316.5t3.5 -371q-29 -112 -91.5 -209t-147 -164.5t-188 -110.5t-214.5 -49t-227 21q-188 48 -323 181t-186.5 315.5t-3.5 370.5q13 46 28 85z" />
<glyph unicode="&#xe1d7;" d="M999 688l177 691q188 -48 323.5 -181.5t187 -316.5t3.5 -371q-29 -112 -91.5 -209t-147 -164.5t-188 -110.5t-214.5 -49t-227 21q-188 48 -323 181t-186.5 315.5t-3.5 370.5q19 68 46 126z" />
<glyph unicode="&#xe1d8;" d="M999 688l177 691q188 -48 323.5 -181.5t187 -316.5t3.5 -371q-29 -112 -91.5 -209t-147 -164.5t-188 -110.5t-214.5 -49t-227 21q-188 48 -323 181t-186.5 315.5t-3.5 370.5q23 89 65 166z" />
<glyph unicode="&#xe1d9;" d="M999 688l177 691q188 -48 323.5 -181.5t187 -316.5t3.5 -371q-29 -112 -91.5 -209t-147 -164.5t-188 -110.5t-214.5 -49t-227 21q-188 48 -323 181t-186.5 315.5t-3.5 370.5q28 107 89 205z" />
<glyph unicode="&#xe1da;" d="M999 688l177 691q188 -48 323.5 -181.5t187 -316.5t3.5 -371q-29 -112 -91.5 -209t-147 -164.5t-188 -110.5t-214.5 -49t-227 21q-188 48 -323 181t-186.5 315.5t-3.5 370.5q34 132 113 241z" />
<glyph unicode="&#xe1db;" d="M450 1142l549 -454l177 691q188 -48 323.5 -181.5t187 -316.5t3.5 -371q-29 -112 -91.5 -209t-147 -164.5t-188 -110.5t-214.5 -49t-227 21q-188 48 -323 181t-186.5 315.5t-3.5 370.5q40 156 141 277z" />
<glyph unicode="&#xe1dc;" d="M479 1175l520 -487l177 691q188 -48 323.5 -181.5t187 -316.5t3.5 -371q-29 -112 -91.5 -209t-147 -164.5t-188 -110.5t-214.5 -49t-227 21q-188 48 -323 181t-186.5 315.5t-3.5 370.5q46 178 170 310z" />
<glyph unicode="&#xe1dd;" d="M999 688l177 691q188 -48 323.5 -181.5t187 -316.5t3.5 -371q-29 -112 -91.5 -209t-147 -164.5t-188 -110.5t-214.5 -49t-227 21q-188 48 -323 181t-186.5 315.5t-3.5 370.5q51 199 202 342z" />
<glyph unicode="&#xe1de;" d="M545 1237l454 -549l177 691q188 -48 323.5 -181.5t187 -316.5t3.5 -371q-29 -112 -91.5 -209t-147 -164.5t-188 -110.5t-214.5 -49t-227 21q-188 48 -323 181t-186.5 315.5t-3.5 370.5q58 224 236 372z" />
<glyph unicode="&#xe1df;" d="M999 688l177 691q188 -48 323.5 -181.5t187 -316.5t3.5 -371q-29 -112 -91.5 -209t-147 -164.5t-188 -110.5t-214.5 -49t-227 21q-188 48 -323 181t-186.5 315.5t-3.5 370.5q64 247 271 400z" />
<glyph unicode="&#xe1e0;" d="M999 688l177 691q188 -48 323.5 -181.5t187 -316.5t3.5 -371q-29 -112 -91.5 -209t-147 -164.5t-188 -110.5t-214.5 -49t-227 21q-188 48 -323 181t-186.5 315.5t-3.5 370.5q35 135 115 244t193 181z" />
<glyph unicode="&#xe1e1;" d="M656 1313l343 -625l177 691q188 -48 323.5 -181.5t187 -316.5t3.5 -371q-29 -112 -91.5 -209t-147 -164.5t-188 -110.5t-214.5 -49t-227 21q-188 48 -323 181t-186.5 315.5t-3.5 370.5q38 146 129 262t218 186z" />
<glyph unicode="&#xe1e2;" d="M695 1333l304 -645l177 691q188 -48 323.5 -181.5t187 -316.5t3.5 -371q-29 -112 -91.5 -209t-147 -164.5t-188 -110.5t-214.5 -49t-227 21q-188 48 -323 181t-186.5 315.5t-3.5 370.5q41 158 142.5 279.5t243.5 188.5z" />
<glyph unicode="&#xe1e3;" d="M999 688l177 691q188 -48 323.5 -181.5t187 -316.5t3.5 -371q-29 -112 -91.5 -209t-147 -164.5t-188 -110.5t-214.5 -49t-227 21q-188 48 -323 181t-186.5 315.5t-3.5 370.5q44 170 157.5 297t270.5 189z" />
<glyph unicode="&#xe1e4;" d="M999 688l177 691q188 -48 323.5 -181.5t187 -316.5t3.5 -371q-29 -112 -91.5 -209t-147 -164.5t-188 -110.5t-214.5 -49t-227 21q-188 48 -323 181t-186.5 315.5t-3.5 370.5q46 181 172.5 313t296.5 189z" />
<glyph unicode="&#xe1e5;" d="M822 1379l177 -691l177 691q188 -48 323.5 -181.5t187 -316.5t3.5 -371q-29 -112 -91.5 -209t-147 -164.5t-188 -110.5t-214.5 -49t-227 21q-188 48 -323 181t-186.5 315.5t-3.5 370.5q49 193 188 329.5t325 184.5z" />
<glyph unicode="&#xe1e6;" d="M309 865q52 204 204 344.5t352 179.5l134 -701l177 691q188 -48 323.5 -181.5t187 -316.5t3.5 -371q-29 -112 -91.5 -209t-147 -164.5t-188 -110.5t-214.5 -49t-227 21q-188 48 -323 181t-186.5 315.5t-3.5 370.5z" />
<glyph unicode="&#xe1e7;" d="M999 688l177 691q188 -48 323.5 -181.5t187 -316.5t3.5 -371q-29 -112 -91.5 -209t-147 -164.5t-188 -110.5t-214.5 -49t-227 21q-188 48 -323 181t-186.5 315.5t-3.5 370.5q56 216 221 360t379 171z" />
<glyph unicode="&#xe1e8;" d="M954 1400l45 -712l177 691q188 -48 323.5 -181.5t187 -316.5t3.5 -371q-29 -112 -91.5 -209t-147 -164.5t-188 -110.5t-214.5 -49t-227 21q-188 48 -323 181t-186.5 315.5t-3.5 370.5q59 228 238 374.5t407 160.5z" />
<glyph unicode="&#xe1e9;" d="M999 688l177 691q188 -48 323.5 -181.5t187 -316.5t3.5 -371q-29 -112 -91.5 -209t-147 -164.5t-188 -110.5t-214.5 -49t-227 21q-188 48 -323 181t-186.5 315.5t-3.5 370.5q62 239 255.5 388t433.5 149z" />
<glyph unicode="&#xe1ea;" d="M999 688l220 679l43 -15z" />
<glyph unicode="&#xe1eb;" d="M999 688l220 679q43 -14 85 -33z" />
<glyph unicode="&#xe1ec;" d="M999 688l220 679q63 -20 124 -53z" />
<glyph unicode="&#xe1ed;" d="M999 688l220 679q84 -27 163 -76z" />
<glyph unicode="&#xe1ee;" d="M999 688l220 679q108 -35 200 -101z" />
<glyph unicode="&#xe1ef;" d="M999 688l220 679q130 -42 235 -129z" />
<glyph unicode="&#xe1f0;" d="M1488 1208l-489 -520l220 679q152 -50 269 -159z" />
<glyph unicode="&#xe1f1;" d="M999 688l220 679q177 -58 300 -190z" />
<glyph unicode="&#xe1f2;" d="M999 688l220 679q198 -65 330 -224z" />
<glyph unicode="&#xe1f3;" d="M999 688l220 679q223 -73 357 -259z" />
<glyph unicode="&#xe1f4;" d="M999 688l220 679q243 -78 382 -296z" />
<glyph unicode="&#xe1f5;" d="M999 688l220 679q132 -43 236.5 -130.5t168.5 -204.5z" />
<glyph unicode="&#xe1f6;" d="M999 688l220 679q144 -46 254 -144.5t172 -230.5z" />
<glyph unicode="&#xe1f7;" d="M999 688l220 679q156 -51 271 -160.5t172 -255.5z" />
<glyph unicode="&#xe1f8;" d="M999 688l220 679q166 -54 286 -176t173 -282z" />
<glyph unicode="&#xe1f9;" d="M999 688l220 679q178 -58 302 -192.5t169 -309.5z" />
<glyph unicode="&#xe1fa;" d="M999 688l220 679q190 -61 317.5 -208.5t163.5 -336.5z" />
<glyph unicode="&#xe1fb;" d="M999 688l220 679q201 -65 331.5 -226t156.5 -364z" />
<glyph unicode="&#xe1fc;" d="M999 688l220 679q212 -69 345.5 -243.5t147.5 -390.5z" />
<glyph unicode="&#xe1fd;" d="M999 688l220 679q224 -73 359 -261.5t135 -416.5z" />
<glyph unicode="&#xe1fe;" d="M999 688l220 679q156 -51 272 -162t173.5 -257.5t47.5 -304.5z" />
<glyph unicode="&#xe1ff;" d="M999 688l220 679q163 -53 282.5 -171.5t173 -275t32.5 -322.5z" />
<glyph unicode="&#xe200;" d="M999 688l220 679q170 -56 292 -182t172 -292.5t17 -338.5z" />
<glyph unicode="&#xe201;" d="M999 688l220 679q177 -58 302 -192t170 -310t-1 -355z" />
<glyph unicode="&#xe202;" d="M999 688l220 679q111 -36 203.5 -104.5t155 -157t99.5 -195t36 -218t-35 -225.5z" />
<glyph unicode="&#xe203;" d="M999 688l220 679q111 -36 203.5 -104.5t155 -157t99.5 -195t36 -218t-35 -225.5q-12 -34 -16 -43z" />
<glyph unicode="&#xe204;" d="M999 688l220 679q111 -36 203.5 -104.5t155 -157t99.5 -195t36 -218t-35 -225.5q-9 -29 -33 -83z" />
<glyph unicode="&#xe205;" d="M999 688l220 679q111 -36 203.5 -104.5t155 -157t99.5 -195t36 -218t-35 -225.5q-21 -65 -54 -124z" />
<glyph unicode="&#xe206;" d="M999 688l220 679q111 -36 203.5 -104.5t155 -157t99.5 -195t36 -218t-35 -225.5q-28 -87 -76 -162z" />
<glyph unicode="&#xe207;" d="M1577 268l-578 420l220 679q111 -36 203.5 -104.5t155 -157t99.5 -195t36 -218t-35 -225.5q-36 -110 -101 -199z" />
<glyph unicode="&#xe208;" d="M999 688l220 679q111 -36 203.5 -104.5t155 -157t99.5 -195t36 -218t-35 -225.5q-43 -131 -129 -235z" />
<glyph unicode="&#xe209;" d="M999 688l220 679q111 -36 203.5 -104.5t155 -157t99.5 -195t36 -218t-35 -225.5q-51 -153 -159 -268z" />
<glyph unicode="&#xe20a;" d="M999 688l220 679q111 -36 203.5 -104.5t155 -157t99.5 -195t36 -218t-35 -225.5q-58 -177 -190 -299z" />
<glyph unicode="&#xe20b;" d="M999 688l220 679q111 -36 203.5 -104.5t155 -157t99.5 -195t36 -218t-35 -225.5q-65 -198 -224 -329z" />
<glyph unicode="&#xe20c;" d="M999 688l220 679q111 -36 203.5 -104.5t155 -157t99.5 -195t36 -218t-35 -225.5q-73 -221 -260 -356z" />
<glyph unicode="&#xe20d;" d="M999 688l220 679q111 -36 203.5 -104.5t155 -157t99.5 -195t36 -218t-35 -225.5q-40 -121 -117 -218.5t-180 -162.5z" />
<glyph unicode="&#xe20e;" d="M1343 63l-344 625l220 679q111 -36 203.5 -104.5t155 -157t99.5 -195t36 -218t-35 -225.5q-43 -133 -130.5 -236.5t-204.5 -167.5z" />
<glyph unicode="&#xe20f;" d="M999 688l220 679q111 -36 203.5 -104.5t155 -157t99.5 -195t36 -218t-35 -225.5q-47 -144 -145.5 -253.5t-229.5 -170.5z" />
<glyph unicode="&#xe210;" d="M999 688l220 679q111 -36 203.5 -104.5t155 -157t99.5 -195t36 -218t-35 -225.5q-51 -155 -161 -270t-256 -172z" />
<glyph unicode="&#xe211;" d="M1219 10l-220 678l220 679q111 -36 203.5 -104.5t155 -157t99.5 -195t36 -218t-35 -225.5q-55 -167 -176.5 -286t-282.5 -171z" />
<glyph unicode="&#xe212;" d="M1176 -2l-177 690l220 679q111 -36 203.5 -104.5t155 -157t99.5 -195t36 -218t-35 -225.5q-58 -178 -192.5 -301.5t-309.5 -167.5z" />
<glyph unicode="&#xe213;" d="M1132 -12l-133 700l220 679q111 -36 203.5 -104.5t155 -157t99.5 -195t36 -218t-35 -225.5q-61 -189 -209 -316.5t-337 -162.5z" />
<glyph unicode="&#xe214;" d="M1088 -19l-89 707l220 679q111 -36 203.5 -104.5t155 -157t99.5 -195t36 -218t-35 -225.5q-65 -200 -226 -330.5t-364 -155.5z" />
<glyph unicode="&#xe215;" d="M1044 -23l-45 711l220 679q111 -36 203.5 -104.5t155 -157t99.5 -195t36 -218t-35 -225.5q-69 -212 -244 -344.5t-390 -145.5z" />
<glyph unicode="&#xe216;" d="M999 -25v713l220 679q111 -36 203.5 -104.5t155 -157t99.5 -195t36 -218t-35 -225.5q-73 -223 -261.5 -357.5t-417.5 -134.5z" />
<glyph unicode="&#xe217;" d="M954 -23l45 711l220 679q111 -36 203.5 -104.5t155 -157t99.5 -195t36 -218t-35 -225.5q-51 -156 -161.5 -271.5t-257.5 -172t-305 -46.5z" />
<glyph unicode="&#xe218;" d="M910 -19l89 707l220 679q111 -36 203.5 -104.5t155 -157t99.5 -195t36 -218t-35 -225.5q-53 -163 -171.5 -281.5t-275 -172t-321.5 -32.5z" />
<glyph unicode="&#xe219;" d="M865 -12l134 700l220 679q111 -36 203.5 -104.5t155 -157t99.5 -195t36 -218t-35 -225.5q-56 -170 -182 -291.5t-292 -171t-339 -16.5z" />
<glyph unicode="&#xe21a;" d="M822 -2l177 690l220 679q111 -36 203.5 -104.5t155 -157t99.5 -195t36 -218t-35 -225.5q-57 -177 -191 -301t-310 -169t-355 1z" />
<glyph unicode="&#xe21b;" d="M779 11l440 1356q111 -36 203.5 -104.5t155 -157t99.5 -195t36 -218t-35 -225.5q-36 -111 -104.5 -203.5t-157 -154.5t-194.5 -98.5t-217.5 -35t-225.5 35.5z" />
<glyph unicode="&#xe21c;" d="M779 11q-25 7 -42 15l262 662l220 679q111 -36 203.5 -104.5t155 -157t99.5 -195t36 -218t-35 -225.5q-36 -111 -104.5 -203.5t-157 -154.5t-194.5 -98.5t-217.5 -35t-225.5 35.5z" />
<glyph unicode="&#xe21d;" d="M779 11q-45 14 -83 33l303 644l220 679q111 -36 203.5 -104.5t155 -157t99.5 -195t36 -218t-35 -225.5q-36 -111 -104.5 -203.5t-157 -154.5t-194.5 -98.5t-217.5 -35t-225.5 35.5z" />
<glyph unicode="&#xe21e;" d="M779 11q-64 20 -123 53l343 624l220 679q111 -36 203.5 -104.5t155 -157t99.5 -195t36 -218t-35 -225.5q-36 -111 -104.5 -203.5t-157 -154.5t-194.5 -98.5t-217.5 -35t-225.5 35.5z" />
<glyph unicode="&#xe21f;" d="M779 11q-87 29 -162 75l382 602l220 679q111 -36 203.5 -104.5t155 -157t99.5 -195t36 -218t-35 -225.5q-36 -111 -104.5 -203.5t-157 -154.5t-194.5 -98.5t-217.5 -35t-225.5 35.5z" />
<glyph unicode="&#xe220;" d="M779 11q-106 34 -199 101l419 576l220 679q111 -36 203.5 -104.5t155 -157t99.5 -195t36 -218t-35 -225.5q-36 -111 -104.5 -203.5t-157 -154.5t-194.5 -98.5t-217.5 -35t-225.5 35.5z" />
<glyph unicode="&#xe221;" d="M779 11q-127 41 -234 128l454 549l220 679q111 -36 203.5 -104.5t155 -157t99.5 -195t36 -218t-35 -225.5q-36 -111 -104.5 -203.5t-157 -154.5t-194.5 -98.5t-217.5 -35t-225.5 35.5z" />
<glyph unicode="&#xe222;" d="M779 11q-151 48 -268 157l488 520l220 679q111 -36 203.5 -104.5t155 -157t99.5 -195t36 -218t-35 -225.5q-36 -111 -104.5 -203.5t-157 -154.5t-194.5 -98.5t-217.5 -35t-225.5 35.5z" />
<glyph unicode="&#xe223;" d="M779 11q-175 56 -299 189l519 488l220 679q111 -36 203.5 -104.5t155 -157t99.5 -195t36 -218t-35 -225.5q-36 -111 -104.5 -203.5t-157 -154.5t-194.5 -98.5t-217.5 -35t-225.5 35.5z" />
<glyph unicode="&#xe224;" d="M779 11q-198 64 -329 223l549 454l220 679q111 -36 203.5 -104.5t155 -157t99.5 -195t36 -218t-35 -225.5q-36 -111 -104.5 -203.5t-157 -154.5t-194.5 -98.5t-217.5 -35t-225.5 35.5z" />
<glyph unicode="&#xe225;" d="M779 11q-219 71 -357 258l577 419l220 679q111 -36 203.5 -104.5t155 -157t99.5 -195t36 -218t-35 -225.5q-36 -111 -104.5 -203.5t-157 -154.5t-194.5 -98.5t-217.5 -35t-225.5 35.5z" />
<glyph unicode="&#xe226;" d="M779 11q-121 39 -218.5 115.5t-163.5 179.5l602 382l220 679q111 -36 203.5 -104.5t155 -157t99.5 -195t36 -218t-35 -225.5q-36 -111 -104.5 -203.5t-157 -154.5t-194.5 -98.5t-217.5 -35t-225.5 35.5z" />
<glyph unicode="&#xe227;" d="M779 11q-133 43 -237 130t-168 204l625 343l220 679q111 -36 203.5 -104.5t155 -157t99.5 -195t36 -218t-35 -225.5q-36 -111 -104.5 -203.5t-157 -154.5t-194.5 -98.5t-217.5 -35t-225.5 35.5z" />
<glyph unicode="&#xe228;" d="M779 11q-144 46 -253.5 144t-171.5 230l645 303l220 679q111 -36 203.5 -104.5t155 -157t99.5 -195t36 -218t-35 -225.5q-36 -111 -104.5 -203.5t-157 -154.5t-194.5 -98.5t-217.5 -35t-225.5 35.5z" />
<glyph unicode="&#xe229;" d="M779 11q-155 50 -270 159.5t-173 255.5l663 262l220 679q111 -36 203.5 -104.5t155 -157t99.5 -195t36 -218t-35 -225.5q-36 -111 -104.5 -203.5t-157 -154.5t-194.5 -98.5t-217.5 -35t-225.5 35.5z" />
<glyph unicode="&#xe22a;" d="M779 11q-166 54 -286 175.5t-172 281.5l678 220l220 679q111 -36 203.5 -104.5t155 -157t99.5 -195t36 -218t-35 -225.5q-36 -111 -104.5 -203.5t-157 -154.5t-194.5 -98.5t-217.5 -35t-225.5 35.5z" />
<glyph unicode="&#xe22b;" d="M779 11q-178 58 -302 191.5t-168 308.5l690 177l220 679q111 -36 203.5 -104.5t155 -157t99.5 -195t36 -218t-35 -225.5q-36 -111 -104.5 -203.5t-157 -154.5t-194.5 -98.5t-217.5 -35t-225.5 35.5z" />
<glyph unicode="&#xe22c;" d="M779 11q-190 61 -317 208t-163 336l700 133l220 679q111 -36 203.5 -104.5t155 -157t99.5 -195t36 -218t-35 -225.5q-36 -111 -104.5 -203.5t-157 -154.5t-194.5 -98.5t-217.5 -35t-225.5 35.5z" />
<glyph unicode="&#xe22d;" d="M779 11q-201 65 -331.5 225t-155.5 362l707 90l220 679q111 -36 203.5 -104.5t155 -157t99.5 -195t36 -218t-35 -225.5q-36 -111 -104.5 -203.5t-157 -154.5t-194.5 -98.5t-217.5 -35t-225.5 35.5z" />
<glyph unicode="&#xe22e;" d="M779 11q-212 69 -344.5 242.5t-146.5 389.5l711 45l220 679q111 -36 203.5 -104.5t155 -157t99.5 -195t36 -218t-35 -225.5q-36 -111 -104.5 -203.5t-157 -154.5t-194.5 -98.5t-217.5 -35t-225.5 35.5z" />
<glyph unicode="&#xe22f;" d="M779 11q-224 73 -358.5 261t-134.5 416h713l220 679q111 -36 203.5 -104.5t155 -157t99.5 -195t36 -218t-35 -225.5q-36 -111 -104.5 -203.5t-157 -154.5t-194.5 -98.5t-217.5 -35t-225.5 35.5z" />
<glyph unicode="&#xe230;" d="M779 11q-235 76 -371 278.5t-120 442.5l711 -44l220 679q111 -36 203.5 -104.5t155 -157t99.5 -195t36 -218t-35 -225.5q-36 -111 -104.5 -203.5t-157 -154.5t-194.5 -98.5t-217.5 -35t-225.5 35.5z" />
<glyph unicode="&#xe231;" d="M779 11q-246 80 -382.5 297t-104.5 468l707 -88l220 679q111 -36 203.5 -104.5t155 -157t99.5 -195t36 -218t-35 -225.5q-36 -111 -104.5 -203.5t-157 -154.5t-194.5 -98.5t-217.5 -35t-225.5 35.5z" />
<glyph unicode="&#xe232;" d="M779 11q-170 55 -292 180.5t-171.5 291.5t-16.5 338l700 -133l220 679q111 -36 203.5 -104.5t155 -157t99.5 -195t36 -218t-35 -225.5q-36 -111 -104.5 -203.5t-157 -154.5t-194.5 -98.5t-217.5 -35t-225.5 35.5z" />
<glyph unicode="&#xe233;" d="M779 11q-177 58 -301.5 191t-169.5 308t1 354l690 -176l220 679q111 -36 203.5 -104.5t155 -157t99.5 -195t36 -218t-35 -225.5q-36 -111 -104.5 -203.5t-157 -154.5t-194.5 -98.5t-217.5 -35t-225.5 35.5z" />
<glyph unicode="&#xe234;" d="M322 908l677 -220l220 679q111 -36 203.5 -104.5t155 -157t99.5 -195t36 -218t-35 -225.5q-36 -111 -104.5 -203.5t-157 -154.5t-194.5 -98.5t-217.5 -35t-225.5 35.5q-111 36 -203.5 104t-154.5 156t-99 194t-35.5 217.5t35.5 225.5z" />
<glyph unicode="&#xe235;" d="M337 950l662 -262l220 679q111 -36 203.5 -104.5t155 -157t99.5 -195t36 -218t-35 -225.5q-36 -111 -104.5 -203.5t-157 -154.5t-194.5 -98.5t-217.5 -35t-225.5 35.5q-111 36 -203.5 104t-154.5 156t-99 194t-35.5 217.5t35.5 225.5q6 21 15 42z" />
<glyph unicode="&#xe236;" d="M354 991l645 -303l220 679q111 -36 203.5 -104.5t155 -157t99.5 -195t36 -218t-35 -225.5q-36 -111 -104.5 -203.5t-157 -154.5t-194.5 -98.5t-217.5 -35t-225.5 35.5q-111 36 -203.5 104t-154.5 156t-99 194t-35.5 217.5t35.5 225.5q11 36 32 83z" />
<glyph unicode="&#xe237;" d="M999 688l220 679q111 -36 203.5 -104.5t155 -157t99.5 -195t36 -218t-35 -225.5q-36 -111 -104.5 -203.5t-157 -154.5t-194.5 -98.5t-217.5 -35t-225.5 35.5q-111 36 -203.5 104t-154.5 156t-99 194t-35.5 217.5t35.5 225.5q20 62 53 123z" />
<glyph unicode="&#xe238;" d="M999 688l220 679q111 -36 203.5 -104.5t155 -157t99.5 -195t36 -218t-35 -225.5q-36 -111 -104.5 -203.5t-157 -154.5t-194.5 -98.5t-217.5 -35t-225.5 35.5q-111 36 -203.5 104t-154.5 156t-99 194t-35.5 217.5t35.5 225.5q26 83 75 161z" />
<glyph unicode="&#xe239;" d="M999 688l220 679q111 -36 203.5 -104.5t155 -157t99.5 -195t36 -218t-35 -225.5q-36 -111 -104.5 -203.5t-157 -154.5t-194.5 -98.5t-217.5 -35t-225.5 35.5q-111 36 -203.5 104t-154.5 156t-99 194t-35.5 217.5t35.5 225.5q34 106 101 199z" />
<glyph unicode="&#xe23a;" d="M999 688l220 679q111 -36 203.5 -104.5t155 -157t99.5 -195t36 -218t-35 -225.5q-36 -111 -104.5 -203.5t-157 -154.5t-194.5 -98.5t-217.5 -35t-225.5 35.5q-111 36 -203.5 104t-154.5 156t-99 194t-35.5 217.5t35.5 225.5q42 131 128 234z" />
<glyph unicode="&#xe23b;" d="M479 1176l520 -488l220 679q111 -36 203.5 -104.5t155 -157t99.5 -195t36 -218t-35 -225.5q-36 -111 -104.5 -203.5t-157 -154.5t-194.5 -98.5t-217.5 -35t-225.5 35.5q-111 36 -203.5 104t-154.5 156t-99 194t-35.5 217.5t35.5 225.5q48 149 157 268z" />
<glyph unicode="&#xe23c;" d="M511 1207l488 -519l220 679q111 -36 203.5 -104.5t155 -157t99.5 -195t36 -218t-35 -225.5q-36 -111 -104.5 -203.5t-157 -154.5t-194.5 -98.5t-217.5 -35t-225.5 35.5q-111 36 -203.5 104t-154.5 156t-99 194t-35.5 217.5t35.5 225.5q57 176 189 299z" />
<glyph unicode="&#xe23d;" d="M999 688l220 679q111 -36 203.5 -104.5t155 -157t99.5 -195t36 -218t-35 -225.5q-36 -111 -104.5 -203.5t-157 -154.5t-194.5 -98.5t-217.5 -35t-225.5 35.5q-111 36 -203.5 104t-154.5 156t-99 194t-35.5 217.5t35.5 225.5q63 196 222 329z" />
<glyph unicode="&#xe23e;" d="M580 1264l419 -576l220 679q111 -36 203.5 -104.5t155 -157t99.5 -195t36 -218t-35 -225.5q-36 -111 -104.5 -203.5t-157 -154.5t-194.5 -98.5t-217.5 -35t-225.5 35.5q-111 36 -203.5 104t-154.5 156t-99 194t-35.5 217.5t35.5 225.5q71 222 258 356z" />
<glyph unicode="&#xe23f;" d="M999 688l220 679q111 -36 203.5 -104.5t155 -157t99.5 -195t36 -218t-35 -225.5q-36 -111 -104.5 -203.5t-157 -154.5t-194.5 -98.5t-217.5 -35t-225.5 35.5q-111 36 -203.5 104t-154.5 156t-99 194t-35.5 217.5t35.5 225.5q79 244 295 382z" />
<glyph unicode="&#xe240;" d="M999 688l220 679q111 -36 203.5 -104.5t155 -157t99.5 -195t36 -218t-35 -225.5q-36 -111 -104.5 -203.5t-157 -154.5t-194.5 -98.5t-217.5 -35t-225.5 35.5q-111 36 -203.5 104t-154.5 156t-99 194t-35.5 217.5t35.5 225.5q43 132 130 236t203 169z" />
<glyph unicode="&#xe241;" d="M696 1333l303 -645l220 679q111 -36 203.5 -104.5t155 -157t99.5 -195t36 -218t-35 -225.5q-36 -111 -104.5 -203.5t-157 -154.5t-194.5 -98.5t-217.5 -35t-225.5 35.5q-111 36 -203.5 104t-154.5 156t-99 194t-35.5 217.5t35.5 225.5q46 144 144 253.5t230 171.5z" />
<glyph unicode="&#xe242;" d="M736 1351l263 -663l220 679q111 -36 203.5 -104.5t155 -157t99.5 -195t36 -218t-35 -225.5q-36 -111 -104.5 -203.5t-157 -154.5t-194.5 -98.5t-217.5 -35t-225.5 35.5q-111 36 -203.5 104t-154.5 156t-99 194t-35.5 217.5t35.5 225.5q50 155 159.5 270t254.5 173z" />
<glyph unicode="&#xe243;" d="M999 688l220 679q111 -36 203.5 -104.5t155 -157t99.5 -195t36 -218t-35 -225.5q-36 -111 -104.5 -203.5t-157 -154.5t-194.5 -98.5t-217.5 -35t-225.5 35.5q-111 36 -203.5 104t-154.5 156t-99 194t-35.5 217.5t35.5 225.5q54 166 175.5 286t281.5 172z" />
<glyph unicode="&#xe244;" d="M999 688l220 679q111 -36 203.5 -104.5t155 -157t99.5 -195t36 -218t-35 -225.5q-36 -111 -104.5 -203.5t-157 -154.5t-194.5 -98.5t-217.5 -35t-225.5 35.5q-111 36 -203.5 104t-154.5 156t-99 194t-35.5 217.5t35.5 225.5q58 178 192 302t308 169z" />
<glyph unicode="&#xe245;" d="M865 1389l134 -701l220 679q111 -36 203.5 -104.5t155 -157t99.5 -195t36 -218t-35 -225.5q-36 -111 -104.5 -203.5t-157 -154.5t-194.5 -98.5t-217.5 -35t-225.5 35.5q-111 36 -203.5 104t-154.5 156t-99 194t-35.5 217.5t35.5 225.5q61 189 208 316.5t335 164.5z" />
<glyph unicode="&#xe246;" d="M322 908q65 200 225 331t362 157l90 -708l220 679q111 -36 203.5 -104.5t155 -157t99.5 -195t36 -218t-35 -225.5q-36 -111 -104.5 -203.5t-157 -154.5t-194.5 -98.5t-217.5 -35t-225.5 35.5q-111 36 -203.5 104t-154.5 156t-99 194t-35.5 217.5t35.5 225.5z" />
<glyph unicode="&#xe247;" d="M999 688l220 679q111 -36 203.5 -104.5t155 -157t99.5 -195t36 -218t-35 -225.5q-36 -111 -104.5 -203.5t-157 -154.5t-194.5 -98.5t-217.5 -35t-225.5 35.5q-111 36 -203.5 104t-154.5 156t-99 194t-35.5 217.5t35.5 225.5q69 212 243 345t389 147z" />
<glyph unicode="&#xe248;" d="M999 1402v-714l220 679q111 -36 203.5 -104.5t155 -157t99.5 -195t36 -218t-35 -225.5q-36 -111 -104.5 -203.5t-157 -154.5t-194.5 -98.5t-217.5 -35t-225.5 35.5q-111 36 -203.5 104t-154.5 156t-99 194t-35.5 217.5t35.5 225.5q73 223 261 358t416 136z" />
<glyph unicode="&#xe249;" d="M999 688l263 664l41 -18z" />
<glyph unicode="&#xe24a;" d="M999 688l263 664q56 -24 82 -39z" />
<glyph unicode="&#xe24b;" d="M999 688l263 664q60 -24 119 -61z" />
<glyph unicode="&#xe24c;" d="M999 688l263 664q84 -34 157 -87z" />
<glyph unicode="&#xe24d;" d="M999 688l263 664q109 -45 192 -114z" />
<glyph unicode="&#xe24e;" d="M999 688l263 664q128 -52 226 -144z" />
<glyph unicode="&#xe24f;" d="M1519 1177l-520 -489l263 664q149 -59 257 -175z" />
<glyph unicode="&#xe250;" d="M999 688l263 664q172 -69 287 -209z" />
<glyph unicode="&#xe251;" d="M999 688l263 664q193 -77 314 -245z" />
<glyph unicode="&#xe252;" d="M999 688l263 664q215 -86 339 -281z" />
<glyph unicode="&#xe253;" d="M999 688l263 664q118 -47 210.5 -130t151.5 -190z" />
<glyph unicode="&#xe254;" d="M999 688l263 664q129 -52 227.5 -145.5t155.5 -214.5z" />
<glyph unicode="&#xe255;" d="M999 688l263 664q140 -56 243.5 -161t156.5 -240z" />
<glyph unicode="&#xe256;" d="M999 688l263 664q151 -61 259 -177.5t157 -266.5z" />
<glyph unicode="&#xe257;" d="M999 688l263 664q162 -65 274 -194t154 -292z" />
<glyph unicode="&#xe258;" d="M999 688l263 664q174 -69 289 -211.5t149 -319.5z" />
<glyph unicode="&#xe259;" d="M999 688l263 664q185 -74 303 -229t142 -346z" />
<glyph unicode="&#xe25a;" d="M999 688l263 664q196 -78 316 -246.5t133 -372.5z" />
<glyph unicode="&#xe25b;" d="M999 688l263 664q207 -82 329 -265t122 -399h-714z" />
<glyph unicode="&#xe25c;" d="M999 688l263 664q218 -87 341 -283.5t109 -424.5z" />
<glyph unicode="&#xe25d;" d="M999 688l263 664q229 -91 352 -303t93 -451z" />
<glyph unicode="&#xe25e;" d="M999 688l263 664q159 -63 270 -189t155 -285.5t13 -323.5z" />
<glyph unicode="&#xe25f;" d="M999 688l263 664q100 -40 183 -106.5t139.5 -149t91 -180.5t37 -199.5t-22.5 -206.5z" />
<glyph unicode="&#xe260;" d="M999 688l263 664q104 -41 189.5 -111t142.5 -159t88.5 -189.5t30.5 -210.5t-35 -215z" />
<glyph unicode="&#xe261;" d="M999 688l263 664q108 -43 196 -116.5t145.5 -167.5t86.5 -200t22.5 -220.5t-49.5 -222.5z" />
<glyph unicode="&#xe262;" d="M999 688l263 664q108 -43 196 -116.5t145.5 -167.5t86.5 -200t22.5 -220.5t-49.5 -222.5l-18 -42z" />
<glyph unicode="&#xe263;" d="M999 688l263 664q108 -43 196 -116.5t145.5 -167.5t86.5 -200t22.5 -220.5t-49.5 -222.5q-15 -39 -38 -81z" />
<glyph unicode="&#xe264;" d="M999 688l263 664q108 -43 196 -116.5t145.5 -167.5t86.5 -200t22.5 -220.5t-49.5 -222.5q-24 -60 -61 -120z" />
<glyph unicode="&#xe265;" d="M999 688l263 664q108 -43 196 -116.5t145.5 -167.5t86.5 -200t22.5 -220.5t-49.5 -222.5q-35 -88 -87 -157z" />
<glyph unicode="&#xe266;" d="M1549 233l-550 455l263 664q108 -43 196 -116.5t145.5 -167.5t86.5 -200t22.5 -220.5t-49.5 -222.5t-114 -192z" />
<glyph unicode="&#xe267;" d="M999 688l263 664q108 -43 196 -116.5t145.5 -167.5t86.5 -200t22.5 -220.5t-49.5 -222.5q-52 -130 -144 -226z" />
<glyph unicode="&#xe268;" d="M999 688l263 664q108 -43 196 -116.5t145.5 -167.5t86.5 -200t22.5 -220.5t-49.5 -222.5q-59 -148 -175 -258z" />
<glyph unicode="&#xe269;" d="M999 688l263 664q108 -43 196 -116.5t145.5 -167.5t86.5 -200t22.5 -220.5t-49.5 -222.5q-68 -171 -209 -287z" />
<glyph unicode="&#xe26a;" d="M999 688l263 664q108 -43 196 -116.5t145.5 -167.5t86.5 -200t22.5 -220.5t-49.5 -222.5q-76 -193 -245 -315z" />
<glyph unicode="&#xe26b;" d="M999 688l263 664q108 -43 196 -116.5t145.5 -167.5t86.5 -200t22.5 -220.5t-49.5 -222.5q-86 -217 -282 -340z" />
<glyph unicode="&#xe26c;" d="M999 688l263 664q108 -43 196 -116.5t145.5 -167.5t86.5 -200t22.5 -220.5t-49.5 -222.5q-95 -238 -320 -362z" />
<glyph unicode="&#xe26d;" d="M1303 43l-304 645l263 664q108 -43 196 -116.5t145.5 -167.5t86.5 -200t22.5 -220.5t-49.5 -222.5q-51 -129 -145 -227t-215 -155z" />
<glyph unicode="&#xe26e;" d="M999 688l263 664q108 -43 196 -116.5t145.5 -167.5t86.5 -200t22.5 -220.5t-49.5 -222.5q-56 -141 -161 -244t-240 -156z" />
<glyph unicode="&#xe26f;" d="M999 688l263 664q108 -43 196 -116.5t145.5 -167.5t86.5 -200t22.5 -220.5t-49.5 -222.5q-60 -152 -177.5 -259.5t-266.5 -155.5z" />
<glyph unicode="&#xe270;" d="M1176 -3l-177 691l263 664q108 -43 196 -116.5t145.5 -167.5t86.5 -200t22.5 -220.5t-49.5 -222.5q-65 -163 -194 -274.5t-293 -153.5z" />
<glyph unicode="&#xe271;" d="M1133 -12l-134 700l263 664q108 -43 196 -116.5t145.5 -167.5t86.5 -200t22.5 -220.5t-49.5 -222.5q-69 -174 -211 -288.5t-319 -148.5z" />
<glyph unicode="&#xe272;" d="M1088 -19l-89 707l263 664q108 -43 196 -116.5t145.5 -167.5t86.5 -200t22.5 -220.5t-49.5 -222.5q-74 -185 -229 -302.5t-346 -141.5z" />
<glyph unicode="&#xe273;" d="M1043 -23l-44 711l263 664q108 -43 196 -116.5t145.5 -167.5t86.5 -200t22.5 -220.5t-49.5 -222.5q-78 -196 -247 -316t-373 -132z" />
<glyph unicode="&#xe274;" d="M999 -25v713l263 664q108 -43 196 -116.5t145.5 -167.5t86.5 -200t22.5 -220.5t-49.5 -222.5q-82 -207 -265 -328.5t-399 -121.5z" />
<glyph unicode="&#xe275;" d="M954 -23l45 711l263 664q108 -43 196 -116.5t145.5 -167.5t86.5 -200t22.5 -220.5t-49.5 -222.5q-87 -219 -283.5 -341t-425.5 -107z" />
<glyph unicode="&#xe276;" d="M909 -19l90 707l263 664q108 -43 196 -116.5t145.5 -167.5t86.5 -200t22.5 -220.5t-49.5 -222.5q-60 -152 -178.5 -261t-268.5 -156t-307 -27z" />
<glyph unicode="&#xe277;" d="M865 -12l134 700l263 664q108 -43 196 -116.5t145.5 -167.5t86.5 -200t22.5 -220.5t-49.5 -222.5q-63 -159 -189 -270.5t-285.5 -155t-323.5 -11.5z" />
<glyph unicode="&#xe278;" d="M822 -2l177 690l263 664q108 -43 196 -116.5t145.5 -167.5t86.5 -200t22.5 -220.5t-49.5 -222.5q-40 -100 -106 -183t-149 -139t-180.5 -90.5t-199 -37t-206.5 22.5z" />
<glyph unicode="&#xe279;" d="M779 11l220 677l263 664q108 -43 196 -116.5t145.5 -167.5t86.5 -200t22.5 -220.5t-49.5 -222.5q-41 -104 -111 -189t-159 -142t-189.5 -88.5t-210 -30t-214.5 35.5z" />
<glyph unicode="&#xe27a;" d="M737 26l525 1326q108 -43 196 -116.5t145.5 -167.5t86.5 -200t22.5 -220.5t-49.5 -222.5t-116.5 -196t-167 -145t-199.5 -85.5t-220.5 -22t-222.5 49.5z" />
<glyph unicode="&#xe27b;" d="M737 26q-22 8 -41 18l303 644l263 664q108 -43 196 -116.5t145.5 -167.5t86.5 -200t22.5 -220.5t-49.5 -222.5t-116.5 -196t-167 -145t-199.5 -85.5t-220.5 -22t-222.5 49.5z" />
<glyph unicode="&#xe27c;" d="M737 26q-39 15 -81 38l343 624l263 664q108 -43 196 -116.5t145.5 -167.5t86.5 -200t22.5 -220.5t-49.5 -222.5t-116.5 -196t-167 -145t-199.5 -85.5t-220.5 -22t-222.5 49.5z" />
<glyph unicode="&#xe27d;" d="M737 26q-66 26 -120 61l382 601l263 664q108 -43 196 -116.5t145.5 -167.5t86.5 -200t22.5 -220.5t-49.5 -222.5t-116.5 -196t-167 -145t-199.5 -85.5t-220.5 -22t-222.5 49.5z" />
<glyph unicode="&#xe27e;" d="M737 26q-83 32 -157 86l419 576l263 664q108 -43 196 -116.5t145.5 -167.5t86.5 -200t22.5 -220.5t-49.5 -222.5t-116.5 -196t-167 -145t-199.5 -85.5t-220.5 -22t-222.5 49.5z" />
<glyph unicode="&#xe27f;" d="M737 26q-102 40 -193 113l455 549l263 664q108 -43 196 -116.5t145.5 -167.5t86.5 -200t22.5 -220.5t-49.5 -222.5t-116.5 -196t-167 -145t-199.5 -85.5t-220.5 -22t-222.5 49.5z" />
<glyph unicode="&#xe280;" d="M737 26q-126 49 -226 143l488 519l263 664q108 -43 196 -116.5t145.5 -167.5t86.5 -200t22.5 -220.5t-49.5 -222.5t-116.5 -196t-167 -145t-199.5 -85.5t-220.5 -22t-222.5 49.5z" />
<glyph unicode="&#xe281;" d="M737 26q-150 59 -257 174l519 488l263 664q108 -43 196 -116.5t145.5 -167.5t86.5 -200t22.5 -220.5t-49.5 -222.5t-116.5 -196t-167 -145t-199.5 -85.5t-220.5 -22t-222.5 49.5z" />
<glyph unicode="&#xe282;" d="M737 26q-172 68 -287 208l549 454l263 664q108 -43 196 -116.5t145.5 -167.5t86.5 -200t22.5 -220.5t-49.5 -222.5t-116.5 -196t-167 -145t-199.5 -85.5t-220.5 -22t-222.5 49.5z" />
<glyph unicode="&#xe283;" d="M737 26q-193 77 -315 243l577 419l263 664q108 -43 196 -116.5t145.5 -167.5t86.5 -200t22.5 -220.5t-49.5 -222.5t-116.5 -196t-167 -145t-199.5 -85.5t-220.5 -22t-222.5 49.5z" />
<glyph unicode="&#xe284;" d="M737 26q-216 86 -340 280l602 382l263 664q108 -43 196 -116.5t145.5 -167.5t86.5 -200t22.5 -220.5t-49.5 -222.5t-116.5 -196t-167 -145t-199.5 -85.5t-220.5 -22t-222.5 49.5z" />
<glyph unicode="&#xe285;" d="M737 26q-239 94 -363 319l625 343l263 664q108 -43 196 -116.5t145.5 -167.5t86.5 -200t22.5 -220.5t-49.5 -222.5t-116.5 -196t-167 -145t-199.5 -85.5t-220.5 -22t-222.5 49.5z" />
<glyph unicode="&#xe286;" d="M737 26q-130 51 -228 144.5t-155 214.5l645 303l263 664q108 -43 196 -116.5t145.5 -167.5t86.5 -200t22.5 -220.5t-49.5 -222.5t-116.5 -196t-167 -145t-199.5 -85.5t-220.5 -22t-222.5 49.5z" />
<glyph unicode="&#xe287;" d="M737 26q-141 55 -244 160t-157 240l663 262l263 664q108 -43 196 -116.5t145.5 -167.5t86.5 -200t22.5 -220.5t-49.5 -222.5t-116.5 -196t-167 -145t-199.5 -85.5t-220.5 -22t-222.5 49.5z" />
<glyph unicode="&#xe288;" d="M737 26q-152 60 -260 176.5t-156 265.5l678 220l263 664q108 -43 196 -116.5t145.5 -167.5t86.5 -200t22.5 -220.5t-49.5 -222.5t-116.5 -196t-167 -145t-199.5 -85.5t-220.5 -22t-222.5 49.5z" />
<glyph unicode="&#xe289;" d="M737 26q-163 64 -275 193t-153 292l690 177l263 664q108 -43 196 -116.5t145.5 -167.5t86.5 -200t22.5 -220.5t-49.5 -222.5t-116.5 -196t-167 -145t-199.5 -85.5t-220.5 -22t-222.5 49.5z" />
<glyph unicode="&#xe28a;" d="M737 26q-174 69 -289 210.5t-149 317.5l700 134l263 664q108 -43 196 -116.5t145.5 -167.5t86.5 -200t22.5 -220.5t-49.5 -222.5t-116.5 -196t-167 -145t-199.5 -85.5t-220.5 -22t-222.5 49.5z" />
<glyph unicode="&#xe28b;" d="M737 26q-185 73 -303 227.5t-142 345.5l707 89l263 664q108 -43 196 -116.5t145.5 -167.5t86.5 -200t22.5 -220.5t-49.5 -222.5t-116.5 -196t-167 -145t-199.5 -85.5t-220.5 -22t-222.5 49.5z" />
<glyph unicode="&#xe28c;" d="M737 26q-197 78 -317 246t-132 371l711 45l263 664q108 -43 196 -116.5t145.5 -167.5t86.5 -200t22.5 -220.5t-49.5 -222.5t-116.5 -196t-167 -145t-199.5 -85.5t-220.5 -22t-222.5 49.5z" />
<glyph unicode="&#xe28d;" d="M737 26q-207 82 -329 264t-122 397l713 1l263 664q108 -43 196 -116.5t145.5 -167.5t86.5 -200t22.5 -220.5t-49.5 -222.5t-116.5 -196t-167 -145t-199.5 -85.5t-220.5 -22t-222.5 49.5z" />
<glyph unicode="&#xe28e;" d="M737 26q-219 87 -341.5 283t-107.5 424l711 -45l263 664q108 -43 196 -116.5t145.5 -167.5t86.5 -200t22.5 -220.5t-49.5 -222.5t-116.5 -196t-167 -145t-199.5 -85.5t-220.5 -22t-222.5 49.5z" />
<glyph unicode="&#xe28f;" d="M737 26q-230 91 -352.5 301.5t-92.5 449.5l707 -89l263 664q108 -43 196 -116.5t145.5 -167.5t86.5 -200t22.5 -220.5t-49.5 -222.5t-116.5 -196t-167 -145t-199.5 -85.5t-220.5 -22t-222.5 49.5z" />
<glyph unicode="&#xe290;" d="M737 26q-159 63 -270.5 188t-155 284t-12.5 323l700 -133l263 664q108 -43 196 -116.5t145.5 -167.5t86.5 -200t22.5 -220.5t-49.5 -222.5t-116.5 -196t-167 -145t-199.5 -85.5t-220.5 -22t-222.5 49.5z" />
<glyph unicode="&#xe291;" d="M737 26q-100 40 -183 106t-139.5 148.5t-91 179.5t-37 198.5t22.5 206.5l690 -177l263 664q108 -43 196 -116.5t145.5 -167.5t86.5 -200t22.5 -220.5t-49.5 -222.5t-116.5 -196t-167 -145t-199.5 -85.5t-220.5 -22t-222.5 49.5z" />
<glyph unicode="&#xe292;" d="M737 26q-104 41 -189.5 110.5t-142.5 158t-88.5 189t-30 209.5t35.5 214l677 -219l263 664q108 -43 196 -116.5t145.5 -167.5t86.5 -200t22.5 -220.5t-49.5 -222.5t-116.5 -196t-167 -145t-199.5 -85.5t-220.5 -22t-222.5 49.5z" />
<glyph unicode="&#xe293;" d="M337 950l662 -262l263 664q108 -43 196 -116.5t145.5 -167.5t86.5 -200t22.5 -220.5t-49.5 -222.5t-116.5 -196t-167 -145t-199.5 -85.5t-220.5 -22t-222.5 49.5t-196 116.5t-145 166.5t-86 199t-22.5 220t49.5 222z" />
<glyph unicode="&#xe294;" d="M355 991l644 -303l263 664q108 -43 196 -116.5t145.5 -167.5t86.5 -200t22.5 -220.5t-49.5 -222.5t-116.5 -196t-167 -145t-199.5 -85.5t-220.5 -22t-222.5 49.5t-196 116.5t-145 166.5t-86 199t-22.5 220t49.5 222q6 18 18 41z" />
<glyph unicode="&#xe295;" d="M375 1031l624 -343l263 664q108 -43 196 -116.5t145.5 -167.5t86.5 -200t22.5 -220.5t-49.5 -222.5t-116.5 -196t-167 -145t-199.5 -85.5t-220.5 -22t-222.5 49.5t-196 116.5t-145 166.5t-86 199t-22.5 220t49.5 222q15 39 38 81z" />
<glyph unicode="&#xe296;" d="M999 688l263 664q108 -43 196 -116.5t145.5 -167.5t86.5 -200t22.5 -220.5t-49.5 -222.5t-116.5 -196t-167 -145t-199.5 -85.5t-220.5 -22t-222.5 49.5t-196 116.5t-145 166.5t-86 199t-22.5 220t49.5 222q27 66 61 119z" />
<glyph unicode="&#xe297;" d="M999 688l263 664q108 -43 196 -116.5t145.5 -167.5t86.5 -200t22.5 -220.5t-49.5 -222.5t-116.5 -196t-167 -145t-199.5 -85.5t-220.5 -22t-222.5 49.5t-196 116.5t-145 166.5t-86 199t-22.5 220t49.5 222q32 83 85 156z" />
<glyph unicode="&#xe298;" d="M999 688l263 664q108 -43 196 -116.5t145.5 -167.5t86.5 -200t22.5 -220.5t-49.5 -222.5t-116.5 -196t-167 -145t-199.5 -85.5t-220.5 -22t-222.5 49.5t-196 116.5t-145 166.5t-86 199t-22.5 220t49.5 222q41 105 113 192z" />
<glyph unicode="&#xe299;" d="M999 688l263 664q108 -43 196 -116.5t145.5 -167.5t86.5 -200t22.5 -220.5t-49.5 -222.5t-116.5 -196t-167 -145t-199.5 -85.5t-220.5 -22t-222.5 49.5t-196 116.5t-145 166.5t-86 199t-22.5 220t49.5 222q50 127 142 225z" />
<glyph unicode="&#xe29a;" d="M511 1207l488 -519l263 664q108 -43 196 -116.5t145.5 -167.5t86.5 -200t22.5 -220.5t-49.5 -222.5t-116.5 -196t-167 -145t-199.5 -85.5t-220.5 -22t-222.5 49.5t-196 116.5t-145 166.5t-86 199t-22.5 220t49.5 222q59 150 174 257z" />
<glyph unicode="&#xe29b;" d="M545 1237l454 -549l263 664q108 -43 196 -116.5t145.5 -167.5t86.5 -200t22.5 -220.5t-49.5 -222.5t-116.5 -196t-167 -145t-199.5 -85.5t-220.5 -22t-222.5 49.5t-196 116.5t-145 166.5t-86 199t-22.5 220t49.5 222q68 172 208 287z" />
<glyph unicode="&#xe29c;" d="M999 688l263 664q108 -43 196 -116.5t145.5 -167.5t86.5 -200t22.5 -220.5t-49.5 -222.5t-116.5 -196t-167 -145t-199.5 -85.5t-220.5 -22t-222.5 49.5t-196 116.5t-145 166.5t-86 199t-22.5 220t49.5 222q75 192 243 314z" />
<glyph unicode="&#xe29d;" d="M617 1290l382 -602l263 664q108 -43 196 -116.5t145.5 -167.5t86.5 -200t22.5 -220.5t-49.5 -222.5t-116.5 -196t-167 -145t-199.5 -85.5t-220.5 -22t-222.5 49.5t-196 116.5t-145 166.5t-86 199t-22.5 220t49.5 222q84 214 280 340z" />
<glyph unicode="&#xe29e;" d="M999 688l263 664q108 -43 196 -116.5t145.5 -167.5t86.5 -200t22.5 -220.5t-49.5 -222.5t-116.5 -196t-167 -145t-199.5 -85.5t-220.5 -22t-222.5 49.5t-196 116.5t-145 166.5t-86 199t-22.5 220t49.5 222q46 118 128.5 210.5t189.5 151.5z" />
<glyph unicode="&#xe29f;" d="M999 688l263 664q108 -43 196 -116.5t145.5 -167.5t86.5 -200t22.5 -220.5t-49.5 -222.5t-116.5 -196t-167 -145t-199.5 -85.5t-220.5 -22t-222.5 49.5t-196 116.5t-145 166.5t-86 199t-22.5 220t49.5 222q51 129 144 227.5t214 155.5z" />
<glyph unicode="&#xe2a0;" d="M737 1351l262 -663l263 664q108 -43 196 -116.5t145.5 -167.5t86.5 -200t22.5 -220.5t-49.5 -222.5t-116.5 -196t-167 -145t-199.5 -85.5t-220.5 -22t-222.5 49.5t-196 116.5t-145 166.5t-86 199t-22.5 220t49.5 222q55 141 160 244t240 157z" />
<glyph unicode="&#xe2a1;" d="M778 1366l221 -678l263 664q108 -43 196 -116.5t145.5 -167.5t86.5 -200t22.5 -220.5t-49.5 -222.5t-116.5 -196t-167 -145t-199.5 -85.5t-220.5 -22t-222.5 49.5t-196 116.5t-145 166.5t-86 199t-22.5 220t49.5 222q60 151 176.5 259t264.5 157z" />
<glyph unicode="&#xe2a2;" d="M999 688l263 664q108 -43 196 -116.5t145.5 -167.5t86.5 -200t22.5 -220.5t-49.5 -222.5t-116.5 -196t-167 -145t-199.5 -85.5t-220.5 -22t-222.5 49.5t-196 116.5t-145 166.5t-86 199t-22.5 220t49.5 222q64 162 193 274t292 155z" />
<glyph unicode="&#xe2a3;" d="M999 688l263 664q108 -43 196 -116.5t145.5 -167.5t86.5 -200t22.5 -220.5t-49.5 -222.5t-116.5 -196t-167 -145t-199.5 -85.5t-220.5 -22t-222.5 49.5t-196 116.5t-145 166.5t-86 199t-22.5 220t49.5 222q69 173 210.5 289t317.5 150z" />
<glyph unicode="&#xe2a4;" d="M910 1396l89 -708l263 664q108 -43 196 -116.5t145.5 -167.5t86.5 -200t22.5 -220.5t-49.5 -222.5t-116.5 -196t-167 -145t-199.5 -85.5t-220.5 -22t-222.5 49.5t-196 116.5t-145 166.5t-86 199t-22.5 220t49.5 222q73 185 228 303.5t345 142.5z" />
<glyph unicode="&#xe2a5;" d="M337 950q78 196 246 316.5t371 133.5l45 -712l263 664q108 -43 196 -116.5t145.5 -167.5t86.5 -200t22.5 -220.5t-49.5 -222.5t-116.5 -196t-167 -145t-199.5 -85.5t-220.5 -22t-222.5 49.5t-196 116.5t-145 166.5t-86 199t-22.5 220t49.5 222z" />
<glyph unicode="&#xe2a6;" d="M999 688l263 664q108 -43 196 -116.5t145.5 -167.5t86.5 -200t22.5 -220.5t-49.5 -222.5t-116.5 -196t-167 -145t-199.5 -85.5t-220.5 -22t-222.5 49.5t-196 116.5t-145 166.5t-86 199t-22.5 220t49.5 222q82 207 264 329t398 123v-714z" />
<glyph unicode="&#xe2a7;" d="M999 688l304 646q7 -4 20 -10t20 -10z" />
<glyph unicode="&#xe2a8;" d="M999 688l304 646q41 -20 79 -44z" />
<glyph unicode="&#xe2a9;" d="M999 688l304 646q62 -30 115 -68z" />
<glyph unicode="&#xe2aa;" d="M999 688l304 646q81 -38 151 -96z" />
<glyph unicode="&#xe2ab;" d="M999 688l304 646q101 -48 185 -126z" />
<glyph unicode="&#xe2ac;" d="M999 688l304 646q124 -59 216 -157z" />
<glyph unicode="&#xe2ad;" d="M1549 1143l-550 -455l304 646q145 -68 246 -191z" />
<glyph unicode="&#xe2ae;" d="M999 688l304 646q166 -78 273 -226z" />
<glyph unicode="&#xe2af;" d="M999 688l304 646q187 -88 298 -264z" />
<glyph unicode="&#xe2b0;" d="M999 688l304 646q210 -99 321 -302z" />
<glyph unicode="&#xe2b1;" d="M999 688l304 646q115 -55 202 -143t140 -199z" />
<glyph unicode="&#xe2b2;" d="M999 688l304 646q126 -60 218 -159.5t141 -223.5z" />
<glyph unicode="&#xe2b3;" d="M999 688l304 646q136 -64 233 -175.5t142 -249.5z" />
<glyph unicode="&#xe2b4;" d="M999 688l304 646q147 -69 247.5 -193t139.5 -276z" />
<glyph unicode="&#xe2b5;" d="M999 688l304 646q158 -74 261.5 -210.5t135.5 -301.5z" />
<glyph unicode="&#xe2b6;" d="M999 688l304 646q169 -80 275 -229t129 -328z" />
<glyph unicode="&#xe2b7;" d="M999 688l304 646q180 -85 288 -247t120 -354z" />
<glyph unicode="&#xe2b8;" d="M999 688l304 646q191 -90 300 -266t110 -380h-714z" />
<glyph unicode="&#xe2b9;" d="M999 688l304 646q201 -95 311.5 -285t97.5 -406z" />
<glyph unicode="&#xe2ba;" d="M999 688l304 646q212 -100 322.5 -304t82.5 -431z" />
<glyph unicode="&#xe2bb;" d="M999 688l304 646q148 -70 249 -194.5t139.5 -277.5t8.5 -308z" />
<glyph unicode="&#xe2bc;" d="M999 688l304 646q116 -55 205 -145.5t138 -199.5t63.5 -233.5t-18.5 -245.5z" />
<glyph unicode="&#xe2bd;" d="M999 688l304 646q121 -57 213 -153.5t139.5 -212t56.5 -246t-34 -255.5z" />
<glyph unicode="&#xe2be;" d="M999 688l304 646q126 -60 220 -161.5t140 -223.5t50 -258.5t-50 -265.5z" />
<glyph unicode="&#xe2bf;" d="M999 688l304 646q131 -62 226.5 -169.5t141.5 -235t41 -271t-67 -274.5z" />
<glyph unicode="&#xe2c0;" d="M999 688l304 646q131 -62 226.5 -169.5t141.5 -235t41 -271t-67 -274.5l-21 -41z" />
<glyph unicode="&#xe2c1;" d="M999 688l304 646q131 -62 226.5 -169.5t141.5 -235t41 -271t-67 -274.5q-15 -32 -43 -79z" />
<glyph unicode="&#xe2c2;" d="M999 688l304 646q131 -62 226.5 -169.5t141.5 -235t41 -271t-67 -274.5q-31 -64 -69 -116z" />
<glyph unicode="&#xe2c3;" d="M999 688l304 646q131 -62 226.5 -169.5t141.5 -235t41 -271t-67 -274.5q-36 -77 -96 -152z" />
<glyph unicode="&#xe2c4;" d="M1519 199l-520 489l304 646q131 -62 226.5 -169.5t141.5 -235t41 -271t-67 -274.5q-48 -103 -126 -185z" />
<glyph unicode="&#xe2c5;" d="M999 688l304 646q131 -62 226.5 -169.5t141.5 -235t41 -271t-67 -274.5q-59 -124 -158 -217z" />
<glyph unicode="&#xe2c6;" d="M999 688l304 646q131 -62 226.5 -169.5t141.5 -235t41 -271t-67 -274.5q-67 -144 -191 -246z" />
<glyph unicode="&#xe2c7;" d="M999 688l304 646q131 -62 226.5 -169.5t141.5 -235t41 -271t-67 -274.5q-78 -166 -226 -273z" />
<glyph unicode="&#xe2c8;" d="M999 688l304 646q131 -62 226.5 -169.5t141.5 -235t41 -271t-67 -274.5q-88 -188 -264 -299z" />
<glyph unicode="&#xe2c9;" d="M999 688l304 646q131 -62 226.5 -169.5t141.5 -235t41 -271t-67 -274.5q-100 -212 -302 -321z" />
<glyph unicode="&#xe2ca;" d="M999 688l304 646q131 -62 226.5 -169.5t141.5 -235t41 -271t-67 -274.5q-55 -116 -143 -203t-199 -138z" />
<glyph unicode="&#xe2cb;" d="M1262 25l-263 663l304 646q131 -62 226.5 -169.5t141.5 -235t41 -271t-67 -274.5q-60 -126 -159.5 -218t-223.5 -141z" />
<glyph unicode="&#xe2cc;" d="M999 688l304 646q131 -62 226.5 -169.5t141.5 -235t41 -271t-67 -274.5q-65 -137 -176.5 -233.5t-249.5 -140.5z" />
<glyph unicode="&#xe2cd;" d="M999 688l304 646q131 -62 226.5 -169.5t141.5 -235t41 -271t-67 -274.5q-69 -148 -192.5 -248t-276.5 -139z" />
<glyph unicode="&#xe2ce;" d="M1132 -12l-133 700l304 646q131 -62 226.5 -169.5t141.5 -235t41 -271t-67 -274.5q-74 -158 -210.5 -261.5t-302.5 -134.5z" />
<glyph unicode="&#xe2cf;" d="M1088 -19l-89 707l304 646q131 -62 226.5 -169.5t141.5 -235t41 -271t-67 -274.5q-80 -169 -229 -275t-328 -128z" />
<glyph unicode="&#xe2d0;" d="M1043 -23l-44 711l304 646q131 -62 226.5 -169.5t141.5 -235t41 -271t-67 -274.5q-85 -180 -247.5 -288t-354.5 -119z" />
<glyph unicode="&#xe2d1;" d="M999 -25v713l304 646q131 -62 226.5 -169.5t141.5 -235t41 -271t-67 -274.5q-90 -191 -266 -300t-380 -109z" />
<glyph unicode="&#xe2d2;" d="M954 -23l45 711l304 646q131 -62 226.5 -169.5t141.5 -235t41 -271t-67 -274.5q-95 -202 -285 -311.5t-406 -95.5z" />
<glyph unicode="&#xe2d3;" d="M910 -19l89 707l304 646q131 -62 226.5 -169.5t141.5 -235t41 -271t-67 -274.5q-66 -141 -183 -239.5t-260 -140.5t-292 -23z" />
<glyph unicode="&#xe2d4;" d="M865 -12l134 700l304 646q131 -62 226.5 -169.5t141.5 -235t41 -271t-67 -274.5q-70 -148 -194.5 -249t-277 -139t-308.5 -8z" />
<glyph unicode="&#xe2d5;" d="M822 -2l177 690l304 646q131 -62 226.5 -169.5t141.5 -235t41 -271t-67 -274.5q-55 -116 -145.5 -205t-199.5 -137.5t-233 -63t-245 19.5z" />
<glyph unicode="&#xe2d6;" d="M779 11l220 677l304 646q131 -62 226.5 -169.5t141.5 -235t41 -271t-67 -274.5q-46 -97 -117 -175.5t-158 -130t-184.5 -78.5t-202 -24.5t-204.5 35.5z" />
<glyph unicode="&#xe2d7;" d="M737 26l262 662l304 646q131 -62 226.5 -169.5t141.5 -235t41 -271t-67 -274.5q-48 -101 -123 -182t-167 -132t-194.5 -76t-211.5 -17t-212 49z" />
<glyph unicode="&#xe2d8;" d="M696 44l607 1290q131 -62 226.5 -169.5t141.5 -235t41 -271t-67 -274.5t-169.5 -226.5t-234.5 -141t-270.5 -40t-274.5 67.5z" />
<glyph unicode="&#xe2d9;" d="M696 44q-14 6 -40 20l343 624l304 646q131 -62 226.5 -169.5t141.5 -235t41 -271t-67 -274.5t-169.5 -226.5t-234.5 -141t-270.5 -40t-274.5 67.5z" />
<glyph unicode="&#xe2da;" d="M696 44q-36 15 -79 43l382 601l304 646q131 -62 226.5 -169.5t141.5 -235t41 -271t-67 -274.5t-169.5 -226.5t-234.5 -141t-270.5 -40t-274.5 67.5z" />
<glyph unicode="&#xe2db;" d="M696 44q-58 26 -116 68l419 576l304 646q131 -62 226.5 -169.5t141.5 -235t41 -271t-67 -274.5t-169.5 -226.5t-234.5 -141t-270.5 -40t-274.5 67.5z" />
<glyph unicode="&#xe2dc;" d="M696 44q-81 38 -151 95l454 549l304 646q131 -62 226.5 -169.5t141.5 -235t41 -271t-67 -274.5t-169.5 -226.5t-234.5 -141t-270.5 -40t-274.5 67.5z" />
<glyph unicode="&#xe2dd;" d="M696 44q-102 47 -185 125l488 519l304 646q131 -62 226.5 -169.5t141.5 -235t41 -271t-67 -274.5t-169.5 -226.5t-234.5 -141t-270.5 -40t-274.5 67.5z" />
<glyph unicode="&#xe2de;" d="M696 44q-123 57 -217 156l520 488l304 646q131 -62 226.5 -169.5t141.5 -235t41 -271t-67 -274.5t-169.5 -226.5t-234.5 -141t-270.5 -40t-274.5 67.5z" />
<glyph unicode="&#xe2df;" d="M696 44q-144 67 -246 189l549 455l304 646q131 -62 226.5 -169.5t141.5 -235t41 -271t-67 -274.5t-169.5 -226.5t-234.5 -141t-270.5 -40t-274.5 67.5z" />
<glyph unicode="&#xe2e0;" d="M696 44q-166 78 -274 225l577 419l304 646q131 -62 226.5 -169.5t141.5 -235t41 -271t-67 -274.5t-169.5 -226.5t-234.5 -141t-270.5 -40t-274.5 67.5z" />
<glyph unicode="&#xe2e1;" d="M696 44q-189 88 -299 262l602 382l304 646q131 -62 226.5 -169.5t141.5 -235t41 -271t-67 -274.5t-169.5 -226.5t-234.5 -141t-270.5 -40t-274.5 67.5z" />
<glyph unicode="&#xe2e2;" d="M696 44q-211 98 -322 301l625 343l304 646q131 -62 226.5 -169.5t141.5 -235t41 -271t-67 -274.5t-169.5 -226.5t-234.5 -141t-270.5 -40t-274.5 67.5z" />
<glyph unicode="&#xe2e3;" d="M696 44q-116 54 -203 142t-139 199l645 303l304 646q131 -62 226.5 -169.5t141.5 -235t41 -271t-67 -274.5t-169.5 -226.5t-234.5 -141t-270.5 -40t-274.5 67.5z" />
<glyph unicode="&#xe2e4;" d="M696 44q-126 59 -218 158t-142 224l663 262l304 646q131 -62 226.5 -169.5t141.5 -235t41 -271t-67 -274.5t-169.5 -226.5t-234.5 -141t-270.5 -40t-274.5 67.5z" />
<glyph unicode="&#xe2e5;" d="M696 44q-137 64 -233.5 175t-141.5 249l678 220l304 646q131 -62 226.5 -169.5t141.5 -235t41 -271t-67 -274.5t-169.5 -226.5t-234.5 -141t-270.5 -40t-274.5 67.5z" />
<glyph unicode="&#xe2e6;" d="M696 44q-148 69 -248 192t-139 275l690 177l304 646q131 -62 226.5 -169.5t141.5 -235t41 -271t-67 -274.5t-169.5 -226.5t-234.5 -141t-270.5 -40t-274.5 67.5z" />
<glyph unicode="&#xe2e7;" d="M696 44q-159 75 -262.5 210t-134.5 301l700 133l304 646q131 -62 226.5 -169.5t141.5 -235t41 -271t-67 -274.5t-169.5 -226.5t-234.5 -141t-270.5 -40t-274.5 67.5z" />
<glyph unicode="&#xe2e8;" d="M696 44q-169 79 -275 227.5t-129 326.5l707 90l304 646q131 -62 226.5 -169.5t141.5 -235t41 -271t-67 -274.5t-169.5 -226.5t-234.5 -141t-270.5 -40t-274.5 67.5z" />
<glyph unicode="&#xe2e9;" d="M696 44q-180 84 -288 246t-120 353l711 45l304 646q131 -62 226.5 -169.5t141.5 -235t41 -271t-67 -274.5t-169.5 -226.5t-234.5 -141t-270.5 -40t-274.5 67.5z" />
<glyph unicode="&#xe2ea;" d="M696 44q-191 89 -300.5 264.5t-109.5 379.5h713l304 646q131 -62 226.5 -169.5t141.5 -235t41 -271t-67 -274.5t-169.5 -226.5t-234.5 -141t-270.5 -40t-274.5 67.5z" />
<glyph unicode="&#xe2eb;" d="M696 44q-202 95 -312 284t-96 404l711 -44l304 646q131 -62 226.5 -169.5t141.5 -235t41 -271t-67 -274.5t-169.5 -226.5t-234.5 -141t-270.5 -40t-274.5 67.5z" />
<glyph unicode="&#xe2ec;" d="M696 44q-141 66 -240 182.5t-141 259t-23 291.5l707 -89l304 646q131 -62 226.5 -169.5t141.5 -235t41 -271t-67 -274.5t-169.5 -226.5t-234.5 -141t-270.5 -40t-274.5 67.5z" />
<glyph unicode="&#xe2ed;" d="M696 44q-148 69 -249 193t-139.5 276.5t-8.5 307.5l700 -133l304 646q131 -62 226.5 -169.5t141.5 -235t41 -271t-67 -274.5t-169.5 -226.5t-234.5 -141t-270.5 -40t-274.5 67.5z" />
<glyph unicode="&#xe2ee;" d="M696 44q-93 44 -169.5 111t-127 148t-81 175t-31.5 190.5t22 195.5l690 -176l304 646q131 -62 226.5 -169.5t141.5 -235t41 -271t-67 -274.5t-169.5 -226.5t-234.5 -141t-270.5 -40t-274.5 67.5z" />
<glyph unicode="&#xe2ef;" d="M696 44q-97 45 -176 116t-130.5 158t-78.5 184.5t-24.5 201.5t35.5 204l677 -220l304 646q131 -62 226.5 -169.5t141.5 -235t41 -271t-67 -274.5t-169.5 -226.5t-234.5 -141t-270.5 -40t-274.5 67.5z" />
<glyph unicode="&#xe2f0;" d="M696 44q-101 48 -182 122.5t-132.5 166t-76.5 194t-17 211t49 211.5l662 -261l304 646q131 -62 226.5 -169.5t141.5 -235t41 -271t-67 -274.5t-169.5 -226.5t-234.5 -141t-270.5 -40t-274.5 67.5z" />
<glyph unicode="&#xe2f1;" d="M355 991l644 -303l304 646q131 -62 226.5 -169.5t141.5 -235t41 -271t-67 -274.5t-169.5 -226.5t-234.5 -141t-270.5 -40t-274.5 67.5q-132 62 -227 168.5t-141 233.5t-40.5 270t67.5 275z" />
<glyph unicode="&#xe2f2;" d="M375 1031l624 -343l304 646q131 -62 226.5 -169.5t141.5 -235t41 -271t-67 -274.5t-169.5 -226.5t-234.5 -141t-270.5 -40t-274.5 67.5q-132 62 -227 168.5t-141 233.5t-40.5 270t67.5 275q6 14 20 40z" />
<glyph unicode="&#xe2f3;" d="M398 1069l601 -381l304 646q131 -62 226.5 -169.5t141.5 -235t41 -271t-67 -274.5t-169.5 -226.5t-234.5 -141t-270.5 -40t-274.5 67.5q-132 62 -227 168.5t-141 233.5t-40.5 270t67.5 275q16 35 43 78z" />
<glyph unicode="&#xe2f4;" d="M999 688l304 646q131 -62 226.5 -169.5t141.5 -235t41 -271t-67 -274.5t-169.5 -226.5t-234.5 -141t-270.5 -40t-274.5 67.5q-132 62 -227 168.5t-141 233.5t-40.5 270t67.5 275q29 62 68 115z" />
<glyph unicode="&#xe2f5;" d="M999 688l304 646q131 -62 226.5 -169.5t141.5 -235t41 -271t-67 -274.5t-169.5 -226.5t-234.5 -141t-270.5 -40t-274.5 67.5q-132 62 -227 168.5t-141 233.5t-40.5 270t67.5 275q39 83 95 151z" />
<glyph unicode="&#xe2f6;" d="M999 688l304 646q131 -62 226.5 -169.5t141.5 -235t41 -271t-67 -274.5t-169.5 -226.5t-234.5 -141t-270.5 -40t-274.5 67.5q-132 62 -227 168.5t-141 233.5t-40.5 270t67.5 275q47 102 125 185z" />
<glyph unicode="&#xe2f7;" d="M999 688l304 646q131 -62 226.5 -169.5t141.5 -235t41 -271t-67 -274.5t-169.5 -226.5t-234.5 -141t-270.5 -40t-274.5 67.5q-132 62 -227 168.5t-141 233.5t-40.5 270t67.5 275q56 121 156 216z" />
<glyph unicode="&#xe2f8;" d="M545 1237l454 -549l304 646q131 -62 226.5 -169.5t141.5 -235t41 -271t-67 -274.5t-169.5 -226.5t-234.5 -141t-270.5 -40t-274.5 67.5q-132 62 -227 168.5t-141 233.5t-40.5 270t67.5 275q69 146 190 246z" />
<glyph unicode="&#xe2f9;" d="M580 1264l419 -576l304 646q131 -62 226.5 -169.5t141.5 -235t41 -271t-67 -274.5t-169.5 -226.5t-234.5 -141t-270.5 -40t-274.5 67.5q-132 62 -227 168.5t-141 233.5t-40.5 270t67.5 275q78 167 225 273z" />
<glyph unicode="&#xe2fa;" d="M999 688l304 646q131 -62 226.5 -169.5t141.5 -235t41 -271t-67 -274.5t-169.5 -226.5t-234.5 -141t-270.5 -40t-274.5 67.5q-132 62 -227 168.5t-141 233.5t-40.5 270t67.5 275q87 186 262 298z" />
<glyph unicode="&#xe2fb;" d="M655 1312l344 -624l304 646q131 -62 226.5 -169.5t141.5 -235t41 -271t-67 -274.5t-169.5 -226.5t-234.5 -141t-270.5 -40t-274.5 67.5q-132 62 -227 168.5t-141 233.5t-40.5 270t67.5 275q98 210 300 321z" />
<glyph unicode="&#xe2fc;" d="M999 688l304 646q131 -62 226.5 -169.5t141.5 -235t41 -271t-67 -274.5t-169.5 -226.5t-234.5 -141t-270.5 -40t-274.5 67.5q-132 62 -227 168.5t-141 233.5t-40.5 270t67.5 275q54 115 142 202t198 140z" />
<glyph unicode="&#xe2fd;" d="M999 688l304 646q131 -62 226.5 -169.5t141.5 -235t41 -271t-67 -274.5t-169.5 -226.5t-234.5 -141t-270.5 -40t-274.5 67.5q-132 62 -227 168.5t-141 233.5t-40.5 270t67.5 275q59 126 158 218t224 142z" />
<glyph unicode="&#xe2fe;" d="M779 1366l220 -678l304 646q131 -62 226.5 -169.5t141.5 -235t41 -271t-67 -274.5t-169.5 -226.5t-234.5 -141t-270.5 -40t-274.5 67.5q-132 62 -227 168.5t-141 233.5t-40.5 270t67.5 275q64 137 175 233.5t249 141.5z" />
<glyph unicode="&#xe2ff;" d="M821 1379l178 -691l304 646q131 -62 226.5 -169.5t141.5 -235t41 -271t-67 -274.5t-169.5 -226.5t-234.5 -141t-270.5 -40t-274.5 67.5q-132 62 -227 168.5t-141 233.5t-40.5 270t67.5 275q69 147 192 247.5t274 140.5z" />
<glyph unicode="&#xe300;" d="M999 688l304 646q131 -62 226.5 -169.5t141.5 -235t41 -271t-67 -274.5t-169.5 -226.5t-234.5 -141t-270.5 -40t-274.5 67.5q-132 62 -227 168.5t-141 233.5t-40.5 270t67.5 275q75 159 210 262.5t301 135.5z" />
<glyph unicode="&#xe301;" d="M999 688l304 646q131 -62 226.5 -169.5t141.5 -235t41 -271t-67 -274.5t-169.5 -226.5t-234.5 -141t-270.5 -40t-274.5 67.5q-132 62 -227 168.5t-141 233.5t-40.5 270t67.5 275q79 169 227.5 275.5t327.5 129.5z" />
<glyph unicode="&#xe302;" d="M954 1400l45 -712l304 646q131 -62 226.5 -169.5t141.5 -235t41 -271t-67 -274.5t-169.5 -226.5t-234.5 -141t-270.5 -40t-274.5 67.5q-132 62 -227 168.5t-141 233.5t-40.5 270t67.5 275q84 180 246 288.5t353 120.5z" />
<glyph unicode="&#xe303;" d="M355 991q59 127 160.5 220.5t225.5 141.5t258 49v-714l304 646q131 -62 226.5 -169.5t141.5 -235t41 -271t-67 -274.5t-169.5 -226.5t-234.5 -141t-270.5 -40t-274.5 67.5q-132 62 -227 168.5t-141 233.5t-40.5 270t67.5 275z" />
<glyph unicode="&#xe304;" d="M999 688l344 625q26 -14 38 -22z" />
<glyph unicode="&#xe305;" d="M999 688l344 625q39 -20 76 -48z" />
<glyph unicode="&#xe306;" d="M999 688l344 625q55 -29 111 -75z" />
<glyph unicode="&#xe307;" d="M999 688l344 625q76 -41 145 -105z" />
<glyph unicode="&#xe308;" d="M999 688l344 625q100 -55 176 -136z" />
<glyph unicode="&#xe309;" d="M999 688l344 625q117 -64 206 -170z" />
<glyph unicode="&#xe30a;" d="M1577 1108l-578 -420l344 625q140 -77 234 -205z" />
<glyph unicode="&#xe30b;" d="M999 688l344 625q160 -88 259 -242z" />
<glyph unicode="&#xe30c;" d="M999 688l344 625q181 -99 281 -281z" />
<glyph unicode="&#xe30d;" d="M999 688l344 625q101 -55 178 -137.5t124 -183.5z" />
<glyph unicode="&#xe30e;" d="M999 688l344 625q111 -61 192.5 -154.5t126.5 -207.5z" />
<glyph unicode="&#xe30f;" d="M999 688l344 625q121 -66 207 -171.5t128 -232.5z" />
<glyph unicode="&#xe310;" d="M999 688l344 625q132 -72 221.5 -189t125.5 -258z" />
<glyph unicode="&#xe311;" d="M999 688l344 625q143 -78 235 -207.5t122 -283.5z" />
<glyph unicode="&#xe312;" d="M999 688l344 625q153 -84 248 -226t116 -309z" />
<glyph unicode="&#xe313;" d="M999 688l344 625q164 -90 260.5 -245.5t107.5 -335.5z" />
<glyph unicode="&#xe314;" d="M999 688l344 625q174 -95 271.5 -263.5t98.5 -361.5h-714z" />
<glyph unicode="&#xe315;" d="M999 688l344 625q185 -101 283 -283.5t85 -386.5z" />
<glyph unicode="&#xe316;" d="M999 688l344 625q195 -107 293 -303.5t71 -411.5z" />
<glyph unicode="&#xe317;" d="M999 688l344 625q205 -113 302.5 -323.5t55.5 -434.5z" />
<glyph unicode="&#xe318;" d="M999 688l344 625q216 -119 312 -344.5t35 -458.5z" />
<glyph unicode="&#xe319;" d="M999 688l344 625q112 -62 195.5 -158t125.5 -208t48.5 -236.5t-34.5 -243.5z" />
<glyph unicode="&#xe31a;" d="M999 688l344 625q118 -64 203 -166t126.5 -220t40 -249t-49.5 -253z" />
<glyph unicode="&#xe31b;" d="M999 688l344 625q122 -67 209 -174.5t126.5 -231.5t32.5 -261t-66 -262z" />
<glyph unicode="&#xe31c;" d="M999 688l344 625q127 -70 215.5 -183t126 -243t23.5 -273t-84 -270z" />
<glyph unicode="&#xe31d;" d="M999 688l344 625q127 -70 215.5 -183t126 -243t23.5 -273t-84 -270q-9 -18 -23 -39z" />
<glyph unicode="&#xe31e;" d="M999 688l344 625q127 -70 215.5 -183t126 -243t23.5 -273t-84 -270q-19 -36 -47 -76z" />
<glyph unicode="&#xe31f;" d="M999 688l344 625q127 -70 215.5 -183t126 -243t23.5 -273t-84 -270q-35 -63 -75 -112z" />
<glyph unicode="&#xe320;" d="M999 688l344 625q127 -70 215.5 -183t126 -243t23.5 -273t-84 -270q-41 -76 -105 -145z" />
<glyph unicode="&#xe321;" d="M1488 167l-489 521l344 625q127 -70 215.5 -183t126 -243t23.5 -273t-84 -270q-54 -100 -136 -177z" />
<glyph unicode="&#xe322;" d="M999 688l344 625q127 -70 215.5 -183t126 -243t23.5 -273t-84 -270q-63 -118 -170 -207z" />
<glyph unicode="&#xe323;" d="M999 688l344 625q127 -70 215.5 -183t126 -243t23.5 -273t-84 -270q-76 -140 -206 -234z" />
<glyph unicode="&#xe324;" d="M999 688l344 625q127 -70 215.5 -183t126 -243t23.5 -273t-84 -270q-90 -163 -243 -259z" />
<glyph unicode="&#xe325;" d="M999 688l344 625q127 -70 215.5 -183t126 -243t23.5 -273t-84 -270q-99 -182 -282 -282z" />
<glyph unicode="&#xe326;" d="M999 688l344 625q127 -70 215.5 -183t126 -243t23.5 -273t-84 -270q-110 -203 -321 -302z" />
<glyph unicode="&#xe327;" d="M999 688l344 625q127 -70 215.5 -183t126 -243t23.5 -273t-84 -270q-61 -112 -154.5 -193.5t-207.5 -125.5z" />
<glyph unicode="&#xe328;" d="M1219 10l-220 678l344 625q127 -70 215.5 -183t126 -243t23.5 -273t-84 -270q-67 -122 -172 -208t-233 -126z" />
<glyph unicode="&#xe329;" d="M999 688l344 625q127 -70 215.5 -183t126 -243t23.5 -273t-84 -270q-72 -133 -189 -222t-259 -125z" />
<glyph unicode="&#xe32a;" d="M999 688l344 625q127 -70 215.5 -183t126 -243t23.5 -273t-84 -270q-78 -143 -207.5 -235t-284.5 -121z" />
<glyph unicode="&#xe32b;" d="M1088 -19l-89 707l344 625q127 -70 215.5 -183t126 -243t23.5 -273t-84 -270q-84 -153 -226.5 -247.5t-309.5 -115.5z" />
<glyph unicode="&#xe32c;" d="M1044 -23l-45 711l344 625q127 -70 215.5 -183t126 -243t23.5 -273t-84 -270q-90 -164 -245 -260t-335 -107z" />
<glyph unicode="&#xe32d;" d="M999 -25v713l344 625q127 -70 215.5 -183t126 -243t23.5 -273t-84 -270q-95 -174 -264 -271.5t-361 -97.5z" />
<glyph unicode="&#xe32e;" d="M954 -23l45 711l344 625q127 -70 215.5 -183t126 -243t23.5 -273t-84 -270q-101 -185 -284 -283t-386 -84z" />
<glyph unicode="&#xe32f;" d="M910 -19l89 707l344 625q127 -70 215.5 -183t126 -243t23.5 -273t-84 -270q-107 -195 -303 -292.5t-411 -70.5z" />
<glyph unicode="&#xe330;" d="M866 -12l133 700l344 625q127 -70 215.5 -183t126 -243t23.5 -273t-84 -270q-113 -206 -323.5 -302.5t-434.5 -53.5z" />
<glyph unicode="&#xe331;" d="M821 -2l178 690l344 625q127 -70 215.5 -183t126 -243t23.5 -273t-84 -270q-59 -108 -149.5 -188.5t-196 -124t-224 -54.5t-233.5 21z" />
<glyph unicode="&#xe332;" d="M779 10l220 678l344 625q127 -70 215.5 -183t126 -243t23.5 -273t-84 -270q-62 -112 -158 -195.5t-207.5 -125t-236 -48t-243.5 34.5z" />
<glyph unicode="&#xe333;" d="M737 26l262 662l344 625q127 -70 215.5 -183t126 -243t23.5 -273t-84 -270q-64 -117 -166 -202t-219.5 -126t-248.5 -40t-253 50z" />
<glyph unicode="&#xe334;" d="M696 44l303 644l344 625q127 -70 215.5 -183t126 -243t23.5 -273t-84 -270q-67 -122 -174.5 -209t-231 -126t-260.5 -31.5t-262 66.5z" />
<glyph unicode="&#xe335;" d="M656 64l687 1249q127 -70 215.5 -183t126 -243t23.5 -273t-84 -270t-183 -215.5t-242.5 -126t-272.5 -23t-270 84.5z" />
<glyph unicode="&#xe336;" d="M656 64q-13 7 -39 23l382 601l344 625q127 -70 215.5 -183t126 -243t23.5 -273t-84 -270t-183 -215.5t-242.5 -126t-272.5 -23t-270 84.5z" />
<glyph unicode="&#xe337;" d="M656 64q-31 16 -76 48l419 576l344 625q127 -70 215.5 -183t126 -243t23.5 -273t-84 -270t-183 -215.5t-242.5 -126t-272.5 -23t-270 84.5z" />
<glyph unicode="&#xe338;" d="M656 64q-60 33 -111 75l454 549l344 625q127 -70 215.5 -183t126 -243t23.5 -273t-84 -270t-183 -215.5t-242.5 -126t-272.5 -23t-270 84.5z" />
<glyph unicode="&#xe339;" d="M656 64q-76 41 -145 105l488 519l344 625q127 -70 215.5 -183t126 -243t23.5 -273t-84 -270t-183 -215.5t-242.5 -126t-272.5 -23t-270 84.5z" />
<glyph unicode="&#xe33a;" d="M656 64q-100 54 -177 136l520 488l344 625q127 -70 215.5 -183t126 -243t23.5 -273t-84 -270t-183 -215.5t-242.5 -126t-272.5 -23t-270 84.5z" />
<glyph unicode="&#xe33b;" d="M656 64q-118 65 -206 170l549 454l344 625q127 -70 215.5 -183t126 -243t23.5 -273t-84 -270t-183 -215.5t-242.5 -126t-272.5 -23t-270 84.5z" />
<glyph unicode="&#xe33c;" d="M656 64q-140 77 -234 205l577 419l344 625q127 -70 215.5 -183t126 -243t23.5 -273t-84 -270t-183 -215.5t-242.5 -126t-272.5 -23t-270 84.5z" />
<glyph unicode="&#xe33d;" d="M656 64q-160 88 -259 242l602 382l344 625q127 -70 215.5 -183t126 -243t23.5 -273t-84 -270t-183 -215.5t-242.5 -126t-272.5 -23t-270 84.5z" />
<glyph unicode="&#xe33e;" d="M656 64q-183 100 -282 281l625 343l344 625q127 -70 215.5 -183t126 -243t23.5 -273t-84 -270t-183 -215.5t-242.5 -126t-272.5 -23t-270 84.5z" />
<glyph unicode="&#xe33f;" d="M656 64q-203 110 -302 321l645 303l344 625q127 -70 215.5 -183t126 -243t23.5 -273t-84 -270t-183 -215.5t-242.5 -126t-272.5 -23t-270 84.5z" />
<glyph unicode="&#xe340;" d="M656 64q-225 123 -320 362l663 262l344 625q127 -70 215.5 -183t126 -243t23.5 -273t-84 -270t-183 -215.5t-242.5 -126t-272.5 -23t-270 84.5z" />
<glyph unicode="&#xe341;" d="M656 64q-122 67 -208 172t-127 232l678 220l344 625q127 -70 215.5 -183t126 -243t23.5 -273t-84 -270t-183 -215.5t-242.5 -126t-272.5 -23t-270 84.5z" />
<glyph unicode="&#xe342;" d="M656 64q-133 73 -222 189.5t-125 257.5l690 177l344 625q127 -70 215.5 -183t126 -243t23.5 -273t-84 -270t-183 -215.5t-242.5 -126t-272.5 -23t-270 84.5z" />
<glyph unicode="&#xe343;" d="M656 64q-143 79 -235.5 208t-121.5 283l700 133l344 625q127 -70 215.5 -183t126 -243t23.5 -273t-84 -270t-183 -215.5t-242.5 -126t-272.5 -23t-270 84.5z" />
<glyph unicode="&#xe344;" d="M656 64q-153 84 -248 226t-116 309l707 89l344 625q127 -70 215.5 -183t126 -243t23.5 -273t-84 -270t-183 -215.5t-242.5 -126t-272.5 -23t-270 84.5z" />
<glyph unicode="&#xe345;" d="M656 64q-164 90 -260.5 244.5t-107.5 334.5l711 45l344 625q127 -70 215.5 -183t126 -243t23.5 -273t-84 -270t-183 -215.5t-242.5 -126t-272.5 -23t-270 84.5z" />
<glyph unicode="&#xe346;" d="M656 64q-174 96 -272 264.5t-98 359.5h713l344 625q127 -70 215.5 -183t126 -243t23.5 -273t-84 -270t-183 -215.5t-242.5 -126t-272.5 -23t-270 84.5z" />
<glyph unicode="&#xe347;" d="M656 64q-185 101 -283 283t-85 385l711 -44l344 625q127 -70 215.5 -183t126 -243t23.5 -273t-84 -270t-183 -215.5t-242.5 -126t-272.5 -23t-270 84.5z" />
<glyph unicode="&#xe348;" d="M656 64q-195 107 -293 303t-71 410l707 -89l344 625q127 -70 215.5 -183t126 -243t23.5 -273t-84 -270t-183 -215.5t-242.5 -126t-272.5 -23t-270 84.5z" />
<glyph unicode="&#xe349;" d="M656 64q-206 113 -303 323t-54 434l700 -133l344 625q127 -70 215.5 -183t126 -243t23.5 -273t-84 -270t-183 -215.5t-242.5 -126t-272.5 -23t-270 84.5z" />
<glyph unicode="&#xe34a;" d="M656 64q-108 59 -189 149.5t-124 195.5t-54.5 223.5t20.5 232.5l690 -177l344 625q127 -70 215.5 -183t126 -243t23.5 -273t-84 -270t-183 -215.5t-242.5 -126t-272.5 -23t-270 84.5z" />
<glyph unicode="&#xe34b;" d="M656 64q-112 62 -195.5 158t-125.5 207t-48.5 235t34.5 243l678 -219l344 625q127 -70 215.5 -183t126 -243t23.5 -273t-84 -270t-183 -215.5t-242.5 -126t-272.5 -23t-270 84.5z" />
<glyph unicode="&#xe34c;" d="M656 64q-118 64 -202.5 166t-126 219.5t-40 248t49.5 252.5l662 -262l344 625q127 -70 215.5 -183t126 -243t23.5 -273t-84 -270t-183 -215.5t-242.5 -126t-272.5 -23t-270 84.5z" />
<glyph unicode="&#xe34d;" d="M656 64q-122 67 -209 174t-126.5 230.5t-32.5 260t66 261.5l645 -302l344 625q127 -70 215.5 -183t126 -243t23.5 -273t-84 -270t-183 -215.5t-242.5 -126t-272.5 -23t-270 84.5z" />
<glyph unicode="&#xe34e;" d="M375 1031l624 -343l344 625q127 -70 215.5 -183t126 -243t23.5 -273t-84 -270t-183 -215.5t-242.5 -126t-272.5 -23t-270 84.5t-215.5 183t-126 242.5t-23.5 272t84 269.5z" />
<glyph unicode="&#xe34f;" d="M398 1069l601 -381l344 625q127 -70 215.5 -183t126 -243t23.5 -273t-84 -270t-183 -215.5t-242.5 -126t-272.5 -23t-270 84.5t-215.5 183t-126 242.5t-23.5 272t84 269.5q10 18 23 38z" />
<glyph unicode="&#xe350;" d="M423 1106l576 -418l344 625q127 -70 215.5 -183t126 -243t23.5 -273t-84 -270t-183 -215.5t-242.5 -126t-272.5 -23t-270 84.5t-215.5 183t-126 242.5t-23.5 272t84 269.5q21 39 48 75z" />
<glyph unicode="&#xe351;" d="M999 688l344 625q127 -70 215.5 -183t126 -243t23.5 -273t-84 -270t-183 -215.5t-242.5 -126t-272.5 -23t-270 84.5t-215.5 183t-126 242.5t-23.5 272t84 269.5q33 60 75 111z" />
<glyph unicode="&#xe352;" d="M999 688l344 625q127 -70 215.5 -183t126 -243t23.5 -273t-84 -270t-183 -215.5t-242.5 -126t-272.5 -23t-270 84.5t-215.5 183t-126 242.5t-23.5 272t84 269.5q43 78 104 144z" />
<glyph unicode="&#xe353;" d="M999 688l344 625q127 -70 215.5 -183t126 -243t23.5 -273t-84 -270t-183 -215.5t-242.5 -126t-272.5 -23t-270 84.5t-215.5 183t-126 242.5t-23.5 272t84 269.5q55 100 137 177z" />
<glyph unicode="&#xe354;" d="M999 688l344 625q127 -70 215.5 -183t126 -243t23.5 -273t-84 -270t-183 -215.5t-242.5 -126t-272.5 -23t-270 84.5t-215.5 183t-126 242.5t-23.5 272t84 269.5q65 119 170 206z" />
<glyph unicode="&#xe355;" d="M580 1264l419 -576l344 625q127 -70 215.5 -183t126 -243t23.5 -273t-84 -270t-183 -215.5t-242.5 -126t-272.5 -23t-270 84.5t-215.5 183t-126 242.5t-23.5 272t84 269.5q76 138 205 233z" />
<glyph unicode="&#xe356;" d="M617 1289l382 -601l344 625q127 -70 215.5 -183t126 -243t23.5 -273t-84 -270t-183 -215.5t-242.5 -126t-272.5 -23t-270 84.5t-215.5 183t-126 242.5t-23.5 272t84 269.5q89 161 242 258z" />
<glyph unicode="&#xe357;" d="M999 688l344 625q127 -70 215.5 -183t126 -243t23.5 -273t-84 -270t-183 -215.5t-242.5 -126t-272.5 -23t-270 84.5t-215.5 183t-126 242.5t-23.5 272t84 269.5q98 181 280 281z" />
<glyph unicode="&#xe358;" d="M695 1333l304 -645l344 625q127 -70 215.5 -183t126 -243t23.5 -273t-84 -270t-183 -215.5t-242.5 -126t-272.5 -23t-270 84.5t-215.5 183t-126 242.5t-23.5 272t84 269.5q111 203 320 302z" />
<glyph unicode="&#xe359;" d="M999 688l344 625q127 -70 215.5 -183t126 -243t23.5 -273t-84 -270t-183 -215.5t-242.5 -126t-272.5 -23t-270 84.5t-215.5 183t-126 242.5t-23.5 272t84 269.5q123 223 361 320z" />
<glyph unicode="&#xe35a;" d="M999 688l344 625q127 -70 215.5 -183t126 -243t23.5 -273t-84 -270t-183 -215.5t-242.5 -126t-272.5 -23t-270 84.5t-215.5 183t-126 242.5t-23.5 272t84 269.5q67 122 172 208t232 127z" />
<glyph unicode="&#xe35b;" d="M822 1379l177 -691l344 625q127 -70 215.5 -183t126 -243t23.5 -273t-84 -270t-183 -215.5t-242.5 -126t-272.5 -23t-270 84.5t-215.5 183t-126 242.5t-23.5 272t84 269.5q73 132 190 221.5t257 126.5z" />
<glyph unicode="&#xe35c;" d="M865 1388l134 -700l344 625q127 -70 215.5 -183t126 -243t23.5 -273t-84 -270t-183 -215.5t-242.5 -126t-272.5 -23t-270 84.5t-215.5 183t-126 242.5t-23.5 272t84 269.5q78 142 207 234.5t283 122.5z" />
<glyph unicode="&#xe35d;" d="M999 688l344 625q127 -70 215.5 -183t126 -243t23.5 -273t-84 -270t-183 -215.5t-242.5 -126t-272.5 -23t-270 84.5t-215.5 183t-126 242.5t-23.5 272t84 269.5q84 153 226 248t309 117z" />
<glyph unicode="&#xe35e;" d="M999 688l344 625q127 -70 215.5 -183t126 -243t23.5 -273t-84 -270t-183 -215.5t-242.5 -126t-272.5 -23t-270 84.5t-215.5 183t-126 242.5t-23.5 272t84 269.5q90 164 244.5 260.5t334.5 108.5z" />
<glyph unicode="&#xe35f;" d="M999 1401v-713l344 625q127 -70 215.5 -183t126 -243t23.5 -273t-84 -270t-183 -215.5t-242.5 -126t-272.5 -23t-270 84.5t-215.5 183t-126 242.5t-23.5 272t84 269.5q96 174 264.5 272t359.5 98z" />
<glyph unicode="&#xe360;" d="M999 688l382 603q13 -8 37 -26z" />
<glyph unicode="&#xe361;" d="M999 688l382 603q48 -31 74 -54z" />
<glyph unicode="&#xe362;" d="M999 688l382 603q55 -35 106 -83z" />
<glyph unicode="&#xe363;" d="M999 688l382 603q76 -48 138 -115z" />
<glyph unicode="&#xe364;" d="M999 688l382 603q99 -64 168 -148z" />
<glyph unicode="&#xe365;" d="M999 688l382 603q114 -72 195 -183z" />
<glyph unicode="&#xe366;" d="M1602 1071l-603 -383l382 603q136 -87 221 -220z" />
<glyph unicode="&#xe367;" d="M999 688l382 603q154 -98 243 -259z" />
<glyph unicode="&#xe368;" d="M999 688l382 603q176 -113 264 -299z" />
<glyph unicode="&#xe369;" d="M999 688l382 603q195 -123 282 -340z" />
<glyph unicode="&#xe36a;" d="M999 688l382 603q108 -68 183.5 -167t113.5 -215z" />
<glyph unicode="&#xe36b;" d="M999 688l382 603q118 -75 196.5 -185t112.5 -240z" />
<glyph unicode="&#xe36c;" d="M999 688l382 603q128 -81 209.5 -203.5t109.5 -265.5z" />
<glyph unicode="&#xe36d;" d="M999 688l382 603q138 -88 222 -223t104 -291z" />
<glyph unicode="&#xe36e;" d="M999 688l382 603q148 -93 233.5 -241.5t96.5 -316.5z" />
<glyph unicode="&#xe36f;" d="M999 688l382 603q158 -100 245 -261.5t87 -342.5z" />
<glyph unicode="&#xe370;" d="M999 688l382 603q168 -107 255 -281.5t75 -366.5z" />
<glyph unicode="&#xe371;" d="M999 688l382 603q178 -113 264.5 -301.5t61.5 -390.5z" />
<glyph unicode="&#xe372;" d="M999 688l382 603q189 -120 274 -322.5t45 -414.5z" />
<glyph unicode="&#xe373;" d="M999 688l382 603q198 -126 282 -342.5t28 -437.5z" />
<glyph unicode="&#xe374;" d="M999 688l382 603q104 -66 179 -162t111.5 -204t41 -227t-34.5 -231z" />
<glyph unicode="&#xe375;" d="M999 688l382 603q108 -69 185 -170.5t113 -215.5t33 -239t-49 -241z" />
<glyph unicode="&#xe376;" d="M999 688l382 603q113 -72 191.5 -179t113 -227.5t25 -251.5t-65.5 -249z" />
<glyph unicode="&#xe377;" d="M999 688l382 603q118 -75 198 -188t112 -239t16 -262.5t-83 -257.5z" />
<glyph unicode="&#xe378;" d="M999 688l382 603q164 -104 251.5 -273t80.5 -359t-111 -354z" />
<glyph unicode="&#xe379;" d="M999 688l382 603q164 -104 251.5 -273t80.5 -359t-111 -354l-26 -38z" />
<glyph unicode="&#xe37a;" d="M999 688l382 603q164 -104 251.5 -273t80.5 -359t-111 -354q-34 -50 -53 -72z" />
<glyph unicode="&#xe37b;" d="M999 688l382 603q164 -104 251.5 -273t80.5 -359t-111 -354q-35 -55 -83 -106z" />
<glyph unicode="&#xe37c;" d="M999 688l382 603q164 -104 251.5 -273t80.5 -359t-111 -354q-48 -76 -115 -138z" />
<glyph unicode="&#xe37d;" d="M1454 138l-455 550l382 603q164 -104 251.5 -273t80.5 -359t-111 -354q-63 -97 -148 -167z" />
<glyph unicode="&#xe37e;" d="M999 688l382 603q164 -104 251.5 -273t80.5 -359t-111 -354q-75 -116 -184 -195z" />
<glyph unicode="&#xe37f;" d="M999 688l382 603q164 -104 251.5 -273t80.5 -359t-111 -354q-88 -138 -221 -220z" />
<glyph unicode="&#xe380;" d="M999 688l382 603q164 -104 251.5 -273t80.5 -359t-111 -354q-99 -155 -259 -243z" />
<glyph unicode="&#xe381;" d="M999 688l382 603q164 -104 251.5 -273t80.5 -359t-111 -354q-111 -174 -299 -263z" />
<glyph unicode="&#xe382;" d="M999 688l382 603q164 -104 251.5 -273t80.5 -359t-111 -354q-124 -195 -340 -281z" />
<glyph unicode="&#xe383;" d="M999 688l382 603q164 -104 251.5 -273t80.5 -359t-111 -354q-138 -216 -382 -295z" />
<glyph unicode="&#xe384;" d="M1176 -3l-177 691l382 603q164 -104 251.5 -273t80.5 -359t-111 -354q-75 -118 -185.5 -196.5t-240.5 -111.5z" />
<glyph unicode="&#xe385;" d="M999 688l382 603q164 -104 251.5 -273t80.5 -359t-111 -354q-81 -127 -203.5 -208.5t-265.5 -109.5z" />
<glyph unicode="&#xe386;" d="M999 688l382 603q164 -104 251.5 -273t80.5 -359t-111 -354q-88 -138 -223 -221.5t-291 -102.5z" />
<glyph unicode="&#xe387;" d="M1044 -24l-45 712l382 603q164 -104 251.5 -273t80.5 -359t-111 -354q-94 -147 -242 -232.5t-316 -96.5z" />
<glyph unicode="&#xe388;" d="M999 -25v713l382 603q164 -104 251.5 -273t80.5 -359t-111 -354q-100 -158 -261 -244t-342 -86z" />
<glyph unicode="&#xe389;" d="M954 -23l45 711l382 603q164 -104 251.5 -273t80.5 -359t-111 -354q-107 -168 -282 -254.5t-366 -73.5z" />
<glyph unicode="&#xe38a;" d="M909 -19l90 707l382 603q164 -104 251.5 -273t80.5 -359t-111 -354q-113 -178 -301.5 -264t-391.5 -60z" />
<glyph unicode="&#xe38b;" d="M865 -12l134 700l382 603q164 -104 251.5 -273t80.5 -359t-111 -354q-120 -188 -322.5 -273t-414.5 -44z" />
<glyph unicode="&#xe38c;" d="M822 -2l177 690l382 603q164 -104 251.5 -273t80.5 -359t-111 -354q-126 -198 -342.5 -281.5t-437.5 -25.5z" />
<glyph unicode="&#xe38d;" d="M779 10l220 678l382 603q164 -104 251.5 -273t80.5 -359t-111 -354q-66 -104 -161.5 -179t-203.5 -111t-227 -40t-231 35z" />
<glyph unicode="&#xe38e;" d="M737 26l262 662l382 603q164 -104 251.5 -273t80.5 -359t-111 -354q-69 -108 -170 -184.5t-215.5 -112.5t-239 -32t-240.5 50z" />
<glyph unicode="&#xe38f;" d="M696 44l303 644l382 603q164 -104 251.5 -273t80.5 -359t-111 -354q-72 -113 -179 -191t-227 -112t-251 -24t-249 66z" />
<glyph unicode="&#xe390;" d="M656 64l343 624l382 603q164 -104 251.5 -273t80.5 -359t-111 -354q-75 -118 -187.5 -197.5t-238.5 -111.5t-262.5 -15.5t-257.5 83.5z" />
<glyph unicode="&#xe391;" d="M617 87l764 1204q164 -104 251.5 -273t80.5 -359t-111 -354q-104 -163 -272.5 -250t-358.5 -79.5t-354 111.5z" />
<glyph unicode="&#xe392;" d="M617 87q-33 22 -37 25l419 576l382 603q164 -104 251.5 -273t80.5 -359t-111 -354q-104 -163 -272.5 -250t-358.5 -79.5t-354 111.5z" />
<glyph unicode="&#xe393;" d="M617 87q-40 26 -72 52l454 549l382 603q164 -104 251.5 -273t80.5 -359t-111 -354q-104 -163 -272.5 -250t-358.5 -79.5t-354 111.5z" />
<glyph unicode="&#xe394;" d="M617 87q-57 36 -106 82l488 519l382 603q164 -104 251.5 -273t80.5 -359t-111 -354q-104 -163 -272.5 -250t-358.5 -79.5t-354 111.5z" />
<glyph unicode="&#xe395;" d="M617 87q-73 46 -137 113l519 488l382 603q164 -104 251.5 -273t80.5 -359t-111 -354q-104 -163 -272.5 -250t-358.5 -79.5t-354 111.5z" />
<glyph unicode="&#xe396;" d="M617 87q-96 61 -167 147l549 454l382 603q164 -104 251.5 -273t80.5 -359t-111 -354q-104 -163 -272.5 -250t-358.5 -79.5t-354 111.5z" />
<glyph unicode="&#xe397;" d="M617 87q-112 70 -195 182l577 419l382 603q164 -104 251.5 -273t80.5 -359t-111 -354q-104 -163 -272.5 -250t-358.5 -79.5t-354 111.5z" />
<glyph unicode="&#xe398;" d="M617 87q-135 86 -220 219l602 382l382 603q164 -104 251.5 -273t80.5 -359t-111 -354q-104 -163 -272.5 -250t-358.5 -79.5t-354 111.5z" />
<glyph unicode="&#xe399;" d="M617 87q-153 96 -242 258l624 343l382 603q164 -104 251.5 -273t80.5 -359t-111 -354q-104 -163 -272.5 -250t-358.5 -79.5t-354 111.5z" />
<glyph unicode="&#xe39a;" d="M617 87q-175 110 -263 298l645 303l382 603q164 -104 251.5 -273t80.5 -359t-111 -354q-104 -163 -272.5 -250t-358.5 -79.5t-354 111.5z" />
<glyph unicode="&#xe39b;" d="M617 87q-195 124 -281 339l663 262l382 603q164 -104 251.5 -273t80.5 -359t-111 -354q-104 -163 -272.5 -250t-358.5 -79.5t-354 111.5z" />
<glyph unicode="&#xe39c;" d="M617 87q-215 136 -296 381l678 220l382 603q164 -104 251.5 -273t80.5 -359t-111 -354q-104 -163 -272.5 -250t-358.5 -79.5t-354 111.5z" />
<glyph unicode="&#xe39d;" d="M617 87q-117 74 -196 184.5t-112 239.5l690 177l382 603q164 -104 251.5 -273t80.5 -359t-111 -354q-104 -163 -272.5 -250t-358.5 -79.5t-354 111.5z" />
<glyph unicode="&#xe39e;" d="M617 87q-127 81 -208.5 203t-109.5 264l700 134l382 603q164 -104 251.5 -273t80.5 -359t-111 -354q-104 -163 -272.5 -250t-358.5 -79.5t-354 111.5z" />
<glyph unicode="&#xe39f;" d="M617 87q-137 87 -221 221.5t-104 290.5l707 89l382 603q164 -104 251.5 -273t80.5 -359t-111 -354q-104 -163 -272.5 -250t-358.5 -79.5t-354 111.5z" />
<glyph unicode="&#xe3a0;" d="M617 87q-147 94 -232.5 241t-96.5 315l711 45l382 603q164 -104 251.5 -273t80.5 -359t-111 -354q-104 -163 -272.5 -250t-358.5 -79.5t-354 111.5z" />
<glyph unicode="&#xe3a1;" d="M617 87q-158 100 -244.5 260.5t-86.5 340.5h713l382 603q164 -104 251.5 -273t80.5 -359t-111 -354q-104 -163 -272.5 -250t-358.5 -79.5t-354 111.5z" />
<glyph unicode="&#xe3a2;" d="M617 87q-168 106 -254.5 280.5t-74.5 365.5l711 -45l382 603q164 -104 251.5 -273t80.5 -359t-111 -354q-104 -163 -272.5 -250t-358.5 -79.5t-354 111.5z" />
<glyph unicode="&#xe3a3;" d="M617 87q-178 113 -264.5 300.5t-60.5 389.5l707 -89l382 603q164 -104 251.5 -273t80.5 -359t-111 -354q-104 -163 -272.5 -250t-358.5 -79.5t-354 111.5z" />
<glyph unicode="&#xe3a4;" d="M617 87q-188 119 -273 320.5t-45 413.5l700 -133l382 603q164 -104 251.5 -273t80.5 -359t-111 -354q-104 -163 -272.5 -250t-358.5 -79.5t-354 111.5z" />
<glyph unicode="&#xe3a5;" d="M617 87q-99 63 -172 152.5t-111 191t-46.5 214t21.5 220.5l690 -177l382 603q164 -104 251.5 -273t80.5 -359t-111 -354q-104 -163 -272.5 -250t-358.5 -79.5t-354 111.5z" />
<glyph unicode="&#xe3a6;" d="M617 87q-208 132 -289 362t-7 459l678 -220l382 603q164 -104 251.5 -273t80.5 -359t-111 -354q-104 -163 -272.5 -250t-358.5 -79.5t-354 111.5z" />
<glyph unicode="&#xe3a7;" d="M617 87q-108 69 -184.5 169.5t-112.5 214.5t-33 238.5t49 239.5l663 -261l382 603q164 -104 251.5 -273t80.5 -359t-111 -354q-104 -163 -272.5 -250t-358.5 -79.5t-354 111.5z" />
<glyph unicode="&#xe3a8;" d="M617 87q-113 72 -191.5 178.5t-112.5 226.5t-24 250.5t66 248.5l644 -303l382 603q164 -104 251.5 -273t80.5 -359t-111 -354q-104 -163 -272.5 -250t-358.5 -79.5t-354 111.5z" />
<glyph unicode="&#xe3a9;" d="M617 87q-118 75 -198 187t-111.5 237.5t-15.5 261.5t83 257l624 -342l382 603q164 -104 251.5 -273t80.5 -359t-111 -354q-104 -163 -272.5 -250t-358.5 -79.5t-354 111.5z" />
<glyph unicode="&#xe3aa;" d="M398 1069l601 -381l382 603q164 -104 251.5 -273t80.5 -359t-111 -354q-104 -163 -272.5 -250t-358.5 -79.5t-354 111.5q-163 104 -250.5 272t-80 357.5t111.5 352.5z" />
<glyph unicode="&#xe3ab;" d="M423 1106l576 -418l382 603q164 -104 251.5 -273t80.5 -359t-111 -354q-104 -163 -272.5 -250t-358.5 -79.5t-354 111.5q-163 104 -250.5 272t-80 357.5t111.5 352.5z" />
<glyph unicode="&#xe3ac;" d="M450 1141l549 -453l382 603q164 -104 251.5 -273t80.5 -359t-111 -354q-104 -163 -272.5 -250t-358.5 -79.5t-354 111.5q-163 104 -250.5 272t-80 357.5t111.5 352.5q25 41 52 72z" />
<glyph unicode="&#xe3ad;" d="M999 688l382 603q164 -104 251.5 -273t80.5 -359t-111 -354q-104 -163 -272.5 -250t-358.5 -79.5t-354 111.5q-163 104 -250.5 272t-80 357.5t111.5 352.5q33 54 82 106z" />
<glyph unicode="&#xe3ae;" d="M999 688l382 603q164 -104 251.5 -273t80.5 -359t-111 -354q-104 -163 -272.5 -250t-358.5 -79.5t-354 111.5q-163 104 -250.5 272t-80 357.5t111.5 352.5q45 73 113 138z" />
<glyph unicode="&#xe3af;" d="M999 688l382 603q164 -104 251.5 -273t80.5 -359t-111 -354q-104 -163 -272.5 -250t-358.5 -79.5t-354 111.5q-163 104 -250.5 272t-80 357.5t111.5 352.5q60 95 147 168z" />
<glyph unicode="&#xe3b0;" d="M999 688l382 603q164 -104 251.5 -273t80.5 -359t-111 -354q-104 -163 -272.5 -250t-358.5 -79.5t-354 111.5q-163 104 -250.5 272t-80 357.5t111.5 352.5q74 117 182 195z" />
<glyph unicode="&#xe3b1;" d="M617 1290l382 -602l382 603q164 -104 251.5 -273t80.5 -359t-111 -354q-104 -163 -272.5 -250t-358.5 -79.5t-354 111.5q-163 104 -250.5 272t-80 357.5t111.5 352.5q86 136 219 221z" />
<glyph unicode="&#xe3b2;" d="M655 1312l344 -624l382 603q164 -104 251.5 -273t80.5 -359t-111 -354q-104 -163 -272.5 -250t-358.5 -79.5t-354 111.5q-163 104 -250.5 272t-80 357.5t111.5 352.5q97 154 257 243z" />
<glyph unicode="&#xe3b3;" d="M999 688l382 603q164 -104 251.5 -273t80.5 -359t-111 -354q-104 -163 -272.5 -250t-358.5 -79.5t-354 111.5q-163 104 -250.5 272t-80 357.5t111.5 352.5q111 176 297 264z" />
<glyph unicode="&#xe3b4;" d="M736 1351l263 -663l382 603q164 -104 251.5 -273t80.5 -359t-111 -354q-104 -163 -272.5 -250t-358.5 -79.5t-354 111.5q-163 104 -250.5 272t-80 357.5t111.5 352.5q123 196 338 282z" />
<glyph unicode="&#xe3b5;" d="M999 688l382 603q164 -104 251.5 -273t80.5 -359t-111 -354q-104 -163 -272.5 -250t-358.5 -79.5t-354 111.5q-163 104 -250.5 272t-80 357.5t111.5 352.5q137 217 381 297z" />
<glyph unicode="&#xe3b6;" d="M999 688l382 603q164 -104 251.5 -273t80.5 -359t-111 -354q-104 -163 -272.5 -250t-358.5 -79.5t-354 111.5q-163 104 -250.5 272t-80 357.5t111.5 352.5q75 118 184.5 197t239.5 112z" />
<glyph unicode="&#xe3b7;" d="M866 1388l133 -700l382 603q164 -104 251.5 -273t80.5 -359t-111 -354q-104 -163 -272.5 -250t-358.5 -79.5t-354 111.5q-163 104 -250.5 272t-80 357.5t111.5 352.5q80 127 202.5 209t265.5 110z" />
<glyph unicode="&#xe3b8;" d="M909 1395l90 -707l382 603q164 -104 251.5 -273t80.5 -359t-111 -354q-104 -163 -272.5 -250t-358.5 -79.5t-354 111.5q-163 104 -250.5 272t-80 357.5t111.5 352.5q87 138 221.5 222t289.5 104z" />
<glyph unicode="&#xe3b9;" d="M999 688l382 603q164 -104 251.5 -273t80.5 -359t-111 -354q-104 -163 -272.5 -250t-358.5 -79.5t-354 111.5q-163 104 -250.5 272t-80 357.5t111.5 352.5q93 148 240.5 234t315.5 97z" />
<glyph unicode="&#xe3ba;" d="M999 688l382 603q164 -104 251.5 -273t80.5 -359t-111 -354q-104 -163 -272.5 -250t-358.5 -79.5t-354 111.5q-163 104 -250.5 272t-80 357.5t111.5 352.5q100 158 261 245t340 87v-713z" />
<glyph unicode="&#xe3bb;" d="M999 688l419 577q12 -7 36 -27z" />
<glyph unicode="&#xe3bc;" d="M999 688l419 577q42 -30 70 -57z" />
<glyph unicode="&#xe3bd;" d="M999 688l419 577q54 -38 101 -88z" />
<glyph unicode="&#xe3be;" d="M999 688l419 577q75 -54 131 -122z" />
<glyph unicode="&#xe3bf;" d="M999 688l419 577q93 -66 159 -157z" />
<glyph unicode="&#xe3c0;" d="M999 688l419 577q109 -77 184 -194z" />
<glyph unicode="&#xe3c1;" d="M1625 1032l-626 -344l419 577q130 -93 207 -233z" />
<glyph unicode="&#xe3c2;" d="M999 688l419 577q148 -107 227 -273z" />
<glyph unicode="&#xe3c3;" d="M999 688l419 577q168 -121 244 -314z" />
<glyph unicode="&#xe3c4;" d="M999 688l419 577q188 -136 260 -356z" />
<glyph unicode="&#xe3c5;" d="M999 688l419 577q103 -74 172 -177t100 -222z" />
<glyph unicode="&#xe3c6;" d="M999 688l419 577q113 -82 185 -197t97 -246z" />
<glyph unicode="&#xe3c7;" d="M999 688l419 577q122 -88 196.5 -215.5t92.5 -272.5z" />
<glyph unicode="&#xe3c8;" d="M999 688l419 577q132 -96 207.5 -235.5t85.5 -296.5z" />
<glyph unicode="&#xe3c9;" d="M999 688l419 577q141 -102 217.5 -255.5t77.5 -321.5h-714z" />
<glyph unicode="&#xe3ca;" d="M999 688l419 577q151 -110 227.5 -276.5t65.5 -345.5z" />
<glyph unicode="&#xe3cb;" d="M999 688l419 577q161 -117 237 -296.5t52 -370.5z" />
<glyph unicode="&#xe3cc;" d="M999 688l419 577q171 -123 245.5 -316.5t36.5 -394.5z" />
<glyph unicode="&#xe3cd;" d="M999 688l419 577q180 -131 253 -338.5t20 -416.5z" />
<glyph unicode="&#xe3ce;" d="M999 688l419 577q126 -91 202 -225.5t89 -279t-31 -292.5z" />
<glyph unicode="&#xe3cf;" d="M999 688l419 577q99 -72 168 -172t100 -210.5t26 -229t-49 -228.5z" />
<glyph unicode="&#xe3d0;" d="M999 688l419 577q104 -75 174 -181t99 -222t18 -240.5t-64 -237.5z" />
<glyph unicode="&#xe3d1;" d="M999 688l419 577q145 -105 222 -262.5t73 -331.5t-89 -327z" />
<glyph unicode="&#xe3d2;" d="M999 688l419 577q151 -109 228 -275t66 -347.5t-110 -337.5z" />
<glyph unicode="&#xe3d3;" d="M999 688l419 577q157 -114 234 -287.5t57.5 -363t-133.5 -346.5z" />
<glyph unicode="&#xe3d4;" d="M999 688l419 577q157 -114 234 -287.5t57.5 -363t-133.5 -346.5l-27 -36z" />
<glyph unicode="&#xe3d5;" d="M999 688l419 577q157 -114 234 -287.5t57.5 -363t-133.5 -346.5q-20 -29 -57 -69z" />
<glyph unicode="&#xe3d6;" d="M999 688l419 577q157 -114 234 -287.5t57.5 -363t-133.5 -346.5q-44 -60 -89 -101z" />
<glyph unicode="&#xe3d7;" d="M999 688l419 577q157 -114 234 -287.5t57.5 -363t-133.5 -346.5q-51 -71 -122 -131z" />
<glyph unicode="&#xe3d8;" d="M1419 110l-420 578l419 577q157 -114 234 -287.5t57.5 -363t-133.5 -346.5q-67 -93 -157 -158z" />
<glyph unicode="&#xe3d9;" d="M999 688l419 577q157 -114 234 -287.5t57.5 -363t-133.5 -346.5q-78 -109 -195 -183z" />
<glyph unicode="&#xe3da;" d="M999 688l419 577q157 -114 234 -287.5t57.5 -363t-133.5 -346.5q-94 -130 -233 -206z" />
<glyph unicode="&#xe3db;" d="M999 688l419 577q157 -114 234 -287.5t57.5 -363t-133.5 -346.5q-108 -149 -273 -226z" />
<glyph unicode="&#xe3dc;" d="M999 688l419 577q157 -114 234 -287.5t57.5 -363t-133.5 -346.5q-120 -167 -315 -244z" />
<glyph unicode="&#xe3dd;" d="M999 688l419 577q157 -114 234 -287.5t57.5 -363t-133.5 -346.5q-136 -187 -356 -259z" />
<glyph unicode="&#xe3de;" d="M999 688l419 577q157 -114 234 -287.5t57.5 -363t-133.5 -346.5q-150 -208 -399 -271z" />
<glyph unicode="&#xe3df;" d="M1133 -13l-134 701l419 577q157 -114 234 -287.5t57.5 -363t-133.5 -346.5q-82 -113 -196.5 -184.5t-246.5 -96.5z" />
<glyph unicode="&#xe3e0;" d="M999 688l419 577q157 -114 234 -287.5t57.5 -363t-133.5 -346.5q-88 -122 -215.5 -196t-271.5 -92z" />
<glyph unicode="&#xe3e1;" d="M999 688l419 577q157 -114 234 -287.5t57.5 -363t-133.5 -346.5q-96 -132 -236 -207t-296 -85z" />
<glyph unicode="&#xe3e2;" d="M999 -25v713l419 577q157 -114 234 -287.5t57.5 -363t-133.5 -346.5q-102 -141 -255 -217t-322 -76z" />
<glyph unicode="&#xe3e3;" d="M954 -23l45 711l419 577q157 -114 234 -287.5t57.5 -363t-133.5 -346.5q-110 -151 -276 -227t-346 -64z" />
<glyph unicode="&#xe3e4;" d="M909 -19l90 707l419 577q157 -114 234 -287.5t57.5 -363t-133.5 -346.5q-117 -161 -296.5 -236t-370.5 -51z" />
<glyph unicode="&#xe3e5;" d="M865 -12l134 700l419 577q157 -114 234 -287.5t57.5 -363t-133.5 -346.5q-123 -171 -316.5 -245t-394.5 -35z" />
<glyph unicode="&#xe3e6;" d="M822 -2l177 690l419 577q157 -114 234 -287.5t57.5 -363t-133.5 -346.5q-131 -180 -337.5 -252t-416.5 -18z" />
<glyph unicode="&#xe3e7;" d="M779 10l220 678l419 577q157 -114 234 -287.5t57.5 -363t-133.5 -346.5q-91 -126 -225.5 -201.5t-279 -88t-292.5 31.5z" />
<glyph unicode="&#xe3e8;" d="M736 26l263 662l419 577q157 -114 234 -287.5t57.5 -363t-133.5 -346.5q-72 -99 -172 -167.5t-210.5 -99t-229 -25t-228.5 49.5z" />
<glyph unicode="&#xe3e9;" d="M696 43l303 645l419 577q157 -114 234 -287.5t57.5 -363t-133.5 -346.5q-75 -104 -181 -174t-222 -98.5t-240.5 -17t-236.5 64.5z" />
<glyph unicode="&#xe3ea;" d="M656 64l343 624l419 577q157 -114 234 -287.5t57.5 -363t-133.5 -346.5q-105 -144 -262.5 -221t-331 -72.5t-326.5 89.5z" />
<glyph unicode="&#xe3eb;" d="M617 87l382 601l419 577q157 -114 234 -287.5t57.5 -363t-133.5 -346.5q-109 -150 -274.5 -227t-347 -65t-337.5 111z" />
<glyph unicode="&#xe3ec;" d="M580 112l838 1153q157 -114 234 -287.5t57.5 -363t-133.5 -346.5t-287.5 -233.5t-362.5 -56.5t-346 134z" />
<glyph unicode="&#xe3ed;" d="M580 112q-24 18 -35 27l454 549l419 577q157 -114 234 -287.5t57.5 -363t-133.5 -346.5t-287.5 -233.5t-362.5 -56.5t-346 134z" />
<glyph unicode="&#xe3ee;" d="M580 112q-36 27 -69 57l488 519l419 577q157 -114 234 -287.5t57.5 -363t-133.5 -346.5t-287.5 -233.5t-362.5 -56.5t-346 134z" />
<glyph unicode="&#xe3ef;" d="M580 112q-57 41 -100 89l519 487l419 577q157 -114 234 -287.5t57.5 -363t-133.5 -346.5t-287.5 -233.5t-362.5 -56.5t-346 134z" />
<glyph unicode="&#xe3f0;" d="M580 112q-75 55 -130 122l549 454l419 577q157 -114 234 -287.5t57.5 -363t-133.5 -346.5t-287.5 -233.5t-362.5 -56.5t-346 134z" />
<glyph unicode="&#xe3f1;" d="M580 112q-90 65 -158 157l577 419l419 577q157 -114 234 -287.5t57.5 -363t-133.5 -346.5t-287.5 -233.5t-362.5 -56.5t-346 134z" />
<glyph unicode="&#xe3f2;" d="M580 112q-108 78 -183 194l602 382l419 577q157 -114 234 -287.5t57.5 -363t-133.5 -346.5t-287.5 -233.5t-362.5 -56.5t-346 134z" />
<glyph unicode="&#xe3f3;" d="M580 112q-131 96 -205 232l624 344l419 577q157 -114 234 -287.5t57.5 -363t-133.5 -346.5t-287.5 -233.5t-362.5 -56.5t-346 134z" />
<glyph unicode="&#xe3f4;" d="M580 112q-148 107 -226 273l645 303l419 577q157 -114 234 -287.5t57.5 -363t-133.5 -346.5t-287.5 -233.5t-362.5 -56.5t-346 134z" />
<glyph unicode="&#xe3f5;" d="M580 112q-169 123 -244 314l663 262l419 577q157 -114 234 -287.5t57.5 -363t-133.5 -346.5t-287.5 -233.5t-362.5 -56.5t-346 134z" />
<glyph unicode="&#xe3f6;" d="M580 112q-187 136 -259 356l678 220l419 577q157 -114 234 -287.5t57.5 -363t-133.5 -346.5t-287.5 -233.5t-362.5 -56.5t-346 134z" />
<glyph unicode="&#xe3f7;" d="M580 112q-208 150 -271 399l690 177l419 577q157 -114 234 -287.5t57.5 -363t-133.5 -346.5t-287.5 -233.5t-362.5 -56.5t-346 134z" />
<glyph unicode="&#xe3f8;" d="M580 112q-113 82 -184.5 196.5t-96.5 246.5l700 133l419 577q157 -114 234 -287.5t57.5 -363t-133.5 -346.5t-287.5 -233.5t-362.5 -56.5t-346 134z" />
<glyph unicode="&#xe3f9;" d="M580 112q-122 88 -196 215.5t-92 271.5l707 89l419 577q157 -114 234 -287.5t57.5 -363t-133.5 -346.5t-287.5 -233.5t-362.5 -56.5t-346 134z" />
<glyph unicode="&#xe3fa;" d="M580 112q-132 96 -207 235.5t-85 295.5l711 45l419 577q157 -114 234 -287.5t57.5 -363t-133.5 -346.5t-287.5 -233.5t-362.5 -56.5t-346 134z" />
<glyph unicode="&#xe3fb;" d="M580 112q-142 102 -218 255t-76 321h713l419 577q157 -114 234 -287.5t57.5 -363t-133.5 -346.5t-287.5 -233.5t-362.5 -56.5t-346 134z" />
<glyph unicode="&#xe3fc;" d="M580 112q-151 110 -227 275.5t-65 344.5l711 -44l419 577q157 -114 234 -287.5t57.5 -363t-133.5 -346.5t-287.5 -233.5t-362.5 -56.5t-346 134z" />
<glyph unicode="&#xe3fd;" d="M580 112q-161 116 -236.5 295.5t-51.5 369.5l707 -89l419 577q157 -114 234 -287.5t57.5 -363t-133.5 -346.5t-287.5 -233.5t-362.5 -56.5t-346 134z" />
<glyph unicode="&#xe3fe;" d="M580 112q-171 124 -245 316.5t-36 392.5l700 -133l419 577q157 -114 234 -287.5t57.5 -363t-133.5 -346.5t-287.5 -233.5t-362.5 -56.5t-346 134z" />
<glyph unicode="&#xe3ff;" d="M580 112q-180 131 -252.5 337.5t-18.5 415.5l690 -177l419 577q157 -114 234 -287.5t57.5 -363t-133.5 -346.5t-287.5 -233.5t-362.5 -56.5t-346 134z" />
<glyph unicode="&#xe400;" d="M580 112q-126 91 -201.5 225.5t-88.5 279t31 291.5l678 -220l419 577q157 -114 234 -287.5t57.5 -363t-133.5 -346.5t-287.5 -233.5t-362.5 -56.5t-346 134z" />
<glyph unicode="&#xe401;" d="M580 112q-132 96 -209 238.5t-84 294.5t49 305l663 -262l419 577q157 -114 234 -287.5t57.5 -363t-133.5 -346.5t-287.5 -233.5t-362.5 -56.5t-346 134z" />
<glyph unicode="&#xe402;" d="M580 112q-104 75 -174 180.5t-98.5 221.5t-17.5 240t64 236l645 -302l419 577q157 -114 234 -287.5t57.5 -363t-133.5 -346.5t-287.5 -233.5t-362.5 -56.5t-346 134z" />
<glyph unicode="&#xe403;" d="M580 112q-145 105 -221.5 262.5t-72.5 330.5t89 326l624 -343l419 577q157 -114 234 -287.5t57.5 -363t-133.5 -346.5t-287.5 -233.5t-362.5 -56.5t-346 134z" />
<glyph unicode="&#xe404;" d="M580 112q-150 109 -227 274t-66 346t110 337l602 -381l419 577q157 -114 234 -287.5t57.5 -363t-133.5 -346.5t-287.5 -233.5t-362.5 -56.5t-346 134z" />
<glyph unicode="&#xe405;" d="M423 1106l576 -418l419 577q157 -114 234 -287.5t57.5 -363t-133.5 -346.5t-287.5 -233.5t-362.5 -56.5t-346 134q-156 114 -233 287t-57.5 362t133.5 345z" />
<glyph unicode="&#xe406;" d="M450 1142l549 -454l419 577q157 -114 234 -287.5t57.5 -363t-133.5 -346.5t-287.5 -233.5t-362.5 -56.5t-346 134q-156 114 -233 287t-57.5 362t133.5 345z" />
<glyph unicode="&#xe407;" d="M480 1175l519 -487l419 577q157 -114 234 -287.5t57.5 -363t-133.5 -346.5t-287.5 -233.5t-362.5 -56.5t-346 134q-156 114 -233 287t-57.5 362t133.5 345q27 38 57 69z" />
<glyph unicode="&#xe408;" d="M999 688l419 577q157 -114 234 -287.5t57.5 -363t-133.5 -346.5t-287.5 -233.5t-362.5 -56.5t-346 134q-156 114 -233 287t-57.5 362t133.5 345q44 60 89 101z" />
<glyph unicode="&#xe409;" d="M999 688l419 577q157 -114 234 -287.5t57.5 -363t-133.5 -346.5t-287.5 -233.5t-362.5 -56.5t-346 134q-156 114 -233 287t-57.5 362t133.5 345q51 71 122 131z" />
<glyph unicode="&#xe40a;" d="M999 688l419 577q157 -114 234 -287.5t57.5 -363t-133.5 -346.5t-287.5 -233.5t-362.5 -56.5t-346 134q-156 114 -233 287t-57.5 362t133.5 345q64 89 158 158z" />
<glyph unicode="&#xe40b;" d="M999 688l419 577q157 -114 234 -287.5t57.5 -363t-133.5 -346.5t-287.5 -233.5t-362.5 -56.5t-346 134q-156 114 -233 287t-57.5 362t133.5 345q79 110 194 183z" />
<glyph unicode="&#xe40c;" d="M656 1312l343 -624l419 577q157 -114 234 -287.5t57.5 -363t-133.5 -346.5t-287.5 -233.5t-362.5 -56.5t-346 134q-156 114 -233 287t-57.5 362t133.5 345q93 130 233 206z" />
<glyph unicode="&#xe40d;" d="M695 1332l304 -644l419 577q157 -114 234 -287.5t57.5 -363t-133.5 -346.5t-287.5 -233.5t-362.5 -56.5t-346 134q-156 114 -233 287t-57.5 362t133.5 345q108 149 272 226z" />
<glyph unicode="&#xe40e;" d="M999 688l419 577q157 -114 234 -287.5t57.5 -363t-133.5 -346.5t-287.5 -233.5t-362.5 -56.5t-346 134q-156 114 -233 287t-57.5 362t133.5 345q121 168 313 244z" />
<glyph unicode="&#xe40f;" d="M779 1366l220 -678l419 577q157 -114 234 -287.5t57.5 -363t-133.5 -346.5t-287.5 -233.5t-362.5 -56.5t-346 134q-156 114 -233 287t-57.5 362t133.5 345q135 187 356 260z" />
<glyph unicode="&#xe410;" d="M999 688l419 577q157 -114 234 -287.5t57.5 -363t-133.5 -346.5t-287.5 -233.5t-362.5 -56.5t-346 134q-156 114 -233 287t-57.5 362t133.5 345q74 103 177 172t222 100z" />
<glyph unicode="&#xe411;" d="M999 688l419 577q157 -114 234 -287.5t57.5 -363t-133.5 -346.5t-287.5 -233.5t-362.5 -56.5t-346 134q-156 114 -233 287t-57.5 362t133.5 345q82 113 196.5 185t245.5 97z" />
<glyph unicode="&#xe412;" d="M910 1395l89 -707l419 577q157 -114 234 -287.5t57.5 -363t-133.5 -346.5t-287.5 -233.5t-362.5 -56.5t-346 134q-156 114 -233 287t-57.5 362t133.5 345q88 122 215.5 196.5t271.5 92.5z" />
<glyph unicode="&#xe413;" d="M954 1400l45 -712l419 577q157 -114 234 -287.5t57.5 -363t-133.5 -346.5t-287.5 -233.5t-362.5 -56.5t-346 134q-156 114 -233 287t-57.5 362t133.5 345q96 132 235.5 207.5t295.5 86.5z" />
<glyph unicode="&#xe414;" d="M999 688l419 577q157 -114 234 -287.5t57.5 -363t-133.5 -346.5t-287.5 -233.5t-362.5 -56.5t-346 134q-156 114 -233 287t-57.5 362t133.5 345q102 141 255 217.5t321 77.5v-713z" />
<glyph unicode="&#xe415;" d="M999 688l455 550q3 -3 15.5 -13.5t18.5 -16.5z" />
<glyph unicode="&#xe416;" d="M999 688l455 550q46 -40 66 -62z" />
<glyph unicode="&#xe417;" d="M999 688l455 550q53 -44 95 -95z" />
<glyph unicode="&#xe418;" d="M999 688l455 550q70 -58 123 -131z" />
<glyph unicode="&#xe419;" d="M999 688l455 550q89 -74 148 -168z" />
<glyph unicode="&#xe41a;" d="M999 688l455 550q104 -87 171 -206z" />
<glyph unicode="&#xe41b;" d="M1645 992l-646 -304l455 550q123 -101 191 -246z" />
<glyph unicode="&#xe41c;" d="M999 688l455 550q141 -116 209 -287z" />
<glyph unicode="&#xe41d;" d="M999 688l455 550q159 -133 224 -329z" />
<glyph unicode="&#xe41e;" d="M999 688l455 550q179 -148 236 -372z" />
<glyph unicode="&#xe41f;" d="M999 688l455 550q198 -164 246 -416z" />
<glyph unicode="&#xe420;" d="M999 688l455 550q107 -88 171.5 -208t81.5 -252z" />
<glyph unicode="&#xe421;" d="M999 688l455 550q116 -97 182 -228.5t75 -276.5z" />
<glyph unicode="&#xe422;" d="M999 688l455 550q125 -104 192 -248.5t67 -301.5h-714z" />
<glyph unicode="&#xe423;" d="M999 688l455 550q135 -111 201.5 -269t55.5 -326z" />
<glyph unicode="&#xe424;" d="M999 688l455 550q144 -119 209.5 -290t43.5 -350z" />
<glyph unicode="&#xe425;" d="M999 688l455 550q153 -127 217.5 -311.5t28.5 -372.5z" />
<glyph unicode="&#xe426;" d="M999 688l455 550q163 -135 225 -332.5t11 -395.5z" />
<glyph unicode="&#xe427;" d="M999 688l455 550q172 -142 232 -356t-8 -415z" />
<glyph unicode="&#xe428;" d="M999 688l455 550q90 -74 151 -172.5t87 -204.5t19 -218.5t-48 -216.5z" />
<glyph unicode="&#xe429;" d="M999 688l455 550q126 -104 193 -250t66.5 -303.5t-68.5 -300.5z" />
<glyph unicode="&#xe42a;" d="M999 688l455 550q132 -109 199 -263t59.5 -319.5t-87.5 -311.5z" />
<glyph unicode="&#xe42b;" d="M999 688l455 550q138 -114 205 -276.5t52 -335.5t-109 -321z" />
<glyph unicode="&#xe42c;" d="M999 688l455 550q144 -119 210.5 -289.5t43.5 -351t-132 -329.5z" />
<glyph unicode="&#xe42d;" d="M999 688l455 550q149 -123 215 -302t34.5 -366.5t-154.5 -336.5z" />
<glyph unicode="&#xe42e;" d="M999 688l455 550q149 -123 215 -302t34.5 -366.5t-154.5 -336.5q-20 -24 -30 -35z" />
<glyph unicode="&#xe42f;" d="M999 688l455 550q149 -123 215 -302t34.5 -366.5t-154.5 -336.5q-19 -24 -61 -66z" />
<glyph unicode="&#xe430;" d="M999 688l455 550q149 -123 215 -302t34.5 -366.5t-154.5 -336.5q-43 -53 -95 -96z" />
<glyph unicode="&#xe431;" d="M999 688l455 550q149 -123 215 -302t34.5 -366.5t-154.5 -336.5q-58 -71 -131 -123z" />
<glyph unicode="&#xe432;" d="M1382 85l-383 603l455 550q149 -123 215 -302t34.5 -366.5t-154.5 -336.5q-70 -86 -167 -148z" />
<glyph unicode="&#xe433;" d="M999 688l455 550q149 -123 215 -302t34.5 -366.5t-154.5 -336.5q-86 -105 -207 -171z" />
<glyph unicode="&#xe434;" d="M999 688l455 550q149 -123 215 -302t34.5 -366.5t-154.5 -336.5q-101 -123 -246 -191z" />
<glyph unicode="&#xe435;" d="M999 688l455 550q149 -123 215 -302t34.5 -366.5t-154.5 -336.5q-116 -141 -287 -209z" />
<glyph unicode="&#xe436;" d="M999 688l455 550q149 -123 215 -302t34.5 -366.5t-154.5 -336.5q-133 -161 -330 -224z" />
<glyph unicode="&#xe437;" d="M999 688l455 550q149 -123 215 -302t34.5 -366.5t-154.5 -336.5q-150 -181 -373 -236z" />
<glyph unicode="&#xe438;" d="M999 688l455 550q149 -123 215 -302t34.5 -366.5t-154.5 -336.5q-162 -197 -416 -246z" />
<glyph unicode="&#xe439;" d="M1088 -20l-89 708l455 550q149 -123 215 -302t34.5 -366.5t-154.5 -336.5q-89 -107 -208.5 -171.5t-252.5 -81.5z" />
<glyph unicode="&#xe43a;" d="M999 688l455 550q149 -123 215 -302t34.5 -366.5t-154.5 -336.5q-97 -116 -228.5 -182t-276.5 -75z" />
<glyph unicode="&#xe43b;" d="M999 688l455 550q149 -123 215 -302t34.5 -366.5t-154.5 -336.5q-104 -126 -248.5 -192.5t-301.5 -65.5v713z" />
<glyph unicode="&#xe43c;" d="M954 -24l45 712l455 550q149 -123 215 -302t34.5 -366.5t-154.5 -336.5q-111 -135 -269 -201.5t-326 -55.5z" />
<glyph unicode="&#xe43d;" d="M910 -19l89 707l455 550q149 -123 215 -302t34.5 -366.5t-154.5 -336.5q-119 -144 -289.5 -209.5t-349.5 -42.5z" />
<glyph unicode="&#xe43e;" d="M865 -12l134 700l455 550q149 -123 215 -302t34.5 -366.5t-154.5 -336.5q-127 -153 -311 -217.5t-373 -27.5z" />
<glyph unicode="&#xe43f;" d="M821 -2l178 690l455 550q149 -123 215 -302t34.5 -366.5t-154.5 -336.5q-134 -163 -332 -224.5t-396 -10.5z" />
<glyph unicode="&#xe440;" d="M779 10l220 678l455 550q149 -123 215 -302t34.5 -366.5t-154.5 -336.5q-94 -114 -225 -181t-268 -75.5t-277 33.5z" />
<glyph unicode="&#xe441;" d="M737 25l262 663l455 550q149 -123 215 -302t34.5 -366.5t-154.5 -336.5q-74 -90 -172.5 -151t-204.5 -87t-218.5 -18.5t-216.5 48.5z" />
<glyph unicode="&#xe442;" d="M695 43l304 645l455 550q149 -123 215 -302t34.5 -366.5t-154.5 -336.5q-104 -126 -250 -193t-303.5 -66t-300.5 69z" />
<glyph unicode="&#xe443;" d="M656 64l343 624l455 550q149 -123 215 -302t34.5 -366.5t-154.5 -336.5q-109 -132 -263 -199t-319 -59t-311 89z" />
<glyph unicode="&#xe444;" d="M617 87l382 601l455 550q149 -123 215 -302t34.5 -366.5t-154.5 -336.5q-114 -138 -276 -204.5t-335 -51.5t-321 110z" />
<glyph unicode="&#xe445;" d="M580 112l419 576l455 550q149 -123 215 -302t34.5 -366.5t-154.5 -336.5q-119 -144 -289.5 -210t-350.5 -43t-329 132z" />
<glyph unicode="&#xe446;" d="M545 139l909 1099q149 -123 215 -302t34.5 -366.5t-154.5 -336.5q-92 -112 -220 -177.5t-262 -78t-272 28t-250 133.5z" />
<glyph unicode="&#xe447;" d="M545 139q-12 10 -34 30l488 519l455 550q149 -123 215 -302t34.5 -366.5t-154.5 -336.5q-92 -112 -220 -177.5t-262 -78t-272 28t-250 133.5z" />
<glyph unicode="&#xe448;" d="M545 139q-32 27 -65 61l519 488l455 550q149 -123 215 -302t34.5 -366.5t-154.5 -336.5q-92 -112 -220 -177.5t-262 -78t-272 28t-250 133.5z" />
<glyph unicode="&#xe449;" d="M545 139q-53 44 -95 95l549 454l455 550q149 -123 215 -302t34.5 -366.5t-154.5 -336.5q-92 -112 -220 -177.5t-262 -78t-272 28t-250 133.5z" />
<glyph unicode="&#xe44a;" d="M545 139q-70 58 -122 130l576 419l455 550q149 -123 215 -302t34.5 -366.5t-154.5 -336.5q-92 -112 -220 -177.5t-262 -78t-272 28t-250 133.5z" />
<glyph unicode="&#xe44b;" d="M545 139q-88 73 -148 167l602 382l455 550q149 -123 215 -302t34.5 -366.5t-154.5 -336.5q-92 -112 -220 -177.5t-262 -78t-272 28t-250 133.5z" />
<glyph unicode="&#xe44c;" d="M545 139q-104 85 -170 206l624 343l455 550q149 -123 215 -302t34.5 -366.5t-154.5 -336.5q-92 -112 -220 -177.5t-262 -78t-272 28t-250 133.5z" />
<glyph unicode="&#xe44d;" d="M545 139q-124 102 -191 245l645 304l455 550q149 -123 215 -302t34.5 -366.5t-154.5 -336.5q-92 -112 -220 -177.5t-262 -78t-272 28t-250 133.5z" />
<glyph unicode="&#xe44e;" d="M545 139q-142 118 -209 287l663 262l455 550q149 -123 215 -302t34.5 -366.5t-154.5 -336.5q-92 -112 -220 -177.5t-262 -78t-272 28t-250 133.5z" />
<glyph unicode="&#xe44f;" d="M545 139q-158 131 -224 329l678 220l455 550q149 -123 215 -302t34.5 -366.5t-154.5 -336.5q-92 -112 -220 -177.5t-262 -78t-272 28t-250 133.5z" />
<glyph unicode="&#xe450;" d="M545 139q-179 148 -236 372l690 177l455 550q149 -123 215 -302t34.5 -366.5t-154.5 -336.5q-92 -112 -220 -177.5t-262 -78t-272 28t-250 133.5z" />
<glyph unicode="&#xe451;" d="M545 139q-198 164 -246 415l700 134l455 550q149 -123 215 -302t34.5 -366.5t-154.5 -336.5q-92 -112 -220 -177.5t-262 -78t-272 28t-250 133.5z" />
<glyph unicode="&#xe452;" d="M545 139q-108 89 -172 208t-81 252l707 89l455 550q149 -123 215 -302t34.5 -366.5t-154.5 -336.5q-92 -112 -220 -177.5t-262 -78t-272 28t-250 133.5z" />
<glyph unicode="&#xe453;" d="M545 139q-116 96 -182 227.5t-75 276.5l711 45l455 550q149 -123 215 -302t34.5 -366.5t-154.5 -336.5q-92 -112 -220 -177.5t-262 -78t-272 28t-250 133.5z" />
<glyph unicode="&#xe454;" d="M545 139q-126 104 -192.5 248t-66.5 301h713l455 550q149 -123 215 -302t34.5 -366.5t-154.5 -336.5q-92 -112 -220 -177.5t-262 -78t-272 28t-250 133.5z" />
<glyph unicode="&#xe455;" d="M545 139q-135 112 -201.5 269t-55.5 325l711 -45l455 550q149 -123 215 -302t34.5 -366.5t-154.5 -336.5q-92 -112 -220 -177.5t-262 -78t-272 28t-250 133.5z" />
<glyph unicode="&#xe456;" d="M545 139q-144 120 -209.5 289.5t-43.5 348.5l707 -89l455 550q149 -123 215 -302t34.5 -366.5t-154.5 -336.5q-92 -112 -220 -177.5t-262 -78t-272 28t-250 133.5z" />
<glyph unicode="&#xe457;" d="M545 139q-153 127 -217.5 310.5t-28.5 372.5l700 -134l455 550q149 -123 215 -302t34.5 -366.5t-154.5 -336.5q-92 -112 -220 -177.5t-262 -78t-272 28t-250 133.5z" />
<glyph unicode="&#xe458;" d="M545 139q-163 135 -225 332t-11 394l690 -177l455 550q149 -123 215 -302t34.5 -366.5t-154.5 -336.5q-92 -112 -220 -177.5t-262 -78t-272 28t-250 133.5z" />
<glyph unicode="&#xe459;" d="M545 139q-172 142 -232 355t8 414l678 -220l455 550q149 -123 215 -302t34.5 -366.5t-154.5 -336.5q-92 -112 -220 -177.5t-262 -78t-272 28t-250 133.5z" />
<glyph unicode="&#xe45a;" d="M545 139q-181 150 -237.5 376.5t28.5 434.5l663 -262l455 550q149 -123 215 -302t34.5 -366.5t-154.5 -336.5q-92 -112 -220 -177.5t-262 -78t-272 28t-250 133.5z" />
<glyph unicode="&#xe45b;" d="M545 139q-126 104 -193 249.5t-66.5 302.5t68.5 300l645 -303l455 550q149 -123 215 -302t34.5 -366.5t-154.5 -336.5q-92 -112 -220 -177.5t-262 -78t-272 28t-250 133.5z" />
<glyph unicode="&#xe45c;" d="M545 139q-132 109 -199 262.5t-59.5 318.5t87.5 310l625 -342l455 550q149 -123 215 -302t34.5 -366.5t-154.5 -336.5q-92 -112 -220 -177.5t-262 -78t-272 28t-250 133.5z" />
<glyph unicode="&#xe45d;" d="M545 139q-138 114 -204.5 275.5t-51.5 334t109 320.5l601 -381l455 550q149 -123 215 -302t34.5 -366.5t-154.5 -336.5q-92 -112 -220 -177.5t-262 -78t-272 28t-250 133.5z" />
<glyph unicode="&#xe45e;" d="M545 139q-144 119 -210 289t-43.5 349.5t130.5 328.5l577 -418l455 550q149 -123 215 -302t34.5 -366.5t-154.5 -336.5q-92 -112 -220 -177.5t-262 -78t-272 28t-250 133.5z" />
<glyph unicode="&#xe45f;" d="M450 1142l549 -454l455 550q149 -123 215 -302t34.5 -366.5t-154.5 -336.5q-92 -112 -220 -177.5t-262 -78t-272 28t-250 133.5q-150 123 -215.5 301t-34 365t154.5 337z" />
<glyph unicode="&#xe460;" d="M480 1175l519 -487l455 550q149 -123 215 -302t34.5 -366.5t-154.5 -336.5q-92 -112 -220 -177.5t-262 -78t-272 28t-250 133.5q-150 123 -215.5 301t-34 365t154.5 337z" />
<glyph unicode="&#xe461;" d="M511 1207l488 -519l455 550q149 -123 215 -302t34.5 -366.5t-154.5 -336.5q-92 -112 -220 -177.5t-262 -78t-272 28t-250 133.5q-150 123 -215.5 301t-34 365t154.5 337q19 23 61 65z" />
<glyph unicode="&#xe462;" d="M999 688l455 550q149 -123 215 -302t34.5 -366.5t-154.5 -336.5q-92 -112 -220 -177.5t-262 -78t-272 28t-250 133.5q-150 123 -215.5 301t-34 365t154.5 337q39 48 95 95z" />
<glyph unicode="&#xe463;" d="M999 688l455 550q149 -123 215 -302t34.5 -366.5t-154.5 -336.5q-92 -112 -220 -177.5t-262 -78t-272 28t-250 133.5q-150 123 -215.5 301t-34 365t154.5 337q58 70 130 122z" />
<glyph unicode="&#xe464;" d="M999 688l455 550q149 -123 215 -302t34.5 -366.5t-154.5 -336.5q-92 -112 -220 -177.5t-262 -78t-272 28t-250 133.5q-150 123 -215.5 301t-34 365t154.5 337q71 85 168 148z" />
<glyph unicode="&#xe465;" d="M999 688l455 550q149 -123 215 -302t34.5 -366.5t-154.5 -336.5q-92 -112 -220 -177.5t-262 -78t-272 28t-250 133.5q-150 123 -215.5 301t-34 365t154.5 337q88 105 206 170z" />
<glyph unicode="&#xe466;" d="M695 1333l304 -645l455 550q149 -123 215 -302t34.5 -366.5t-154.5 -336.5q-92 -112 -220 -177.5t-262 -78t-272 28t-250 133.5q-150 123 -215.5 301t-34 365t154.5 337q102 123 245 191z" />
<glyph unicode="&#xe467;" d="M736 1350l263 -662l455 550q149 -123 215 -302t34.5 -366.5t-154.5 -336.5q-92 -112 -220 -177.5t-262 -78t-272 28t-250 133.5q-150 123 -215.5 301t-34 365t154.5 337q116 140 286 208z" />
<glyph unicode="&#xe468;" d="M999 688l455 550q149 -123 215 -302t34.5 -366.5t-154.5 -336.5q-92 -112 -220 -177.5t-262 -78t-272 28t-250 133.5q-150 123 -215.5 301t-34 365t154.5 337q133 159 328 224z" />
<glyph unicode="&#xe469;" d="M822 1378l177 -690l455 550q149 -123 215 -302t34.5 -366.5t-154.5 -336.5q-92 -112 -220 -177.5t-262 -78t-272 28t-250 133.5q-150 123 -215.5 301t-34 365t154.5 337q149 179 372 236z" />
<glyph unicode="&#xe46a;" d="M999 688l455 550q149 -123 215 -302t34.5 -366.5t-154.5 -336.5q-92 -112 -220 -177.5t-262 -78t-272 28t-250 133.5q-150 123 -215.5 301t-34 365t154.5 337q164 198 415 246z" />
<glyph unicode="&#xe46b;" d="M999 688l455 550q149 -123 215 -302t34.5 -366.5t-154.5 -336.5q-92 -112 -220 -177.5t-262 -78t-272 28t-250 133.5q-150 123 -215.5 301t-34 365t154.5 337q89 107 208 171.5t252 81.5z" />
<glyph unicode="&#xe46c;" d="M955 1400l44 -712l455 550q149 -123 215 -302t34.5 -366.5t-154.5 -336.5q-92 -112 -220 -177.5t-262 -78t-272 28t-250 133.5q-150 123 -215.5 301t-34 365t154.5 337q96 116 228 182t277 76z" />
<glyph unicode="&#xe46d;" d="M999 1401v-713l455 550q149 -123 215 -302t34.5 -366.5t-154.5 -336.5q-92 -112 -220 -177.5t-262 -78t-272 28t-250 133.5q-150 123 -215.5 301t-34 365t154.5 337q104 125 248 191.5t301 67.5z" />
<glyph unicode="&#xe46e;" d="M999 688l489 520l31 -31z" />
<glyph unicode="&#xe46f;" d="M999 688l489 520q35 -34 62 -66z" />
<glyph unicode="&#xe470;" d="M999 688l489 520q45 -43 88 -100z" />
<glyph unicode="&#xe471;" d="M999 688l489 520q66 -63 114 -138z" />
<glyph unicode="&#xe472;" d="M999 688l489 520q80 -74 137 -176z" />
<glyph unicode="&#xe473;" d="M999 688l489 520q100 -94 157 -216z" />
<glyph unicode="&#xe474;" d="M1663 951l-664 -263l489 520q115 -108 175 -257z" />
<glyph unicode="&#xe475;" d="M999 688l489 520q133 -126 190 -299z" />
<glyph unicode="&#xe476;" d="M999 688l489 520q152 -143 202 -343z" />
<glyph unicode="&#xe477;" d="M999 688l489 520q169 -159 212 -386z" />
<glyph unicode="&#xe478;" d="M999 688l489 520q187 -177 219 -430z" />
<glyph unicode="&#xe479;" d="M999 688l489 520q101 -95 158 -218t65 -257z" />
<glyph unicode="&#xe47a;" d="M999 688l489 520q110 -103 167.5 -239t57.5 -281h-714z" />
<glyph unicode="&#xe47b;" d="M999 688l489 520q119 -111 176 -259.5t47 -305.5z" />
<glyph unicode="&#xe47c;" d="M999 688l489 520q127 -119 183.5 -280.5t35.5 -328.5z" />
<glyph unicode="&#xe47d;" d="M999 688l489 520q136 -128 191 -302.5t21 -351.5z" />
<glyph unicode="&#xe47e;" d="M999 688l489 520q145 -136 197.5 -324t4.5 -374z" />
<glyph unicode="&#xe47f;" d="M999 688l489 520q102 -96 159.5 -222t63.5 -256.5t-33 -262.5z" />
<glyph unicode="&#xe480;" d="M999 688l489 520q162 -152 208.5 -369.5t-33.5 -413.5z" />
<glyph unicode="&#xe481;" d="M999 688l489 520q113 -106 171 -247.5t54 -291t-68 -284.5z" />
<glyph unicode="&#xe482;" d="M999 688l489 520q119 -112 176.5 -262t47 -307t-86.5 -295z" />
<glyph unicode="&#xe483;" d="M999 688l489 520q124 -117 181.5 -275t39.5 -322.5t-107 -305.5z" />
<glyph unicode="&#xe484;" d="M999 688l489 520q130 -122 186.5 -288t30.5 -338t-129 -314z" />
<glyph unicode="&#xe485;" d="M999 688l489 520q136 -127 191.5 -301.5t21.5 -353t-152 -320.5z" />
<glyph unicode="&#xe486;" d="M999 688l489 520q141 -132 195.5 -314.5t11.5 -368t-176 -326.5z" />
<glyph unicode="&#xe487;" d="M999 688l489 520q141 -132 195.5 -314.5t11.5 -368t-176 -326.5q-15 -17 -32 -32z" />
<glyph unicode="&#xe488;" d="M999 688l489 520q141 -132 195.5 -314.5t11.5 -368t-176 -326.5q-27 -29 -65 -61z" />
<glyph unicode="&#xe489;" d="M999 688l489 520q141 -132 195.5 -314.5t11.5 -368t-176 -326.5q-47 -50 -101 -89z" />
<glyph unicode="&#xe48a;" d="M999 688l489 520q141 -132 195.5 -314.5t11.5 -368t-176 -326.5q-63 -67 -138 -114z" />
<glyph unicode="&#xe48b;" d="M1343 62l-344 626l489 520q141 -132 195.5 -314.5t11.5 -368t-176 -326.5q-77 -83 -176 -137z" />
<glyph unicode="&#xe48c;" d="M999 688l489 520q141 -132 195.5 -314.5t11.5 -368t-176 -326.5q-91 -99 -216 -157z" />
<glyph unicode="&#xe48d;" d="M999 688l489 520q141 -132 195.5 -314.5t11.5 -368t-176 -326.5q-110 -118 -257 -175z" />
<glyph unicode="&#xe48e;" d="M999 688l489 520q141 -132 195.5 -314.5t11.5 -368t-176 -326.5q-124 -133 -299 -190z" />
<glyph unicode="&#xe48f;" d="M999 688l489 520q141 -132 195.5 -314.5t11.5 -368t-176 -326.5q-141 -151 -343 -202z" />
<glyph unicode="&#xe490;" d="M999 688l489 520q141 -132 195.5 -314.5t11.5 -368t-176 -326.5q-159 -169 -386 -212z" />
<glyph unicode="&#xe491;" d="M999 688l489 520q141 -132 195.5 -314.5t11.5 -368t-176 -326.5q-175 -187 -430 -219z" />
<glyph unicode="&#xe492;" d="M1044 -24l-45 712l489 520q141 -132 195.5 -314.5t11.5 -368t-176 -326.5q-95 -101 -218 -158t-257 -65z" />
<glyph unicode="&#xe493;" d="M999 688l489 520q141 -132 195.5 -314.5t11.5 -368t-176 -326.5q-103 -110 -239 -167.5t-281 -56.5v713z" />
<glyph unicode="&#xe494;" d="M999 688l489 520q141 -132 195.5 -314.5t11.5 -368t-176 -326.5q-111 -119 -259.5 -176t-305.5 -47z" />
<glyph unicode="&#xe495;" d="M910 -19l89 707l489 520q141 -132 195.5 -314.5t11.5 -368t-176 -326.5q-119 -127 -280.5 -183t-328.5 -35z" />
<glyph unicode="&#xe496;" d="M865 -12l134 700l489 520q141 -132 195.5 -314.5t11.5 -368t-176 -326.5q-128 -136 -302.5 -190.5t-351.5 -20.5z" />
<glyph unicode="&#xe497;" d="M821 -2l178 690l489 520q141 -132 195.5 -314.5t11.5 -368t-176 -326.5q-136 -145 -324 -197.5t-374 -3.5z" />
<glyph unicode="&#xe498;" d="M778 10l221 678l489 520q141 -132 195.5 -314.5t11.5 -368t-176 -326.5q-96 -102 -222 -160t-256.5 -63.5t-262.5 34.5z" />
<glyph unicode="&#xe499;" d="M737 25l262 663l489 520q141 -132 195.5 -314.5t11.5 -368t-176 -326.5q-76 -81 -172 -134.5t-197.5 -74.5t-207.5 -12.5t-205 47.5z" />
<glyph unicode="&#xe49a;" d="M696 43l303 645l489 520q141 -132 195.5 -314.5t11.5 -368t-176 -326.5q-107 -113 -248 -171t-290 -53.5t-285 68.5z" />
<glyph unicode="&#xe49b;" d="M655 64l344 624l489 520q141 -132 195.5 -314.5t11.5 -368t-176 -326.5q-112 -119 -261.5 -176.5t-306.5 -46.5t-296 88z" />
<glyph unicode="&#xe49c;" d="M617 86l382 602l489 520q141 -132 195.5 -314.5t11.5 -368t-176 -326.5q-117 -125 -274.5 -182t-322 -38.5t-305.5 107.5z" />
<glyph unicode="&#xe49d;" d="M580 112l419 576l489 520q141 -132 195.5 -314.5t11.5 -368t-176 -326.5q-122 -130 -288 -186.5t-337.5 -30t-313.5 129.5z" />
<glyph unicode="&#xe49e;" d="M545 139l454 549l489 520q141 -132 195.5 -314.5t11.5 -368t-176 -326.5q-127 -136 -301 -191t-352.5 -20.5t-320.5 151.5z" />
<glyph unicode="&#xe49f;" d="M511 169l977 1039q141 -132 195.5 -314.5t11.5 -368t-176 -326.5q-132 -141 -314 -195t-367 -11t-327 176z" />
<glyph unicode="&#xe4a0;" d="M511 169q-11 10 -31 32l519 487l489 520q141 -132 195.5 -314.5t11.5 -368t-176 -326.5q-132 -141 -314 -195t-367 -11t-327 176z" />
<glyph unicode="&#xe4a1;" d="M511 169q-29 27 -61 65l549 454l489 520q141 -132 195.5 -314.5t11.5 -368t-176 -326.5q-132 -141 -314 -195t-367 -11t-327 176z" />
<glyph unicode="&#xe4a2;" d="M511 169q-45 43 -88 100l576 419l489 520q141 -132 195.5 -314.5t11.5 -368t-176 -326.5q-132 -141 -314 -195t-367 -11t-327 176z" />
<glyph unicode="&#xe4a3;" d="M511 169q-66 63 -113 137l601 382l489 520q141 -132 195.5 -314.5t11.5 -368t-176 -326.5q-132 -141 -314 -195t-367 -11t-327 176z" />
<glyph unicode="&#xe4a4;" d="M511 169q-80 74 -137 176l625 343l489 520q141 -132 195.5 -314.5t11.5 -368t-176 -326.5q-132 -141 -314 -195t-367 -11t-327 176z" />
<glyph unicode="&#xe4a5;" d="M511 169q-100 94 -157 216l645 303l489 520q141 -132 195.5 -314.5t11.5 -368t-176 -326.5q-132 -141 -314 -195t-367 -11t-327 176z" />
<glyph unicode="&#xe4a6;" d="M511 169q-115 108 -175 256l663 263l489 520q141 -132 195.5 -314.5t11.5 -368t-176 -326.5q-132 -141 -314 -195t-367 -11t-327 176z" />
<glyph unicode="&#xe4a7;" d="M511 169q-134 127 -190 299l678 220l489 520q141 -132 195.5 -314.5t11.5 -368t-176 -326.5q-132 -141 -314 -195t-367 -11t-327 176z" />
<glyph unicode="&#xe4a8;" d="M511 169q-152 143 -202 342l690 177l489 520q141 -132 195.5 -314.5t11.5 -368t-176 -326.5q-132 -141 -314 -195t-367 -11t-327 176z" />
</font>
</defs>
</svg>
